<svg width="393" height="4519" viewBox="0 0 393 4519" fill="none" xmlns="http://www.w3.org/2000/svg">
    <rect width="393" height="5180" fill="#232439"/>
    <path fill-rule="evenodd" clip-rule="evenodd" d="M156 69H-164V349H156V69ZM155.5 69.5H116.5V108.5H155.5V69.5ZM115.5 69.5H76.5V108.5H115.5V69.5ZM36.5 69.5H75.5V108.5H36.5V69.5ZM35.5 69.5H-3.5V108.5H35.5V69.5ZM-43.5 69.5H-4.5V108.5H-43.5V69.5ZM-44.5 69.5H-83.5V108.5H-44.5V69.5ZM-123.5 69.5H-84.5V108.5H-123.5V69.5ZM-124.5 69.5H-163.5V108.5H-124.5V69.5ZM116.5 109.5H155.5V148.5H116.5V109.5ZM115.5 109.5H76.5V148.5H115.5V109.5ZM36.5 109.5H75.5V148.5H36.5V109.5ZM35.5 109.5H-3.5V148.5H35.5V109.5ZM-43.5 109.5H-4.5V148.5H-43.5V109.5ZM-44.5 109.5H-83.5V148.5H-44.5V109.5ZM-123.5 109.5H-84.5V148.5H-123.5V109.5ZM-124.5 109.5H-163.5V148.5H-124.5V109.5ZM116.5 149.5H155.5V188.5H116.5V149.5ZM115.5 149.5H76.5V188.5H115.5V149.5ZM36.5 149.5H75.5V188.5H36.5V149.5ZM35.5 149.5H-3.5V188.5H35.5V149.5ZM-43.5 149.5H-4.5V188.5H-43.5V149.5ZM-44.5 149.5H-83.5V188.5H-44.5V149.5ZM-123.5 149.5H-84.5V188.5H-123.5V149.5ZM-124.5 149.5H-163.5V188.5H-124.5V149.5ZM116.5 189.5H155.5V228.5H116.5V189.5ZM115.5 189.5H76.5V228.5H115.5V189.5ZM36.5 189.5H75.5V228.5H36.5V189.5ZM35.5 189.5H-3.5V228.5H35.5V189.5ZM-43.5 189.5H-4.5V228.5H-43.5V189.5ZM-44.5 189.5H-83.5V228.5H-44.5V189.5ZM-123.5 189.5H-84.5V228.5H-123.5V189.5ZM-124.5 189.5H-163.5V228.5H-124.5V189.5ZM116.5 229.5H155.5V268.5H116.5V229.5ZM115.5 229.5H76.5V268.5H115.5V229.5ZM36.5 229.5H75.5V268.5H36.5V229.5ZM35.5 229.5H-3.5V268.5H35.5V229.5ZM-43.5 229.5H-4.5V268.5H-43.5V229.5ZM-44.5 229.5H-83.5V268.5H-44.5V229.5ZM-123.5 229.5H-84.5V268.5H-123.5V229.5ZM-124.5 229.5H-163.5V268.5H-124.5V229.5ZM116.5 269.5H155.5V308.5H116.5V269.5ZM115.5 269.5H76.5V308.5H115.5V269.5ZM36.5 269.5H75.5V308.5H36.5V269.5ZM35.5 269.5H-3.5V308.5H35.5V269.5ZM-43.5 269.5H-4.5V308.5H-43.5V269.5ZM-44.5 269.5H-83.5V308.5H-44.5V269.5ZM-123.5 269.5H-84.5V308.5H-123.5V269.5ZM-124.5 269.5H-163.5V308.5H-124.5V269.5ZM116.5 309.5H155.5V348.5H116.5V309.5ZM115.5 309.5H76.5V348.5H115.5V309.5ZM36.5 309.5H75.5V348.5H36.5V309.5ZM35.5 309.5H-3.5V348.5H35.5V309.5ZM-43.5 309.5H-4.5V348.5H-43.5V309.5ZM-44.5 309.5H-83.5V348.5H-44.5V309.5ZM-123.5 309.5H-84.5V348.5H-123.5V309.5ZM-124.5 309.5H-163.5V348.5H-124.5V309.5Z" fill="url(#paint0_linear_2_625)"/>
    <path fill-rule="evenodd" clip-rule="evenodd" d="M156 349H-164V629H156V349ZM155.5 349.5H116.5V388.5H155.5V349.5ZM115.5 349.5H76.5V388.5H115.5V349.5ZM36.5 349.5H75.5V388.5H36.5V349.5ZM35.5 349.5H-3.5V388.5H35.5V349.5ZM-43.5 349.5H-4.5V388.5H-43.5V349.5ZM-44.5 349.5H-83.5V388.5H-44.5V349.5ZM-123.5 349.5H-84.5V388.5H-123.5V349.5ZM-124.5 349.5H-163.5V388.5H-124.5V349.5ZM116.5 389.5H155.5V428.5H116.5V389.5ZM115.5 389.5H76.5V428.5H115.5V389.5ZM36.5 389.5H75.5V428.5H36.5V389.5ZM35.5 389.5H-3.5V428.5H35.5V389.5ZM-43.5 389.5H-4.5V428.5H-43.5V389.5ZM-44.5 389.5H-83.5V428.5H-44.5V389.5ZM-123.5 389.5H-84.5V428.5H-123.5V389.5ZM-124.5 389.5H-163.5V428.5H-124.5V389.5ZM116.5 429.5H155.5V468.5H116.5V429.5ZM115.5 429.5H76.5V468.5H115.5V429.5ZM36.5 429.5H75.5V468.5H36.5V429.5ZM35.5 429.5H-3.5V468.5H35.5V429.5ZM-43.5 429.5H-4.5V468.5H-43.5V429.5ZM-44.5 429.5H-83.5V468.5H-44.5V429.5ZM-123.5 429.5H-84.5V468.5H-123.5V429.5ZM-124.5 429.5H-163.5V468.5H-124.5V429.5ZM116.5 469.5H155.5V508.5H116.5V469.5ZM115.5 469.5H76.5V508.5H115.5V469.5ZM36.5 469.5H75.5V508.5H36.5V469.5ZM35.5 469.5H-3.5V508.5H35.5V469.5ZM-43.5 469.5H-4.5V508.5H-43.5V469.5ZM-44.5 469.5H-83.5V508.5H-44.5V469.5ZM-123.5 469.5H-84.5V508.5H-123.5V469.5ZM-124.5 469.5H-163.5V508.5H-124.5V469.5ZM116.5 509.5H155.5V548.5H116.5V509.5ZM115.5 509.5H76.5V548.5H115.5V509.5ZM36.5 509.5H75.5V548.5H36.5V509.5ZM35.5 509.5H-3.5V548.5H35.5V509.5ZM-43.5 509.5H-4.5V548.5H-43.5V509.5ZM-44.5 509.5H-83.5V548.5H-44.5V509.5ZM-123.5 509.5H-84.5V548.5H-123.5V509.5ZM-124.5 509.5H-163.5V548.5H-124.5V509.5ZM116.5 549.5H155.5V588.5H116.5V549.5ZM115.5 549.5H76.5V588.5H115.5V549.5ZM36.5 549.5H75.5V588.5H36.5V549.5ZM35.5 549.5H-3.5V588.5H35.5V549.5ZM-43.5 549.5H-4.5V588.5H-43.5V549.5ZM-44.5 549.5H-83.5V588.5H-44.5V549.5ZM-123.5 549.5H-84.5V588.5H-123.5V549.5ZM-124.5 549.5H-163.5V588.5H-124.5V549.5ZM116.5 589.5H155.5V628.5H116.5V589.5ZM115.5 589.5H76.5V628.5H115.5V589.5ZM36.5 589.5H75.5V628.5H36.5V589.5ZM35.5 589.5H-3.5V628.5H35.5V589.5ZM-43.5 589.5H-4.5V628.5H-43.5V589.5ZM-44.5 589.5H-83.5V628.5H-44.5V589.5ZM-123.5 589.5H-84.5V628.5H-123.5V589.5ZM-124.5 589.5H-163.5V628.5H-124.5V589.5Z" fill="url(#paint1_linear_2_625)"/>
    <path fill-rule="evenodd" clip-rule="evenodd" d="M156 629H-164V909H156V629ZM155.5 629.5H116.5V668.5H155.5V629.5ZM115.5 629.5H76.5V668.5H115.5V629.5ZM36.5 629.5H75.5V668.5H36.5V629.5ZM35.5 629.5H-3.5V668.5H35.5V629.5ZM-43.5 629.5H-4.5V668.5H-43.5V629.5ZM-44.5 629.5H-83.5V668.5H-44.5V629.5ZM-123.5 629.5H-84.5V668.5H-123.5V629.5ZM-124.5 629.5H-163.5V668.5H-124.5V629.5ZM116.5 669.5H155.5V708.5H116.5V669.5ZM115.5 669.5H76.5V708.5H115.5V669.5ZM36.5 669.5H75.5V708.5H36.5V669.5ZM35.5 669.5H-3.5V708.5H35.5V669.5ZM-43.5 669.5H-4.5V708.5H-43.5V669.5ZM-44.5 669.5H-83.5V708.5H-44.5V669.5ZM-123.5 669.5H-84.5V708.5H-123.5V669.5ZM-124.5 669.5H-163.5V708.5H-124.5V669.5ZM116.5 709.5H155.5V748.5H116.5V709.5ZM115.5 709.5H76.5V748.5H115.5V709.5ZM36.5 709.5H75.5V748.5H36.5V709.5ZM35.5 709.5H-3.5V748.5H35.5V709.5ZM-43.5 709.5H-4.5V748.5H-43.5V709.5ZM-44.5 709.5H-83.5V748.5H-44.5V709.5ZM-123.5 709.5H-84.5V748.5H-123.5V709.5ZM-124.5 709.5H-163.5V748.5H-124.5V709.5ZM116.5 749.5H155.5V788.5H116.5V749.5ZM115.5 749.5H76.5V788.5H115.5V749.5ZM36.5 749.5H75.5V788.5H36.5V749.5ZM35.5 749.5H-3.5V788.5H35.5V749.5ZM-43.5 749.5H-4.5V788.5H-43.5V749.5ZM-44.5 749.5H-83.5V788.5H-44.5V749.5ZM-123.5 749.5H-84.5V788.5H-123.5V749.5ZM-124.5 749.5H-163.5V788.5H-124.5V749.5ZM116.5 789.5H155.5V828.5H116.5V789.5ZM115.5 789.5H76.5V828.5H115.5V789.5ZM36.5 789.5H75.5V828.5H36.5V789.5ZM35.5 789.5H-3.5V828.5H35.5V789.5ZM-43.5 789.5H-4.5V828.5H-43.5V789.5ZM-44.5 789.5H-83.5V828.5H-44.5V789.5ZM-123.5 789.5H-84.5V828.5H-123.5V789.5ZM-124.5 789.5H-163.5V828.5H-124.5V789.5ZM116.5 829.5H155.5V868.5H116.5V829.5ZM115.5 829.5H76.5V868.5H115.5V829.5ZM36.5 829.5H75.5V868.5H36.5V829.5ZM35.5 829.5H-3.5V868.5H35.5V829.5ZM-43.5 829.5H-4.5V868.5H-43.5V829.5ZM-44.5 829.5H-83.5V868.5H-44.5V829.5ZM-123.5 829.5H-84.5V868.5H-123.5V829.5ZM-124.5 829.5H-163.5V868.5H-124.5V829.5ZM116.5 869.5H155.5V908.5H116.5V869.5ZM115.5 869.5H76.5V908.5H115.5V869.5ZM36.5 869.5H75.5V908.5H36.5V869.5ZM35.5 869.5H-3.5V908.5H35.5V869.5ZM-43.5 869.5H-4.5V908.5H-43.5V869.5ZM-44.5 869.5H-83.5V908.5H-44.5V869.5ZM-123.5 869.5H-84.5V908.5H-123.5V869.5ZM-124.5 869.5H-163.5V908.5H-124.5V869.5Z" fill="url(#paint2_linear_2_625)"/>
    <path fill-rule="evenodd" clip-rule="evenodd" d="M156 909H-164V1189H156V909ZM155.5 909.5H116.5V948.5H155.5V909.5ZM115.5 909.5H76.5V948.5H115.5V909.5ZM36.5 909.5H75.5V948.5H36.5V909.5ZM35.5 909.5H-3.5V948.5H35.5V909.5ZM-43.5 909.5H-4.5V948.5H-43.5V909.5ZM-44.5 909.5H-83.5V948.5H-44.5V909.5ZM-123.5 909.5H-84.5V948.5H-123.5V909.5ZM-124.5 909.5H-163.5V948.5H-124.5V909.5ZM116.5 949.5H155.5V988.5H116.5V949.5ZM115.5 949.5H76.5V988.5H115.5V949.5ZM36.5 949.5H75.5V988.5H36.5V949.5ZM35.5 949.5H-3.5V988.5H35.5V949.5ZM-43.5 949.5H-4.5V988.5H-43.5V949.5ZM-44.5 949.5H-83.5V988.5H-44.5V949.5ZM-123.5 949.5H-84.5V988.5H-123.5V949.5ZM-124.5 949.5H-163.5V988.5H-124.5V949.5ZM116.5 989.5H155.5V1028.5H116.5V989.5ZM115.5 989.5H76.5V1028.5H115.5V989.5ZM36.5 989.5H75.5V1028.5H36.5V989.5ZM35.5 989.5H-3.5V1028.5H35.5V989.5ZM-43.5 989.5H-4.5V1028.5H-43.5V989.5ZM-44.5 989.5H-83.5V1028.5H-44.5V989.5ZM-123.5 989.5H-84.5V1028.5H-123.5V989.5ZM-124.5 989.5H-163.5V1028.5H-124.5V989.5ZM116.5 1029.5H155.5V1068.5H116.5V1029.5ZM115.5 1029.5H76.5V1068.5H115.5V1029.5ZM36.5 1029.5H75.5V1068.5H36.5V1029.5ZM35.5 1029.5H-3.5V1068.5H35.5V1029.5ZM-43.5 1029.5H-4.5V1068.5H-43.5V1029.5ZM-44.5 1029.5H-83.5V1068.5H-44.5V1029.5ZM-123.5 1029.5H-84.5V1068.5H-123.5V1029.5ZM-124.5 1029.5H-163.5V1068.5H-124.5V1029.5ZM116.5 1069.5H155.5V1108.5H116.5V1069.5ZM115.5 1069.5H76.5V1108.5H115.5V1069.5ZM36.5 1069.5H75.5V1108.5H36.5V1069.5ZM35.5 1069.5H-3.5V1108.5H35.5V1069.5ZM-43.5 1069.5H-4.5V1108.5H-43.5V1069.5ZM-44.5 1069.5H-83.5V1108.5H-44.5V1069.5ZM-123.5 1069.5H-84.5V1108.5H-123.5V1069.5ZM-124.5 1069.5H-163.5V1108.5H-124.5V1069.5ZM116.5 1109.5H155.5V1148.5H116.5V1109.5ZM115.5 1109.5H76.5V1148.5H115.5V1109.5ZM36.5 1109.5H75.5V1148.5H36.5V1109.5ZM35.5 1109.5H-3.5V1148.5H35.5V1109.5ZM-43.5 1109.5H-4.5V1148.5H-43.5V1109.5ZM-44.5 1109.5H-83.5V1148.5H-44.5V1109.5ZM-123.5 1109.5H-84.5V1148.5H-123.5V1109.5ZM-124.5 1109.5H-163.5V1148.5H-124.5V1109.5ZM116.5 1149.5H155.5V1188.5H116.5V1149.5ZM115.5 1149.5H76.5V1188.5H115.5V1149.5ZM36.5 1149.5H75.5V1188.5H36.5V1149.5ZM35.5 1149.5H-3.5V1188.5H35.5V1149.5ZM-43.5 1149.5H-4.5V1188.5H-43.5V1149.5ZM-44.5 1149.5H-83.5V1188.5H-44.5V1149.5ZM-123.5 1149.5H-84.5V1188.5H-123.5V1149.5ZM-124.5 1149.5H-163.5V1188.5H-124.5V1149.5Z" fill="url(#paint3_linear_2_625)"/>
    <path fill-rule="evenodd" clip-rule="evenodd" d="M156 1189H-164V1469H156V1189ZM155.5 1189.5H116.5V1228.5H155.5V1189.5ZM115.5 1189.5H76.5V1228.5H115.5V1189.5ZM36.5 1189.5H75.5V1228.5H36.5V1189.5ZM35.5 1189.5H-3.5V1228.5H35.5V1189.5ZM-43.5 1189.5H-4.5V1228.5H-43.5V1189.5ZM-44.5 1189.5H-83.5V1228.5H-44.5V1189.5ZM-123.5 1189.5H-84.5V1228.5H-123.5V1189.5ZM-124.5 1189.5H-163.5V1228.5H-124.5V1189.5ZM116.5 1229.5H155.5V1268.5H116.5V1229.5ZM115.5 1229.5H76.5V1268.5H115.5V1229.5ZM36.5 1229.5H75.5V1268.5H36.5V1229.5ZM35.5 1229.5H-3.5V1268.5H35.5V1229.5ZM-43.5 1229.5H-4.5V1268.5H-43.5V1229.5ZM-44.5 1229.5H-83.5V1268.5H-44.5V1229.5ZM-123.5 1229.5H-84.5V1268.5H-123.5V1229.5ZM-124.5 1229.5H-163.5V1268.5H-124.5V1229.5ZM116.5 1269.5H155.5V1308.5H116.5V1269.5ZM115.5 1269.5H76.5V1308.5H115.5V1269.5ZM36.5 1269.5H75.5V1308.5H36.5V1269.5ZM35.5 1269.5H-3.5V1308.5H35.5V1269.5ZM-43.5 1269.5H-4.5V1308.5H-43.5V1269.5ZM-44.5 1269.5H-83.5V1308.5H-44.5V1269.5ZM-123.5 1269.5H-84.5V1308.5H-123.5V1269.5ZM-124.5 1269.5H-163.5V1308.5H-124.5V1269.5ZM116.5 1309.5H155.5V1348.5H116.5V1309.5ZM115.5 1309.5H76.5V1348.5H115.5V1309.5ZM36.5 1309.5H75.5V1348.5H36.5V1309.5ZM35.5 1309.5H-3.5V1348.5H35.5V1309.5ZM-43.5 1309.5H-4.5V1348.5H-43.5V1309.5ZM-44.5 1309.5H-83.5V1348.5H-44.5V1309.5ZM-123.5 1309.5H-84.5V1348.5H-123.5V1309.5ZM-124.5 1309.5H-163.5V1348.5H-124.5V1309.5ZM116.5 1349.5H155.5V1388.5H116.5V1349.5ZM115.5 1349.5H76.5V1388.5H115.5V1349.5ZM36.5 1349.5H75.5V1388.5H36.5V1349.5ZM35.5 1349.5H-3.5V1388.5H35.5V1349.5ZM-43.5 1349.5H-4.5V1388.5H-43.5V1349.5ZM-44.5 1349.5H-83.5V1388.5H-44.5V1349.5ZM-123.5 1349.5H-84.5V1388.5H-123.5V1349.5ZM-124.5 1349.5H-163.5V1388.5H-124.5V1349.5ZM116.5 1389.5H155.5V1428.5H116.5V1389.5ZM115.5 1389.5H76.5V1428.5H115.5V1389.5ZM36.5 1389.5H75.5V1428.5H36.5V1389.5ZM35.5 1389.5H-3.5V1428.5H35.5V1389.5ZM-43.5 1389.5H-4.5V1428.5H-43.5V1389.5ZM-44.5 1389.5H-83.5V1428.5H-44.5V1389.5ZM-123.5 1389.5H-84.5V1428.5H-123.5V1389.5ZM-124.5 1389.5H-163.5V1428.5H-124.5V1389.5ZM116.5 1429.5H155.5V1468.5H116.5V1429.5ZM115.5 1429.5H76.5V1468.5H115.5V1429.5ZM36.5 1429.5H75.5V1468.5H36.5V1429.5ZM35.5 1429.5H-3.5V1468.5H35.5V1429.5ZM-43.5 1429.5H-4.5V1468.5H-43.5V1429.5ZM-44.5 1429.5H-83.5V1468.5H-44.5V1429.5ZM-123.5 1429.5H-84.5V1468.5H-123.5V1429.5ZM-124.5 1429.5H-163.5V1468.5H-124.5V1429.5Z" fill="url(#paint4_linear_2_625)"/>
    <path fill-rule="evenodd" clip-rule="evenodd" d="M156 1469H-164V1749H156V1469ZM155.5 1469.5H116.5V1508.5H155.5V1469.5ZM115.5 1469.5H76.5V1508.5H115.5V1469.5ZM36.5 1469.5H75.5V1508.5H36.5V1469.5ZM35.5 1469.5H-3.5V1508.5H35.5V1469.5ZM-43.5 1469.5H-4.5V1508.5H-43.5V1469.5ZM-44.5 1469.5H-83.5V1508.5H-44.5V1469.5ZM-123.5 1469.5H-84.5V1508.5H-123.5V1469.5ZM-124.5 1469.5H-163.5V1508.5H-124.5V1469.5ZM116.5 1509.5H155.5V1548.5H116.5V1509.5ZM115.5 1509.5H76.5V1548.5H115.5V1509.5ZM36.5 1509.5H75.5V1548.5H36.5V1509.5ZM35.5 1509.5H-3.5V1548.5H35.5V1509.5ZM-43.5 1509.5H-4.5V1548.5H-43.5V1509.5ZM-44.5 1509.5H-83.5V1548.5H-44.5V1509.5ZM-123.5 1509.5H-84.5V1548.5H-123.5V1509.5ZM-124.5 1509.5H-163.5V1548.5H-124.5V1509.5ZM116.5 1549.5H155.5V1588.5H116.5V1549.5ZM115.5 1549.5H76.5V1588.5H115.5V1549.5ZM36.5 1549.5H75.5V1588.5H36.5V1549.5ZM35.5 1549.5H-3.5V1588.5H35.5V1549.5ZM-43.5 1549.5H-4.5V1588.5H-43.5V1549.5ZM-44.5 1549.5H-83.5V1588.5H-44.5V1549.5ZM-123.5 1549.5H-84.5V1588.5H-123.5V1549.5ZM-124.5 1549.5H-163.5V1588.5H-124.5V1549.5ZM116.5 1589.5H155.5V1628.5H116.5V1589.5ZM115.5 1589.5H76.5V1628.5H115.5V1589.5ZM36.5 1589.5H75.5V1628.5H36.5V1589.5ZM35.5 1589.5H-3.5V1628.5H35.5V1589.5ZM-43.5 1589.5H-4.5V1628.5H-43.5V1589.5ZM-44.5 1589.5H-83.5V1628.5H-44.5V1589.5ZM-123.5 1589.5H-84.5V1628.5H-123.5V1589.5ZM-124.5 1589.5H-163.5V1628.5H-124.5V1589.5ZM116.5 1629.5H155.5V1668.5H116.5V1629.5ZM115.5 1629.5H76.5V1668.5H115.5V1629.5ZM36.5 1629.5H75.5V1668.5H36.5V1629.5ZM35.5 1629.5H-3.5V1668.5H35.5V1629.5ZM-43.5 1629.5H-4.5V1668.5H-43.5V1629.5ZM-44.5 1629.5H-83.5V1668.5H-44.5V1629.5ZM-123.5 1629.5H-84.5V1668.5H-123.5V1629.5ZM-124.5 1629.5H-163.5V1668.5H-124.5V1629.5ZM116.5 1669.5H155.5V1708.5H116.5V1669.5ZM115.5 1669.5H76.5V1708.5H115.5V1669.5ZM36.5 1669.5H75.5V1708.5H36.5V1669.5ZM35.5 1669.5H-3.5V1708.5H35.5V1669.5ZM-43.5 1669.5H-4.5V1708.5H-43.5V1669.5ZM-44.5 1669.5H-83.5V1708.5H-44.5V1669.5ZM-123.5 1669.5H-84.5V1708.5H-123.5V1669.5ZM-124.5 1669.5H-163.5V1708.5H-124.5V1669.5ZM116.5 1709.5H155.5V1748.5H116.5V1709.5ZM115.5 1709.5H76.5V1748.5H115.5V1709.5ZM36.5 1709.5H75.5V1748.5H36.5V1709.5ZM35.5 1709.5H-3.5V1748.5H35.5V1709.5ZM-43.5 1709.5H-4.5V1748.5H-43.5V1709.5ZM-44.5 1709.5H-83.5V1748.5H-44.5V1709.5ZM-123.5 1709.5H-84.5V1748.5H-123.5V1709.5ZM-124.5 1709.5H-163.5V1748.5H-124.5V1709.5Z" fill="url(#paint5_linear_2_625)"/>
    <path fill-rule="evenodd" clip-rule="evenodd" d="M156 1749H-164V2029H156V1749ZM155.5 1749.5H116.5V1788.5H155.5V1749.5ZM115.5 1749.5H76.5V1788.5H115.5V1749.5ZM36.5 1749.5H75.5V1788.5H36.5V1749.5ZM35.5 1749.5H-3.5V1788.5H35.5V1749.5ZM-43.5 1749.5H-4.5V1788.5H-43.5V1749.5ZM-44.5 1749.5H-83.5V1788.5H-44.5V1749.5ZM-123.5 1749.5H-84.5V1788.5H-123.5V1749.5ZM-124.5 1749.5H-163.5V1788.5H-124.5V1749.5ZM116.5 1789.5H155.5V1828.5H116.5V1789.5ZM115.5 1789.5H76.5V1828.5H115.5V1789.5ZM36.5 1789.5H75.5V1828.5H36.5V1789.5ZM35.5 1789.5H-3.5V1828.5H35.5V1789.5ZM-43.5 1789.5H-4.5V1828.5H-43.5V1789.5ZM-44.5 1789.5H-83.5V1828.5H-44.5V1789.5ZM-123.5 1789.5H-84.5V1828.5H-123.5V1789.5ZM-124.5 1789.5H-163.5V1828.5H-124.5V1789.5ZM116.5 1829.5H155.5V1868.5H116.5V1829.5ZM115.5 1829.5H76.5V1868.5H115.5V1829.5ZM36.5 1829.5H75.5V1868.5H36.5V1829.5ZM35.5 1829.5H-3.5V1868.5H35.5V1829.5ZM-43.5 1829.5H-4.5V1868.5H-43.5V1829.5ZM-44.5 1829.5H-83.5V1868.5H-44.5V1829.5ZM-123.5 1829.5H-84.5V1868.5H-123.5V1829.5ZM-124.5 1829.5H-163.5V1868.5H-124.5V1829.5ZM116.5 1869.5H155.5V1908.5H116.5V1869.5ZM115.5 1869.5H76.5V1908.5H115.5V1869.5ZM36.5 1869.5H75.5V1908.5H36.5V1869.5ZM35.5 1869.5H-3.5V1908.5H35.5V1869.5ZM-43.5 1869.5H-4.5V1908.5H-43.5V1869.5ZM-44.5 1869.5H-83.5V1908.5H-44.5V1869.5ZM-123.5 1869.5H-84.5V1908.5H-123.5V1869.5ZM-124.5 1869.5H-163.5V1908.5H-124.5V1869.5ZM116.5 1909.5H155.5V1948.5H116.5V1909.5ZM115.5 1909.5H76.5V1948.5H115.5V1909.5ZM36.5 1909.5H75.5V1948.5H36.5V1909.5ZM35.5 1909.5H-3.5V1948.5H35.5V1909.5ZM-43.5 1909.5H-4.5V1948.5H-43.5V1909.5ZM-44.5 1909.5H-83.5V1948.5H-44.5V1909.5ZM-123.5 1909.5H-84.5V1948.5H-123.5V1909.5ZM-124.5 1909.5H-163.5V1948.5H-124.5V1909.5ZM116.5 1949.5H155.5V1988.5H116.5V1949.5ZM115.5 1949.5H76.5V1988.5H115.5V1949.5ZM36.5 1949.5H75.5V1988.5H36.5V1949.5ZM35.5 1949.5H-3.5V1988.5H35.5V1949.5ZM-43.5 1949.5H-4.5V1988.5H-43.5V1949.5ZM-44.5 1949.5H-83.5V1988.5H-44.5V1949.5ZM-123.5 1949.5H-84.5V1988.5H-123.5V1949.5ZM-124.5 1949.5H-163.5V1988.5H-124.5V1949.5ZM116.5 1989.5H155.5V2028.5H116.5V1989.5ZM115.5 1989.5H76.5V2028.5H115.5V1989.5ZM36.5 1989.5H75.5V2028.5H36.5V1989.5ZM35.5 1989.5H-3.5V2028.5H35.5V1989.5ZM-43.5 1989.5H-4.5V2028.5H-43.5V1989.5ZM-44.5 1989.5H-83.5V2028.5H-44.5V1989.5ZM-123.5 1989.5H-84.5V2028.5H-123.5V1989.5ZM-124.5 1989.5H-163.5V2028.5H-124.5V1989.5Z" fill="url(#paint6_linear_2_625)"/>
    <path fill-rule="evenodd" clip-rule="evenodd" d="M156 2029H-164V2309H156V2029ZM155.5 2029.5H116.5V2068.5H155.5V2029.5ZM115.5 2029.5H76.5V2068.5H115.5V2029.5ZM36.5 2029.5H75.5V2068.5H36.5V2029.5ZM35.5 2029.5H-3.5V2068.5H35.5V2029.5ZM-43.5 2029.5H-4.5V2068.5H-43.5V2029.5ZM-44.5 2029.5H-83.5V2068.5H-44.5V2029.5ZM-123.5 2029.5H-84.5V2068.5H-123.5V2029.5ZM-124.5 2029.5H-163.5V2068.5H-124.5V2029.5ZM116.5 2069.5H155.5V2108.5H116.5V2069.5ZM115.5 2069.5H76.5V2108.5H115.5V2069.5ZM36.5 2069.5H75.5V2108.5H36.5V2069.5ZM35.5 2069.5H-3.5V2108.5H35.5V2069.5ZM-43.5 2069.5H-4.5V2108.5H-43.5V2069.5ZM-44.5 2069.5H-83.5V2108.5H-44.5V2069.5ZM-123.5 2069.5H-84.5V2108.5H-123.5V2069.5ZM-124.5 2069.5H-163.5V2108.5H-124.5V2069.5ZM116.5 2109.5H155.5V2148.5H116.5V2109.5ZM115.5 2109.5H76.5V2148.5H115.5V2109.5ZM36.5 2109.5H75.5V2148.5H36.5V2109.5ZM35.5 2109.5H-3.5V2148.5H35.5V2109.5ZM-43.5 2109.5H-4.5V2148.5H-43.5V2109.5ZM-44.5 2109.5H-83.5V2148.5H-44.5V2109.5ZM-123.5 2109.5H-84.5V2148.5H-123.5V2109.5ZM-124.5 2109.5H-163.5V2148.5H-124.5V2109.5ZM116.5 2149.5H155.5V2188.5H116.5V2149.5ZM115.5 2149.5H76.5V2188.5H115.5V2149.5ZM36.5 2149.5H75.5V2188.5H36.5V2149.5ZM35.5 2149.5H-3.5V2188.5H35.5V2149.5ZM-43.5 2149.5H-4.5V2188.5H-43.5V2149.5ZM-44.5 2149.5H-83.5V2188.5H-44.5V2149.5ZM-123.5 2149.5H-84.5V2188.5H-123.5V2149.5ZM-124.5 2149.5H-163.5V2188.5H-124.5V2149.5ZM116.5 2189.5H155.5V2228.5H116.5V2189.5ZM115.5 2189.5H76.5V2228.5H115.5V2189.5ZM36.5 2189.5H75.5V2228.5H36.5V2189.5ZM35.5 2189.5H-3.5V2228.5H35.5V2189.5ZM-43.5 2189.5H-4.5V2228.5H-43.5V2189.5ZM-44.5 2189.5H-83.5V2228.5H-44.5V2189.5ZM-123.5 2189.5H-84.5V2228.5H-123.5V2189.5ZM-124.5 2189.5H-163.5V2228.5H-124.5V2189.5ZM116.5 2229.5H155.5V2268.5H116.5V2229.5ZM115.5 2229.5H76.5V2268.5H115.5V2229.5ZM36.5 2229.5H75.5V2268.5H36.5V2229.5ZM35.5 2229.5H-3.5V2268.5H35.5V2229.5ZM-43.5 2229.5H-4.5V2268.5H-43.5V2229.5ZM-44.5 2229.5H-83.5V2268.5H-44.5V2229.5ZM-123.5 2229.5H-84.5V2268.5H-123.5V2229.5ZM-124.5 2229.5H-163.5V2268.5H-124.5V2229.5ZM116.5 2269.5H155.5V2308.5H116.5V2269.5ZM115.5 2269.5H76.5V2308.5H115.5V2269.5ZM36.5 2269.5H75.5V2308.5H36.5V2269.5ZM35.5 2269.5H-3.5V2308.5H35.5V2269.5ZM-43.5 2269.5H-4.5V2308.5H-43.5V2269.5ZM-44.5 2269.5H-83.5V2308.5H-44.5V2269.5ZM-123.5 2269.5H-84.5V2308.5H-123.5V2269.5ZM-124.5 2269.5H-163.5V2308.5H-124.5V2269.5Z" fill="url(#paint7_linear_2_625)"/>
    <path fill-rule="evenodd" clip-rule="evenodd" d="M156 2309H-164V2589H156V2309ZM155.5 2309.5H116.5V2348.5H155.5V2309.5ZM115.5 2309.5H76.5V2348.5H115.5V2309.5ZM36.5 2309.5H75.5V2348.5H36.5V2309.5ZM35.5 2309.5H-3.5V2348.5H35.5V2309.5ZM-43.5 2309.5H-4.5V2348.5H-43.5V2309.5ZM-44.5 2309.5H-83.5V2348.5H-44.5V2309.5ZM-123.5 2309.5H-84.5V2348.5H-123.5V2309.5ZM-124.5 2309.5H-163.5V2348.5H-124.5V2309.5ZM116.5 2349.5H155.5V2388.5H116.5V2349.5ZM115.5 2349.5H76.5V2388.5H115.5V2349.5ZM36.5 2349.5H75.5V2388.5H36.5V2349.5ZM35.5 2349.5H-3.5V2388.5H35.5V2349.5ZM-43.5 2349.5H-4.5V2388.5H-43.5V2349.5ZM-44.5 2349.5H-83.5V2388.5H-44.5V2349.5ZM-123.5 2349.5H-84.5V2388.5H-123.5V2349.5ZM-124.5 2349.5H-163.5V2388.5H-124.5V2349.5ZM116.5 2389.5H155.5V2428.5H116.5V2389.5ZM115.5 2389.5H76.5V2428.5H115.5V2389.5ZM36.5 2389.5H75.5V2428.5H36.5V2389.5ZM35.5 2389.5H-3.5V2428.5H35.5V2389.5ZM-43.5 2389.5H-4.5V2428.5H-43.5V2389.5ZM-44.5 2389.5H-83.5V2428.5H-44.5V2389.5ZM-123.5 2389.5H-84.5V2428.5H-123.5V2389.5ZM-124.5 2389.5H-163.5V2428.5H-124.5V2389.5ZM116.5 2429.5H155.5V2468.5H116.5V2429.5ZM115.5 2429.5H76.5V2468.5H115.5V2429.5ZM36.5 2429.5H75.5V2468.5H36.5V2429.5ZM35.5 2429.5H-3.5V2468.5H35.5V2429.5ZM-43.5 2429.5H-4.5V2468.5H-43.5V2429.5ZM-44.5 2429.5H-83.5V2468.5H-44.5V2429.5ZM-123.5 2429.5H-84.5V2468.5H-123.5V2429.5ZM-124.5 2429.5H-163.5V2468.5H-124.5V2429.5ZM116.5 2469.5H155.5V2508.5H116.5V2469.5ZM115.5 2469.5H76.5V2508.5H115.5V2469.5ZM36.5 2469.5H75.5V2508.5H36.5V2469.5ZM35.5 2469.5H-3.5V2508.5H35.5V2469.5ZM-43.5 2469.5H-4.5V2508.5H-43.5V2469.5ZM-44.5 2469.5H-83.5V2508.5H-44.5V2469.5ZM-123.5 2469.5H-84.5V2508.5H-123.5V2469.5ZM-124.5 2469.5H-163.5V2508.5H-124.5V2469.5ZM116.5 2509.5H155.5V2548.5H116.5V2509.5ZM115.5 2509.5H76.5V2548.5H115.5V2509.5ZM36.5 2509.5H75.5V2548.5H36.5V2509.5ZM35.5 2509.5H-3.5V2548.5H35.5V2509.5ZM-43.5 2509.5H-4.5V2548.5H-43.5V2509.5ZM-44.5 2509.5H-83.5V2548.5H-44.5V2509.5ZM-123.5 2509.5H-84.5V2548.5H-123.5V2509.5ZM-124.5 2509.5H-163.5V2548.5H-124.5V2509.5ZM116.5 2549.5H155.5V2588.5H116.5V2549.5ZM115.5 2549.5H76.5V2588.5H115.5V2549.5ZM36.5 2549.5H75.5V2588.5H36.5V2549.5ZM35.5 2549.5H-3.5V2588.5H35.5V2549.5ZM-43.5 2549.5H-4.5V2588.5H-43.5V2549.5ZM-44.5 2549.5H-83.5V2588.5H-44.5V2549.5ZM-123.5 2549.5H-84.5V2588.5H-123.5V2549.5ZM-124.5 2549.5H-163.5V2588.5H-124.5V2549.5Z" fill="url(#paint8_linear_2_625)"/>
    <path fill-rule="evenodd" clip-rule="evenodd" d="M156 2589H-164V2869H156V2589ZM155.5 2589.5H116.5V2628.5H155.5V2589.5ZM115.5 2589.5H76.5V2628.5H115.5V2589.5ZM36.5 2589.5H75.5V2628.5H36.5V2589.5ZM35.5 2589.5H-3.5V2628.5H35.5V2589.5ZM-43.5 2589.5H-4.5V2628.5H-43.5V2589.5ZM-44.5 2589.5H-83.5V2628.5H-44.5V2589.5ZM-123.5 2589.5H-84.5V2628.5H-123.5V2589.5ZM-124.5 2589.5H-163.5V2628.5H-124.5V2589.5ZM116.5 2629.5H155.5V2668.5H116.5V2629.5ZM115.5 2629.5H76.5V2668.5H115.5V2629.5ZM36.5 2629.5H75.5V2668.5H36.5V2629.5ZM35.5 2629.5H-3.5V2668.5H35.5V2629.5ZM-43.5 2629.5H-4.5V2668.5H-43.5V2629.5ZM-44.5 2629.5H-83.5V2668.5H-44.5V2629.5ZM-123.5 2629.5H-84.5V2668.5H-123.5V2629.5ZM-124.5 2629.5H-163.5V2668.5H-124.5V2629.5ZM116.5 2669.5H155.5V2708.5H116.5V2669.5ZM115.5 2669.5H76.5V2708.5H115.5V2669.5ZM36.5 2669.5H75.5V2708.5H36.5V2669.5ZM35.5 2669.5H-3.5V2708.5H35.5V2669.5ZM-43.5 2669.5H-4.5V2708.5H-43.5V2669.5ZM-44.5 2669.5H-83.5V2708.5H-44.5V2669.5ZM-123.5 2669.5H-84.5V2708.5H-123.5V2669.5ZM-124.5 2669.5H-163.5V2708.5H-124.5V2669.5ZM116.5 2709.5H155.5V2748.5H116.5V2709.5ZM115.5 2709.5H76.5V2748.5H115.5V2709.5ZM36.5 2709.5H75.5V2748.5H36.5V2709.5ZM35.5 2709.5H-3.5V2748.5H35.5V2709.5ZM-43.5 2709.5H-4.5V2748.5H-43.5V2709.5ZM-44.5 2709.5H-83.5V2748.5H-44.5V2709.5ZM-123.5 2709.5H-84.5V2748.5H-123.5V2709.5ZM-124.5 2709.5H-163.5V2748.5H-124.5V2709.5ZM116.5 2749.5H155.5V2788.5H116.5V2749.5ZM115.5 2749.5H76.5V2788.5H115.5V2749.5ZM36.5 2749.5H75.5V2788.5H36.5V2749.5ZM35.5 2749.5H-3.5V2788.5H35.5V2749.5ZM-43.5 2749.5H-4.5V2788.5H-43.5V2749.5ZM-44.5 2749.5H-83.5V2788.5H-44.5V2749.5ZM-123.5 2749.5H-84.5V2788.5H-123.5V2749.5ZM-124.5 2749.5H-163.5V2788.5H-124.5V2749.5ZM116.5 2789.5H155.5V2828.5H116.5V2789.5ZM115.5 2789.5H76.5V2828.5H115.5V2789.5ZM36.5 2789.5H75.5V2828.5H36.5V2789.5ZM35.5 2789.5H-3.5V2828.5H35.5V2789.5ZM-43.5 2789.5H-4.5V2828.5H-43.5V2789.5ZM-44.5 2789.5H-83.5V2828.5H-44.5V2789.5ZM-123.5 2789.5H-84.5V2828.5H-123.5V2789.5ZM-124.5 2789.5H-163.5V2828.5H-124.5V2789.5ZM116.5 2829.5H155.5V2868.5H116.5V2829.5ZM115.5 2829.5H76.5V2868.5H115.5V2829.5ZM36.5 2829.5H75.5V2868.5H36.5V2829.5ZM35.5 2829.5H-3.5V2868.5H35.5V2829.5ZM-43.5 2829.5H-4.5V2868.5H-43.5V2829.5ZM-44.5 2829.5H-83.5V2868.5H-44.5V2829.5ZM-123.5 2829.5H-84.5V2868.5H-123.5V2829.5ZM-124.5 2829.5H-163.5V2868.5H-124.5V2829.5Z" fill="url(#paint9_linear_2_625)"/>
    <path fill-rule="evenodd" clip-rule="evenodd" d="M156 2869H-164V3149H156V2869ZM155.5 2869.5H116.5V2908.5H155.5V2869.5ZM115.5 2869.5H76.5V2908.5H115.5V2869.5ZM36.5 2869.5H75.5V2908.5H36.5V2869.5ZM35.5 2869.5H-3.5V2908.5H35.5V2869.5ZM-43.5 2869.5H-4.5V2908.5H-43.5V2869.5ZM-44.5 2869.5H-83.5V2908.5H-44.5V2869.5ZM-123.5 2869.5H-84.5V2908.5H-123.5V2869.5ZM-124.5 2869.5H-163.5V2908.5H-124.5V2869.5ZM116.5 2909.5H155.5V2948.5H116.5V2909.5ZM115.5 2909.5H76.5V2948.5H115.5V2909.5ZM36.5 2909.5H75.5V2948.5H36.5V2909.5ZM35.5 2909.5H-3.5V2948.5H35.5V2909.5ZM-43.5 2909.5H-4.5V2948.5H-43.5V2909.5ZM-44.5 2909.5H-83.5V2948.5H-44.5V2909.5ZM-123.5 2909.5H-84.5V2948.5H-123.5V2909.5ZM-124.5 2909.5H-163.5V2948.5H-124.5V2909.5ZM116.5 2949.5H155.5V2988.5H116.5V2949.5ZM115.5 2949.5H76.5V2988.5H115.5V2949.5ZM36.5 2949.5H75.5V2988.5H36.5V2949.5ZM35.5 2949.5H-3.5V2988.5H35.5V2949.5ZM-43.5 2949.5H-4.5V2988.5H-43.5V2949.5ZM-44.5 2949.5H-83.5V2988.5H-44.5V2949.5ZM-123.5 2949.5H-84.5V2988.5H-123.5V2949.5ZM-124.5 2949.5H-163.5V2988.5H-124.5V2949.5ZM116.5 2989.5H155.5V3028.5H116.5V2989.5ZM115.5 2989.5H76.5V3028.5H115.5V2989.5ZM36.5 2989.5H75.5V3028.5H36.5V2989.5ZM35.5 2989.5H-3.5V3028.5H35.5V2989.5ZM-43.5 2989.5H-4.5V3028.5H-43.5V2989.5ZM-44.5 2989.5H-83.5V3028.5H-44.5V2989.5ZM-123.5 2989.5H-84.5V3028.5H-123.5V2989.5ZM-124.5 2989.5H-163.5V3028.5H-124.5V2989.5ZM116.5 3029.5H155.5V3068.5H116.5V3029.5ZM115.5 3029.5H76.5V3068.5H115.5V3029.5ZM36.5 3029.5H75.5V3068.5H36.5V3029.5ZM35.5 3029.5H-3.5V3068.5H35.5V3029.5ZM-43.5 3029.5H-4.5V3068.5H-43.5V3029.5ZM-44.5 3029.5H-83.5V3068.5H-44.5V3029.5ZM-123.5 3029.5H-84.5V3068.5H-123.5V3029.5ZM-124.5 3029.5H-163.5V3068.5H-124.5V3029.5ZM116.5 3069.5H155.5V3108.5H116.5V3069.5ZM115.5 3069.5H76.5V3108.5H115.5V3069.5ZM36.5 3069.5H75.5V3108.5H36.5V3069.5ZM35.5 3069.5H-3.5V3108.5H35.5V3069.5ZM-43.5 3069.5H-4.5V3108.5H-43.5V3069.5ZM-44.5 3069.5H-83.5V3108.5H-44.5V3069.5ZM-123.5 3069.5H-84.5V3108.5H-123.5V3069.5ZM-124.5 3069.5H-163.5V3108.5H-124.5V3069.5ZM116.5 3109.5H155.5V3148.5H116.5V3109.5ZM115.5 3109.5H76.5V3148.5H115.5V3109.5ZM36.5 3109.5H75.5V3148.5H36.5V3109.5ZM35.5 3109.5H-3.5V3148.5H35.5V3109.5ZM-43.5 3109.5H-4.5V3148.5H-43.5V3109.5ZM-44.5 3109.5H-83.5V3148.5H-44.5V3109.5ZM-123.5 3109.5H-84.5V3148.5H-123.5V3109.5ZM-124.5 3109.5H-163.5V3148.5H-124.5V3109.5Z" fill="url(#paint10_linear_2_625)"/>
    <path fill-rule="evenodd" clip-rule="evenodd" d="M156 3149H-164V3429H156V3149ZM155.5 3149.5H116.5V3188.5H155.5V3149.5ZM115.5 3149.5H76.5V3188.5H115.5V3149.5ZM36.5 3149.5H75.5V3188.5H36.5V3149.5ZM35.5 3149.5H-3.5V3188.5H35.5V3149.5ZM-43.5 3149.5H-4.5V3188.5H-43.5V3149.5ZM-44.5 3149.5H-83.5V3188.5H-44.5V3149.5ZM-123.5 3149.5H-84.5V3188.5H-123.5V3149.5ZM-124.5 3149.5H-163.5V3188.5H-124.5V3149.5ZM116.5 3189.5H155.5V3228.5H116.5V3189.5ZM115.5 3189.5H76.5V3228.5H115.5V3189.5ZM36.5 3189.5H75.5V3228.5H36.5V3189.5ZM35.5 3189.5H-3.5V3228.5H35.5V3189.5ZM-43.5 3189.5H-4.5V3228.5H-43.5V3189.5ZM-44.5 3189.5H-83.5V3228.5H-44.5V3189.5ZM-123.5 3189.5H-84.5V3228.5H-123.5V3189.5ZM-124.5 3189.5H-163.5V3228.5H-124.5V3189.5ZM116.5 3229.5H155.5V3268.5H116.5V3229.5ZM115.5 3229.5H76.5V3268.5H115.5V3229.5ZM36.5 3229.5H75.5V3268.5H36.5V3229.5ZM35.5 3229.5H-3.5V3268.5H35.5V3229.5ZM-43.5 3229.5H-4.5V3268.5H-43.5V3229.5ZM-44.5 3229.5H-83.5V3268.5H-44.5V3229.5ZM-123.5 3229.5H-84.5V3268.5H-123.5V3229.5ZM-124.5 3229.5H-163.5V3268.5H-124.5V3229.5ZM116.5 3269.5H155.5V3308.5H116.5V3269.5ZM115.5 3269.5H76.5V3308.5H115.5V3269.5ZM36.5 3269.5H75.5V3308.5H36.5V3269.5ZM35.5 3269.5H-3.5V3308.5H35.5V3269.5ZM-43.5 3269.5H-4.5V3308.5H-43.5V3269.5ZM-44.5 3269.5H-83.5V3308.5H-44.5V3269.5ZM-123.5 3269.5H-84.5V3308.5H-123.5V3269.5ZM-124.5 3269.5H-163.5V3308.5H-124.5V3269.5ZM116.5 3309.5H155.5V3348.5H116.5V3309.5ZM115.5 3309.5H76.5V3348.5H115.5V3309.5ZM36.5 3309.5H75.5V3348.5H36.5V3309.5ZM35.5 3309.5H-3.5V3348.5H35.5V3309.5ZM-43.5 3309.5H-4.5V3348.5H-43.5V3309.5ZM-44.5 3309.5H-83.5V3348.5H-44.5V3309.5ZM-123.5 3309.5H-84.5V3348.5H-123.5V3309.5ZM-124.5 3309.5H-163.5V3348.5H-124.5V3309.5ZM116.5 3349.5H155.5V3388.5H116.5V3349.5ZM115.5 3349.5H76.5V3388.5H115.5V3349.5ZM36.5 3349.5H75.5V3388.5H36.5V3349.5ZM35.5 3349.5H-3.5V3388.5H35.5V3349.5ZM-43.5 3349.5H-4.5V3388.5H-43.5V3349.5ZM-44.5 3349.5H-83.5V3388.5H-44.5V3349.5ZM-123.5 3349.5H-84.5V3388.5H-123.5V3349.5ZM-124.5 3349.5H-163.5V3388.5H-124.5V3349.5ZM116.5 3389.5H155.5V3428.5H116.5V3389.5ZM115.5 3389.5H76.5V3428.5H115.5V3389.5ZM36.5 3389.5H75.5V3428.5H36.5V3389.5ZM35.5 3389.5H-3.5V3428.5H35.5V3389.5ZM-43.5 3389.5H-4.5V3428.5H-43.5V3389.5ZM-44.5 3389.5H-83.5V3428.5H-44.5V3389.5ZM-123.5 3389.5H-84.5V3428.5H-123.5V3389.5ZM-124.5 3389.5H-163.5V3428.5H-124.5V3389.5Z" fill="url(#paint11_linear_2_625)"/>
    <path fill-rule="evenodd" clip-rule="evenodd" d="M156 3429H-164V3709H156V3429ZM155.5 3429.5H116.5V3468.5H155.5V3429.5ZM115.5 3429.5H76.5V3468.5H115.5V3429.5ZM36.5 3429.5H75.5V3468.5H36.5V3429.5ZM35.5 3429.5H-3.5V3468.5H35.5V3429.5ZM-43.5 3429.5H-4.5V3468.5H-43.5V3429.5ZM-44.5 3429.5H-83.5V3468.5H-44.5V3429.5ZM-123.5 3429.5H-84.5V3468.5H-123.5V3429.5ZM-124.5 3429.5H-163.5V3468.5H-124.5V3429.5ZM116.5 3469.5H155.5V3508.5H116.5V3469.5ZM115.5 3469.5H76.5V3508.5H115.5V3469.5ZM36.5 3469.5H75.5V3508.5H36.5V3469.5ZM35.5 3469.5H-3.5V3508.5H35.5V3469.5ZM-43.5 3469.5H-4.5V3508.5H-43.5V3469.5ZM-44.5 3469.5H-83.5V3508.5H-44.5V3469.5ZM-123.5 3469.5H-84.5V3508.5H-123.5V3469.5ZM-124.5 3469.5H-163.5V3508.5H-124.5V3469.5ZM116.5 3509.5H155.5V3548.5H116.5V3509.5ZM115.5 3509.5H76.5V3548.5H115.5V3509.5ZM36.5 3509.5H75.5V3548.5H36.5V3509.5ZM35.5 3509.5H-3.5V3548.5H35.5V3509.5ZM-43.5 3509.5H-4.5V3548.5H-43.5V3509.5ZM-44.5 3509.5H-83.5V3548.5H-44.5V3509.5ZM-123.5 3509.5H-84.5V3548.5H-123.5V3509.5ZM-124.5 3509.5H-163.5V3548.5H-124.5V3509.5ZM116.5 3549.5H155.5V3588.5H116.5V3549.5ZM115.5 3549.5H76.5V3588.5H115.5V3549.5ZM36.5 3549.5H75.5V3588.5H36.5V3549.5ZM35.5 3549.5H-3.5V3588.5H35.5V3549.5ZM-43.5 3549.5H-4.5V3588.5H-43.5V3549.5ZM-44.5 3549.5H-83.5V3588.5H-44.5V3549.5ZM-123.5 3549.5H-84.5V3588.5H-123.5V3549.5ZM-124.5 3549.5H-163.5V3588.5H-124.5V3549.5ZM116.5 3589.5H155.5V3628.5H116.5V3589.5ZM115.5 3589.5H76.5V3628.5H115.5V3589.5ZM36.5 3589.5H75.5V3628.5H36.5V3589.5ZM35.5 3589.5H-3.5V3628.5H35.5V3589.5ZM-43.5 3589.5H-4.5V3628.5H-43.5V3589.5ZM-44.5 3589.5H-83.5V3628.5H-44.5V3589.5ZM-123.5 3589.5H-84.5V3628.5H-123.5V3589.5ZM-124.5 3589.5H-163.5V3628.5H-124.5V3589.5ZM116.5 3629.5H155.5V3668.5H116.5V3629.5ZM115.5 3629.5H76.5V3668.5H115.5V3629.5ZM36.5 3629.5H75.5V3668.5H36.5V3629.5ZM35.5 3629.5H-3.5V3668.5H35.5V3629.5ZM-43.5 3629.5H-4.5V3668.5H-43.5V3629.5ZM-44.5 3629.5H-83.5V3668.5H-44.5V3629.5ZM-123.5 3629.5H-84.5V3668.5H-123.5V3629.5ZM-124.5 3629.5H-163.5V3668.5H-124.5V3629.5ZM116.5 3669.5H155.5V3708.5H116.5V3669.5ZM115.5 3669.5H76.5V3708.5H115.5V3669.5ZM36.5 3669.5H75.5V3708.5H36.5V3669.5ZM35.5 3669.5H-3.5V3708.5H35.5V3669.5ZM-43.5 3669.5H-4.5V3708.5H-43.5V3669.5ZM-44.5 3669.5H-83.5V3708.5H-44.5V3669.5ZM-123.5 3669.5H-84.5V3708.5H-123.5V3669.5ZM-124.5 3669.5H-163.5V3708.5H-124.5V3669.5Z" fill="url(#paint12_linear_2_625)"/>
    <path fill-rule="evenodd" clip-rule="evenodd" d="M156 3709H-164V3989H156V3709ZM155.5 3709.5H116.5V3748.5H155.5V3709.5ZM115.5 3709.5H76.5V3748.5H115.5V3709.5ZM36.5 3709.5H75.5V3748.5H36.5V3709.5ZM35.5 3709.5H-3.5V3748.5H35.5V3709.5ZM-43.5 3709.5H-4.5V3748.5H-43.5V3709.5ZM-44.5 3709.5H-83.5V3748.5H-44.5V3709.5ZM-123.5 3709.5H-84.5V3748.5H-123.5V3709.5ZM-124.5 3709.5H-163.5V3748.5H-124.5V3709.5ZM116.5 3749.5H155.5V3788.5H116.5V3749.5ZM115.5 3749.5H76.5V3788.5H115.5V3749.5ZM36.5 3749.5H75.5V3788.5H36.5V3749.5ZM35.5 3749.5H-3.5V3788.5H35.5V3749.5ZM-43.5 3749.5H-4.5V3788.5H-43.5V3749.5ZM-44.5 3749.5H-83.5V3788.5H-44.5V3749.5ZM-123.5 3749.5H-84.5V3788.5H-123.5V3749.5ZM-124.5 3749.5H-163.5V3788.5H-124.5V3749.5ZM116.5 3789.5H155.5V3828.5H116.5V3789.5ZM115.5 3789.5H76.5V3828.5H115.5V3789.5ZM36.5 3789.5H75.5V3828.5H36.5V3789.5ZM35.5 3789.5H-3.5V3828.5H35.5V3789.5ZM-43.5 3789.5H-4.5V3828.5H-43.5V3789.5ZM-44.5 3789.5H-83.5V3828.5H-44.5V3789.5ZM-123.5 3789.5H-84.5V3828.5H-123.5V3789.5ZM-124.5 3789.5H-163.5V3828.5H-124.5V3789.5ZM116.5 3829.5H155.5V3868.5H116.5V3829.5ZM115.5 3829.5H76.5V3868.5H115.5V3829.5ZM36.5 3829.5H75.5V3868.5H36.5V3829.5ZM35.5 3829.5H-3.5V3868.5H35.5V3829.5ZM-43.5 3829.5H-4.5V3868.5H-43.5V3829.5ZM-44.5 3829.5H-83.5V3868.5H-44.5V3829.5ZM-123.5 3829.5H-84.5V3868.5H-123.5V3829.5ZM-124.5 3829.5H-163.5V3868.5H-124.5V3829.5ZM116.5 3869.5H155.5V3908.5H116.5V3869.5ZM115.5 3869.5H76.5V3908.5H115.5V3869.5ZM36.5 3869.5H75.5V3908.5H36.5V3869.5ZM35.5 3869.5H-3.5V3908.5H35.5V3869.5ZM-43.5 3869.5H-4.5V3908.5H-43.5V3869.5ZM-44.5 3869.5H-83.5V3908.5H-44.5V3869.5ZM-123.5 3869.5H-84.5V3908.5H-123.5V3869.5ZM-124.5 3869.5H-163.5V3908.5H-124.5V3869.5ZM116.5 3909.5H155.5V3948.5H116.5V3909.5ZM115.5 3909.5H76.5V3948.5H115.5V3909.5ZM36.5 3909.5H75.5V3948.5H36.5V3909.5ZM35.5 3909.5H-3.5V3948.5H35.5V3909.5ZM-43.5 3909.5H-4.5V3948.5H-43.5V3909.5ZM-44.5 3909.5H-83.5V3948.5H-44.5V3909.5ZM-123.5 3909.5H-84.5V3948.5H-123.5V3909.5ZM-124.5 3909.5H-163.5V3948.5H-124.5V3909.5ZM116.5 3949.5H155.5V3988.5H116.5V3949.5ZM115.5 3949.5H76.5V3988.5H115.5V3949.5ZM36.5 3949.5H75.5V3988.5H36.5V3949.5ZM35.5 3949.5H-3.5V3988.5H35.5V3949.5ZM-43.5 3949.5H-4.5V3988.5H-43.5V3949.5ZM-44.5 3949.5H-83.5V3988.5H-44.5V3949.5ZM-123.5 3949.5H-84.5V3988.5H-123.5V3949.5ZM-124.5 3949.5H-163.5V3988.5H-124.5V3949.5Z" fill="url(#paint13_linear_2_625)"/>
    <path fill-rule="evenodd" clip-rule="evenodd" d="M156 3989H-164V4269H156V3989ZM155.5 3989.5H116.5V4028.5H155.5V3989.5ZM115.5 3989.5H76.5V4028.5H115.5V3989.5ZM36.5 3989.5H75.5V4028.5H36.5V3989.5ZM35.5 3989.5H-3.5V4028.5H35.5V3989.5ZM-43.5 3989.5H-4.5V4028.5H-43.5V3989.5ZM-44.5 3989.5H-83.5V4028.5H-44.5V3989.5ZM-123.5 3989.5H-84.5V4028.5H-123.5V3989.5ZM-124.5 3989.5H-163.5V4028.5H-124.5V3989.5ZM116.5 4029.5H155.5V4068.5H116.5V4029.5ZM115.5 4029.5H76.5V4068.5H115.5V4029.5ZM36.5 4029.5H75.5V4068.5H36.5V4029.5ZM35.5 4029.5H-3.5V4068.5H35.5V4029.5ZM-43.5 4029.5H-4.5V4068.5H-43.5V4029.5ZM-44.5 4029.5H-83.5V4068.5H-44.5V4029.5ZM-123.5 4029.5H-84.5V4068.5H-123.5V4029.5ZM-124.5 4029.5H-163.5V4068.5H-124.5V4029.5ZM116.5 4069.5H155.5V4108.5H116.5V4069.5ZM115.5 4069.5H76.5V4108.5H115.5V4069.5ZM36.5 4069.5H75.5V4108.5H36.5V4069.5ZM35.5 4069.5H-3.5V4108.5H35.5V4069.5ZM-43.5 4069.5H-4.5V4108.5H-43.5V4069.5ZM-44.5 4069.5H-83.5V4108.5H-44.5V4069.5ZM-123.5 4069.5H-84.5V4108.5H-123.5V4069.5ZM-124.5 4069.5H-163.5V4108.5H-124.5V4069.5ZM116.5 4109.5H155.5V4148.5H116.5V4109.5ZM115.5 4109.5H76.5V4148.5H115.5V4109.5ZM36.5 4109.5H75.5V4148.5H36.5V4109.5ZM35.5 4109.5H-3.5V4148.5H35.5V4109.5ZM-43.5 4109.5H-4.5V4148.5H-43.5V4109.5ZM-44.5 4109.5H-83.5V4148.5H-44.5V4109.5ZM-123.5 4109.5H-84.5V4148.5H-123.5V4109.5ZM-124.5 4109.5H-163.5V4148.5H-124.5V4109.5ZM116.5 4149.5H155.5V4188.5H116.5V4149.5ZM115.5 4149.5H76.5V4188.5H115.5V4149.5ZM36.5 4149.5H75.5V4188.5H36.5V4149.5ZM35.5 4149.5H-3.5V4188.5H35.5V4149.5ZM-43.5 4149.5H-4.5V4188.5H-43.5V4149.5ZM-44.5 4149.5H-83.5V4188.5H-44.5V4149.5ZM-123.5 4149.5H-84.5V4188.5H-123.5V4149.5ZM-124.5 4149.5H-163.5V4188.5H-124.5V4149.5ZM116.5 4189.5H155.5V4228.5H116.5V4189.5ZM115.5 4189.5H76.5V4228.5H115.5V4189.5ZM36.5 4189.5H75.5V4228.5H36.5V4189.5ZM35.5 4189.5H-3.5V4228.5H35.5V4189.5ZM-43.5 4189.5H-4.5V4228.5H-43.5V4189.5ZM-44.5 4189.5H-83.5V4228.5H-44.5V4189.5ZM-123.5 4189.5H-84.5V4228.5H-123.5V4189.5ZM-124.5 4189.5H-163.5V4228.5H-124.5V4189.5ZM116.5 4229.5H155.5V4268.5H116.5V4229.5ZM115.5 4229.5H76.5V4268.5H115.5V4229.5ZM36.5 4229.5H75.5V4268.5H36.5V4229.5ZM35.5 4229.5H-3.5V4268.5H35.5V4229.5ZM-43.5 4229.5H-4.5V4268.5H-43.5V4229.5ZM-44.5 4229.5H-83.5V4268.5H-44.5V4229.5ZM-123.5 4229.5H-84.5V4268.5H-123.5V4229.5ZM-124.5 4229.5H-163.5V4268.5H-124.5V4229.5Z" fill="url(#paint14_linear_2_625)"/>
    <path fill-rule="evenodd" clip-rule="evenodd" d="M156 4269H-164V4549H156V4269ZM155.5 4269.5H116.5V4308.5H155.5V4269.5ZM115.5 4269.5H76.5V4308.5H115.5V4269.5ZM36.5 4269.5H75.5V4308.5H36.5V4269.5ZM35.5 4269.5H-3.5V4308.5H35.5V4269.5ZM-43.5 4269.5H-4.5V4308.5H-43.5V4269.5ZM-44.5 4269.5H-83.5V4308.5H-44.5V4269.5ZM-123.5 4269.5H-84.5V4308.5H-123.5V4269.5ZM-124.5 4269.5H-163.5V4308.5H-124.5V4269.5ZM116.5 4309.5H155.5V4348.5H116.5V4309.5ZM115.5 4309.5H76.5V4348.5H115.5V4309.5ZM36.5 4309.5H75.5V4348.5H36.5V4309.5ZM35.5 4309.5H-3.5V4348.5H35.5V4309.5ZM-43.5 4309.5H-4.5V4348.5H-43.5V4309.5ZM-44.5 4309.5H-83.5V4348.5H-44.5V4309.5ZM-123.5 4309.5H-84.5V4348.5H-123.5V4309.5ZM-124.5 4309.5H-163.5V4348.5H-124.5V4309.5ZM116.5 4349.5H155.5V4388.5H116.5V4349.5ZM115.5 4349.5H76.5V4388.5H115.5V4349.5ZM36.5 4349.5H75.5V4388.5H36.5V4349.5ZM35.5 4349.5H-3.5V4388.5H35.5V4349.5ZM-43.5 4349.5H-4.5V4388.5H-43.5V4349.5ZM-44.5 4349.5H-83.5V4388.5H-44.5V4349.5ZM-123.5 4349.5H-84.5V4388.5H-123.5V4349.5ZM-124.5 4349.5H-163.5V4388.5H-124.5V4349.5ZM116.5 4389.5H155.5V4428.5H116.5V4389.5ZM115.5 4389.5H76.5V4428.5H115.5V4389.5ZM36.5 4389.5H75.5V4428.5H36.5V4389.5ZM35.5 4389.5H-3.5V4428.5H35.5V4389.5ZM-43.5 4389.5H-4.5V4428.5H-43.5V4389.5ZM-44.5 4389.5H-83.5V4428.5H-44.5V4389.5ZM-123.5 4389.5H-84.5V4428.5H-123.5V4389.5ZM-124.5 4389.5H-163.5V4428.5H-124.5V4389.5ZM116.5 4429.5H155.5V4468.5H116.5V4429.5ZM115.5 4429.5H76.5V4468.5H115.5V4429.5ZM36.5 4429.5H75.5V4468.5H36.5V4429.5ZM35.5 4429.5H-3.5V4468.5H35.5V4429.5ZM-43.5 4429.5H-4.5V4468.5H-43.5V4429.5ZM-44.5 4429.5H-83.5V4468.5H-44.5V4429.5ZM-123.5 4429.5H-84.5V4468.5H-123.5V4429.5ZM-124.5 4429.5H-163.5V4468.5H-124.5V4429.5ZM116.5 4469.5H155.5V4508.5H116.5V4469.5ZM115.5 4469.5H76.5V4508.5H115.5V4469.5ZM36.5 4469.5H75.5V4508.5H36.5V4469.5ZM35.5 4469.5H-3.5V4508.5H35.5V4469.5ZM-43.5 4469.5H-4.5V4508.5H-43.5V4469.5ZM-44.5 4469.5H-83.5V4508.5H-44.5V4469.5ZM-123.5 4469.5H-84.5V4508.5H-123.5V4469.5ZM-124.5 4469.5H-163.5V4508.5H-124.5V4469.5ZM116.5 4509.5H155.5V4548.5H116.5V4509.5ZM115.5 4509.5H76.5V4548.5H115.5V4509.5ZM36.5 4509.5H75.5V4548.5H36.5V4509.5ZM35.5 4509.5H-3.5V4548.5H35.5V4509.5ZM-43.5 4509.5H-4.5V4548.5H-43.5V4509.5ZM-44.5 4509.5H-83.5V4548.5H-44.5V4509.5ZM-123.5 4509.5H-84.5V4548.5H-123.5V4509.5ZM-124.5 4509.5H-163.5V4548.5H-124.5V4509.5Z" fill="url(#paint15_linear_2_625)"/>
    <path fill-rule="evenodd" clip-rule="evenodd" d="M238 69H558V349H238V69ZM238.5 69.5H277.5V108.5H238.5V69.5ZM278.5 69.5H317.5V108.5H278.5V69.5ZM357.5 69.5H318.5V108.5H357.5V69.5ZM358.5 69.5H397.5V108.5H358.5V69.5ZM437.5 69.5H398.5V108.5H437.5V69.5ZM438.5 69.5H477.5V108.5H438.5V69.5ZM517.5 69.5H478.5V108.5H517.5V69.5ZM518.5 69.5H557.5V108.5H518.5V69.5ZM277.5 109.5H238.5V148.5H277.5V109.5ZM278.5 109.5H317.5V148.5H278.5V109.5ZM357.5 109.5H318.5V148.5H357.5V109.5ZM358.5 109.5H397.5V148.5H358.5V109.5ZM437.5 109.5H398.5V148.5H437.5V109.5ZM438.5 109.5H477.5V148.5H438.5V109.5ZM517.5 109.5H478.5V148.5H517.5V109.5ZM518.5 109.5H557.5V148.5H518.5V109.5ZM277.5 149.5H238.5V188.5H277.5V149.5ZM278.5 149.5H317.5V188.5H278.5V149.5ZM357.5 149.5H318.5V188.5H357.5V149.5ZM358.5 149.5H397.5V188.5H358.5V149.5ZM437.5 149.5H398.5V188.5H437.5V149.5ZM438.5 149.5H477.5V188.5H438.5V149.5ZM517.5 149.5H478.5V188.5H517.5V149.5ZM518.5 149.5H557.5V188.5H518.5V149.5ZM277.5 189.5H238.5V228.5H277.5V189.5ZM278.5 189.5H317.5V228.5H278.5V189.5ZM357.5 189.5H318.5V228.5H357.5V189.5ZM358.5 189.5H397.5V228.5H358.5V189.5ZM437.5 189.5H398.5V228.5H437.5V189.5ZM438.5 189.5H477.5V228.5H438.5V189.5ZM517.5 189.5H478.5V228.5H517.5V189.5ZM518.5 189.5H557.5V228.5H518.5V189.5ZM277.5 229.5H238.5V268.5H277.5V229.5ZM278.5 229.5H317.5V268.5H278.5V229.5ZM357.5 229.5H318.5V268.5H357.5V229.5ZM358.5 229.5H397.5V268.5H358.5V229.5ZM437.5 229.5H398.5V268.5H437.5V229.5ZM438.5 229.5H477.5V268.5H438.5V229.5ZM517.5 229.5H478.5V268.5H517.5V229.5ZM518.5 229.5H557.5V268.5H518.5V229.5ZM277.5 269.5H238.5V308.5H277.5V269.5ZM278.5 269.5H317.5V308.5H278.5V269.5ZM357.5 269.5H318.5V308.5H357.5V269.5ZM358.5 269.5H397.5V308.5H358.5V269.5ZM437.5 269.5H398.5V308.5H437.5V269.5ZM438.5 269.5H477.5V308.5H438.5V269.5ZM517.5 269.5H478.5V308.5H517.5V269.5ZM518.5 269.5H557.5V308.5H518.5V269.5ZM277.5 309.5H238.5V348.5H277.5V309.5ZM278.5 309.5H317.5V348.5H278.5V309.5ZM357.5 309.5H318.5V348.5H357.5V309.5ZM358.5 309.5H397.5V348.5H358.5V309.5ZM437.5 309.5H398.5V348.5H437.5V309.5ZM438.5 309.5H477.5V348.5H438.5V309.5ZM517.5 309.5H478.5V348.5H517.5V309.5ZM518.5 309.5H557.5V348.5H518.5V309.5Z" fill="url(#paint16_linear_2_625)"/>
    <path fill-rule="evenodd" clip-rule="evenodd" d="M238 349H558V629H238V349ZM238.5 349.5H277.5V388.5H238.5V349.5ZM278.5 349.5H317.5V388.5H278.5V349.5ZM357.5 349.5H318.5V388.5H357.5V349.5ZM358.5 349.5H397.5V388.5H358.5V349.5ZM437.5 349.5H398.5V388.5H437.5V349.5ZM438.5 349.5H477.5V388.5H438.5V349.5ZM517.5 349.5H478.5V388.5H517.5V349.5ZM518.5 349.5H557.5V388.5H518.5V349.5ZM277.5 389.5H238.5V428.5H277.5V389.5ZM278.5 389.5H317.5V428.5H278.5V389.5ZM357.5 389.5H318.5V428.5H357.5V389.5ZM358.5 389.5H397.5V428.5H358.5V389.5ZM437.5 389.5H398.5V428.5H437.5V389.5ZM438.5 389.5H477.5V428.5H438.5V389.5ZM517.5 389.5H478.5V428.5H517.5V389.5ZM518.5 389.5H557.5V428.5H518.5V389.5ZM277.5 429.5H238.5V468.5H277.5V429.5ZM278.5 429.5H317.5V468.5H278.5V429.5ZM357.5 429.5H318.5V468.5H357.5V429.5ZM358.5 429.5H397.5V468.5H358.5V429.5ZM437.5 429.5H398.5V468.5H437.5V429.5ZM438.5 429.5H477.5V468.5H438.5V429.5ZM517.5 429.5H478.5V468.5H517.5V429.5ZM518.5 429.5H557.5V468.5H518.5V429.5ZM277.5 469.5H238.5V508.5H277.5V469.5ZM278.5 469.5H317.5V508.5H278.5V469.5ZM357.5 469.5H318.5V508.5H357.5V469.5ZM358.5 469.5H397.5V508.5H358.5V469.5ZM437.5 469.5H398.5V508.5H437.5V469.5ZM438.5 469.5H477.5V508.5H438.5V469.5ZM517.5 469.5H478.5V508.5H517.5V469.5ZM518.5 469.5H557.5V508.5H518.5V469.5ZM277.5 509.5H238.5V548.5H277.5V509.5ZM278.5 509.5H317.5V548.5H278.5V509.5ZM357.5 509.5H318.5V548.5H357.5V509.5ZM358.5 509.5H397.5V548.5H358.5V509.5ZM437.5 509.5H398.5V548.5H437.5V509.5ZM438.5 509.5H477.5V548.5H438.5V509.5ZM517.5 509.5H478.5V548.5H517.5V509.5ZM518.5 509.5H557.5V548.5H518.5V509.5ZM277.5 549.5H238.5V588.5H277.5V549.5ZM278.5 549.5H317.5V588.5H278.5V549.5ZM357.5 549.5H318.5V588.5H357.5V549.5ZM358.5 549.5H397.5V588.5H358.5V549.5ZM437.5 549.5H398.5V588.5H437.5V549.5ZM438.5 549.5H477.5V588.5H438.5V549.5ZM517.5 549.5H478.5V588.5H517.5V549.5ZM518.5 549.5H557.5V588.5H518.5V549.5ZM277.5 589.5H238.5V628.5H277.5V589.5ZM278.5 589.5H317.5V628.5H278.5V589.5ZM357.5 589.5H318.5V628.5H357.5V589.5ZM358.5 589.5H397.5V628.5H358.5V589.5ZM437.5 589.5H398.5V628.5H437.5V589.5ZM438.5 589.5H477.5V628.5H438.5V589.5ZM517.5 589.5H478.5V628.5H517.5V589.5ZM518.5 589.5H557.5V628.5H518.5V589.5Z" fill="url(#paint17_linear_2_625)"/>
    <path fill-rule="evenodd" clip-rule="evenodd" d="M238 629H558V909H238V629ZM238.5 629.5H277.5V668.5H238.5V629.5ZM278.5 629.5H317.5V668.5H278.5V629.5ZM357.5 629.5H318.5V668.5H357.5V629.5ZM358.5 629.5H397.5V668.5H358.5V629.5ZM437.5 629.5H398.5V668.5H437.5V629.5ZM438.5 629.5H477.5V668.5H438.5V629.5ZM517.5 629.5H478.5V668.5H517.5V629.5ZM518.5 629.5H557.5V668.5H518.5V629.5ZM277.5 669.5H238.5V708.5H277.5V669.5ZM278.5 669.5H317.5V708.5H278.5V669.5ZM357.5 669.5H318.5V708.5H357.5V669.5ZM358.5 669.5H397.5V708.5H358.5V669.5ZM437.5 669.5H398.5V708.5H437.5V669.5ZM438.5 669.5H477.5V708.5H438.5V669.5ZM517.5 669.5H478.5V708.5H517.5V669.5ZM518.5 669.5H557.5V708.5H518.5V669.5ZM277.5 709.5H238.5V748.5H277.5V709.5ZM278.5 709.5H317.5V748.5H278.5V709.5ZM357.5 709.5H318.5V748.5H357.5V709.5ZM358.5 709.5H397.5V748.5H358.5V709.5ZM437.5 709.5H398.5V748.5H437.5V709.5ZM438.5 709.5H477.5V748.5H438.5V709.5ZM517.5 709.5H478.5V748.5H517.5V709.5ZM518.5 709.5H557.5V748.5H518.5V709.5ZM277.5 749.5H238.5V788.5H277.5V749.5ZM278.5 749.5H317.5V788.5H278.5V749.5ZM357.5 749.5H318.5V788.5H357.5V749.5ZM358.5 749.5H397.5V788.5H358.5V749.5ZM437.5 749.5H398.5V788.5H437.5V749.5ZM438.5 749.5H477.5V788.5H438.5V749.5ZM517.5 749.5H478.5V788.5H517.5V749.5ZM518.5 749.5H557.5V788.5H518.5V749.5ZM277.5 789.5H238.5V828.5H277.5V789.5ZM278.5 789.5H317.5V828.5H278.5V789.5ZM357.5 789.5H318.5V828.5H357.5V789.5ZM358.5 789.5H397.5V828.5H358.5V789.5ZM437.5 789.5H398.5V828.5H437.5V789.5ZM438.5 789.5H477.5V828.5H438.5V789.5ZM517.5 789.5H478.5V828.5H517.5V789.5ZM518.5 789.5H557.5V828.5H518.5V789.5ZM277.5 829.5H238.5V868.5H277.5V829.5ZM278.5 829.5H317.5V868.5H278.5V829.5ZM357.5 829.5H318.5V868.5H357.5V829.5ZM358.5 829.5H397.5V868.5H358.5V829.5ZM437.5 829.5H398.5V868.5H437.5V829.5ZM438.5 829.5H477.5V868.5H438.5V829.5ZM517.5 829.5H478.5V868.5H517.5V829.5ZM518.5 829.5H557.5V868.5H518.5V829.5ZM277.5 869.5H238.5V908.5H277.5V869.5ZM278.5 869.5H317.5V908.5H278.5V869.5ZM357.5 869.5H318.5V908.5H357.5V869.5ZM358.5 869.5H397.5V908.5H358.5V869.5ZM437.5 869.5H398.5V908.5H437.5V869.5ZM438.5 869.5H477.5V908.5H438.5V869.5ZM517.5 869.5H478.5V908.5H517.5V869.5ZM518.5 869.5H557.5V908.5H518.5V869.5Z" fill="url(#paint18_linear_2_625)"/>
    <path fill-rule="evenodd" clip-rule="evenodd" d="M238 909H558V1189H238V909ZM238.5 909.5H277.5V948.5H238.5V909.5ZM278.5 909.5H317.5V948.5H278.5V909.5ZM357.5 909.5H318.5V948.5H357.5V909.5ZM358.5 909.5H397.5V948.5H358.5V909.5ZM437.5 909.5H398.5V948.5H437.5V909.5ZM438.5 909.5H477.5V948.5H438.5V909.5ZM517.5 909.5H478.5V948.5H517.5V909.5ZM518.5 909.5H557.5V948.5H518.5V909.5ZM277.5 949.5H238.5V988.5H277.5V949.5ZM278.5 949.5H317.5V988.5H278.5V949.5ZM357.5 949.5H318.5V988.5H357.5V949.5ZM358.5 949.5H397.5V988.5H358.5V949.5ZM437.5 949.5H398.5V988.5H437.5V949.5ZM438.5 949.5H477.5V988.5H438.5V949.5ZM517.5 949.5H478.5V988.5H517.5V949.5ZM518.5 949.5H557.5V988.5H518.5V949.5ZM277.5 989.5H238.5V1028.5H277.5V989.5ZM278.5 989.5H317.5V1028.5H278.5V989.5ZM357.5 989.5H318.5V1028.5H357.5V989.5ZM358.5 989.5H397.5V1028.5H358.5V989.5ZM437.5 989.5H398.5V1028.5H437.5V989.5ZM438.5 989.5H477.5V1028.5H438.5V989.5ZM517.5 989.5H478.5V1028.5H517.5V989.5ZM518.5 989.5H557.5V1028.5H518.5V989.5ZM277.5 1029.5H238.5V1068.5H277.5V1029.5ZM278.5 1029.5H317.5V1068.5H278.5V1029.5ZM357.5 1029.5H318.5V1068.5H357.5V1029.5ZM358.5 1029.5H397.5V1068.5H358.5V1029.5ZM437.5 1029.5H398.5V1068.5H437.5V1029.5ZM438.5 1029.5H477.5V1068.5H438.5V1029.5ZM517.5 1029.5H478.5V1068.5H517.5V1029.5ZM518.5 1029.5H557.5V1068.5H518.5V1029.5ZM277.5 1069.5H238.5V1108.5H277.5V1069.5ZM278.5 1069.5H317.5V1108.5H278.5V1069.5ZM357.5 1069.5H318.5V1108.5H357.5V1069.5ZM358.5 1069.5H397.5V1108.5H358.5V1069.5ZM437.5 1069.5H398.5V1108.5H437.5V1069.5ZM438.5 1069.5H477.5V1108.5H438.5V1069.5ZM517.5 1069.5H478.5V1108.5H517.5V1069.5ZM518.5 1069.5H557.5V1108.5H518.5V1069.5ZM277.5 1109.5H238.5V1148.5H277.5V1109.5ZM278.5 1109.5H317.5V1148.5H278.5V1109.5ZM357.5 1109.5H318.5V1148.5H357.5V1109.5ZM358.5 1109.5H397.5V1148.5H358.5V1109.5ZM437.5 1109.5H398.5V1148.5H437.5V1109.5ZM438.5 1109.5H477.5V1148.5H438.5V1109.5ZM517.5 1109.5H478.5V1148.5H517.5V1109.5ZM518.5 1109.5H557.5V1148.5H518.5V1109.5ZM277.5 1149.5H238.5V1188.5H277.5V1149.5ZM278.5 1149.5H317.5V1188.5H278.5V1149.5ZM357.5 1149.5H318.5V1188.5H357.5V1149.5ZM358.5 1149.5H397.5V1188.5H358.5V1149.5ZM437.5 1149.5H398.5V1188.5H437.5V1149.5ZM438.5 1149.5H477.5V1188.5H438.5V1149.5ZM517.5 1149.5H478.5V1188.5H517.5V1149.5ZM518.5 1149.5H557.5V1188.5H518.5V1149.5Z" fill="url(#paint19_linear_2_625)"/>
    <path fill-rule="evenodd" clip-rule="evenodd" d="M238 1189H558V1469H238V1189ZM238.5 1189.5H277.5V1228.5H238.5V1189.5ZM278.5 1189.5H317.5V1228.5H278.5V1189.5ZM357.5 1189.5H318.5V1228.5H357.5V1189.5ZM358.5 1189.5H397.5V1228.5H358.5V1189.5ZM437.5 1189.5H398.5V1228.5H437.5V1189.5ZM438.5 1189.5H477.5V1228.5H438.5V1189.5ZM517.5 1189.5H478.5V1228.5H517.5V1189.5ZM518.5 1189.5H557.5V1228.5H518.5V1189.5ZM277.5 1229.5H238.5V1268.5H277.5V1229.5ZM278.5 1229.5H317.5V1268.5H278.5V1229.5ZM357.5 1229.5H318.5V1268.5H357.5V1229.5ZM358.5 1229.5H397.5V1268.5H358.5V1229.5ZM437.5 1229.5H398.5V1268.5H437.5V1229.5ZM438.5 1229.5H477.5V1268.5H438.5V1229.5ZM517.5 1229.5H478.5V1268.5H517.5V1229.5ZM518.5 1229.5H557.5V1268.5H518.5V1229.5ZM277.5 1269.5H238.5V1308.5H277.5V1269.5ZM278.5 1269.5H317.5V1308.5H278.5V1269.5ZM357.5 1269.5H318.5V1308.5H357.5V1269.5ZM358.5 1269.5H397.5V1308.5H358.5V1269.5ZM437.5 1269.5H398.5V1308.5H437.5V1269.5ZM438.5 1269.5H477.5V1308.5H438.5V1269.5ZM517.5 1269.5H478.5V1308.5H517.5V1269.5ZM518.5 1269.5H557.5V1308.5H518.5V1269.5ZM277.5 1309.5H238.5V1348.5H277.5V1309.5ZM278.5 1309.5H317.5V1348.5H278.5V1309.5ZM357.5 1309.5H318.5V1348.5H357.5V1309.5ZM358.5 1309.5H397.5V1348.5H358.5V1309.5ZM437.5 1309.5H398.5V1348.5H437.5V1309.5ZM438.5 1309.5H477.5V1348.5H438.5V1309.5ZM517.5 1309.5H478.5V1348.5H517.5V1309.5ZM518.5 1309.5H557.5V1348.5H518.5V1309.5ZM277.5 1349.5H238.5V1388.5H277.5V1349.5ZM278.5 1349.5H317.5V1388.5H278.5V1349.5ZM357.5 1349.5H318.5V1388.5H357.5V1349.5ZM358.5 1349.5H397.5V1388.5H358.5V1349.5ZM437.5 1349.5H398.5V1388.5H437.5V1349.5ZM438.5 1349.5H477.5V1388.5H438.5V1349.5ZM517.5 1349.5H478.5V1388.5H517.5V1349.5ZM518.5 1349.5H557.5V1388.5H518.5V1349.5ZM277.5 1389.5H238.5V1428.5H277.5V1389.5ZM278.5 1389.5H317.5V1428.5H278.5V1389.5ZM357.5 1389.5H318.5V1428.5H357.5V1389.5ZM358.5 1389.5H397.5V1428.5H358.5V1389.5ZM437.5 1389.5H398.5V1428.5H437.5V1389.5ZM438.5 1389.5H477.5V1428.5H438.5V1389.5ZM517.5 1389.5H478.5V1428.5H517.5V1389.5ZM518.5 1389.5H557.5V1428.5H518.5V1389.5ZM277.5 1429.5H238.5V1468.5H277.5V1429.5ZM278.5 1429.5H317.5V1468.5H278.5V1429.5ZM357.5 1429.5H318.5V1468.5H357.5V1429.5ZM358.5 1429.5H397.5V1468.5H358.5V1429.5ZM437.5 1429.5H398.5V1468.5H437.5V1429.5ZM438.5 1429.5H477.5V1468.5H438.5V1429.5ZM517.5 1429.5H478.5V1468.5H517.5V1429.5ZM518.5 1429.5H557.5V1468.5H518.5V1429.5Z" fill="url(#paint20_linear_2_625)"/>
    <path fill-rule="evenodd" clip-rule="evenodd" d="M238 1469H558V1749H238V1469ZM238.5 1469.5H277.5V1508.5H238.5V1469.5ZM278.5 1469.5H317.5V1508.5H278.5V1469.5ZM357.5 1469.5H318.5V1508.5H357.5V1469.5ZM358.5 1469.5H397.5V1508.5H358.5V1469.5ZM437.5 1469.5H398.5V1508.5H437.5V1469.5ZM438.5 1469.5H477.5V1508.5H438.5V1469.5ZM517.5 1469.5H478.5V1508.5H517.5V1469.5ZM518.5 1469.5H557.5V1508.5H518.5V1469.5ZM277.5 1509.5H238.5V1548.5H277.5V1509.5ZM278.5 1509.5H317.5V1548.5H278.5V1509.5ZM357.5 1509.5H318.5V1548.5H357.5V1509.5ZM358.5 1509.5H397.5V1548.5H358.5V1509.5ZM437.5 1509.5H398.5V1548.5H437.5V1509.5ZM438.5 1509.5H477.5V1548.5H438.5V1509.5ZM517.5 1509.5H478.5V1548.5H517.5V1509.5ZM518.5 1509.5H557.5V1548.5H518.5V1509.5ZM277.5 1549.5H238.5V1588.5H277.5V1549.5ZM278.5 1549.5H317.5V1588.5H278.5V1549.5ZM357.5 1549.5H318.5V1588.5H357.5V1549.5ZM358.5 1549.5H397.5V1588.5H358.5V1549.5ZM437.5 1549.5H398.5V1588.5H437.5V1549.5ZM438.5 1549.5H477.5V1588.5H438.5V1549.5ZM517.5 1549.5H478.5V1588.5H517.5V1549.5ZM518.5 1549.5H557.5V1588.5H518.5V1549.5ZM277.5 1589.5H238.5V1628.5H277.5V1589.5ZM278.5 1589.5H317.5V1628.5H278.5V1589.5ZM357.5 1589.5H318.5V1628.5H357.5V1589.5ZM358.5 1589.5H397.5V1628.5H358.5V1589.5ZM437.5 1589.5H398.5V1628.5H437.5V1589.5ZM438.5 1589.5H477.5V1628.5H438.5V1589.5ZM517.5 1589.5H478.5V1628.5H517.5V1589.5ZM518.5 1589.5H557.5V1628.5H518.5V1589.5ZM277.5 1629.5H238.5V1668.5H277.5V1629.5ZM278.5 1629.5H317.5V1668.5H278.5V1629.5ZM357.5 1629.5H318.5V1668.5H357.5V1629.5ZM358.5 1629.5H397.5V1668.5H358.5V1629.5ZM437.5 1629.5H398.5V1668.5H437.5V1629.5ZM438.5 1629.5H477.5V1668.5H438.5V1629.5ZM517.5 1629.5H478.5V1668.5H517.5V1629.5ZM518.5 1629.5H557.5V1668.5H518.5V1629.5ZM277.5 1669.5H238.5V1708.5H277.5V1669.5ZM278.5 1669.5H317.5V1708.5H278.5V1669.5ZM357.5 1669.5H318.5V1708.5H357.5V1669.5ZM358.5 1669.5H397.5V1708.5H358.5V1669.5ZM437.5 1669.5H398.5V1708.5H437.5V1669.5ZM438.5 1669.5H477.5V1708.5H438.5V1669.5ZM517.5 1669.5H478.5V1708.5H517.5V1669.5ZM518.5 1669.5H557.5V1708.5H518.5V1669.5ZM277.5 1709.5H238.5V1748.5H277.5V1709.5ZM278.5 1709.5H317.5V1748.5H278.5V1709.5ZM357.5 1709.5H318.5V1748.5H357.5V1709.5ZM358.5 1709.5H397.5V1748.5H358.5V1709.5ZM437.5 1709.5H398.5V1748.5H437.5V1709.5ZM438.5 1709.5H477.5V1748.5H438.5V1709.5ZM517.5 1709.5H478.5V1748.5H517.5V1709.5ZM518.5 1709.5H557.5V1748.5H518.5V1709.5Z" fill="url(#paint21_linear_2_625)"/>
    <path fill-rule="evenodd" clip-rule="evenodd" d="M238 1749H558V2029H238V1749ZM238.5 1749.5H277.5V1788.5H238.5V1749.5ZM278.5 1749.5H317.5V1788.5H278.5V1749.5ZM357.5 1749.5H318.5V1788.5H357.5V1749.5ZM358.5 1749.5H397.5V1788.5H358.5V1749.5ZM437.5 1749.5H398.5V1788.5H437.5V1749.5ZM438.5 1749.5H477.5V1788.5H438.5V1749.5ZM517.5 1749.5H478.5V1788.5H517.5V1749.5ZM518.5 1749.5H557.5V1788.5H518.5V1749.5ZM277.5 1789.5H238.5V1828.5H277.5V1789.5ZM278.5 1789.5H317.5V1828.5H278.5V1789.5ZM357.5 1789.5H318.5V1828.5H357.5V1789.5ZM358.5 1789.5H397.5V1828.5H358.5V1789.5ZM437.5 1789.5H398.5V1828.5H437.5V1789.5ZM438.5 1789.5H477.5V1828.5H438.5V1789.5ZM517.5 1789.5H478.5V1828.5H517.5V1789.5ZM518.5 1789.5H557.5V1828.5H518.5V1789.5ZM277.5 1829.5H238.5V1868.5H277.5V1829.5ZM278.5 1829.5H317.5V1868.5H278.5V1829.5ZM357.5 1829.5H318.5V1868.5H357.5V1829.5ZM358.5 1829.5H397.5V1868.5H358.5V1829.5ZM437.5 1829.5H398.5V1868.5H437.5V1829.5ZM438.5 1829.5H477.5V1868.5H438.5V1829.5ZM517.5 1829.5H478.5V1868.5H517.5V1829.5ZM518.5 1829.5H557.5V1868.5H518.5V1829.5ZM277.5 1869.5H238.5V1908.5H277.5V1869.5ZM278.5 1869.5H317.5V1908.5H278.5V1869.5ZM357.5 1869.5H318.5V1908.5H357.5V1869.5ZM358.5 1869.5H397.5V1908.5H358.5V1869.5ZM437.5 1869.5H398.5V1908.5H437.5V1869.5ZM438.5 1869.5H477.5V1908.5H438.5V1869.5ZM517.5 1869.5H478.5V1908.5H517.5V1869.5ZM518.5 1869.5H557.5V1908.5H518.5V1869.5ZM277.5 1909.5H238.5V1948.5H277.5V1909.5ZM278.5 1909.5H317.5V1948.5H278.5V1909.5ZM357.5 1909.5H318.5V1948.5H357.5V1909.5ZM358.5 1909.5H397.5V1948.5H358.5V1909.5ZM437.5 1909.5H398.5V1948.5H437.5V1909.5ZM438.5 1909.5H477.5V1948.5H438.5V1909.5ZM517.5 1909.5H478.5V1948.5H517.5V1909.5ZM518.5 1909.5H557.5V1948.5H518.5V1909.5ZM277.5 1949.5H238.5V1988.5H277.5V1949.5ZM278.5 1949.5H317.5V1988.5H278.5V1949.5ZM357.5 1949.5H318.5V1988.5H357.5V1949.5ZM358.5 1949.5H397.5V1988.5H358.5V1949.5ZM437.5 1949.5H398.5V1988.5H437.5V1949.5ZM438.5 1949.5H477.5V1988.5H438.5V1949.5ZM517.5 1949.5H478.5V1988.5H517.5V1949.5ZM518.5 1949.5H557.5V1988.5H518.5V1949.5ZM277.5 1989.5H238.5V2028.5H277.5V1989.5ZM278.5 1989.5H317.5V2028.5H278.5V1989.5ZM357.5 1989.5H318.5V2028.5H357.5V1989.5ZM358.5 1989.5H397.5V2028.5H358.5V1989.5ZM437.5 1989.5H398.5V2028.5H437.5V1989.5ZM438.5 1989.5H477.5V2028.5H438.5V1989.5ZM517.5 1989.5H478.5V2028.5H517.5V1989.5ZM518.5 1989.5H557.5V2028.5H518.5V1989.5Z" fill="url(#paint22_linear_2_625)"/>
    <path fill-rule="evenodd" clip-rule="evenodd" d="M238 2029H558V2309H238V2029ZM238.5 2029.5H277.5V2068.5H238.5V2029.5ZM278.5 2029.5H317.5V2068.5H278.5V2029.5ZM357.5 2029.5H318.5V2068.5H357.5V2029.5ZM358.5 2029.5H397.5V2068.5H358.5V2029.5ZM437.5 2029.5H398.5V2068.5H437.5V2029.5ZM438.5 2029.5H477.5V2068.5H438.5V2029.5ZM517.5 2029.5H478.5V2068.5H517.5V2029.5ZM518.5 2029.5H557.5V2068.5H518.5V2029.5ZM277.5 2069.5H238.5V2108.5H277.5V2069.5ZM278.5 2069.5H317.5V2108.5H278.5V2069.5ZM357.5 2069.5H318.5V2108.5H357.5V2069.5ZM358.5 2069.5H397.5V2108.5H358.5V2069.5ZM437.5 2069.5H398.5V2108.5H437.5V2069.5ZM438.5 2069.5H477.5V2108.5H438.5V2069.5ZM517.5 2069.5H478.5V2108.5H517.5V2069.5ZM518.5 2069.5H557.5V2108.5H518.5V2069.5ZM277.5 2109.5H238.5V2148.5H277.5V2109.5ZM278.5 2109.5H317.5V2148.5H278.5V2109.5ZM357.5 2109.5H318.5V2148.5H357.5V2109.5ZM358.5 2109.5H397.5V2148.5H358.5V2109.5ZM437.5 2109.5H398.5V2148.5H437.5V2109.5ZM438.5 2109.5H477.5V2148.5H438.5V2109.5ZM517.5 2109.5H478.5V2148.5H517.5V2109.5ZM518.5 2109.5H557.5V2148.5H518.5V2109.5ZM277.5 2149.5H238.5V2188.5H277.5V2149.5ZM278.5 2149.5H317.5V2188.5H278.5V2149.5ZM357.5 2149.5H318.5V2188.5H357.5V2149.5ZM358.5 2149.5H397.5V2188.5H358.5V2149.5ZM437.5 2149.5H398.5V2188.5H437.5V2149.5ZM438.5 2149.5H477.5V2188.5H438.5V2149.5ZM517.5 2149.5H478.5V2188.5H517.5V2149.5ZM518.5 2149.5H557.5V2188.5H518.5V2149.5ZM277.5 2189.5H238.5V2228.5H277.5V2189.5ZM278.5 2189.5H317.5V2228.5H278.5V2189.5ZM357.5 2189.5H318.5V2228.5H357.5V2189.5ZM358.5 2189.5H397.5V2228.5H358.5V2189.5ZM437.5 2189.5H398.5V2228.5H437.5V2189.5ZM438.5 2189.5H477.5V2228.5H438.5V2189.5ZM517.5 2189.5H478.5V2228.5H517.5V2189.5ZM518.5 2189.5H557.5V2228.5H518.5V2189.5ZM277.5 2229.5H238.5V2268.5H277.5V2229.5ZM278.5 2229.5H317.5V2268.5H278.5V2229.5ZM357.5 2229.5H318.5V2268.5H357.5V2229.5ZM358.5 2229.5H397.5V2268.5H358.5V2229.5ZM437.5 2229.5H398.5V2268.5H437.5V2229.5ZM438.5 2229.5H477.5V2268.5H438.5V2229.5ZM517.5 2229.5H478.5V2268.5H517.5V2229.5ZM518.5 2229.5H557.5V2268.5H518.5V2229.5ZM277.5 2269.5H238.5V2308.5H277.5V2269.5ZM278.5 2269.5H317.5V2308.5H278.5V2269.5ZM357.5 2269.5H318.5V2308.5H357.5V2269.5ZM358.5 2269.5H397.5V2308.5H358.5V2269.5ZM437.5 2269.5H398.5V2308.5H437.5V2269.5ZM438.5 2269.5H477.5V2308.5H438.5V2269.5ZM517.5 2269.5H478.5V2308.5H517.5V2269.5ZM518.5 2269.5H557.5V2308.5H518.5V2269.5Z" fill="url(#paint23_linear_2_625)"/>
    <path fill-rule="evenodd" clip-rule="evenodd" d="M238 2309H558V2589H238V2309ZM238.5 2309.5H277.5V2348.5H238.5V2309.5ZM278.5 2309.5H317.5V2348.5H278.5V2309.5ZM357.5 2309.5H318.5V2348.5H357.5V2309.5ZM358.5 2309.5H397.5V2348.5H358.5V2309.5ZM437.5 2309.5H398.5V2348.5H437.5V2309.5ZM438.5 2309.5H477.5V2348.5H438.5V2309.5ZM517.5 2309.5H478.5V2348.5H517.5V2309.5ZM518.5 2309.5H557.5V2348.5H518.5V2309.5ZM277.5 2349.5H238.5V2388.5H277.5V2349.5ZM278.5 2349.5H317.5V2388.5H278.5V2349.5ZM357.5 2349.5H318.5V2388.5H357.5V2349.5ZM358.5 2349.5H397.5V2388.5H358.5V2349.5ZM437.5 2349.5H398.5V2388.5H437.5V2349.5ZM438.5 2349.5H477.5V2388.5H438.5V2349.5ZM517.5 2349.5H478.5V2388.5H517.5V2349.5ZM518.5 2349.5H557.5V2388.5H518.5V2349.5ZM277.5 2389.5H238.5V2428.5H277.5V2389.5ZM278.5 2389.5H317.5V2428.5H278.5V2389.5ZM357.5 2389.5H318.5V2428.5H357.5V2389.5ZM358.5 2389.5H397.5V2428.5H358.5V2389.5ZM437.5 2389.5H398.5V2428.5H437.5V2389.5ZM438.5 2389.5H477.5V2428.5H438.5V2389.5ZM517.5 2389.5H478.5V2428.5H517.5V2389.5ZM518.5 2389.5H557.5V2428.5H518.5V2389.5ZM277.5 2429.5H238.5V2468.5H277.5V2429.5ZM278.5 2429.5H317.5V2468.5H278.5V2429.5ZM357.5 2429.5H318.5V2468.5H357.5V2429.5ZM358.5 2429.5H397.5V2468.5H358.5V2429.5ZM437.5 2429.5H398.5V2468.5H437.5V2429.5ZM438.5 2429.5H477.5V2468.5H438.5V2429.5ZM517.5 2429.5H478.5V2468.5H517.5V2429.5ZM518.5 2429.5H557.5V2468.5H518.5V2429.5ZM277.5 2469.5H238.5V2508.5H277.5V2469.5ZM278.5 2469.5H317.5V2508.5H278.5V2469.5ZM357.5 2469.5H318.5V2508.5H357.5V2469.5ZM358.5 2469.5H397.5V2508.5H358.5V2469.5ZM437.5 2469.5H398.5V2508.5H437.5V2469.5ZM438.5 2469.5H477.5V2508.5H438.5V2469.5ZM517.5 2469.5H478.5V2508.5H517.5V2469.5ZM518.5 2469.5H557.5V2508.5H518.5V2469.5ZM277.5 2509.5H238.5V2548.5H277.5V2509.5ZM278.5 2509.5H317.5V2548.5H278.5V2509.5ZM357.5 2509.5H318.5V2548.5H357.5V2509.5ZM358.5 2509.5H397.5V2548.5H358.5V2509.5ZM437.5 2509.5H398.5V2548.5H437.5V2509.5ZM438.5 2509.5H477.5V2548.5H438.5V2509.5ZM517.5 2509.5H478.5V2548.5H517.5V2509.5ZM518.5 2509.5H557.5V2548.5H518.5V2509.5ZM277.5 2549.5H238.5V2588.5H277.5V2549.5ZM278.5 2549.5H317.5V2588.5H278.5V2549.5ZM357.5 2549.5H318.5V2588.5H357.5V2549.5ZM358.5 2549.5H397.5V2588.5H358.5V2549.5ZM437.5 2549.5H398.5V2588.5H437.5V2549.5ZM438.5 2549.5H477.5V2588.5H438.5V2549.5ZM517.5 2549.5H478.5V2588.5H517.5V2549.5ZM518.5 2549.5H557.5V2588.5H518.5V2549.5Z" fill="url(#paint24_linear_2_625)"/>
    <path fill-rule="evenodd" clip-rule="evenodd" d="M238 2589H558V2869H238V2589ZM238.5 2589.5H277.5V2628.5H238.5V2589.5ZM278.5 2589.5H317.5V2628.5H278.5V2589.5ZM357.5 2589.5H318.5V2628.5H357.5V2589.5ZM358.5 2589.5H397.5V2628.5H358.5V2589.5ZM437.5 2589.5H398.5V2628.5H437.5V2589.5ZM438.5 2589.5H477.5V2628.5H438.5V2589.5ZM517.5 2589.5H478.5V2628.5H517.5V2589.5ZM518.5 2589.5H557.5V2628.5H518.5V2589.5ZM277.5 2629.5H238.5V2668.5H277.5V2629.5ZM278.5 2629.5H317.5V2668.5H278.5V2629.5ZM357.5 2629.5H318.5V2668.5H357.5V2629.5ZM358.5 2629.5H397.5V2668.5H358.5V2629.5ZM437.5 2629.5H398.5V2668.5H437.5V2629.5ZM438.5 2629.5H477.5V2668.5H438.5V2629.5ZM517.5 2629.5H478.5V2668.5H517.5V2629.5ZM518.5 2629.5H557.5V2668.5H518.5V2629.5ZM277.5 2669.5H238.5V2708.5H277.5V2669.5ZM278.5 2669.5H317.5V2708.5H278.5V2669.5ZM357.5 2669.5H318.5V2708.5H357.5V2669.5ZM358.5 2669.5H397.5V2708.5H358.5V2669.5ZM437.5 2669.5H398.5V2708.5H437.5V2669.5ZM438.5 2669.5H477.5V2708.5H438.5V2669.5ZM517.5 2669.5H478.5V2708.5H517.5V2669.5ZM518.5 2669.5H557.5V2708.5H518.5V2669.5ZM277.5 2709.5H238.5V2748.5H277.5V2709.5ZM278.5 2709.5H317.5V2748.5H278.5V2709.5ZM357.5 2709.5H318.5V2748.5H357.5V2709.5ZM358.5 2709.5H397.5V2748.5H358.5V2709.5ZM437.5 2709.5H398.5V2748.5H437.5V2709.5ZM438.5 2709.5H477.5V2748.5H438.5V2709.5ZM517.5 2709.5H478.5V2748.5H517.5V2709.5ZM518.5 2709.5H557.5V2748.5H518.5V2709.5ZM277.5 2749.5H238.5V2788.5H277.5V2749.5ZM278.5 2749.5H317.5V2788.5H278.5V2749.5ZM357.5 2749.5H318.5V2788.5H357.5V2749.5ZM358.5 2749.5H397.5V2788.5H358.5V2749.5ZM437.5 2749.5H398.5V2788.5H437.5V2749.5ZM438.5 2749.5H477.5V2788.5H438.5V2749.5ZM517.5 2749.5H478.5V2788.5H517.5V2749.5ZM518.5 2749.5H557.5V2788.5H518.5V2749.5ZM277.5 2789.5H238.5V2828.5H277.5V2789.5ZM278.5 2789.5H317.5V2828.5H278.5V2789.5ZM357.5 2789.5H318.5V2828.5H357.5V2789.5ZM358.5 2789.5H397.5V2828.5H358.5V2789.5ZM437.5 2789.5H398.5V2828.5H437.5V2789.5ZM438.5 2789.5H477.5V2828.5H438.5V2789.5ZM517.5 2789.5H478.5V2828.5H517.5V2789.5ZM518.5 2789.5H557.5V2828.5H518.5V2789.5ZM277.5 2829.5H238.5V2868.5H277.5V2829.5ZM278.5 2829.5H317.5V2868.5H278.5V2829.5ZM357.5 2829.5H318.5V2868.5H357.5V2829.5ZM358.5 2829.5H397.5V2868.5H358.5V2829.5ZM437.5 2829.5H398.5V2868.5H437.5V2829.5ZM438.5 2829.5H477.5V2868.5H438.5V2829.5ZM517.5 2829.5H478.5V2868.5H517.5V2829.5ZM518.5 2829.5H557.5V2868.5H518.5V2829.5Z" fill="url(#paint25_linear_2_625)"/>
    <path fill-rule="evenodd" clip-rule="evenodd" d="M238 2869H558V3149H238V2869ZM238.5 2869.5H277.5V2908.5H238.5V2869.5ZM278.5 2869.5H317.5V2908.5H278.5V2869.5ZM357.5 2869.5H318.5V2908.5H357.5V2869.5ZM358.5 2869.5H397.5V2908.5H358.5V2869.5ZM437.5 2869.5H398.5V2908.5H437.5V2869.5ZM438.5 2869.5H477.5V2908.5H438.5V2869.5ZM517.5 2869.5H478.5V2908.5H517.5V2869.5ZM518.5 2869.5H557.5V2908.5H518.5V2869.5ZM277.5 2909.5H238.5V2948.5H277.5V2909.5ZM278.5 2909.5H317.5V2948.5H278.5V2909.5ZM357.5 2909.5H318.5V2948.5H357.5V2909.5ZM358.5 2909.5H397.5V2948.5H358.5V2909.5ZM437.5 2909.5H398.5V2948.5H437.5V2909.5ZM438.5 2909.5H477.5V2948.5H438.5V2909.5ZM517.5 2909.5H478.5V2948.5H517.5V2909.5ZM518.5 2909.5H557.5V2948.5H518.5V2909.5ZM277.5 2949.5H238.5V2988.5H277.5V2949.5ZM278.5 2949.5H317.5V2988.5H278.5V2949.5ZM357.5 2949.5H318.5V2988.5H357.5V2949.5ZM358.5 2949.5H397.5V2988.5H358.5V2949.5ZM437.5 2949.5H398.5V2988.5H437.5V2949.5ZM438.5 2949.5H477.5V2988.5H438.5V2949.5ZM517.5 2949.5H478.5V2988.5H517.5V2949.5ZM518.5 2949.5H557.5V2988.5H518.5V2949.5ZM277.5 2989.5H238.5V3028.5H277.5V2989.5ZM278.5 2989.5H317.5V3028.5H278.5V2989.5ZM357.5 2989.5H318.5V3028.5H357.5V2989.5ZM358.5 2989.5H397.5V3028.5H358.5V2989.5ZM437.5 2989.5H398.5V3028.5H437.5V2989.5ZM438.5 2989.5H477.5V3028.5H438.5V2989.5ZM517.5 2989.5H478.5V3028.5H517.5V2989.5ZM518.5 2989.5H557.5V3028.5H518.5V2989.5ZM277.5 3029.5H238.5V3068.5H277.5V3029.5ZM278.5 3029.5H317.5V3068.5H278.5V3029.5ZM357.5 3029.5H318.5V3068.5H357.5V3029.5ZM358.5 3029.5H397.5V3068.5H358.5V3029.5ZM437.5 3029.5H398.5V3068.5H437.5V3029.5ZM438.5 3029.5H477.5V3068.5H438.5V3029.5ZM517.5 3029.5H478.5V3068.5H517.5V3029.5ZM518.5 3029.5H557.5V3068.5H518.5V3029.5ZM277.5 3069.5H238.5V3108.5H277.5V3069.5ZM278.5 3069.5H317.5V3108.5H278.5V3069.5ZM357.5 3069.5H318.5V3108.5H357.5V3069.5ZM358.5 3069.5H397.5V3108.5H358.5V3069.5ZM437.5 3069.5H398.5V3108.5H437.5V3069.5ZM438.5 3069.5H477.5V3108.5H438.5V3069.5ZM517.5 3069.5H478.5V3108.5H517.5V3069.5ZM518.5 3069.5H557.5V3108.5H518.5V3069.5ZM277.5 3109.5H238.5V3148.5H277.5V3109.5ZM278.5 3109.5H317.5V3148.5H278.5V3109.5ZM357.5 3109.5H318.5V3148.5H357.5V3109.5ZM358.5 3109.5H397.5V3148.5H358.5V3109.5ZM437.5 3109.5H398.5V3148.5H437.5V3109.5ZM438.5 3109.5H477.5V3148.5H438.5V3109.5ZM517.5 3109.5H478.5V3148.5H517.5V3109.5ZM518.5 3109.5H557.5V3148.5H518.5V3109.5Z" fill="url(#paint26_linear_2_625)"/>
    <path fill-rule="evenodd" clip-rule="evenodd" d="M238 3149H558V3429H238V3149ZM238.5 3149.5H277.5V3188.5H238.5V3149.5ZM278.5 3149.5H317.5V3188.5H278.5V3149.5ZM357.5 3149.5H318.5V3188.5H357.5V3149.5ZM358.5 3149.5H397.5V3188.5H358.5V3149.5ZM437.5 3149.5H398.5V3188.5H437.5V3149.5ZM438.5 3149.5H477.5V3188.5H438.5V3149.5ZM517.5 3149.5H478.5V3188.5H517.5V3149.5ZM518.5 3149.5H557.5V3188.5H518.5V3149.5ZM277.5 3189.5H238.5V3228.5H277.5V3189.5ZM278.5 3189.5H317.5V3228.5H278.5V3189.5ZM357.5 3189.5H318.5V3228.5H357.5V3189.5ZM358.5 3189.5H397.5V3228.5H358.5V3189.5ZM437.5 3189.5H398.5V3228.5H437.5V3189.5ZM438.5 3189.5H477.5V3228.5H438.5V3189.5ZM517.5 3189.5H478.5V3228.5H517.5V3189.5ZM518.5 3189.5H557.5V3228.5H518.5V3189.5ZM277.5 3229.5H238.5V3268.5H277.5V3229.5ZM278.5 3229.5H317.5V3268.5H278.5V3229.5ZM357.5 3229.5H318.5V3268.5H357.5V3229.5ZM358.5 3229.5H397.5V3268.5H358.5V3229.5ZM437.5 3229.5H398.5V3268.5H437.5V3229.5ZM438.5 3229.5H477.5V3268.5H438.5V3229.5ZM517.5 3229.5H478.5V3268.5H517.5V3229.5ZM518.5 3229.5H557.5V3268.5H518.5V3229.5ZM277.5 3269.5H238.5V3308.5H277.5V3269.5ZM278.5 3269.5H317.5V3308.5H278.5V3269.5ZM357.5 3269.5H318.5V3308.5H357.5V3269.5ZM358.5 3269.5H397.5V3308.5H358.5V3269.5ZM437.5 3269.5H398.5V3308.5H437.5V3269.5ZM438.5 3269.5H477.5V3308.5H438.5V3269.5ZM517.5 3269.5H478.5V3308.5H517.5V3269.5ZM518.5 3269.5H557.5V3308.5H518.5V3269.5ZM277.5 3309.5H238.5V3348.5H277.5V3309.5ZM278.5 3309.5H317.5V3348.5H278.5V3309.5ZM357.5 3309.5H318.5V3348.5H357.5V3309.5ZM358.5 3309.5H397.5V3348.5H358.5V3309.5ZM437.5 3309.5H398.5V3348.5H437.5V3309.5ZM438.5 3309.5H477.5V3348.5H438.5V3309.5ZM517.5 3309.5H478.5V3348.5H517.5V3309.5ZM518.5 3309.5H557.5V3348.5H518.5V3309.5ZM277.5 3349.5H238.5V3388.5H277.5V3349.5ZM278.5 3349.5H317.5V3388.5H278.5V3349.5ZM357.5 3349.5H318.5V3388.5H357.5V3349.5ZM358.5 3349.5H397.5V3388.5H358.5V3349.5ZM437.5 3349.5H398.5V3388.5H437.5V3349.5ZM438.5 3349.5H477.5V3388.5H438.5V3349.5ZM517.5 3349.5H478.5V3388.5H517.5V3349.5ZM518.5 3349.5H557.5V3388.5H518.5V3349.5ZM277.5 3389.5H238.5V3428.5H277.5V3389.5ZM278.5 3389.5H317.5V3428.5H278.5V3389.5ZM357.5 3389.5H318.5V3428.5H357.5V3389.5ZM358.5 3389.5H397.5V3428.5H358.5V3389.5ZM437.5 3389.5H398.5V3428.5H437.5V3389.5ZM438.5 3389.5H477.5V3428.5H438.5V3389.5ZM517.5 3389.5H478.5V3428.5H517.5V3389.5ZM518.5 3389.5H557.5V3428.5H518.5V3389.5Z" fill="url(#paint27_linear_2_625)"/>
    <path fill-rule="evenodd" clip-rule="evenodd" d="M238 3429H558V3709H238V3429ZM238.5 3429.5H277.5V3468.5H238.5V3429.5ZM278.5 3429.5H317.5V3468.5H278.5V3429.5ZM357.5 3429.5H318.5V3468.5H357.5V3429.5ZM358.5 3429.5H397.5V3468.5H358.5V3429.5ZM437.5 3429.5H398.5V3468.5H437.5V3429.5ZM438.5 3429.5H477.5V3468.5H438.5V3429.5ZM517.5 3429.5H478.5V3468.5H517.5V3429.5ZM518.5 3429.5H557.5V3468.5H518.5V3429.5ZM277.5 3469.5H238.5V3508.5H277.5V3469.5ZM278.5 3469.5H317.5V3508.5H278.5V3469.5ZM357.5 3469.5H318.5V3508.5H357.5V3469.5ZM358.5 3469.5H397.5V3508.5H358.5V3469.5ZM437.5 3469.5H398.5V3508.5H437.5V3469.5ZM438.5 3469.5H477.5V3508.5H438.5V3469.5ZM517.5 3469.5H478.5V3508.5H517.5V3469.5ZM518.5 3469.5H557.5V3508.5H518.5V3469.5ZM277.5 3509.5H238.5V3548.5H277.5V3509.5ZM278.5 3509.5H317.5V3548.5H278.5V3509.5ZM357.5 3509.5H318.5V3548.5H357.5V3509.5ZM358.5 3509.5H397.5V3548.5H358.5V3509.5ZM437.5 3509.5H398.5V3548.5H437.5V3509.5ZM438.5 3509.5H477.5V3548.5H438.5V3509.5ZM517.5 3509.5H478.5V3548.5H517.5V3509.5ZM518.5 3509.5H557.5V3548.5H518.5V3509.5ZM277.5 3549.5H238.5V3588.5H277.5V3549.5ZM278.5 3549.5H317.5V3588.5H278.5V3549.5ZM357.5 3549.5H318.5V3588.5H357.5V3549.5ZM358.5 3549.5H397.5V3588.5H358.5V3549.5ZM437.5 3549.5H398.5V3588.5H437.5V3549.5ZM438.5 3549.5H477.5V3588.5H438.5V3549.5ZM517.5 3549.5H478.5V3588.5H517.5V3549.5ZM518.5 3549.5H557.5V3588.5H518.5V3549.5ZM277.5 3589.5H238.5V3628.5H277.5V3589.5ZM278.5 3589.5H317.5V3628.5H278.5V3589.5ZM357.5 3589.5H318.5V3628.5H357.5V3589.5ZM358.5 3589.5H397.5V3628.5H358.5V3589.5ZM437.5 3589.5H398.5V3628.5H437.5V3589.5ZM438.5 3589.5H477.5V3628.5H438.5V3589.5ZM517.5 3589.5H478.5V3628.5H517.5V3589.5ZM518.5 3589.5H557.5V3628.5H518.5V3589.5ZM277.5 3629.5H238.5V3668.5H277.5V3629.5ZM278.5 3629.5H317.5V3668.5H278.5V3629.5ZM357.5 3629.5H318.5V3668.5H357.5V3629.5ZM358.5 3629.5H397.5V3668.5H358.5V3629.5ZM437.5 3629.5H398.5V3668.5H437.5V3629.5ZM438.5 3629.5H477.5V3668.5H438.5V3629.5ZM517.5 3629.5H478.5V3668.5H517.5V3629.5ZM518.5 3629.5H557.5V3668.5H518.5V3629.5ZM277.5 3669.5H238.5V3708.5H277.5V3669.5ZM278.5 3669.5H317.5V3708.5H278.5V3669.5ZM357.5 3669.5H318.5V3708.5H357.5V3669.5ZM358.5 3669.5H397.5V3708.5H358.5V3669.5ZM437.5 3669.5H398.5V3708.5H437.5V3669.5ZM438.5 3669.5H477.5V3708.5H438.5V3669.5ZM517.5 3669.5H478.5V3708.5H517.5V3669.5ZM518.5 3669.5H557.5V3708.5H518.5V3669.5Z" fill="url(#paint28_linear_2_625)"/>
    <path fill-rule="evenodd" clip-rule="evenodd" d="M238 3709H558V3989H238V3709ZM238.5 3709.5H277.5V3748.5H238.5V3709.5ZM278.5 3709.5H317.5V3748.5H278.5V3709.5ZM357.5 3709.5H318.5V3748.5H357.5V3709.5ZM358.5 3709.5H397.5V3748.5H358.5V3709.5ZM437.5 3709.5H398.5V3748.5H437.5V3709.5ZM438.5 3709.5H477.5V3748.5H438.5V3709.5ZM517.5 3709.5H478.5V3748.5H517.5V3709.5ZM518.5 3709.5H557.5V3748.5H518.5V3709.5ZM277.5 3749.5H238.5V3788.5H277.5V3749.5ZM278.5 3749.5H317.5V3788.5H278.5V3749.5ZM357.5 3749.5H318.5V3788.5H357.5V3749.5ZM358.5 3749.5H397.5V3788.5H358.5V3749.5ZM437.5 3749.5H398.5V3788.5H437.5V3749.5ZM438.5 3749.5H477.5V3788.5H438.5V3749.5ZM517.5 3749.5H478.5V3788.5H517.5V3749.5ZM518.5 3749.5H557.5V3788.5H518.5V3749.5ZM277.5 3789.5H238.5V3828.5H277.5V3789.5ZM278.5 3789.5H317.5V3828.5H278.5V3789.5ZM357.5 3789.5H318.5V3828.5H357.5V3789.5ZM358.5 3789.5H397.5V3828.5H358.5V3789.5ZM437.5 3789.5H398.5V3828.5H437.5V3789.5ZM438.5 3789.5H477.5V3828.5H438.5V3789.5ZM517.5 3789.5H478.5V3828.5H517.5V3789.5ZM518.5 3789.5H557.5V3828.5H518.5V3789.5ZM277.5 3829.5H238.5V3868.5H277.5V3829.5ZM278.5 3829.5H317.5V3868.5H278.5V3829.5ZM357.5 3829.5H318.5V3868.5H357.5V3829.5ZM358.5 3829.5H397.5V3868.5H358.5V3829.5ZM437.5 3829.5H398.5V3868.5H437.5V3829.5ZM438.5 3829.5H477.5V3868.5H438.5V3829.5ZM517.5 3829.5H478.5V3868.5H517.5V3829.5ZM518.5 3829.5H557.5V3868.5H518.5V3829.5ZM277.5 3869.5H238.5V3908.5H277.5V3869.5ZM278.5 3869.5H317.5V3908.5H278.5V3869.5ZM357.5 3869.5H318.5V3908.5H357.5V3869.5ZM358.5 3869.5H397.5V3908.5H358.5V3869.5ZM437.5 3869.5H398.5V3908.5H437.5V3869.5ZM438.5 3869.5H477.5V3908.5H438.5V3869.5ZM517.5 3869.5H478.5V3908.5H517.5V3869.5ZM518.5 3869.5H557.5V3908.5H518.5V3869.5ZM277.5 3909.5H238.5V3948.5H277.5V3909.5ZM278.5 3909.5H317.5V3948.5H278.5V3909.5ZM357.5 3909.5H318.5V3948.5H357.5V3909.5ZM358.5 3909.5H397.5V3948.5H358.5V3909.5ZM437.5 3909.5H398.5V3948.5H437.5V3909.5ZM438.5 3909.5H477.5V3948.5H438.5V3909.5ZM517.5 3909.5H478.5V3948.5H517.5V3909.5ZM518.5 3909.5H557.5V3948.5H518.5V3909.5ZM277.5 3949.5H238.5V3988.5H277.5V3949.5ZM278.5 3949.5H317.5V3988.5H278.5V3949.5ZM357.5 3949.5H318.5V3988.5H357.5V3949.5ZM358.5 3949.5H397.5V3988.5H358.5V3949.5ZM437.5 3949.5H398.5V3988.5H437.5V3949.5ZM438.5 3949.5H477.5V3988.5H438.5V3949.5ZM517.5 3949.5H478.5V3988.5H517.5V3949.5ZM518.5 3949.5H557.5V3988.5H518.5V3949.5Z" fill="url(#paint29_linear_2_625)"/>
    <path fill-rule="evenodd" clip-rule="evenodd" d="M238 3989H558V4269H238V3989ZM238.5 3989.5H277.5V4028.5H238.5V3989.5ZM278.5 3989.5H317.5V4028.5H278.5V3989.5ZM357.5 3989.5H318.5V4028.5H357.5V3989.5ZM358.5 3989.5H397.5V4028.5H358.5V3989.5ZM437.5 3989.5H398.5V4028.5H437.5V3989.5ZM438.5 3989.5H477.5V4028.5H438.5V3989.5ZM517.5 3989.5H478.5V4028.5H517.5V3989.5ZM518.5 3989.5H557.5V4028.5H518.5V3989.5ZM277.5 4029.5H238.5V4068.5H277.5V4029.5ZM278.5 4029.5H317.5V4068.5H278.5V4029.5ZM357.5 4029.5H318.5V4068.5H357.5V4029.5ZM358.5 4029.5H397.5V4068.5H358.5V4029.5ZM437.5 4029.5H398.5V4068.5H437.5V4029.5ZM438.5 4029.5H477.5V4068.5H438.5V4029.5ZM517.5 4029.5H478.5V4068.5H517.5V4029.5ZM518.5 4029.5H557.5V4068.5H518.5V4029.5ZM277.5 4069.5H238.5V4108.5H277.5V4069.5ZM278.5 4069.5H317.5V4108.5H278.5V4069.5ZM357.5 4069.5H318.5V4108.5H357.5V4069.5ZM358.5 4069.5H397.5V4108.5H358.5V4069.5ZM437.5 4069.5H398.5V4108.5H437.5V4069.5ZM438.5 4069.5H477.5V4108.5H438.5V4069.5ZM517.5 4069.5H478.5V4108.5H517.5V4069.5ZM518.5 4069.5H557.5V4108.5H518.5V4069.5ZM277.5 4109.5H238.5V4148.5H277.5V4109.5ZM278.5 4109.5H317.5V4148.5H278.5V4109.5ZM357.5 4109.5H318.5V4148.5H357.5V4109.5ZM358.5 4109.5H397.5V4148.5H358.5V4109.5ZM437.5 4109.5H398.5V4148.5H437.5V4109.5ZM438.5 4109.5H477.5V4148.5H438.5V4109.5ZM517.5 4109.5H478.5V4148.5H517.5V4109.5ZM518.5 4109.5H557.5V4148.5H518.5V4109.5ZM277.5 4149.5H238.5V4188.5H277.5V4149.5ZM278.5 4149.5H317.5V4188.5H278.5V4149.5ZM357.5 4149.5H318.5V4188.5H357.5V4149.5ZM358.5 4149.5H397.5V4188.5H358.5V4149.5ZM437.5 4149.5H398.5V4188.5H437.5V4149.5ZM438.5 4149.5H477.5V4188.5H438.5V4149.5ZM517.5 4149.5H478.5V4188.5H517.5V4149.5ZM518.5 4149.5H557.5V4188.5H518.5V4149.5ZM277.5 4189.5H238.5V4228.5H277.5V4189.5ZM278.5 4189.5H317.5V4228.5H278.5V4189.5ZM357.5 4189.5H318.5V4228.5H357.5V4189.5ZM358.5 4189.5H397.5V4228.5H358.5V4189.5ZM437.5 4189.5H398.5V4228.5H437.5V4189.5ZM438.5 4189.5H477.5V4228.5H438.5V4189.5ZM517.5 4189.5H478.5V4228.5H517.5V4189.5ZM518.5 4189.5H557.5V4228.5H518.5V4189.5ZM277.5 4229.5H238.5V4268.5H277.5V4229.5ZM278.5 4229.5H317.5V4268.5H278.5V4229.5ZM357.5 4229.5H318.5V4268.5H357.5V4229.5ZM358.5 4229.5H397.5V4268.5H358.5V4229.5ZM437.5 4229.5H398.5V4268.5H437.5V4229.5ZM438.5 4229.5H477.5V4268.5H438.5V4229.5ZM517.5 4229.5H478.5V4268.5H517.5V4229.5ZM518.5 4229.5H557.5V4268.5H518.5V4229.5Z" fill="url(#paint30_linear_2_625)"/>
    <path fill-rule="evenodd" clip-rule="evenodd" d="M238 4269H558V4549H238V4269ZM238.5 4269.5H277.5V4308.5H238.5V4269.5ZM278.5 4269.5H317.5V4308.5H278.5V4269.5ZM357.5 4269.5H318.5V4308.5H357.5V4269.5ZM358.5 4269.5H397.5V4308.5H358.5V4269.5ZM437.5 4269.5H398.5V4308.5H437.5V4269.5ZM438.5 4269.5H477.5V4308.5H438.5V4269.5ZM517.5 4269.5H478.5V4308.5H517.5V4269.5ZM518.5 4269.5H557.5V4308.5H518.5V4269.5ZM277.5 4309.5H238.5V4348.5H277.5V4309.5ZM278.5 4309.5H317.5V4348.5H278.5V4309.5ZM357.5 4309.5H318.5V4348.5H357.5V4309.5ZM358.5 4309.5H397.5V4348.5H358.5V4309.5ZM437.5 4309.5H398.5V4348.5H437.5V4309.5ZM438.5 4309.5H477.5V4348.5H438.5V4309.5ZM517.5 4309.5H478.5V4348.5H517.5V4309.5ZM518.5 4309.5H557.5V4348.5H518.5V4309.5ZM277.5 4349.5H238.5V4388.5H277.5V4349.5ZM278.5 4349.5H317.5V4388.5H278.5V4349.5ZM357.5 4349.5H318.5V4388.5H357.5V4349.5ZM358.5 4349.5H397.5V4388.5H358.5V4349.5ZM437.5 4349.5H398.5V4388.5H437.5V4349.5ZM438.5 4349.5H477.5V4388.5H438.5V4349.5ZM517.5 4349.5H478.5V4388.5H517.5V4349.5ZM518.5 4349.5H557.5V4388.5H518.5V4349.5ZM277.5 4389.5H238.5V4428.5H277.5V4389.5ZM278.5 4389.5H317.5V4428.5H278.5V4389.5ZM357.5 4389.5H318.5V4428.5H357.5V4389.5ZM358.5 4389.5H397.5V4428.5H358.5V4389.5ZM437.5 4389.5H398.5V4428.5H437.5V4389.5ZM438.5 4389.5H477.5V4428.5H438.5V4389.5ZM517.5 4389.5H478.5V4428.5H517.5V4389.5ZM518.5 4389.5H557.5V4428.5H518.5V4389.5ZM277.5 4429.5H238.5V4468.5H277.5V4429.5ZM278.5 4429.5H317.5V4468.5H278.5V4429.5ZM357.5 4429.5H318.5V4468.5H357.5V4429.5ZM358.5 4429.5H397.5V4468.5H358.5V4429.5ZM437.5 4429.5H398.5V4468.5H437.5V4429.5ZM438.5 4429.5H477.5V4468.5H438.5V4429.5ZM517.5 4429.5H478.5V4468.5H517.5V4429.5ZM518.5 4429.5H557.5V4468.5H518.5V4429.5ZM277.5 4469.5H238.5V4508.5H277.5V4469.5ZM278.5 4469.5H317.5V4508.5H278.5V4469.5ZM357.5 4469.5H318.5V4508.5H357.5V4469.5ZM358.5 4469.5H397.5V4508.5H358.5V4469.5ZM437.5 4469.5H398.5V4508.5H437.5V4469.5ZM438.5 4469.5H477.5V4508.5H438.5V4469.5ZM517.5 4469.5H478.5V4508.5H517.5V4469.5ZM518.5 4469.5H557.5V4508.5H518.5V4469.5ZM277.5 4509.5H238.5V4548.5H277.5V4509.5ZM278.5 4509.5H317.5V4548.5H278.5V4509.5ZM357.5 4509.5H318.5V4548.5H357.5V4509.5ZM358.5 4509.5H397.5V4548.5H358.5V4509.5ZM437.5 4509.5H398.5V4548.5H437.5V4509.5ZM438.5 4509.5H477.5V4548.5H438.5V4509.5ZM517.5 4509.5H478.5V4548.5H517.5V4509.5ZM518.5 4509.5H557.5V4548.5H518.5V4509.5Z" fill="url(#paint31_linear_2_625)"/>
    <defs>
        <linearGradient id="paint0_linear_2_625" x1="-164" y1="69" x2="156" y2="69" gradientUnits="userSpaceOnUse">
            <stop stop-color="#30324F"/>
            <stop offset="1" stop-color="#232439"/>
        </linearGradient>
        <linearGradient id="paint1_linear_2_625" x1="-164" y1="349" x2="156" y2="349" gradientUnits="userSpaceOnUse">
            <stop stop-color="#30324F"/>
            <stop offset="1" stop-color="#232439"/>
        </linearGradient>
        <linearGradient id="paint2_linear_2_625" x1="-164" y1="629" x2="156" y2="629" gradientUnits="userSpaceOnUse">
            <stop stop-color="#30324F"/>
            <stop offset="1" stop-color="#232439"/>
        </linearGradient>
        <linearGradient id="paint3_linear_2_625" x1="-164" y1="909" x2="156" y2="909" gradientUnits="userSpaceOnUse">
            <stop stop-color="#30324F"/>
            <stop offset="1" stop-color="#232439"/>
        </linearGradient>
        <linearGradient id="paint4_linear_2_625" x1="-164" y1="1189" x2="156" y2="1189" gradientUnits="userSpaceOnUse">
            <stop stop-color="#30324F"/>
            <stop offset="1" stop-color="#232439"/>
        </linearGradient>
        <linearGradient id="paint5_linear_2_625" x1="-164" y1="1469" x2="156" y2="1469" gradientUnits="userSpaceOnUse">
            <stop stop-color="#30324F"/>
            <stop offset="1" stop-color="#232439"/>
        </linearGradient>
        <linearGradient id="paint6_linear_2_625" x1="-164" y1="1749" x2="156" y2="1749" gradientUnits="userSpaceOnUse">
            <stop stop-color="#30324F"/>
            <stop offset="1" stop-color="#232439"/>
        </linearGradient>
        <linearGradient id="paint7_linear_2_625" x1="-164" y1="2029" x2="156" y2="2029" gradientUnits="userSpaceOnUse">
            <stop stop-color="#30324F"/>
            <stop offset="1" stop-color="#232439"/>
        </linearGradient>
        <linearGradient id="paint8_linear_2_625" x1="-164" y1="2309" x2="156" y2="2309" gradientUnits="userSpaceOnUse">
            <stop stop-color="#30324F"/>
            <stop offset="1" stop-color="#232439"/>
        </linearGradient>
        <linearGradient id="paint9_linear_2_625" x1="-164" y1="2589" x2="156" y2="2589" gradientUnits="userSpaceOnUse">
            <stop stop-color="#30324F"/>
            <stop offset="1" stop-color="#232439"/>
        </linearGradient>
        <linearGradient id="paint10_linear_2_625" x1="-164" y1="2869" x2="156" y2="2869" gradientUnits="userSpaceOnUse">
            <stop stop-color="#30324F"/>
            <stop offset="1" stop-color="#232439"/>
        </linearGradient>
        <linearGradient id="paint11_linear_2_625" x1="-164" y1="3149" x2="156" y2="3149" gradientUnits="userSpaceOnUse">
            <stop stop-color="#30324F"/>
            <stop offset="1" stop-color="#232439"/>
        </linearGradient>
        <linearGradient id="paint12_linear_2_625" x1="-164" y1="3429" x2="156" y2="3429" gradientUnits="userSpaceOnUse">
            <stop stop-color="#30324F"/>
            <stop offset="1" stop-color="#232439"/>
        </linearGradient>
        <linearGradient id="paint13_linear_2_625" x1="-164" y1="3709" x2="156" y2="3709" gradientUnits="userSpaceOnUse">
            <stop stop-color="#30324F"/>
            <stop offset="1" stop-color="#232439"/>
        </linearGradient>
        <linearGradient id="paint14_linear_2_625" x1="-164" y1="3989" x2="156" y2="3989" gradientUnits="userSpaceOnUse">
            <stop stop-color="#30324F"/>
            <stop offset="1" stop-color="#232439"/>
        </linearGradient>
        <linearGradient id="paint15_linear_2_625" x1="-164" y1="4269" x2="156" y2="4269" gradientUnits="userSpaceOnUse">
            <stop stop-color="#30324F"/>
            <stop offset="1" stop-color="#232439"/>
        </linearGradient>
        <linearGradient id="paint16_linear_2_625" x1="558" y1="69" x2="238" y2="69" gradientUnits="userSpaceOnUse">
            <stop stop-color="#30324F"/>
            <stop offset="1" stop-color="#232439"/>
        </linearGradient>
        <linearGradient id="paint17_linear_2_625" x1="558" y1="349" x2="238" y2="349" gradientUnits="userSpaceOnUse">
            <stop stop-color="#30324F"/>
            <stop offset="1" stop-color="#232439"/>
        </linearGradient>
        <linearGradient id="paint18_linear_2_625" x1="558" y1="629" x2="238" y2="629" gradientUnits="userSpaceOnUse">
            <stop stop-color="#30324F"/>
            <stop offset="1" stop-color="#232439"/>
        </linearGradient>
        <linearGradient id="paint19_linear_2_625" x1="558" y1="909" x2="238" y2="909" gradientUnits="userSpaceOnUse">
            <stop stop-color="#30324F"/>
            <stop offset="1" stop-color="#232439"/>
        </linearGradient>
        <linearGradient id="paint20_linear_2_625" x1="558" y1="1189" x2="238" y2="1189" gradientUnits="userSpaceOnUse">
            <stop stop-color="#30324F"/>
            <stop offset="1" stop-color="#232439"/>
        </linearGradient>
        <linearGradient id="paint21_linear_2_625" x1="558" y1="1469" x2="238" y2="1469" gradientUnits="userSpaceOnUse">
            <stop stop-color="#30324F"/>
            <stop offset="1" stop-color="#232439"/>
        </linearGradient>
        <linearGradient id="paint22_linear_2_625" x1="558" y1="1749" x2="238" y2="1749" gradientUnits="userSpaceOnUse">
            <stop stop-color="#30324F"/>
            <stop offset="1" stop-color="#232439"/>
        </linearGradient>
        <linearGradient id="paint23_linear_2_625" x1="558" y1="2029" x2="238" y2="2029" gradientUnits="userSpaceOnUse">
            <stop stop-color="#30324F"/>
            <stop offset="1" stop-color="#232439"/>
        </linearGradient>
        <linearGradient id="paint24_linear_2_625" x1="558" y1="2309" x2="238" y2="2309" gradientUnits="userSpaceOnUse">
            <stop stop-color="#30324F"/>
            <stop offset="1" stop-color="#232439"/>
        </linearGradient>
        <linearGradient id="paint25_linear_2_625" x1="558" y1="2589" x2="238" y2="2589" gradientUnits="userSpaceOnUse">
            <stop stop-color="#30324F"/>
            <stop offset="1" stop-color="#232439"/>
        </linearGradient>
        <linearGradient id="paint26_linear_2_625" x1="558" y1="2869" x2="238" y2="2869" gradientUnits="userSpaceOnUse">
            <stop stop-color="#30324F"/>
            <stop offset="1" stop-color="#232439"/>
        </linearGradient>
        <linearGradient id="paint27_linear_2_625" x1="558" y1="3149" x2="238" y2="3149" gradientUnits="userSpaceOnUse">
            <stop stop-color="#30324F"/>
            <stop offset="1" stop-color="#232439"/>
        </linearGradient>
        <linearGradient id="paint28_linear_2_625" x1="558" y1="3429" x2="238" y2="3429" gradientUnits="userSpaceOnUse">
            <stop stop-color="#30324F"/>
            <stop offset="1" stop-color="#232439"/>
        </linearGradient>
        <linearGradient id="paint29_linear_2_625" x1="558" y1="3709" x2="238" y2="3709" gradientUnits="userSpaceOnUse">
            <stop stop-color="#30324F"/>
            <stop offset="1" stop-color="#232439"/>
        </linearGradient>
        <linearGradient id="paint30_linear_2_625" x1="558" y1="3989" x2="238" y2="3989" gradientUnits="userSpaceOnUse">
            <stop stop-color="#30324F"/>
            <stop offset="1" stop-color="#232439"/>
        </linearGradient>
        <linearGradient id="paint31_linear_2_625" x1="558" y1="4269" x2="238" y2="4269" gradientUnits="userSpaceOnUse">
            <stop stop-color="#30324F"/>
            <stop offset="1" stop-color="#232439"/>
        </linearGradient>
    </defs>
</svg>
