<svg width="1920" height="2917" viewBox="0 0 1920 2917" fill="none" xmlns="http://www.w3.org/2000/svg">
    <g clip-path="url(#clip0_2_310)">
        <path fill-rule="evenodd" clip-rule="evenodd" d="M1600 -8H1920V272H1600V-8ZM1600.5 -7.5H1639.5V31.5H1600.5V-7.5ZM1640.5 -7.5H1679.5V31.5H1640.5V-7.5ZM1719.5 -7.5H1680.5V31.5H1719.5V-7.5ZM1720.5 -7.5H1759.5V31.5H1720.5V-7.5ZM1799.5 -7.5H1760.5V31.5H1799.5V-7.5ZM1800.5 -7.5H1839.5V31.5H1800.5V-7.5ZM1879.5 -7.5H1840.5V31.5H1879.5V-7.5ZM1880.5 -7.5H1919.5V31.5H1880.5V-7.5ZM1639.5 32.5H1600.5V71.5H1639.5V32.5ZM1640.5 32.5H1679.5V71.5H1640.5V32.5ZM1719.5 32.5H1680.5V71.5H1719.5V32.5ZM1720.5 32.5H1759.5V71.5H1720.5V32.5ZM1799.5 32.5H1760.5V71.5H1799.5V32.5ZM1800.5 32.5H1839.5V71.5H1800.5V32.5ZM1879.5 32.5H1840.5V71.5H1879.5V32.5ZM1880.5 32.5H1919.5V71.5H1880.5V32.5ZM1639.5 72.5H1600.5V111.5H1639.5V72.5ZM1640.5 72.5H1679.5V111.5H1640.5V72.5ZM1719.5 72.5H1680.5V111.5H1719.5V72.5ZM1720.5 72.5H1759.5V111.5H1720.5V72.5ZM1799.5 72.5H1760.5V111.5H1799.5V72.5ZM1800.5 72.5H1839.5V111.5H1800.5V72.5ZM1879.5 72.5H1840.5V111.5H1879.5V72.5ZM1880.5 72.5H1919.5V111.5H1880.5V72.5ZM1639.5 112.5H1600.5V151.5H1639.5V112.5ZM1640.5 112.5H1679.5V151.5H1640.5V112.5ZM1719.5 112.5H1680.5V151.5H1719.5V112.5ZM1720.5 112.5H1759.5V151.5H1720.5V112.5ZM1799.5 112.5H1760.5V151.5H1799.5V112.5ZM1800.5 112.5H1839.5V151.5H1800.5V112.5ZM1879.5 112.5H1840.5V151.5H1879.5V112.5ZM1880.5 112.5H1919.5V151.5H1880.5V112.5ZM1639.5 152.5H1600.5V191.5H1639.5V152.5ZM1640.5 152.5H1679.5V191.5H1640.5V152.5ZM1719.5 152.5H1680.5V191.5H1719.5V152.5ZM1720.5 152.5H1759.5V191.5H1720.5V152.5ZM1799.5 152.5H1760.5V191.5H1799.5V152.5ZM1800.5 152.5H1839.5V191.5H1800.5V152.5ZM1879.5 152.5H1840.5V191.5H1879.5V152.5ZM1880.5 152.5H1919.5V191.5H1880.5V152.5ZM1639.5 192.5H1600.5V231.5H1639.5V192.5ZM1640.5 192.5H1679.5V231.5H1640.5V192.5ZM1719.5 192.5H1680.5V231.5H1719.5V192.5ZM1720.5 192.5H1759.5V231.5H1720.5V192.5ZM1799.5 192.5H1760.5V231.5H1799.5V192.5ZM1800.5 192.5H1839.5V231.5H1800.5V192.5ZM1879.5 192.5H1840.5V231.5H1879.5V192.5ZM1880.5 192.5H1919.5V231.5H1880.5V192.5ZM1639.5 232.5H1600.5V271.5H1639.5V232.5ZM1640.5 232.5H1679.5V271.5H1640.5V232.5ZM1719.5 232.5H1680.5V271.5H1719.5V232.5ZM1720.5 232.5H1759.5V271.5H1720.5V232.5ZM1799.5 232.5H1760.5V271.5H1799.5V232.5ZM1800.5 232.5H1839.5V271.5H1800.5V232.5ZM1879.5 232.5H1840.5V271.5H1879.5V232.5ZM1880.5 232.5H1919.5V271.5H1880.5V232.5Z" fill="url(#paint0_linear_2_310)"/>
        <path fill-rule="evenodd" clip-rule="evenodd" d="M1600 272H1920V552H1600V272ZM1600.5 272.5H1639.5V311.5H1600.5V272.5ZM1640.5 272.5H1679.5V311.5H1640.5V272.5ZM1719.5 272.5H1680.5V311.5H1719.5V272.5ZM1720.5 272.5H1759.5V311.5H1720.5V272.5ZM1799.5 272.5H1760.5V311.5H1799.5V272.5ZM1800.5 272.5H1839.5V311.5H1800.5V272.5ZM1879.5 272.5H1840.5V311.5H1879.5V272.5ZM1880.5 272.5H1919.5V311.5H1880.5V272.5ZM1639.5 312.5H1600.5V351.5H1639.5V312.5ZM1640.5 312.5H1679.5V351.5H1640.5V312.5ZM1719.5 312.5H1680.5V351.5H1719.5V312.5ZM1720.5 312.5H1759.5V351.5H1720.5V312.5ZM1799.5 312.5H1760.5V351.5H1799.5V312.5ZM1800.5 312.5H1839.5V351.5H1800.5V312.5ZM1879.5 312.5H1840.5V351.5H1879.5V312.5ZM1880.5 312.5H1919.5V351.5H1880.5V312.5ZM1639.5 352.5H1600.5V391.5H1639.5V352.5ZM1640.5 352.5H1679.5V391.5H1640.5V352.5ZM1719.5 352.5H1680.5V391.5H1719.5V352.5ZM1720.5 352.5H1759.5V391.5H1720.5V352.5ZM1799.5 352.5H1760.5V391.5H1799.5V352.5ZM1800.5 352.5H1839.5V391.5H1800.5V352.5ZM1879.5 352.5H1840.5V391.5H1879.5V352.5ZM1880.5 352.5H1919.5V391.5H1880.5V352.5ZM1639.5 392.5H1600.5V431.5H1639.5V392.5ZM1640.5 392.5H1679.5V431.5H1640.5V392.5ZM1719.5 392.5H1680.5V431.5H1719.5V392.5ZM1720.5 392.5H1759.5V431.5H1720.5V392.5ZM1799.5 392.5H1760.5V431.5H1799.5V392.5ZM1800.5 392.5H1839.5V431.5H1800.5V392.5ZM1879.5 392.5H1840.5V431.5H1879.5V392.5ZM1880.5 392.5H1919.5V431.5H1880.5V392.5ZM1639.5 432.5H1600.5V471.5H1639.5V432.5ZM1640.5 432.5H1679.5V471.5H1640.5V432.5ZM1719.5 432.5H1680.5V471.5H1719.5V432.5ZM1720.5 432.5H1759.5V471.5H1720.5V432.5ZM1799.5 432.5H1760.5V471.5H1799.5V432.5ZM1800.5 432.5H1839.5V471.5H1800.5V432.5ZM1879.5 432.5H1840.5V471.5H1879.5V432.5ZM1880.5 432.5H1919.5V471.5H1880.5V432.5ZM1639.5 472.5H1600.5V511.5H1639.5V472.5ZM1640.5 472.5H1679.5V511.5H1640.5V472.5ZM1719.5 472.5H1680.5V511.5H1719.5V472.5ZM1720.5 472.5H1759.5V511.5H1720.5V472.5ZM1799.5 472.5H1760.5V511.5H1799.5V472.5ZM1800.5 472.5H1839.5V511.5H1800.5V472.5ZM1879.5 472.5H1840.5V511.5H1879.5V472.5ZM1880.5 472.5H1919.5V511.5H1880.5V472.5ZM1639.5 512.5H1600.5V551.5H1639.5V512.5ZM1640.5 512.5H1679.5V551.5H1640.5V512.5ZM1719.5 512.5H1680.5V551.5H1719.5V512.5ZM1720.5 512.5H1759.5V551.5H1720.5V512.5ZM1799.5 512.5H1760.5V551.5H1799.5V512.5ZM1800.5 512.5H1839.5V551.5H1800.5V512.5ZM1879.5 512.5H1840.5V551.5H1879.5V512.5ZM1880.5 512.5H1919.5V551.5H1880.5V512.5Z" fill="url(#paint1_linear_2_310)"/>
        <g style="mix-blend-mode:color-dodge">
            <path fill-rule="evenodd" clip-rule="evenodd" d="M1600 552H1920V832H1600V552ZM1600.5 552.5H1639.5V591.5H1600.5V552.5ZM1640.5 552.5H1679.5V591.5H1640.5V552.5ZM1719.5 552.5H1680.5V591.5H1719.5V552.5ZM1720.5 552.5H1759.5V591.5H1720.5V552.5ZM1799.5 552.5H1760.5V591.5H1799.5V552.5ZM1800.5 552.5H1839.5V591.5H1800.5V552.5ZM1879.5 552.5H1840.5V591.5H1879.5V552.5ZM1880.5 552.5H1919.5V591.5H1880.5V552.5ZM1639.5 592.5H1600.5V631.5H1639.5V592.5ZM1640.5 592.5H1679.5V631.5H1640.5V592.5ZM1719.5 592.5H1680.5V631.5H1719.5V592.5ZM1720.5 592.5H1759.5V631.5H1720.5V592.5ZM1799.5 592.5H1760.5V631.5H1799.5V592.5ZM1800.5 592.5H1839.5V631.5H1800.5V592.5ZM1879.5 592.5H1840.5V631.5H1879.5V592.5ZM1880.5 592.5H1919.5V631.5H1880.5V592.5ZM1639.5 632.5H1600.5V671.5H1639.5V632.5ZM1640.5 632.5H1679.5V671.5H1640.5V632.5ZM1719.5 632.5H1680.5V671.5H1719.5V632.5ZM1720.5 632.5H1759.5V671.5H1720.5V632.5ZM1799.5 632.5H1760.5V671.5H1799.5V632.5ZM1800.5 632.5H1839.5V671.5H1800.5V632.5ZM1879.5 632.5H1840.5V671.5H1879.5V632.5ZM1880.5 632.5H1919.5V671.5H1880.5V632.5ZM1639.5 672.5H1600.5V711.5H1639.5V672.5ZM1640.5 672.5H1679.5V711.5H1640.5V672.5ZM1719.5 672.5H1680.5V711.5H1719.5V672.5ZM1720.5 672.5H1759.5V711.5H1720.5V672.5ZM1799.5 672.5H1760.5V711.5H1799.5V672.5ZM1800.5 672.5H1839.5V711.5H1800.5V672.5ZM1879.5 672.5H1840.5V711.5H1879.5V672.5ZM1880.5 672.5H1919.5V711.5H1880.5V672.5ZM1639.5 712.5H1600.5V751.5H1639.5V712.5ZM1640.5 712.5H1679.5V751.5H1640.5V712.5ZM1719.5 712.5H1680.5V751.5H1719.5V712.5ZM1720.5 712.5H1759.5V751.5H1720.5V712.5ZM1799.5 712.5H1760.5V751.5H1799.5V712.5ZM1800.5 712.5H1839.5V751.5H1800.5V712.5ZM1879.5 712.5H1840.5V751.5H1879.5V712.5ZM1880.5 712.5H1919.5V751.5H1880.5V712.5ZM1639.5 752.5H1600.5V791.5H1639.5V752.5ZM1640.5 752.5H1679.5V791.5H1640.5V752.5ZM1719.5 752.5H1680.5V791.5H1719.5V752.5ZM1720.5 752.5H1759.5V791.5H1720.5V752.5ZM1799.5 752.5H1760.5V791.5H1799.5V752.5ZM1800.5 752.5H1839.5V791.5H1800.5V752.5ZM1879.5 752.5H1840.5V791.5H1879.5V752.5ZM1880.5 752.5H1919.5V791.5H1880.5V752.5ZM1639.5 792.5H1600.5V831.5H1639.5V792.5ZM1640.5 792.5H1679.5V831.5H1640.5V792.5ZM1719.5 792.5H1680.5V831.5H1719.5V792.5ZM1720.5 792.5H1759.5V831.5H1720.5V792.5ZM1799.5 792.5H1760.5V831.5H1799.5V792.5ZM1800.5 792.5H1839.5V831.5H1800.5V792.5ZM1879.5 792.5H1840.5V831.5H1879.5V792.5ZM1880.5 792.5H1919.5V831.5H1880.5V792.5Z" fill="url(#paint2_linear_2_310)"/>
        </g>
        <path fill-rule="evenodd" clip-rule="evenodd" d="M1600 832H1920V1112H1600V832ZM1600.5 832.5H1639.5V871.5H1600.5V832.5ZM1640.5 832.5H1679.5V871.5H1640.5V832.5ZM1719.5 832.5H1680.5V871.5H1719.5V832.5ZM1720.5 832.5H1759.5V871.5H1720.5V832.5ZM1799.5 832.5H1760.5V871.5H1799.5V832.5ZM1800.5 832.5H1839.5V871.5H1800.5V832.5ZM1879.5 832.5H1840.5V871.5H1879.5V832.5ZM1880.5 832.5H1919.5V871.5H1880.5V832.5ZM1639.5 872.5H1600.5V911.5H1639.5V872.5ZM1640.5 872.5H1679.5V911.5H1640.5V872.5ZM1719.5 872.5H1680.5V911.5H1719.5V872.5ZM1720.5 872.5H1759.5V911.5H1720.5V872.5ZM1799.5 872.5H1760.5V911.5H1799.5V872.5ZM1800.5 872.5H1839.5V911.5H1800.5V872.5ZM1879.5 872.5H1840.5V911.5H1879.5V872.5ZM1880.5 872.5H1919.5V911.5H1880.5V872.5ZM1639.5 912.5H1600.5V951.5H1639.5V912.5ZM1640.5 912.5H1679.5V951.5H1640.5V912.5ZM1719.5 912.5H1680.5V951.5H1719.5V912.5ZM1720.5 912.5H1759.5V951.5H1720.5V912.5ZM1799.5 912.5H1760.5V951.5H1799.5V912.5ZM1800.5 912.5H1839.5V951.5H1800.5V912.5ZM1879.5 912.5H1840.5V951.5H1879.5V912.5ZM1880.5 912.5H1919.5V951.5H1880.5V912.5ZM1639.5 952.5H1600.5V991.5H1639.5V952.5ZM1640.5 952.5H1679.5V991.5H1640.5V952.5ZM1719.5 952.5H1680.5V991.5H1719.5V952.5ZM1720.5 952.5H1759.5V991.5H1720.5V952.5ZM1799.5 952.5H1760.5V991.5H1799.5V952.5ZM1800.5 952.5H1839.5V991.5H1800.5V952.5ZM1879.5 952.5H1840.5V991.5H1879.5V952.5ZM1880.5 952.5H1919.5V991.5H1880.5V952.5ZM1639.5 992.5H1600.5V1031.5H1639.5V992.5ZM1640.5 992.5H1679.5V1031.5H1640.5V992.5ZM1719.5 992.5H1680.5V1031.5H1719.5V992.5ZM1720.5 992.5H1759.5V1031.5H1720.5V992.5ZM1799.5 992.5H1760.5V1031.5H1799.5V992.5ZM1800.5 992.5H1839.5V1031.5H1800.5V992.5ZM1879.5 992.5H1840.5V1031.5H1879.5V992.5ZM1880.5 992.5H1919.5V1031.5H1880.5V992.5ZM1639.5 1032.5H1600.5V1071.5H1639.5V1032.5ZM1640.5 1032.5H1679.5V1071.5H1640.5V1032.5ZM1719.5 1032.5H1680.5V1071.5H1719.5V1032.5ZM1720.5 1032.5H1759.5V1071.5H1720.5V1032.5ZM1799.5 1032.5H1760.5V1071.5H1799.5V1032.5ZM1800.5 1032.5H1839.5V1071.5H1800.5V1032.5ZM1879.5 1032.5H1840.5V1071.5H1879.5V1032.5ZM1880.5 1032.5H1919.5V1071.5H1880.5V1032.5ZM1639.5 1072.5H1600.5V1111.5H1639.5V1072.5ZM1640.5 1072.5H1679.5V1111.5H1640.5V1072.5ZM1719.5 1072.5H1680.5V1111.5H1719.5V1072.5ZM1720.5 1072.5H1759.5V1111.5H1720.5V1072.5ZM1799.5 1072.5H1760.5V1111.5H1799.5V1072.5ZM1800.5 1072.5H1839.5V1111.5H1800.5V1072.5ZM1879.5 1072.5H1840.5V1111.5H1879.5V1072.5ZM1880.5 1072.5H1919.5V1111.5H1880.5V1072.5Z" fill="url(#paint3_linear_2_310)"/>
        <path fill-rule="evenodd" clip-rule="evenodd" d="M1600 1112H1920V1392H1600V1112ZM1600.5 1112.5H1639.5V1151.5H1600.5V1112.5ZM1640.5 1112.5H1679.5V1151.5H1640.5V1112.5ZM1719.5 1112.5H1680.5V1151.5H1719.5V1112.5ZM1720.5 1112.5H1759.5V1151.5H1720.5V1112.5ZM1799.5 1112.5H1760.5V1151.5H1799.5V1112.5ZM1800.5 1112.5H1839.5V1151.5H1800.5V1112.5ZM1879.5 1112.5H1840.5V1151.5H1879.5V1112.5ZM1880.5 1112.5H1919.5V1151.5H1880.5V1112.5ZM1639.5 1152.5H1600.5V1191.5H1639.5V1152.5ZM1640.5 1152.5H1679.5V1191.5H1640.5V1152.5ZM1719.5 1152.5H1680.5V1191.5H1719.5V1152.5ZM1720.5 1152.5H1759.5V1191.5H1720.5V1152.5ZM1799.5 1152.5H1760.5V1191.5H1799.5V1152.5ZM1800.5 1152.5H1839.5V1191.5H1800.5V1152.5ZM1879.5 1152.5H1840.5V1191.5H1879.5V1152.5ZM1880.5 1152.5H1919.5V1191.5H1880.5V1152.5ZM1639.5 1192.5H1600.5V1231.5H1639.5V1192.5ZM1640.5 1192.5H1679.5V1231.5H1640.5V1192.5ZM1719.5 1192.5H1680.5V1231.5H1719.5V1192.5ZM1720.5 1192.5H1759.5V1231.5H1720.5V1192.5ZM1799.5 1192.5H1760.5V1231.5H1799.5V1192.5ZM1800.5 1192.5H1839.5V1231.5H1800.5V1192.5ZM1879.5 1192.5H1840.5V1231.5H1879.5V1192.5ZM1880.5 1192.5H1919.5V1231.5H1880.5V1192.5ZM1639.5 1232.5H1600.5V1271.5H1639.5V1232.5ZM1640.5 1232.5H1679.5V1271.5H1640.5V1232.5ZM1719.5 1232.5H1680.5V1271.5H1719.5V1232.5ZM1720.5 1232.5H1759.5V1271.5H1720.5V1232.5ZM1799.5 1232.5H1760.5V1271.5H1799.5V1232.5ZM1800.5 1232.5H1839.5V1271.5H1800.5V1232.5ZM1879.5 1232.5H1840.5V1271.5H1879.5V1232.5ZM1880.5 1232.5H1919.5V1271.5H1880.5V1232.5ZM1639.5 1272.5H1600.5V1311.5H1639.5V1272.5ZM1640.5 1272.5H1679.5V1311.5H1640.5V1272.5ZM1719.5 1272.5H1680.5V1311.5H1719.5V1272.5ZM1720.5 1272.5H1759.5V1311.5H1720.5V1272.5ZM1799.5 1272.5H1760.5V1311.5H1799.5V1272.5ZM1800.5 1272.5H1839.5V1311.5H1800.5V1272.5ZM1879.5 1272.5H1840.5V1311.5H1879.5V1272.5ZM1880.5 1272.5H1919.5V1311.5H1880.5V1272.5ZM1639.5 1312.5H1600.5V1351.5H1639.5V1312.5ZM1640.5 1312.5H1679.5V1351.5H1640.5V1312.5ZM1719.5 1312.5H1680.5V1351.5H1719.5V1312.5ZM1720.5 1312.5H1759.5V1351.5H1720.5V1312.5ZM1799.5 1312.5H1760.5V1351.5H1799.5V1312.5ZM1800.5 1312.5H1839.5V1351.5H1800.5V1312.5ZM1879.5 1312.5H1840.5V1351.5H1879.5V1312.5ZM1880.5 1312.5H1919.5V1351.5H1880.5V1312.5ZM1639.5 1352.5H1600.5V1391.5H1639.5V1352.5ZM1640.5 1352.5H1679.5V1391.5H1640.5V1352.5ZM1719.5 1352.5H1680.5V1391.5H1719.5V1352.5ZM1720.5 1352.5H1759.5V1391.5H1720.5V1352.5ZM1799.5 1352.5H1760.5V1391.5H1799.5V1352.5ZM1800.5 1352.5H1839.5V1391.5H1800.5V1352.5ZM1879.5 1352.5H1840.5V1391.5H1879.5V1352.5ZM1880.5 1352.5H1919.5V1391.5H1880.5V1352.5Z" fill="url(#paint4_linear_2_310)"/>
        <path fill-rule="evenodd" clip-rule="evenodd" d="M1600 1392H1920V1672H1600V1392ZM1600.5 1392.5H1639.5V1431.5H1600.5V1392.5ZM1640.5 1392.5H1679.5V1431.5H1640.5V1392.5ZM1719.5 1392.5H1680.5V1431.5H1719.5V1392.5ZM1720.5 1392.5H1759.5V1431.5H1720.5V1392.5ZM1799.5 1392.5H1760.5V1431.5H1799.5V1392.5ZM1800.5 1392.5H1839.5V1431.5H1800.5V1392.5ZM1879.5 1392.5H1840.5V1431.5H1879.5V1392.5ZM1880.5 1392.5H1919.5V1431.5H1880.5V1392.5ZM1639.5 1432.5H1600.5V1471.5H1639.5V1432.5ZM1640.5 1432.5H1679.5V1471.5H1640.5V1432.5ZM1719.5 1432.5H1680.5V1471.5H1719.5V1432.5ZM1720.5 1432.5H1759.5V1471.5H1720.5V1432.5ZM1799.5 1432.5H1760.5V1471.5H1799.5V1432.5ZM1800.5 1432.5H1839.5V1471.5H1800.5V1432.5ZM1879.5 1432.5H1840.5V1471.5H1879.5V1432.5ZM1880.5 1432.5H1919.5V1471.5H1880.5V1432.5ZM1639.5 1472.5H1600.5V1511.5H1639.5V1472.5ZM1640.5 1472.5H1679.5V1511.5H1640.5V1472.5ZM1719.5 1472.5H1680.5V1511.5H1719.5V1472.5ZM1720.5 1472.5H1759.5V1511.5H1720.5V1472.5ZM1799.5 1472.5H1760.5V1511.5H1799.5V1472.5ZM1800.5 1472.5H1839.5V1511.5H1800.5V1472.5ZM1879.5 1472.5H1840.5V1511.5H1879.5V1472.5ZM1880.5 1472.5H1919.5V1511.5H1880.5V1472.5ZM1639.5 1512.5H1600.5V1551.5H1639.5V1512.5ZM1640.5 1512.5H1679.5V1551.5H1640.5V1512.5ZM1719.5 1512.5H1680.5V1551.5H1719.5V1512.5ZM1720.5 1512.5H1759.5V1551.5H1720.5V1512.5ZM1799.5 1512.5H1760.5V1551.5H1799.5V1512.5ZM1800.5 1512.5H1839.5V1551.5H1800.5V1512.5ZM1879.5 1512.5H1840.5V1551.5H1879.5V1512.5ZM1880.5 1512.5H1919.5V1551.5H1880.5V1512.5ZM1639.5 1552.5H1600.5V1591.5H1639.5V1552.5ZM1640.5 1552.5H1679.5V1591.5H1640.5V1552.5ZM1719.5 1552.5H1680.5V1591.5H1719.5V1552.5ZM1720.5 1552.5H1759.5V1591.5H1720.5V1552.5ZM1799.5 1552.5H1760.5V1591.5H1799.5V1552.5ZM1800.5 1552.5H1839.5V1591.5H1800.5V1552.5ZM1879.5 1552.5H1840.5V1591.5H1879.5V1552.5ZM1880.5 1552.5H1919.5V1591.5H1880.5V1552.5ZM1639.5 1592.5H1600.5V1631.5H1639.5V1592.5ZM1640.5 1592.5H1679.5V1631.5H1640.5V1592.5ZM1719.5 1592.5H1680.5V1631.5H1719.5V1592.5ZM1720.5 1592.5H1759.5V1631.5H1720.5V1592.5ZM1799.5 1592.5H1760.5V1631.5H1799.5V1592.5ZM1800.5 1592.5H1839.5V1631.5H1800.5V1592.5ZM1879.5 1592.5H1840.5V1631.5H1879.5V1592.5ZM1880.5 1592.5H1919.5V1631.5H1880.5V1592.5ZM1639.5 1632.5H1600.5V1671.5H1639.5V1632.5ZM1640.5 1632.5H1679.5V1671.5H1640.5V1632.5ZM1719.5 1632.5H1680.5V1671.5H1719.5V1632.5ZM1720.5 1632.5H1759.5V1671.5H1720.5V1632.5ZM1799.5 1632.5H1760.5V1671.5H1799.5V1632.5ZM1800.5 1632.5H1839.5V1671.5H1800.5V1632.5ZM1879.5 1632.5H1840.5V1671.5H1879.5V1632.5ZM1880.5 1632.5H1919.5V1671.5H1880.5V1632.5Z" fill="url(#paint5_linear_2_310)"/>
        <path fill-rule="evenodd" clip-rule="evenodd" d="M1600 1672H1920V1952H1600V1672ZM1600.5 1672.5H1639.5V1711.5H1600.5V1672.5ZM1640.5 1672.5H1679.5V1711.5H1640.5V1672.5ZM1719.5 1672.5H1680.5V1711.5H1719.5V1672.5ZM1720.5 1672.5H1759.5V1711.5H1720.5V1672.5ZM1799.5 1672.5H1760.5V1711.5H1799.5V1672.5ZM1800.5 1672.5H1839.5V1711.5H1800.5V1672.5ZM1879.5 1672.5H1840.5V1711.5H1879.5V1672.5ZM1880.5 1672.5H1919.5V1711.5H1880.5V1672.5ZM1639.5 1712.5H1600.5V1751.5H1639.5V1712.5ZM1640.5 1712.5H1679.5V1751.5H1640.5V1712.5ZM1719.5 1712.5H1680.5V1751.5H1719.5V1712.5ZM1720.5 1712.5H1759.5V1751.5H1720.5V1712.5ZM1799.5 1712.5H1760.5V1751.5H1799.5V1712.5ZM1800.5 1712.5H1839.5V1751.5H1800.5V1712.5ZM1879.5 1712.5H1840.5V1751.5H1879.5V1712.5ZM1880.5 1712.5H1919.5V1751.5H1880.5V1712.5ZM1639.5 1752.5H1600.5V1791.5H1639.5V1752.5ZM1640.5 1752.5H1679.5V1791.5H1640.5V1752.5ZM1719.5 1752.5H1680.5V1791.5H1719.5V1752.5ZM1720.5 1752.5H1759.5V1791.5H1720.5V1752.5ZM1799.5 1752.5H1760.5V1791.5H1799.5V1752.5ZM1800.5 1752.5H1839.5V1791.5H1800.5V1752.5ZM1879.5 1752.5H1840.5V1791.5H1879.5V1752.5ZM1880.5 1752.5H1919.5V1791.5H1880.5V1752.5ZM1639.5 1792.5H1600.5V1831.5H1639.5V1792.5ZM1640.5 1792.5H1679.5V1831.5H1640.5V1792.5ZM1719.5 1792.5H1680.5V1831.5H1719.5V1792.5ZM1720.5 1792.5H1759.5V1831.5H1720.5V1792.5ZM1799.5 1792.5H1760.5V1831.5H1799.5V1792.5ZM1800.5 1792.5H1839.5V1831.5H1800.5V1792.5ZM1879.5 1792.5H1840.5V1831.5H1879.5V1792.5ZM1880.5 1792.5H1919.5V1831.5H1880.5V1792.5ZM1639.5 1832.5H1600.5V1871.5H1639.5V1832.5ZM1640.5 1832.5H1679.5V1871.5H1640.5V1832.5ZM1719.5 1832.5H1680.5V1871.5H1719.5V1832.5ZM1720.5 1832.5H1759.5V1871.5H1720.5V1832.5ZM1799.5 1832.5H1760.5V1871.5H1799.5V1832.5ZM1800.5 1832.5H1839.5V1871.5H1800.5V1832.5ZM1879.5 1832.5H1840.5V1871.5H1879.5V1832.5ZM1880.5 1832.5H1919.5V1871.5H1880.5V1832.5ZM1639.5 1872.5H1600.5V1911.5H1639.5V1872.5ZM1640.5 1872.5H1679.5V1911.5H1640.5V1872.5ZM1719.5 1872.5H1680.5V1911.5H1719.5V1872.5ZM1720.5 1872.5H1759.5V1911.5H1720.5V1872.5ZM1799.5 1872.5H1760.5V1911.5H1799.5V1872.5ZM1800.5 1872.5H1839.5V1911.5H1800.5V1872.5ZM1879.5 1872.5H1840.5V1911.5H1879.5V1872.5ZM1880.5 1872.5H1919.5V1911.5H1880.5V1872.5ZM1639.5 1912.5H1600.5V1951.5H1639.5V1912.5ZM1640.5 1912.5H1679.5V1951.5H1640.5V1912.5ZM1719.5 1912.5H1680.5V1951.5H1719.5V1912.5ZM1720.5 1912.5H1759.5V1951.5H1720.5V1912.5ZM1799.5 1912.5H1760.5V1951.5H1799.5V1912.5ZM1800.5 1912.5H1839.5V1951.5H1800.5V1912.5ZM1879.5 1912.5H1840.5V1951.5H1879.5V1912.5ZM1880.5 1912.5H1919.5V1951.5H1880.5V1912.5Z" fill="url(#paint6_linear_2_310)"/>
        <path fill-rule="evenodd" clip-rule="evenodd" d="M1600 1952H1920V2232H1600V1952ZM1600.5 1952.5H1639.5V1991.5H1600.5V1952.5ZM1640.5 1952.5H1679.5V1991.5H1640.5V1952.5ZM1719.5 1952.5H1680.5V1991.5H1719.5V1952.5ZM1720.5 1952.5H1759.5V1991.5H1720.5V1952.5ZM1799.5 1952.5H1760.5V1991.5H1799.5V1952.5ZM1800.5 1952.5H1839.5V1991.5H1800.5V1952.5ZM1879.5 1952.5H1840.5V1991.5H1879.5V1952.5ZM1880.5 1952.5H1919.5V1991.5H1880.5V1952.5ZM1639.5 1992.5H1600.5V2031.5H1639.5V1992.5ZM1640.5 1992.5H1679.5V2031.5H1640.5V1992.5ZM1719.5 1992.5H1680.5V2031.5H1719.5V1992.5ZM1720.5 1992.5H1759.5V2031.5H1720.5V1992.5ZM1799.5 1992.5H1760.5V2031.5H1799.5V1992.5ZM1800.5 1992.5H1839.5V2031.5H1800.5V1992.5ZM1879.5 1992.5H1840.5V2031.5H1879.5V1992.5ZM1880.5 1992.5H1919.5V2031.5H1880.5V1992.5ZM1639.5 2032.5H1600.5V2071.5H1639.5V2032.5ZM1640.5 2032.5H1679.5V2071.5H1640.5V2032.5ZM1719.5 2032.5H1680.5V2071.5H1719.5V2032.5ZM1720.5 2032.5H1759.5V2071.5H1720.5V2032.5ZM1799.5 2032.5H1760.5V2071.5H1799.5V2032.5ZM1800.5 2032.5H1839.5V2071.5H1800.5V2032.5ZM1879.5 2032.5H1840.5V2071.5H1879.5V2032.5ZM1880.5 2032.5H1919.5V2071.5H1880.5V2032.5ZM1639.5 2072.5H1600.5V2111.5H1639.5V2072.5ZM1640.5 2072.5H1679.5V2111.5H1640.5V2072.5ZM1719.5 2072.5H1680.5V2111.5H1719.5V2072.5ZM1720.5 2072.5H1759.5V2111.5H1720.5V2072.5ZM1799.5 2072.5H1760.5V2111.5H1799.5V2072.5ZM1800.5 2072.5H1839.5V2111.5H1800.5V2072.5ZM1879.5 2072.5H1840.5V2111.5H1879.5V2072.5ZM1880.5 2072.5H1919.5V2111.5H1880.5V2072.5ZM1639.5 2112.5H1600.5V2151.5H1639.5V2112.5ZM1640.5 2112.5H1679.5V2151.5H1640.5V2112.5ZM1719.5 2112.5H1680.5V2151.5H1719.5V2112.5ZM1720.5 2112.5H1759.5V2151.5H1720.5V2112.5ZM1799.5 2112.5H1760.5V2151.5H1799.5V2112.5ZM1800.5 2112.5H1839.5V2151.5H1800.5V2112.5ZM1879.5 2112.5H1840.5V2151.5H1879.5V2112.5ZM1880.5 2112.5H1919.5V2151.5H1880.5V2112.5ZM1639.5 2152.5H1600.5V2191.5H1639.5V2152.5ZM1640.5 2152.5H1679.5V2191.5H1640.5V2152.5ZM1719.5 2152.5H1680.5V2191.5H1719.5V2152.5ZM1720.5 2152.5H1759.5V2191.5H1720.5V2152.5ZM1799.5 2152.5H1760.5V2191.5H1799.5V2152.5ZM1800.5 2152.5H1839.5V2191.5H1800.5V2152.5ZM1879.5 2152.5H1840.5V2191.5H1879.5V2152.5ZM1880.5 2152.5H1919.5V2191.5H1880.5V2152.5ZM1639.5 2192.5H1600.5V2231.5H1639.5V2192.5ZM1640.5 2192.5H1679.5V2231.5H1640.5V2192.5ZM1719.5 2192.5H1680.5V2231.5H1719.5V2192.5ZM1720.5 2192.5H1759.5V2231.5H1720.5V2192.5ZM1799.5 2192.5H1760.5V2231.5H1799.5V2192.5ZM1800.5 2192.5H1839.5V2231.5H1800.5V2192.5ZM1879.5 2192.5H1840.5V2231.5H1879.5V2192.5ZM1880.5 2192.5H1919.5V2231.5H1880.5V2192.5Z" fill="url(#paint7_linear_2_310)"/>
        <path fill-rule="evenodd" clip-rule="evenodd" d="M1600 2232H1920V2512H1600V2232ZM1600.5 2232.5H1639.5V2271.5H1600.5V2232.5ZM1640.5 2232.5H1679.5V2271.5H1640.5V2232.5ZM1719.5 2232.5H1680.5V2271.5H1719.5V2232.5ZM1720.5 2232.5H1759.5V2271.5H1720.5V2232.5ZM1799.5 2232.5H1760.5V2271.5H1799.5V2232.5ZM1800.5 2232.5H1839.5V2271.5H1800.5V2232.5ZM1879.5 2232.5H1840.5V2271.5H1879.5V2232.5ZM1880.5 2232.5H1919.5V2271.5H1880.5V2232.5ZM1639.5 2272.5H1600.5V2311.5H1639.5V2272.5ZM1640.5 2272.5H1679.5V2311.5H1640.5V2272.5ZM1719.5 2272.5H1680.5V2311.5H1719.5V2272.5ZM1720.5 2272.5H1759.5V2311.5H1720.5V2272.5ZM1799.5 2272.5H1760.5V2311.5H1799.5V2272.5ZM1800.5 2272.5H1839.5V2311.5H1800.5V2272.5ZM1879.5 2272.5H1840.5V2311.5H1879.5V2272.5ZM1880.5 2272.5H1919.5V2311.5H1880.5V2272.5ZM1639.5 2312.5H1600.5V2351.5H1639.5V2312.5ZM1640.5 2312.5H1679.5V2351.5H1640.5V2312.5ZM1719.5 2312.5H1680.5V2351.5H1719.5V2312.5ZM1720.5 2312.5H1759.5V2351.5H1720.5V2312.5ZM1799.5 2312.5H1760.5V2351.5H1799.5V2312.5ZM1800.5 2312.5H1839.5V2351.5H1800.5V2312.5ZM1879.5 2312.5H1840.5V2351.5H1879.5V2312.5ZM1880.5 2312.5H1919.5V2351.5H1880.5V2312.5ZM1639.5 2352.5H1600.5V2391.5H1639.5V2352.5ZM1640.5 2352.5H1679.5V2391.5H1640.5V2352.5ZM1719.5 2352.5H1680.5V2391.5H1719.5V2352.5ZM1720.5 2352.5H1759.5V2391.5H1720.5V2352.5ZM1799.5 2352.5H1760.5V2391.5H1799.5V2352.5ZM1800.5 2352.5H1839.5V2391.5H1800.5V2352.5ZM1879.5 2352.5H1840.5V2391.5H1879.5V2352.5ZM1880.5 2352.5H1919.5V2391.5H1880.5V2352.5ZM1639.5 2392.5H1600.5V2431.5H1639.5V2392.5ZM1640.5 2392.5H1679.5V2431.5H1640.5V2392.5ZM1719.5 2392.5H1680.5V2431.5H1719.5V2392.5ZM1720.5 2392.5H1759.5V2431.5H1720.5V2392.5ZM1799.5 2392.5H1760.5V2431.5H1799.5V2392.5ZM1800.5 2392.5H1839.5V2431.5H1800.5V2392.5ZM1879.5 2392.5H1840.5V2431.5H1879.5V2392.5ZM1880.5 2392.5H1919.5V2431.5H1880.5V2392.5ZM1639.5 2432.5H1600.5V2471.5H1639.5V2432.5ZM1640.5 2432.5H1679.5V2471.5H1640.5V2432.5ZM1719.5 2432.5H1680.5V2471.5H1719.5V2432.5ZM1720.5 2432.5H1759.5V2471.5H1720.5V2432.5ZM1799.5 2432.5H1760.5V2471.5H1799.5V2432.5ZM1800.5 2432.5H1839.5V2471.5H1800.5V2432.5ZM1879.5 2432.5H1840.5V2471.5H1879.5V2432.5ZM1880.5 2432.5H1919.5V2471.5H1880.5V2432.5ZM1639.5 2472.5H1600.5V2511.5H1639.5V2472.5ZM1640.5 2472.5H1679.5V2511.5H1640.5V2472.5ZM1719.5 2472.5H1680.5V2511.5H1719.5V2472.5ZM1720.5 2472.5H1759.5V2511.5H1720.5V2472.5ZM1799.5 2472.5H1760.5V2511.5H1799.5V2472.5ZM1800.5 2472.5H1839.5V2511.5H1800.5V2472.5ZM1879.5 2472.5H1840.5V2511.5H1879.5V2472.5ZM1880.5 2472.5H1919.5V2511.5H1880.5V2472.5Z" fill="url(#paint8_linear_2_310)"/>
        <path fill-rule="evenodd" clip-rule="evenodd" d="M1600 2512H1920V2792H1600V2512ZM1600.5 2512.5H1639.5V2551.5H1600.5V2512.5ZM1640.5 2512.5H1679.5V2551.5H1640.5V2512.5ZM1719.5 2512.5H1680.5V2551.5H1719.5V2512.5ZM1720.5 2512.5H1759.5V2551.5H1720.5V2512.5ZM1799.5 2512.5H1760.5V2551.5H1799.5V2512.5ZM1800.5 2512.5H1839.5V2551.5H1800.5V2512.5ZM1879.5 2512.5H1840.5V2551.5H1879.5V2512.5ZM1880.5 2512.5H1919.5V2551.5H1880.5V2512.5ZM1639.5 2552.5H1600.5V2591.5H1639.5V2552.5ZM1640.5 2552.5H1679.5V2591.5H1640.5V2552.5ZM1719.5 2552.5H1680.5V2591.5H1719.5V2552.5ZM1720.5 2552.5H1759.5V2591.5H1720.5V2552.5ZM1799.5 2552.5H1760.5V2591.5H1799.5V2552.5ZM1800.5 2552.5H1839.5V2591.5H1800.5V2552.5ZM1879.5 2552.5H1840.5V2591.5H1879.5V2552.5ZM1880.5 2552.5H1919.5V2591.5H1880.5V2552.5ZM1639.5 2592.5H1600.5V2631.5H1639.5V2592.5ZM1640.5 2592.5H1679.5V2631.5H1640.5V2592.5ZM1719.5 2592.5H1680.5V2631.5H1719.5V2592.5ZM1720.5 2592.5H1759.5V2631.5H1720.5V2592.5ZM1799.5 2592.5H1760.5V2631.5H1799.5V2592.5ZM1800.5 2592.5H1839.5V2631.5H1800.5V2592.5ZM1879.5 2592.5H1840.5V2631.5H1879.5V2592.5ZM1880.5 2592.5H1919.5V2631.5H1880.5V2592.5ZM1639.5 2632.5H1600.5V2671.5H1639.5V2632.5ZM1640.5 2632.5H1679.5V2671.5H1640.5V2632.5ZM1719.5 2632.5H1680.5V2671.5H1719.5V2632.5ZM1720.5 2632.5H1759.5V2671.5H1720.5V2632.5ZM1799.5 2632.5H1760.5V2671.5H1799.5V2632.5ZM1800.5 2632.5H1839.5V2671.5H1800.5V2632.5ZM1879.5 2632.5H1840.5V2671.5H1879.5V2632.5ZM1880.5 2632.5H1919.5V2671.5H1880.5V2632.5ZM1639.5 2672.5H1600.5V2711.5H1639.5V2672.5ZM1640.5 2672.5H1679.5V2711.5H1640.5V2672.5ZM1719.5 2672.5H1680.5V2711.5H1719.5V2672.5ZM1720.5 2672.5H1759.5V2711.5H1720.5V2672.5ZM1799.5 2672.5H1760.5V2711.5H1799.5V2672.5ZM1800.5 2672.5H1839.5V2711.5H1800.5V2672.5ZM1879.5 2672.5H1840.5V2711.5H1879.5V2672.5ZM1880.5 2672.5H1919.5V2711.5H1880.5V2672.5ZM1639.5 2712.5H1600.5V2751.5H1639.5V2712.5ZM1640.5 2712.5H1679.5V2751.5H1640.5V2712.5ZM1719.5 2712.5H1680.5V2751.5H1719.5V2712.5ZM1720.5 2712.5H1759.5V2751.5H1720.5V2712.5ZM1799.5 2712.5H1760.5V2751.5H1799.5V2712.5ZM1800.5 2712.5H1839.5V2751.5H1800.5V2712.5ZM1879.5 2712.5H1840.5V2751.5H1879.5V2712.5ZM1880.5 2712.5H1919.5V2751.5H1880.5V2712.5ZM1639.5 2752.5H1600.5V2791.5H1639.5V2752.5ZM1640.5 2752.5H1679.5V2791.5H1640.5V2752.5ZM1719.5 2752.5H1680.5V2791.5H1719.5V2752.5ZM1720.5 2752.5H1759.5V2791.5H1720.5V2752.5ZM1799.5 2752.5H1760.5V2791.5H1799.5V2752.5ZM1800.5 2752.5H1839.5V2791.5H1800.5V2752.5ZM1879.5 2752.5H1840.5V2791.5H1879.5V2752.5ZM1880.5 2752.5H1919.5V2791.5H1880.5V2752.5Z" fill="url(#paint9_linear_2_310)"/>
        <path fill-rule="evenodd" clip-rule="evenodd" d="M1600 2792H1920V3072H1600V2792ZM1600.5 2792.5H1639.5V2831.5H1600.5V2792.5ZM1640.5 2792.5H1679.5V2831.5H1640.5V2792.5ZM1719.5 2792.5H1680.5V2831.5H1719.5V2792.5ZM1720.5 2792.5H1759.5V2831.5H1720.5V2792.5ZM1799.5 2792.5H1760.5V2831.5H1799.5V2792.5ZM1800.5 2792.5H1839.5V2831.5H1800.5V2792.5ZM1879.5 2792.5H1840.5V2831.5H1879.5V2792.5ZM1880.5 2792.5H1919.5V2831.5H1880.5V2792.5ZM1639.5 2832.5H1600.5V2871.5H1639.5V2832.5ZM1640.5 2832.5H1679.5V2871.5H1640.5V2832.5ZM1719.5 2832.5H1680.5V2871.5H1719.5V2832.5ZM1720.5 2832.5H1759.5V2871.5H1720.5V2832.5ZM1799.5 2832.5H1760.5V2871.5H1799.5V2832.5ZM1800.5 2832.5H1839.5V2871.5H1800.5V2832.5ZM1879.5 2832.5H1840.5V2871.5H1879.5V2832.5ZM1880.5 2832.5H1919.5V2871.5H1880.5V2832.5ZM1639.5 2872.5H1600.5V2911.5H1639.5V2872.5ZM1640.5 2872.5H1679.5V2911.5H1640.5V2872.5ZM1719.5 2872.5H1680.5V2911.5H1719.5V2872.5ZM1720.5 2872.5H1759.5V2911.5H1720.5V2872.5ZM1799.5 2872.5H1760.5V2911.5H1799.5V2872.5ZM1800.5 2872.5H1839.5V2911.5H1800.5V2872.5ZM1879.5 2872.5H1840.5V2911.5H1879.5V2872.5ZM1880.5 2872.5H1919.5V2911.5H1880.5V2872.5ZM1639.5 2912.5H1600.5V2951.5H1639.5V2912.5ZM1640.5 2912.5H1679.5V2951.5H1640.5V2912.5ZM1719.5 2912.5H1680.5V2951.5H1719.5V2912.5ZM1720.5 2912.5H1759.5V2951.5H1720.5V2912.5ZM1799.5 2912.5H1760.5V2951.5H1799.5V2912.5ZM1800.5 2912.5H1839.5V2951.5H1800.5V2912.5ZM1879.5 2912.5H1840.5V2951.5H1879.5V2912.5ZM1880.5 2912.5H1919.5V2951.5H1880.5V2912.5ZM1639.5 2952.5H1600.5V2991.5H1639.5V2952.5ZM1640.5 2952.5H1679.5V2991.5H1640.5V2952.5ZM1719.5 2952.5H1680.5V2991.5H1719.5V2952.5ZM1720.5 2952.5H1759.5V2991.5H1720.5V2952.5ZM1799.5 2952.5H1760.5V2991.5H1799.5V2952.5ZM1800.5 2952.5H1839.5V2991.5H1800.5V2952.5ZM1879.5 2952.5H1840.5V2991.5H1879.5V2952.5ZM1880.5 2952.5H1919.5V2991.5H1880.5V2952.5ZM1639.5 2992.5H1600.5V3031.5H1639.5V2992.5ZM1640.5 2992.5H1679.5V3031.5H1640.5V2992.5ZM1719.5 2992.5H1680.5V3031.5H1719.5V2992.5ZM1720.5 2992.5H1759.5V3031.5H1720.5V2992.5ZM1799.5 2992.5H1760.5V3031.5H1799.5V2992.5ZM1800.5 2992.5H1839.5V3031.5H1800.5V2992.5ZM1879.5 2992.5H1840.5V3031.5H1879.5V2992.5ZM1880.5 2992.5H1919.5V3031.5H1880.5V2992.5ZM1639.5 3032.5H1600.5V3071.5H1639.5V3032.5ZM1640.5 3032.5H1679.5V3071.5H1640.5V3032.5ZM1719.5 3032.5H1680.5V3071.5H1719.5V3032.5ZM1720.5 3032.5H1759.5V3071.5H1720.5V3032.5ZM1799.5 3032.5H1760.5V3071.5H1799.5V3032.5ZM1800.5 3032.5H1839.5V3071.5H1800.5V3032.5ZM1879.5 3032.5H1840.5V3071.5H1879.5V3032.5ZM1880.5 3032.5H1919.5V3071.5H1880.5V3032.5Z" fill="url(#paint10_linear_2_310)"/>
        <path fill-rule="evenodd" clip-rule="evenodd" d="M320 -8H0V272H320V-8ZM319.5 -7.5H280.5V31.5H319.5V-7.5ZM279.5 -7.5H240.5V31.5H279.5V-7.5ZM200.5 -7.5H239.5V31.5H200.5V-7.5ZM199.5 -7.5H160.5V31.5H199.5V-7.5ZM120.5 -7.5H159.5V31.5H120.5V-7.5ZM119.5 -7.5H80.5V31.5H119.5V-7.5ZM40.5 -7.5H79.5V31.5H40.5V-7.5ZM39.5 -7.5H0.5V31.5H39.5V-7.5ZM280.5 32.5H319.5V71.5H280.5V32.5ZM279.5 32.5H240.5V71.5H279.5V32.5ZM200.5 32.5H239.5V71.5H200.5V32.5ZM199.5 32.5H160.5V71.5H199.5V32.5ZM120.5 32.5H159.5V71.5H120.5V32.5ZM119.5 32.5H80.5V71.5H119.5V32.5ZM40.5 32.5H79.5V71.5H40.5V32.5ZM39.5 32.5H0.5V71.5H39.5V32.5ZM280.5 72.5H319.5V111.5H280.5V72.5ZM279.5 72.5H240.5V111.5H279.5V72.5ZM200.5 72.5H239.5V111.5H200.5V72.5ZM199.5 72.5H160.5V111.5H199.5V72.5ZM120.5 72.5H159.5V111.5H120.5V72.5ZM119.5 72.5H80.5V111.5H119.5V72.5ZM40.5 72.5H79.5V111.5H40.5V72.5ZM39.5 72.5H0.5V111.5H39.5V72.5ZM280.5 112.5H319.5V151.5H280.5V112.5ZM279.5 112.5H240.5V151.5H279.5V112.5ZM200.5 112.5H239.5V151.5H200.5V112.5ZM199.5 112.5H160.5V151.5H199.5V112.5ZM120.5 112.5H159.5V151.5H120.5V112.5ZM119.5 112.5H80.5V151.5H119.5V112.5ZM40.5 112.5H79.5V151.5H40.5V112.5ZM39.5 112.5H0.5V151.5H39.5V112.5ZM280.5 152.5H319.5V191.5H280.5V152.5ZM279.5 152.5H240.5V191.5H279.5V152.5ZM200.5 152.5H239.5V191.5H200.5V152.5ZM199.5 152.5H160.5V191.5H199.5V152.5ZM120.5 152.5H159.5V191.5H120.5V152.5ZM119.5 152.5H80.5V191.5H119.5V152.5ZM40.5 152.5H79.5V191.5H40.5V152.5ZM39.5 152.5H0.5V191.5H39.5V152.5ZM280.5 192.5H319.5V231.5H280.5V192.5ZM279.5 192.5H240.5V231.5H279.5V192.5ZM200.5 192.5H239.5V231.5H200.5V192.5ZM199.5 192.5H160.5V231.5H199.5V192.5ZM120.5 192.5H159.5V231.5H120.5V192.5ZM119.5 192.5H80.5V231.5H119.5V192.5ZM40.5 192.5H79.5V231.5H40.5V192.5ZM39.5 192.5H0.5V231.5H39.5V192.5ZM280.5 232.5H319.5V271.5H280.5V232.5ZM279.5 232.5H240.5V271.5H279.5V232.5ZM200.5 232.5H239.5V271.5H200.5V232.5ZM199.5 232.5H160.5V271.5H199.5V232.5ZM120.5 232.5H159.5V271.5H120.5V232.5ZM119.5 232.5H80.5V271.5H119.5V232.5ZM40.5 232.5H79.5V271.5H40.5V232.5ZM39.5 232.5H0.5V271.5H39.5V232.5Z" fill="url(#paint11_linear_2_310)"/>
        <g style="mix-blend-mode:color-dodge">
            <path fill-rule="evenodd" clip-rule="evenodd" d="M320 272H0V552H320V272ZM319.5 272.5H280.5V311.5H319.5V272.5ZM279.5 272.5H240.5V311.5H279.5V272.5ZM200.5 272.5H239.5V311.5H200.5V272.5ZM199.5 272.5H160.5V311.5H199.5V272.5ZM120.5 272.5H159.5V311.5H120.5V272.5ZM119.5 272.5H80.5V311.5H119.5V272.5ZM40.5 272.5H79.5V311.5H40.5V272.5ZM39.5 272.5H0.5V311.5H39.5V272.5ZM280.5 312.5H319.5V351.5H280.5V312.5ZM279.5 312.5H240.5V351.5H279.5V312.5ZM200.5 312.5H239.5V351.5H200.5V312.5ZM199.5 312.5H160.5V351.5H199.5V312.5ZM120.5 312.5H159.5V351.5H120.5V312.5ZM119.5 312.5H80.5V351.5H119.5V312.5ZM40.5 312.5H79.5V351.5H40.5V312.5ZM39.5 312.5H0.5V351.5H39.5V312.5ZM280.5 352.5H319.5V391.5H280.5V352.5ZM279.5 352.5H240.5V391.5H279.5V352.5ZM200.5 352.5H239.5V391.5H200.5V352.5ZM199.5 352.5H160.5V391.5H199.5V352.5ZM120.5 352.5H159.5V391.5H120.5V352.5ZM119.5 352.5H80.5V391.5H119.5V352.5ZM40.5 352.5H79.5V391.5H40.5V352.5ZM39.5 352.5H0.5V391.5H39.5V352.5ZM280.5 392.5H319.5V431.5H280.5V392.5ZM279.5 392.5H240.5V431.5H279.5V392.5ZM200.5 392.5H239.5V431.5H200.5V392.5ZM199.5 392.5H160.5V431.5H199.5V392.5ZM120.5 392.5H159.5V431.5H120.5V392.5ZM119.5 392.5H80.5V431.5H119.5V392.5ZM40.5 392.5H79.5V431.5H40.5V392.5ZM39.5 392.5H0.5V431.5H39.5V392.5ZM280.5 432.5H319.5V471.5H280.5V432.5ZM279.5 432.5H240.5V471.5H279.5V432.5ZM200.5 432.5H239.5V471.5H200.5V432.5ZM199.5 432.5H160.5V471.5H199.5V432.5ZM120.5 432.5H159.5V471.5H120.5V432.5ZM119.5 432.5H80.5V471.5H119.5V432.5ZM40.5 432.5H79.5V471.5H40.5V432.5ZM39.5 432.5H0.5V471.5H39.5V432.5ZM280.5 472.5H319.5V511.5H280.5V472.5ZM279.5 472.5H240.5V511.5H279.5V472.5ZM200.5 472.5H239.5V511.5H200.5V472.5ZM199.5 472.5H160.5V511.5H199.5V472.5ZM120.5 472.5H159.5V511.5H120.5V472.5ZM119.5 472.5H80.5V511.5H119.5V472.5ZM40.5 472.5H79.5V511.5H40.5V472.5ZM39.5 472.5H0.5V511.5H39.5V472.5ZM280.5 512.5H319.5V551.5H280.5V512.5ZM279.5 512.5H240.5V551.5H279.5V512.5ZM200.5 512.5H239.5V551.5H200.5V512.5ZM199.5 512.5H160.5V551.5H199.5V512.5ZM120.5 512.5H159.5V551.5H120.5V512.5ZM119.5 512.5H80.5V551.5H119.5V512.5ZM40.5 512.5H79.5V551.5H40.5V512.5ZM39.5 512.5H0.5V551.5H39.5V512.5Z" fill="url(#paint12_linear_2_310)"/>
        </g>
        <path fill-rule="evenodd" clip-rule="evenodd" d="M320 552H0V832H320V552ZM319.5 552.5H280.5V591.5H319.5V552.5ZM279.5 552.5H240.5V591.5H279.5V552.5ZM200.5 552.5H239.5V591.5H200.5V552.5ZM199.5 552.5H160.5V591.5H199.5V552.5ZM120.5 552.5H159.5V591.5H120.5V552.5ZM119.5 552.5H80.5V591.5H119.5V552.5ZM40.5 552.5H79.5V591.5H40.5V552.5ZM39.5 552.5H0.5V591.5H39.5V552.5ZM280.5 592.5H319.5V631.5H280.5V592.5ZM279.5 592.5H240.5V631.5H279.5V592.5ZM200.5 592.5H239.5V631.5H200.5V592.5ZM199.5 592.5H160.5V631.5H199.5V592.5ZM120.5 592.5H159.5V631.5H120.5V592.5ZM119.5 592.5H80.5V631.5H119.5V592.5ZM40.5 592.5H79.5V631.5H40.5V592.5ZM39.5 592.5H0.5V631.5H39.5V592.5ZM280.5 632.5H319.5V671.5H280.5V632.5ZM279.5 632.5H240.5V671.5H279.5V632.5ZM200.5 632.5H239.5V671.5H200.5V632.5ZM199.5 632.5H160.5V671.5H199.5V632.5ZM120.5 632.5H159.5V671.5H120.5V632.5ZM119.5 632.5H80.5V671.5H119.5V632.5ZM40.5 632.5H79.5V671.5H40.5V632.5ZM39.5 632.5H0.5V671.5H39.5V632.5ZM280.5 672.5H319.5V711.5H280.5V672.5ZM279.5 672.5H240.5V711.5H279.5V672.5ZM200.5 672.5H239.5V711.5H200.5V672.5ZM199.5 672.5H160.5V711.5H199.5V672.5ZM120.5 672.5H159.5V711.5H120.5V672.5ZM119.5 672.5H80.5V711.5H119.5V672.5ZM40.5 672.5H79.5V711.5H40.5V672.5ZM39.5 672.5H0.5V711.5H39.5V672.5ZM280.5 712.5H319.5V751.5H280.5V712.5ZM279.5 712.5H240.5V751.5H279.5V712.5ZM200.5 712.5H239.5V751.5H200.5V712.5ZM199.5 712.5H160.5V751.5H199.5V712.5ZM120.5 712.5H159.5V751.5H120.5V712.5ZM119.5 712.5H80.5V751.5H119.5V712.5ZM40.5 712.5H79.5V751.5H40.5V712.5ZM39.5 712.5H0.5V751.5H39.5V712.5ZM280.5 752.5H319.5V791.5H280.5V752.5ZM279.5 752.5H240.5V791.5H279.5V752.5ZM200.5 752.5H239.5V791.5H200.5V752.5ZM199.5 752.5H160.5V791.5H199.5V752.5ZM120.5 752.5H159.5V791.5H120.5V752.5ZM119.5 752.5H80.5V791.5H119.5V752.5ZM40.5 752.5H79.5V791.5H40.5V752.5ZM39.5 752.5H0.5V791.5H39.5V752.5ZM280.5 792.5H319.5V831.5H280.5V792.5ZM279.5 792.5H240.5V831.5H279.5V792.5ZM200.5 792.5H239.5V831.5H200.5V792.5ZM199.5 792.5H160.5V831.5H199.5V792.5ZM120.5 792.5H159.5V831.5H120.5V792.5ZM119.5 792.5H80.5V831.5H119.5V792.5ZM40.5 792.5H79.5V831.5H40.5V792.5ZM39.5 792.5H0.5V831.5H39.5V792.5Z" fill="url(#paint13_linear_2_310)"/>
        <path fill-rule="evenodd" clip-rule="evenodd" d="M320 832H0V1112H320V832ZM319.5 832.5H280.5V871.5H319.5V832.5ZM279.5 832.5H240.5V871.5H279.5V832.5ZM200.5 832.5H239.5V871.5H200.5V832.5ZM199.5 832.5H160.5V871.5H199.5V832.5ZM120.5 832.5H159.5V871.5H120.5V832.5ZM119.5 832.5H80.5V871.5H119.5V832.5ZM40.5 832.5H79.5V871.5H40.5V832.5ZM39.5 832.5H0.5V871.5H39.5V832.5ZM280.5 872.5H319.5V911.5H280.5V872.5ZM279.5 872.5H240.5V911.5H279.5V872.5ZM200.5 872.5H239.5V911.5H200.5V872.5ZM199.5 872.5H160.5V911.5H199.5V872.5ZM120.5 872.5H159.5V911.5H120.5V872.5ZM119.5 872.5H80.5V911.5H119.5V872.5ZM40.5 872.5H79.5V911.5H40.5V872.5ZM39.5 872.5H0.5V911.5H39.5V872.5ZM280.5 912.5H319.5V951.5H280.5V912.5ZM279.5 912.5H240.5V951.5H279.5V912.5ZM200.5 912.5H239.5V951.5H200.5V912.5ZM199.5 912.5H160.5V951.5H199.5V912.5ZM120.5 912.5H159.5V951.5H120.5V912.5ZM119.5 912.5H80.5V951.5H119.5V912.5ZM40.5 912.5H79.5V951.5H40.5V912.5ZM39.5 912.5H0.5V951.5H39.5V912.5ZM280.5 952.5H319.5V991.5H280.5V952.5ZM279.5 952.5H240.5V991.5H279.5V952.5ZM200.5 952.5H239.5V991.5H200.5V952.5ZM199.5 952.5H160.5V991.5H199.5V952.5ZM120.5 952.5H159.5V991.5H120.5V952.5ZM119.5 952.5H80.5V991.5H119.5V952.5ZM40.5 952.5H79.5V991.5H40.5V952.5ZM39.5 952.5H0.5V991.5H39.5V952.5ZM280.5 992.5H319.5V1031.5H280.5V992.5ZM279.5 992.5H240.5V1031.5H279.5V992.5ZM200.5 992.5H239.5V1031.5H200.5V992.5ZM199.5 992.5H160.5V1031.5H199.5V992.5ZM120.5 992.5H159.5V1031.5H120.5V992.5ZM119.5 992.5H80.5V1031.5H119.5V992.5ZM40.5 992.5H79.5V1031.5H40.5V992.5ZM39.5 992.5H0.5V1031.5H39.5V992.5ZM280.5 1032.5H319.5V1071.5H280.5V1032.5ZM279.5 1032.5H240.5V1071.5H279.5V1032.5ZM200.5 1032.5H239.5V1071.5H200.5V1032.5ZM199.5 1032.5H160.5V1071.5H199.5V1032.5ZM120.5 1032.5H159.5V1071.5H120.5V1032.5ZM119.5 1032.5H80.5V1071.5H119.5V1032.5ZM40.5 1032.5H79.5V1071.5H40.5V1032.5ZM39.5 1032.5H0.5V1071.5H39.5V1032.5ZM280.5 1072.5H319.5V1111.5H280.5V1072.5ZM279.5 1072.5H240.5V1111.5H279.5V1072.5ZM200.5 1072.5H239.5V1111.5H200.5V1072.5ZM199.5 1072.5H160.5V1111.5H199.5V1072.5ZM120.5 1072.5H159.5V1111.5H120.5V1072.5ZM119.5 1072.5H80.5V1111.5H119.5V1072.5ZM40.5 1072.5H79.5V1111.5H40.5V1072.5ZM39.5 1072.5H0.5V1111.5H39.5V1072.5Z" fill="url(#paint14_linear_2_310)"/>
        <path fill-rule="evenodd" clip-rule="evenodd" d="M320 1112H0V1392H320V1112ZM319.5 1112.5H280.5V1151.5H319.5V1112.5ZM279.5 1112.5H240.5V1151.5H279.5V1112.5ZM200.5 1112.5H239.5V1151.5H200.5V1112.5ZM199.5 1112.5H160.5V1151.5H199.5V1112.5ZM120.5 1112.5H159.5V1151.5H120.5V1112.5ZM119.5 1112.5H80.5V1151.5H119.5V1112.5ZM40.5 1112.5H79.5V1151.5H40.5V1112.5ZM39.5 1112.5H0.5V1151.5H39.5V1112.5ZM280.5 1152.5H319.5V1191.5H280.5V1152.5ZM279.5 1152.5H240.5V1191.5H279.5V1152.5ZM200.5 1152.5H239.5V1191.5H200.5V1152.5ZM199.5 1152.5H160.5V1191.5H199.5V1152.5ZM120.5 1152.5H159.5V1191.5H120.5V1152.5ZM119.5 1152.5H80.5V1191.5H119.5V1152.5ZM40.5 1152.5H79.5V1191.5H40.5V1152.5ZM39.5 1152.5H0.5V1191.5H39.5V1152.5ZM280.5 1192.5H319.5V1231.5H280.5V1192.5ZM279.5 1192.5H240.5V1231.5H279.5V1192.5ZM200.5 1192.5H239.5V1231.5H200.5V1192.5ZM199.5 1192.5H160.5V1231.5H199.5V1192.5ZM120.5 1192.5H159.5V1231.5H120.5V1192.5ZM119.5 1192.5H80.5V1231.5H119.5V1192.5ZM40.5 1192.5H79.5V1231.5H40.5V1192.5ZM39.5 1192.5H0.5V1231.5H39.5V1192.5ZM280.5 1232.5H319.5V1271.5H280.5V1232.5ZM279.5 1232.5H240.5V1271.5H279.5V1232.5ZM200.5 1232.5H239.5V1271.5H200.5V1232.5ZM199.5 1232.5H160.5V1271.5H199.5V1232.5ZM120.5 1232.5H159.5V1271.5H120.5V1232.5ZM119.5 1232.5H80.5V1271.5H119.5V1232.5ZM40.5 1232.5H79.5V1271.5H40.5V1232.5ZM39.5 1232.5H0.5V1271.5H39.5V1232.5ZM280.5 1272.5H319.5V1311.5H280.5V1272.5ZM279.5 1272.5H240.5V1311.5H279.5V1272.5ZM200.5 1272.5H239.5V1311.5H200.5V1272.5ZM199.5 1272.5H160.5V1311.5H199.5V1272.5ZM120.5 1272.5H159.5V1311.5H120.5V1272.5ZM119.5 1272.5H80.5V1311.5H119.5V1272.5ZM40.5 1272.5H79.5V1311.5H40.5V1272.5ZM39.5 1272.5H0.5V1311.5H39.5V1272.5ZM280.5 1312.5H319.5V1351.5H280.5V1312.5ZM279.5 1312.5H240.5V1351.5H279.5V1312.5ZM200.5 1312.5H239.5V1351.5H200.5V1312.5ZM199.5 1312.5H160.5V1351.5H199.5V1312.5ZM120.5 1312.5H159.5V1351.5H120.5V1312.5ZM119.5 1312.5H80.5V1351.5H119.5V1312.5ZM40.5 1312.5H79.5V1351.5H40.5V1312.5ZM39.5 1312.5H0.5V1351.5H39.5V1312.5ZM280.5 1352.5H319.5V1391.5H280.5V1352.5ZM279.5 1352.5H240.5V1391.5H279.5V1352.5ZM200.5 1352.5H239.5V1391.5H200.5V1352.5ZM199.5 1352.5H160.5V1391.5H199.5V1352.5ZM120.5 1352.5H159.5V1391.5H120.5V1352.5ZM119.5 1352.5H80.5V1391.5H119.5V1352.5ZM40.5 1352.5H79.5V1391.5H40.5V1352.5ZM39.5 1352.5H0.5V1391.5H39.5V1352.5Z" fill="url(#paint15_linear_2_310)"/>
        <path fill-rule="evenodd" clip-rule="evenodd" d="M320 1392H0V1672H320V1392ZM319.5 1392.5H280.5V1431.5H319.5V1392.5ZM279.5 1392.5H240.5V1431.5H279.5V1392.5ZM200.5 1392.5H239.5V1431.5H200.5V1392.5ZM199.5 1392.5H160.5V1431.5H199.5V1392.5ZM120.5 1392.5H159.5V1431.5H120.5V1392.5ZM119.5 1392.5H80.5V1431.5H119.5V1392.5ZM40.5 1392.5H79.5V1431.5H40.5V1392.5ZM39.5 1392.5H0.5V1431.5H39.5V1392.5ZM280.5 1432.5H319.5V1471.5H280.5V1432.5ZM279.5 1432.5H240.5V1471.5H279.5V1432.5ZM200.5 1432.5H239.5V1471.5H200.5V1432.5ZM199.5 1432.5H160.5V1471.5H199.5V1432.5ZM120.5 1432.5H159.5V1471.5H120.5V1432.5ZM119.5 1432.5H80.5V1471.5H119.5V1432.5ZM40.5 1432.5H79.5V1471.5H40.5V1432.5ZM39.5 1432.5H0.5V1471.5H39.5V1432.5ZM280.5 1472.5H319.5V1511.5H280.5V1472.5ZM279.5 1472.5H240.5V1511.5H279.5V1472.5ZM200.5 1472.5H239.5V1511.5H200.5V1472.5ZM199.5 1472.5H160.5V1511.5H199.5V1472.5ZM120.5 1472.5H159.5V1511.5H120.5V1472.5ZM119.5 1472.5H80.5V1511.5H119.5V1472.5ZM40.5 1472.5H79.5V1511.5H40.5V1472.5ZM39.5 1472.5H0.5V1511.5H39.5V1472.5ZM280.5 1512.5H319.5V1551.5H280.5V1512.5ZM279.5 1512.5H240.5V1551.5H279.5V1512.5ZM200.5 1512.5H239.5V1551.5H200.5V1512.5ZM199.5 1512.5H160.5V1551.5H199.5V1512.5ZM120.5 1512.5H159.5V1551.5H120.5V1512.5ZM119.5 1512.5H80.5V1551.5H119.5V1512.5ZM40.5 1512.5H79.5V1551.5H40.5V1512.5ZM39.5 1512.5H0.5V1551.5H39.5V1512.5ZM280.5 1552.5H319.5V1591.5H280.5V1552.5ZM279.5 1552.5H240.5V1591.5H279.5V1552.5ZM200.5 1552.5H239.5V1591.5H200.5V1552.5ZM199.5 1552.5H160.5V1591.5H199.5V1552.5ZM120.5 1552.5H159.5V1591.5H120.5V1552.5ZM119.5 1552.5H80.5V1591.5H119.5V1552.5ZM40.5 1552.5H79.5V1591.5H40.5V1552.5ZM39.5 1552.5H0.5V1591.5H39.5V1552.5ZM280.5 1592.5H319.5V1631.5H280.5V1592.5ZM279.5 1592.5H240.5V1631.5H279.5V1592.5ZM200.5 1592.5H239.5V1631.5H200.5V1592.5ZM199.5 1592.5H160.5V1631.5H199.5V1592.5ZM120.5 1592.5H159.5V1631.5H120.5V1592.5ZM119.5 1592.5H80.5V1631.5H119.5V1592.5ZM40.5 1592.5H79.5V1631.5H40.5V1592.5ZM39.5 1592.5H0.5V1631.5H39.5V1592.5ZM280.5 1632.5H319.5V1671.5H280.5V1632.5ZM279.5 1632.5H240.5V1671.5H279.5V1632.5ZM200.5 1632.5H239.5V1671.5H200.5V1632.5ZM199.5 1632.5H160.5V1671.5H199.5V1632.5ZM120.5 1632.5H159.5V1671.5H120.5V1632.5ZM119.5 1632.5H80.5V1671.5H119.5V1632.5ZM40.5 1632.5H79.5V1671.5H40.5V1632.5ZM39.5 1632.5H0.5V1671.5H39.5V1632.5Z" fill="url(#paint16_linear_2_310)"/>
        <path fill-rule="evenodd" clip-rule="evenodd" d="M320 1672H0V1952H320V1672ZM319.5 1672.5H280.5V1711.5H319.5V1672.5ZM279.5 1672.5H240.5V1711.5H279.5V1672.5ZM200.5 1672.5H239.5V1711.5H200.5V1672.5ZM199.5 1672.5H160.5V1711.5H199.5V1672.5ZM120.5 1672.5H159.5V1711.5H120.5V1672.5ZM119.5 1672.5H80.5V1711.5H119.5V1672.5ZM40.5 1672.5H79.5V1711.5H40.5V1672.5ZM39.5 1672.5H0.5V1711.5H39.5V1672.5ZM280.5 1712.5H319.5V1751.5H280.5V1712.5ZM279.5 1712.5H240.5V1751.5H279.5V1712.5ZM200.5 1712.5H239.5V1751.5H200.5V1712.5ZM199.5 1712.5H160.5V1751.5H199.5V1712.5ZM120.5 1712.5H159.5V1751.5H120.5V1712.5ZM119.5 1712.5H80.5V1751.5H119.5V1712.5ZM40.5 1712.5H79.5V1751.5H40.5V1712.5ZM39.5 1712.5H0.5V1751.5H39.5V1712.5ZM280.5 1752.5H319.5V1791.5H280.5V1752.5ZM279.5 1752.5H240.5V1791.5H279.5V1752.5ZM200.5 1752.5H239.5V1791.5H200.5V1752.5ZM199.5 1752.5H160.5V1791.5H199.5V1752.5ZM120.5 1752.5H159.5V1791.5H120.5V1752.5ZM119.5 1752.5H80.5V1791.5H119.5V1752.5ZM40.5 1752.5H79.5V1791.5H40.5V1752.5ZM39.5 1752.5H0.5V1791.5H39.5V1752.5ZM280.5 1792.5H319.5V1831.5H280.5V1792.5ZM279.5 1792.5H240.5V1831.5H279.5V1792.5ZM200.5 1792.5H239.5V1831.5H200.5V1792.5ZM199.5 1792.5H160.5V1831.5H199.5V1792.5ZM120.5 1792.5H159.5V1831.5H120.5V1792.5ZM119.5 1792.5H80.5V1831.5H119.5V1792.5ZM40.5 1792.5H79.5V1831.5H40.5V1792.5ZM39.5 1792.5H0.5V1831.5H39.5V1792.5ZM280.5 1832.5H319.5V1871.5H280.5V1832.5ZM279.5 1832.5H240.5V1871.5H279.5V1832.5ZM200.5 1832.5H239.5V1871.5H200.5V1832.5ZM199.5 1832.5H160.5V1871.5H199.5V1832.5ZM120.5 1832.5H159.5V1871.5H120.5V1832.5ZM119.5 1832.5H80.5V1871.5H119.5V1832.5ZM40.5 1832.5H79.5V1871.5H40.5V1832.5ZM39.5 1832.5H0.5V1871.5H39.5V1832.5ZM280.5 1872.5H319.5V1911.5H280.5V1872.5ZM279.5 1872.5H240.5V1911.5H279.5V1872.5ZM200.5 1872.5H239.5V1911.5H200.5V1872.5ZM199.5 1872.5H160.5V1911.5H199.5V1872.5ZM120.5 1872.5H159.5V1911.5H120.5V1872.5ZM119.5 1872.5H80.5V1911.5H119.5V1872.5ZM40.5 1872.5H79.5V1911.5H40.5V1872.5ZM39.5 1872.5H0.5V1911.5H39.5V1872.5ZM280.5 1912.5H319.5V1951.5H280.5V1912.5ZM279.5 1912.5H240.5V1951.5H279.5V1912.5ZM200.5 1912.5H239.5V1951.5H200.5V1912.5ZM199.5 1912.5H160.5V1951.5H199.5V1912.5ZM120.5 1912.5H159.5V1951.5H120.5V1912.5ZM119.5 1912.5H80.5V1951.5H119.5V1912.5ZM40.5 1912.5H79.5V1951.5H40.5V1912.5ZM39.5 1912.5H0.5V1951.5H39.5V1912.5Z" fill="url(#paint17_linear_2_310)"/>
        <path fill-rule="evenodd" clip-rule="evenodd" d="M320 1952H0V2232H320V1952ZM319.5 1952.5H280.5V1991.5H319.5V1952.5ZM279.5 1952.5H240.5V1991.5H279.5V1952.5ZM200.5 1952.5H239.5V1991.5H200.5V1952.5ZM199.5 1952.5H160.5V1991.5H199.5V1952.5ZM120.5 1952.5H159.5V1991.5H120.5V1952.5ZM119.5 1952.5H80.5V1991.5H119.5V1952.5ZM40.5 1952.5H79.5V1991.5H40.5V1952.5ZM39.5 1952.5H0.5V1991.5H39.5V1952.5ZM280.5 1992.5H319.5V2031.5H280.5V1992.5ZM279.5 1992.5H240.5V2031.5H279.5V1992.5ZM200.5 1992.5H239.5V2031.5H200.5V1992.5ZM199.5 1992.5H160.5V2031.5H199.5V1992.5ZM120.5 1992.5H159.5V2031.5H120.5V1992.5ZM119.5 1992.5H80.5V2031.5H119.5V1992.5ZM40.5 1992.5H79.5V2031.5H40.5V1992.5ZM39.5 1992.5H0.5V2031.5H39.5V1992.5ZM280.5 2032.5H319.5V2071.5H280.5V2032.5ZM279.5 2032.5H240.5V2071.5H279.5V2032.5ZM200.5 2032.5H239.5V2071.5H200.5V2032.5ZM199.5 2032.5H160.5V2071.5H199.5V2032.5ZM120.5 2032.5H159.5V2071.5H120.5V2032.5ZM119.5 2032.5H80.5V2071.5H119.5V2032.5ZM40.5 2032.5H79.5V2071.5H40.5V2032.5ZM39.5 2032.5H0.5V2071.5H39.5V2032.5ZM280.5 2072.5H319.5V2111.5H280.5V2072.5ZM279.5 2072.5H240.5V2111.5H279.5V2072.5ZM200.5 2072.5H239.5V2111.5H200.5V2072.5ZM199.5 2072.5H160.5V2111.5H199.5V2072.5ZM120.5 2072.5H159.5V2111.5H120.5V2072.5ZM119.5 2072.5H80.5V2111.5H119.5V2072.5ZM40.5 2072.5H79.5V2111.5H40.5V2072.5ZM39.5 2072.5H0.5V2111.5H39.5V2072.5ZM280.5 2112.5H319.5V2151.5H280.5V2112.5ZM279.5 2112.5H240.5V2151.5H279.5V2112.5ZM200.5 2112.5H239.5V2151.5H200.5V2112.5ZM199.5 2112.5H160.5V2151.5H199.5V2112.5ZM120.5 2112.5H159.5V2151.5H120.5V2112.5ZM119.5 2112.5H80.5V2151.5H119.5V2112.5ZM40.5 2112.5H79.5V2151.5H40.5V2112.5ZM39.5 2112.5H0.5V2151.5H39.5V2112.5ZM280.5 2152.5H319.5V2191.5H280.5V2152.5ZM279.5 2152.5H240.5V2191.5H279.5V2152.5ZM200.5 2152.5H239.5V2191.5H200.5V2152.5ZM199.5 2152.5H160.5V2191.5H199.5V2152.5ZM120.5 2152.5H159.5V2191.5H120.5V2152.5ZM119.5 2152.5H80.5V2191.5H119.5V2152.5ZM40.5 2152.5H79.5V2191.5H40.5V2152.5ZM39.5 2152.5H0.5V2191.5H39.5V2152.5ZM280.5 2192.5H319.5V2231.5H280.5V2192.5ZM279.5 2192.5H240.5V2231.5H279.5V2192.5ZM200.5 2192.5H239.5V2231.5H200.5V2192.5ZM199.5 2192.5H160.5V2231.5H199.5V2192.5ZM120.5 2192.5H159.5V2231.5H120.5V2192.5ZM119.5 2192.5H80.5V2231.5H119.5V2192.5ZM40.5 2192.5H79.5V2231.5H40.5V2192.5ZM39.5 2192.5H0.5V2231.5H39.5V2192.5Z" fill="url(#paint18_linear_2_310)"/>
        <path fill-rule="evenodd" clip-rule="evenodd" d="M320 2232H0V2512H320V2232ZM319.5 2232.5H280.5V2271.5H319.5V2232.5ZM279.5 2232.5H240.5V2271.5H279.5V2232.5ZM200.5 2232.5H239.5V2271.5H200.5V2232.5ZM199.5 2232.5H160.5V2271.5H199.5V2232.5ZM120.5 2232.5H159.5V2271.5H120.5V2232.5ZM119.5 2232.5H80.5V2271.5H119.5V2232.5ZM40.5 2232.5H79.5V2271.5H40.5V2232.5ZM39.5 2232.5H0.5V2271.5H39.5V2232.5ZM280.5 2272.5H319.5V2311.5H280.5V2272.5ZM279.5 2272.5H240.5V2311.5H279.5V2272.5ZM200.5 2272.5H239.5V2311.5H200.5V2272.5ZM199.5 2272.5H160.5V2311.5H199.5V2272.5ZM120.5 2272.5H159.5V2311.5H120.5V2272.5ZM119.5 2272.5H80.5V2311.5H119.5V2272.5ZM40.5 2272.5H79.5V2311.5H40.5V2272.5ZM39.5 2272.5H0.5V2311.5H39.5V2272.5ZM280.5 2312.5H319.5V2351.5H280.5V2312.5ZM279.5 2312.5H240.5V2351.5H279.5V2312.5ZM200.5 2312.5H239.5V2351.5H200.5V2312.5ZM199.5 2312.5H160.5V2351.5H199.5V2312.5ZM120.5 2312.5H159.5V2351.5H120.5V2312.5ZM119.5 2312.5H80.5V2351.5H119.5V2312.5ZM40.5 2312.5H79.5V2351.5H40.5V2312.5ZM39.5 2312.5H0.5V2351.5H39.5V2312.5ZM280.5 2352.5H319.5V2391.5H280.5V2352.5ZM279.5 2352.5H240.5V2391.5H279.5V2352.5ZM200.5 2352.5H239.5V2391.5H200.5V2352.5ZM199.5 2352.5H160.5V2391.5H199.5V2352.5ZM120.5 2352.5H159.5V2391.5H120.5V2352.5ZM119.5 2352.5H80.5V2391.5H119.5V2352.5ZM40.5 2352.5H79.5V2391.5H40.5V2352.5ZM39.5 2352.5H0.5V2391.5H39.5V2352.5ZM280.5 2392.5H319.5V2431.5H280.5V2392.5ZM279.5 2392.5H240.5V2431.5H279.5V2392.5ZM200.5 2392.5H239.5V2431.5H200.5V2392.5ZM199.5 2392.5H160.5V2431.5H199.5V2392.5ZM120.5 2392.5H159.5V2431.5H120.5V2392.5ZM119.5 2392.5H80.5V2431.5H119.5V2392.5ZM40.5 2392.5H79.5V2431.5H40.5V2392.5ZM39.5 2392.5H0.5V2431.5H39.5V2392.5ZM280.5 2432.5H319.5V2471.5H280.5V2432.5ZM279.5 2432.5H240.5V2471.5H279.5V2432.5ZM200.5 2432.5H239.5V2471.5H200.5V2432.5ZM199.5 2432.5H160.5V2471.5H199.5V2432.5ZM120.5 2432.5H159.5V2471.5H120.5V2432.5ZM119.5 2432.5H80.5V2471.5H119.5V2432.5ZM40.5 2432.5H79.5V2471.5H40.5V2432.5ZM39.5 2432.5H0.5V2471.5H39.5V2432.5ZM280.5 2472.5H319.5V2511.5H280.5V2472.5ZM279.5 2472.5H240.5V2511.5H279.5V2472.5ZM200.5 2472.5H239.5V2511.5H200.5V2472.5ZM199.5 2472.5H160.5V2511.5H199.5V2472.5ZM120.5 2472.5H159.5V2511.5H120.5V2472.5ZM119.5 2472.5H80.5V2511.5H119.5V2472.5ZM40.5 2472.5H79.5V2511.5H40.5V2472.5ZM39.5 2472.5H0.5V2511.5H39.5V2472.5Z" fill="url(#paint19_linear_2_310)"/>
        <path fill-rule="evenodd" clip-rule="evenodd" d="M320 2512H0V2792H320V2512ZM319.5 2512.5H280.5V2551.5H319.5V2512.5ZM279.5 2512.5H240.5V2551.5H279.5V2512.5ZM200.5 2512.5H239.5V2551.5H200.5V2512.5ZM199.5 2512.5H160.5V2551.5H199.5V2512.5ZM120.5 2512.5H159.5V2551.5H120.5V2512.5ZM119.5 2512.5H80.5V2551.5H119.5V2512.5ZM40.5 2512.5H79.5V2551.5H40.5V2512.5ZM39.5 2512.5H0.5V2551.5H39.5V2512.5ZM280.5 2552.5H319.5V2591.5H280.5V2552.5ZM279.5 2552.5H240.5V2591.5H279.5V2552.5ZM200.5 2552.5H239.5V2591.5H200.5V2552.5ZM199.5 2552.5H160.5V2591.5H199.5V2552.5ZM120.5 2552.5H159.5V2591.5H120.5V2552.5ZM119.5 2552.5H80.5V2591.5H119.5V2552.5ZM40.5 2552.5H79.5V2591.5H40.5V2552.5ZM39.5 2552.5H0.5V2591.5H39.5V2552.5ZM280.5 2592.5H319.5V2631.5H280.5V2592.5ZM279.5 2592.5H240.5V2631.5H279.5V2592.5ZM200.5 2592.5H239.5V2631.5H200.5V2592.5ZM199.5 2592.5H160.5V2631.5H199.5V2592.5ZM120.5 2592.5H159.5V2631.5H120.5V2592.5ZM119.5 2592.5H80.5V2631.5H119.5V2592.5ZM40.5 2592.5H79.5V2631.5H40.5V2592.5ZM39.5 2592.5H0.5V2631.5H39.5V2592.5ZM280.5 2632.5H319.5V2671.5H280.5V2632.5ZM279.5 2632.5H240.5V2671.5H279.5V2632.5ZM200.5 2632.5H239.5V2671.5H200.5V2632.5ZM199.5 2632.5H160.5V2671.5H199.5V2632.5ZM120.5 2632.5H159.5V2671.5H120.5V2632.5ZM119.5 2632.5H80.5V2671.5H119.5V2632.5ZM40.5 2632.5H79.5V2671.5H40.5V2632.5ZM39.5 2632.5H0.5V2671.5H39.5V2632.5ZM280.5 2672.5H319.5V2711.5H280.5V2672.5ZM279.5 2672.5H240.5V2711.5H279.5V2672.5ZM200.5 2672.5H239.5V2711.5H200.5V2672.5ZM199.5 2672.5H160.5V2711.5H199.5V2672.5ZM120.5 2672.5H159.5V2711.5H120.5V2672.5ZM119.5 2672.5H80.5V2711.5H119.5V2672.5ZM40.5 2672.5H79.5V2711.5H40.5V2672.5ZM39.5 2672.5H0.5V2711.5H39.5V2672.5ZM280.5 2712.5H319.5V2751.5H280.5V2712.5ZM279.5 2712.5H240.5V2751.5H279.5V2712.5ZM200.5 2712.5H239.5V2751.5H200.5V2712.5ZM199.5 2712.5H160.5V2751.5H199.5V2712.5ZM120.5 2712.5H159.5V2751.5H120.5V2712.5ZM119.5 2712.5H80.5V2751.5H119.5V2712.5ZM40.5 2712.5H79.5V2751.5H40.5V2712.5ZM39.5 2712.5H0.5V2751.5H39.5V2712.5ZM280.5 2752.5H319.5V2791.5H280.5V2752.5ZM279.5 2752.5H240.5V2791.5H279.5V2752.5ZM200.5 2752.5H239.5V2791.5H200.5V2752.5ZM199.5 2752.5H160.5V2791.5H199.5V2752.5ZM120.5 2752.5H159.5V2791.5H120.5V2752.5ZM119.5 2752.5H80.5V2791.5H119.5V2752.5ZM40.5 2752.5H79.5V2791.5H40.5V2752.5ZM39.5 2752.5H0.5V2791.5H39.5V2752.5Z" fill="url(#paint20_linear_2_310)"/>
        <path fill-rule="evenodd" clip-rule="evenodd" d="M320 2792H0V3072H320V2792ZM319.5 2792.5H280.5V2831.5H319.5V2792.5ZM279.5 2792.5H240.5V2831.5H279.5V2792.5ZM200.5 2792.5H239.5V2831.5H200.5V2792.5ZM199.5 2792.5H160.5V2831.5H199.5V2792.5ZM120.5 2792.5H159.5V2831.5H120.5V2792.5ZM119.5 2792.5H80.5V2831.5H119.5V2792.5ZM40.5 2792.5H79.5V2831.5H40.5V2792.5ZM39.5 2792.5H0.5V2831.5H39.5V2792.5ZM280.5 2832.5H319.5V2871.5H280.5V2832.5ZM279.5 2832.5H240.5V2871.5H279.5V2832.5ZM200.5 2832.5H239.5V2871.5H200.5V2832.5ZM199.5 2832.5H160.5V2871.5H199.5V2832.5ZM120.5 2832.5H159.5V2871.5H120.5V2832.5ZM119.5 2832.5H80.5V2871.5H119.5V2832.5ZM40.5 2832.5H79.5V2871.5H40.5V2832.5ZM39.5 2832.5H0.5V2871.5H39.5V2832.5ZM280.5 2872.5H319.5V2911.5H280.5V2872.5ZM279.5 2872.5H240.5V2911.5H279.5V2872.5ZM200.5 2872.5H239.5V2911.5H200.5V2872.5ZM199.5 2872.5H160.5V2911.5H199.5V2872.5ZM120.5 2872.5H159.5V2911.5H120.5V2872.5ZM119.5 2872.5H80.5V2911.5H119.5V2872.5ZM40.5 2872.5H79.5V2911.5H40.5V2872.5ZM39.5 2872.5H0.5V2911.5H39.5V2872.5ZM280.5 2912.5H319.5V2951.5H280.5V2912.5ZM279.5 2912.5H240.5V2951.5H279.5V2912.5ZM200.5 2912.5H239.5V2951.5H200.5V2912.5ZM199.5 2912.5H160.5V2951.5H199.5V2912.5ZM120.5 2912.5H159.5V2951.5H120.5V2912.5ZM119.5 2912.5H80.5V2951.5H119.5V2912.5ZM40.5 2912.5H79.5V2951.5H40.5V2912.5ZM39.5 2912.5H0.5V2951.5H39.5V2912.5ZM280.5 2952.5H319.5V2991.5H280.5V2952.5ZM279.5 2952.5H240.5V2991.5H279.5V2952.5ZM200.5 2952.5H239.5V2991.5H200.5V2952.5ZM199.5 2952.5H160.5V2991.5H199.5V2952.5ZM120.5 2952.5H159.5V2991.5H120.5V2952.5ZM119.5 2952.5H80.5V2991.5H119.5V2952.5ZM40.5 2952.5H79.5V2991.5H40.5V2952.5ZM39.5 2952.5H0.5V2991.5H39.5V2952.5ZM280.5 2992.5H319.5V3031.5H280.5V2992.5ZM279.5 2992.5H240.5V3031.5H279.5V2992.5ZM200.5 2992.5H239.5V3031.5H200.5V2992.5ZM199.5 2992.5H160.5V3031.5H199.5V2992.5ZM120.5 2992.5H159.5V3031.5H120.5V2992.5ZM119.5 2992.5H80.5V3031.5H119.5V2992.5ZM40.5 2992.5H79.5V3031.5H40.5V2992.5ZM39.5 2992.5H0.5V3031.5H39.5V2992.5ZM280.5 3032.5H319.5V3071.5H280.5V3032.5ZM279.5 3032.5H240.5V3071.5H279.5V3032.5ZM200.5 3032.5H239.5V3071.5H200.5V3032.5ZM199.5 3032.5H160.5V3071.5H199.5V3032.5ZM120.5 3032.5H159.5V3071.5H120.5V3032.5ZM119.5 3032.5H80.5V3071.5H119.5V3032.5ZM40.5 3032.5H79.5V3071.5H40.5V3032.5ZM39.5 3032.5H0.5V3071.5H39.5V3032.5Z" fill="url(#paint21_linear_2_310)"/>
        <g filter="url(#filter0_f_2_310)">
            <ellipse rx="770.416" ry="497.656" transform="matrix(-0.904969 0.425477 0.425477 0.904969 2576.94 531.157)" fill="url(#paint22_linear_2_310)"/>
        </g>
        <g style="mix-blend-mode:color-dodge" opacity="0.3" filter="url(#filter1_f_2_310)">
            <ellipse cx="965.563" cy="509.57" rx="451.938" ry="267.616" transform="rotate(16.599 965.563 509.57)" fill="#614FA6"/>
        </g>
        <g filter="url(#filter2_f_2_310)">
            <ellipse cx="-708.231" cy="116.5" rx="904.657" ry="629.642" transform="rotate(47.1705 -708.231 116.5)" fill="url(#paint23_linear_2_310)"/>
        </g>
    </g>
    <defs>
        <filter id="filter0_f_2_310" x="1548.1" y="-325.906" width="2057.68" height="1714.13" filterUnits="userSpaceOnUse" color-interpolation-filters="sRGB">
            <feFlood flood-opacity="0" result="BackgroundImageFix"/>
            <feBlend mode="normal" in="SourceGraphic" in2="BackgroundImageFix" result="shape"/>
            <feGaussianBlur stdDeviation="150" result="effect1_foregroundBlur_2_310"/>
        </filter>
        <filter id="filter1_f_2_310" x="225.689" y="-77.6196" width="1479.75" height="1174.38" filterUnits="userSpaceOnUse" color-interpolation-filters="sRGB">
            <feFlood flood-opacity="0" result="BackgroundImageFix"/>
            <feBlend mode="normal" in="SourceGraphic" in2="BackgroundImageFix" result="shape"/>
            <feGaussianBlur stdDeviation="150" result="effect1_foregroundBlur_2_310"/>
        </filter>
        <filter id="filter2_f_2_310" x="-1777.34" y="-973.15" width="2138.21" height="2179.3" filterUnits="userSpaceOnUse" color-interpolation-filters="sRGB">
            <feFlood flood-opacity="0" result="BackgroundImageFix"/>
            <feBlend mode="normal" in="SourceGraphic" in2="BackgroundImageFix" result="shape"/>
            <feGaussianBlur stdDeviation="150" result="effect1_foregroundBlur_2_310"/>
        </filter>
        <linearGradient id="paint0_linear_2_310" x1="1920" y1="-8" x2="1600" y2="-8" gradientUnits="userSpaceOnUse">
            <stop stop-color="#30324F"/>
            <stop offset="1" stop-color="#232439"/>
        </linearGradient>
        <linearGradient id="paint1_linear_2_310" x1="1920" y1="272" x2="1600" y2="272" gradientUnits="userSpaceOnUse">
            <stop stop-color="#30324F"/>
            <stop offset="1" stop-color="#232439"/>
        </linearGradient>
        <linearGradient id="paint2_linear_2_310" x1="1920" y1="552" x2="1479" y2="552" gradientUnits="userSpaceOnUse">
            <stop stop-color="#3535FF"/>
            <stop offset="1" stop-opacity="0"/>
        </linearGradient>
        <linearGradient id="paint3_linear_2_310" x1="1920" y1="832" x2="1600" y2="832" gradientUnits="userSpaceOnUse">
            <stop stop-color="#30324F"/>
            <stop offset="1" stop-color="#232439"/>
        </linearGradient>
        <linearGradient id="paint4_linear_2_310" x1="1920" y1="1112" x2="1600" y2="1112" gradientUnits="userSpaceOnUse">
            <stop stop-color="#30324F"/>
            <stop offset="1" stop-color="#232439"/>
        </linearGradient>
        <linearGradient id="paint5_linear_2_310" x1="1920" y1="1392" x2="1600" y2="1392" gradientUnits="userSpaceOnUse">
            <stop stop-color="#30324F"/>
            <stop offset="1" stop-color="#232439"/>
        </linearGradient>
        <linearGradient id="paint6_linear_2_310" x1="1920" y1="1672" x2="1600" y2="1672" gradientUnits="userSpaceOnUse">
            <stop stop-color="#30324F"/>
            <stop offset="1" stop-color="#232439"/>
        </linearGradient>
        <linearGradient id="paint7_linear_2_310" x1="1920" y1="1952" x2="1600" y2="1952" gradientUnits="userSpaceOnUse">
            <stop stop-color="#30324F"/>
            <stop offset="1" stop-color="#232439"/>
        </linearGradient>
        <linearGradient id="paint8_linear_2_310" x1="1920" y1="2232" x2="1600" y2="2232" gradientUnits="userSpaceOnUse">
            <stop stop-color="#30324F"/>
            <stop offset="1" stop-color="#232439"/>
        </linearGradient>
        <linearGradient id="paint9_linear_2_310" x1="1920" y1="2512" x2="1600" y2="2512" gradientUnits="userSpaceOnUse">
            <stop stop-color="#30324F"/>
            <stop offset="1" stop-color="#232439"/>
        </linearGradient>
        <linearGradient id="paint10_linear_2_310" x1="1920" y1="2792" x2="1600" y2="2792" gradientUnits="userSpaceOnUse">
            <stop stop-color="#30324F"/>
            <stop offset="1" stop-color="#232439"/>
        </linearGradient>
        <linearGradient id="paint11_linear_2_310" x1="0" y1="-8" x2="320" y2="-8" gradientUnits="userSpaceOnUse">
            <stop stop-color="#30324F"/>
            <stop offset="1" stop-color="#232439"/>
        </linearGradient>
        <linearGradient id="paint12_linear_2_310" x1="0" y1="272" x2="441" y2="272" gradientUnits="userSpaceOnUse">
            <stop stop-color="#FF3842"/>
            <stop offset="1" stop-opacity="0"/>
        </linearGradient>
        <linearGradient id="paint13_linear_2_310" x1="0" y1="552" x2="320" y2="552" gradientUnits="userSpaceOnUse">
            <stop stop-color="#30324F"/>
            <stop offset="1" stop-color="#232439"/>
        </linearGradient>
        <linearGradient id="paint14_linear_2_310" x1="0" y1="832" x2="320" y2="832" gradientUnits="userSpaceOnUse">
            <stop stop-color="#30324F"/>
            <stop offset="1" stop-color="#232439"/>
        </linearGradient>
        <linearGradient id="paint15_linear_2_310" x1="0" y1="1112" x2="320" y2="1112" gradientUnits="userSpaceOnUse">
            <stop stop-color="#30324F"/>
            <stop offset="1" stop-color="#232439"/>
        </linearGradient>
        <linearGradient id="paint16_linear_2_310" x1="0" y1="1392" x2="320" y2="1392" gradientUnits="userSpaceOnUse">
            <stop stop-color="#30324F"/>
            <stop offset="1" stop-color="#232439"/>
        </linearGradient>
        <linearGradient id="paint17_linear_2_310" x1="0" y1="1672" x2="320" y2="1672" gradientUnits="userSpaceOnUse">
            <stop stop-color="#30324F"/>
            <stop offset="1" stop-color="#232439"/>
        </linearGradient>
        <linearGradient id="paint18_linear_2_310" x1="0" y1="1952" x2="320" y2="1952" gradientUnits="userSpaceOnUse">
            <stop stop-color="#30324F"/>
            <stop offset="1" stop-color="#232439"/>
        </linearGradient>
        <linearGradient id="paint19_linear_2_310" x1="0" y1="2232" x2="320" y2="2232" gradientUnits="userSpaceOnUse">
            <stop stop-color="#30324F"/>
            <stop offset="1" stop-color="#232439"/>
        </linearGradient>
        <linearGradient id="paint20_linear_2_310" x1="0" y1="2512" x2="320" y2="2512" gradientUnits="userSpaceOnUse">
            <stop stop-color="#30324F"/>
            <stop offset="1" stop-color="#232439"/>
        </linearGradient>
        <linearGradient id="paint21_linear_2_310" x1="0" y1="2792" x2="320" y2="2792" gradientUnits="userSpaceOnUse">
            <stop stop-color="#30324F"/>
            <stop offset="1" stop-color="#232439"/>
        </linearGradient>
        <linearGradient id="paint22_linear_2_310" x1="86.0901" y1="314.868" x2="1271.96" y2="482.548" gradientUnits="userSpaceOnUse">
            <stop stop-color="#D851DB"/>
            <stop offset="1" stop-color="#0A3BBA"/>
        </linearGradient>
        <linearGradient id="paint23_linear_2_310" x1="-1511.8" y1="-114.765" x2="166.871" y2="-79.4742" gradientUnits="userSpaceOnUse">
            <stop stop-color="#5451DB"/>
            <stop offset="1" stop-color="#FA3C67"/>
        </linearGradient>
        <clipPath id="clip0_2_310">
            <rect width="1920" height="2917" fill="white"/>
        </clipPath>
    </defs>
</svg>
