<svg width="57" height="57" viewBox="0 0 57 57" fill="none" xmlns="http://www.w3.org/2000/svg">
    <path d="M49.4251 3.79075L25.7162 30.4056L19.789 22.5002C19.0159 21.4462 17.2119 21.1826 16.1811 21.9732C15.1503 22.7637 14.8926 24.6083 15.6657 25.6624L23.3969 36.2029C23.9123 36.7299 24.6854 37.257 25.4585 37.257C26.2316 37.257 26.747 36.9935 27.2624 36.4664L53.0329 7.47994C54.0638 6.42589 53.8061 4.84481 52.7752 3.79075C52.0021 2.7367 50.1982 2.7367 49.4251 3.79075Z" fill="#58DA9C"/>
    <g filter="url(#filter0_d_2_3350)">
        <rect x="11" y="7.21664" width="34.7838" height="34.7838" rx="7.90541" fill="#58DA9C"/>
    </g>
    <path fill-rule="evenodd" clip-rule="evenodd" d="M45.7838 15.6338V15.1221C45.7838 13.1664 45.0736 11.3765 43.8971 9.99634L25.7162 30.4056L19.789 22.5002C19.0159 21.4462 17.2119 21.1827 16.1811 21.9732C15.1503 22.7637 14.8926 24.6083 15.6657 25.6624L23.3969 36.2029C23.9123 36.73 24.6854 37.257 25.4585 37.257C26.2316 37.257 26.747 36.9935 27.2624 36.4665L45.7838 15.6338Z" fill="white"/>
    <defs>
        <filter id="filter0_d_2_3350" x="0.459458" y="0.892319" width="55.8649" height="55.8649" filterUnits="userSpaceOnUse" color-interpolation-filters="sRGB">
            <feFlood flood-opacity="0" result="BackgroundImageFix"/>
            <feColorMatrix in="SourceAlpha" type="matrix" values="0 0 0 0 0 0 0 0 0 0 0 0 0 0 0 0 0 0 127 0" result="hardAlpha"/>
            <feMorphology radius="1.05405" operator="erode" in="SourceAlpha" result="effect1_dropShadow_2_3350"/>
            <feOffset dy="4.21622"/>
            <feGaussianBlur stdDeviation="5.7973"/>
            <feColorMatrix type="matrix" values="0 0 0 0 0.345098 0 0 0 0 0.854902 0 0 0 0 0.611765 0 0 0 1 0"/>
            <feBlend mode="normal" in2="BackgroundImageFix" result="effect1_dropShadow_2_3350"/>
            <feBlend mode="normal" in="SourceGraphic" in2="effect1_dropShadow_2_3350" result="shape"/>
        </filter>
    </defs>
</svg>
