<svg width="1160" height="543" viewBox="0 0 1160 543" fill="none" xmlns="http://www.w3.org/2000/svg">
    <mask id="path-1-inside-1_2_3291" fill="white">
        <path fill-rule="evenodd" clip-rule="evenodd" d="M0 13.4752C0 6.06108 6.0103 0.0507812 13.4244 0.0507812H320.576C327.99 0.0507812 334 6.06107 334 13.4751V434.626C334 442.04 340.01 448.051 347.424 448.051H812.576C819.99 448.051 826 442.04 826 434.626V13.4752C826 6.06108 832.01 0.0507812 839.424 0.0507812H1146.58C1153.99 0.0507812 1160 6.06109 1160 13.4752V528.626C1160 536.04 1153.99 542.051 1146.58 542.051H1002H826H334H175H13.4244C6.0103 542.051 0 536.04 0 528.626V13.4752Z"/>
    </mask>
    <path fill-rule="evenodd" clip-rule="evenodd" d="M0 13.4752C0 6.06108 6.0103 0.0507812 13.4244 0.0507812H320.576C327.99 0.0507812 334 6.06107 334 13.4751V434.626C334 442.04 340.01 448.051 347.424 448.051H812.576C819.99 448.051 826 442.04 826 434.626V13.4752C826 6.06108 832.01 0.0507812 839.424 0.0507812H1146.58C1153.99 0.0507812 1160 6.06109 1160 13.4752V528.626C1160 536.04 1153.99 542.051 1146.58 542.051H1002H826H334H175H13.4244C6.0103 542.051 0 536.04 0 528.626V13.4752Z" fill="#E4E4EA"/>
    <path d="M320.576 -0.949219H13.4244V1.05078H320.576V-0.949219ZM335 434.626V13.4751H333V434.626H335ZM347.424 449.051H812.576V447.051H347.424V449.051ZM825 13.4752V434.626H827V13.4752H825ZM1146.58 -0.949219H839.424V1.05078H1146.58V-0.949219ZM1161 528.626V13.4752H1159V528.626H1161ZM1002 543.051H1146.58V541.051H1002V543.051ZM1002 541.051H826V543.051H1002V541.051ZM826 541.051H334V543.051H826V541.051ZM334 541.051H175V543.051H334V541.051ZM13.4244 543.051H175V541.051H13.4244V543.051ZM-1 13.4752V528.626H1V13.4752H-1ZM1159 528.626C1159 535.488 1153.44 541.051 1146.58 541.051V543.051C1154.54 543.051 1161 536.593 1161 528.626H1159ZM1146.58 1.05078C1153.44 1.05078 1159 6.61337 1159 13.4752H1161C1161 5.50881 1154.54 -0.949219 1146.58 -0.949219V1.05078ZM827 13.4752C827 6.61336 832.563 1.05078 839.424 1.05078V-0.949219C831.458 -0.949219 825 5.50879 825 13.4752H827ZM812.576 449.051C820.542 449.051 827 442.593 827 434.626H825C825 441.488 819.437 447.051 812.576 447.051V449.051ZM333 434.626C333 442.593 339.458 449.051 347.424 449.051V447.051C340.563 447.051 335 441.488 335 434.626H333ZM13.4244 -0.949219C5.45801 -0.949219 -1 5.50879 -1 13.4752H1C1 6.61336 6.56258 1.05078 13.4244 1.05078V-0.949219ZM13.4244 541.051C6.56258 541.051 1 535.488 1 528.626H-1C-1 536.593 5.45801 543.051 13.4244 543.051V541.051ZM320.576 1.05078C327.437 1.05078 333 6.61336 333 13.4751H335C335 5.50879 328.542 -0.949219 320.576 -0.949219V1.05078Z" fill="#2F3140" fill-opacity="0.2" mask="url(#path-1-inside-1_2_3291)"/>
</svg>
