<svg width="1160" height="276" viewBox="0 0 1160 276" fill="none" xmlns="http://www.w3.org/2000/svg">
    <mask id="path-1-inside-1_2_2977" fill="white">
        <path fill-rule="evenodd" clip-rule="evenodd" d="M0 13.4752C0 6.06108 6.0103 0.0507812 13.4244 0.0507812H276.576C283.99 0.0507812 290 6.06109 290 13.4752V167.626C290 175.04 296.01 181.051 303.424 181.051H856.576C863.99 181.051 870 175.04 870 167.626V13.4752C870 6.06108 876.01 0.0507812 883.424 0.0507812H1146.58C1153.99 0.0507812 1160 6.06108 1160 13.4752V261.626C1160 269.04 1153.99 275.051 1146.58 275.051H1002H870H290H175H13.4244C6.0103 275.051 0 269.04 0 261.626V13.4752Z"/>
    </mask>
    <path fill-rule="evenodd" clip-rule="evenodd" d="M0 13.4752C0 6.06108 6.0103 0.0507812 13.4244 0.0507812H276.576C283.99 0.0507812 290 6.06109 290 13.4752V167.626C290 175.04 296.01 181.051 303.424 181.051H856.576C863.99 181.051 870 175.04 870 167.626V13.4752C870 6.06108 876.01 0.0507812 883.424 0.0507812H1146.58C1153.99 0.0507812 1160 6.06108 1160 13.4752V261.626C1160 269.04 1153.99 275.051 1146.58 275.051H1002H870H290H175H13.4244C6.0103 275.051 0 269.04 0 261.626V13.4752Z" fill="#E4E4EA"/>
    <path d="M276.576 -0.949219H13.4244V1.05078H276.576V-0.949219ZM291 167.626V13.4752H289V167.626H291ZM303.424 182.051H856.576V180.051H303.424V182.051ZM869 13.4752V167.626H871V13.4752H869ZM1146.58 -0.949219H883.424V1.05078H1146.58V-0.949219ZM1161 261.626V13.4752H1159V261.626H1161ZM1002 276.051H1146.58V274.051H1002V276.051ZM1002 274.051H870V276.051H1002V274.051ZM870 274.051H290V276.051H870V274.051ZM290 274.051H175V276.051H290V274.051ZM13.4244 276.051H175V274.051H13.4244V276.051ZM-1 13.4752V261.626H1V13.4752H-1ZM1159 261.626C1159 268.488 1153.44 274.051 1146.58 274.051V276.051C1154.54 276.051 1161 269.593 1161 261.626H1159ZM1146.58 1.05078C1153.44 1.05078 1159 6.61337 1159 13.4752H1161C1161 5.5088 1154.54 -0.949219 1146.58 -0.949219V1.05078ZM871 13.4752C871 6.61336 876.563 1.05078 883.424 1.05078V-0.949219C875.458 -0.949219 869 5.50879 869 13.4752H871ZM856.576 182.051C864.542 182.051 871 175.593 871 167.626H869C869 174.488 863.437 180.051 856.576 180.051V182.051ZM289 167.626C289 175.593 295.458 182.051 303.424 182.051V180.051C296.563 180.051 291 174.488 291 167.626H289ZM13.4244 -0.949219C5.45801 -0.949219 -1 5.50879 -1 13.4752H1C1 6.61336 6.56258 1.05078 13.4244 1.05078V-0.949219ZM13.4244 274.051C6.56258 274.051 1 268.488 1 261.626H-1C-1 269.593 5.45801 276.051 13.4244 276.051V274.051ZM276.576 1.05078C283.437 1.05078 289 6.61337 289 13.4752H291C291 5.5088 284.542 -0.949219 276.576 -0.949219V1.05078Z" fill="#2F3140" fill-opacity="0.2" mask="url(#path-1-inside-1_2_2977)"/>
</svg>
