<svg width="570" height="431" viewBox="0 0 570 431" fill="none" xmlns="http://www.w3.org/2000/svg">
    <path fill-rule="evenodd" clip-rule="evenodd" d="M405.858 -120.756C398.684 -124.899 389.51 -122.44 385.368 -115.266L300.088 32.4431L268.368 14.1298C261.194 9.98766 252.02 12.4458 247.878 19.6201L164.271 164.431L111.876 134.18C104.702 130.038 95.5281 132.496 91.3859 139.671L2.43033 293.746C-1.7118 300.921 0.746335 310.095 7.92072 314.237L60.3158 344.487L50.6748 361.186C46.5327 368.36 48.9908 377.534 56.1652 381.676L94.5588 403.843L85.7623 419.079C81.6202 426.253 84.0783 435.427 91.2527 439.569L191.017 497.168C198.191 501.31 207.365 498.852 211.507 491.677L227.291 464.339L285.805 498.122C292.98 502.264 302.154 499.806 306.296 492.632L352.488 412.624L361.026 417.553C368.2 421.695 377.374 419.237 381.516 412.063L497.072 211.915C501.214 204.74 498.756 195.566 491.582 191.424L483.044 186.495L505.333 147.89C509.475 140.716 507.017 131.542 499.842 127.4L490.765 122.159L567.224 -10.2716C571.366 -17.446 568.907 -26.6198 561.733 -30.762L405.858 -120.756ZM531.835 174.04C533.34 171.434 536.671 170.542 539.276 172.046C541.881 173.55 542.774 176.881 541.27 179.486L502.996 245.777C501.492 248.382 498.161 249.275 495.556 247.771C492.951 246.267 492.058 242.936 493.562 240.33L531.835 174.04ZM216.69 42.0271C214.085 40.5231 210.754 41.4156 209.25 44.0208L185.204 85.6698C183.7 88.275 184.592 91.6062 187.198 93.1103C189.803 94.6143 193.134 93.7217 194.638 91.1166L218.684 49.4675C220.188 46.8624 219.296 43.5312 216.69 42.0271ZM529.885 128.978C531.374 126.398 534.673 125.514 537.253 127.004C539.833 128.493 540.717 131.792 539.228 134.372L513.558 178.833C512.068 181.413 508.769 182.297 506.189 180.808C503.609 179.318 502.726 176.019 504.215 173.439L529.885 128.978ZM200.653 11.5707C198.073 10.0812 194.774 10.9652 193.285 13.5451L177.142 41.5054C175.652 44.0854 176.536 47.3843 179.116 48.8739C181.696 50.3634 184.995 49.4794 186.485 46.8995L202.627 18.9392C204.117 16.3592 203.233 13.0603 200.653 11.5707ZM218.28 6.81334C219.769 4.2334 223.068 3.34944 225.648 4.83897C228.228 6.32849 229.112 9.62744 227.623 12.2074L222.387 21.2749C220.898 23.8548 217.599 24.7388 215.019 23.2493C212.439 21.7598 211.555 18.4608 213.045 15.8809L218.28 6.81334ZM78.8014 222.5C76.2215 221.011 72.9225 221.895 71.433 224.475L33.5303 290.124C32.0407 292.704 32.9247 296.003 35.5046 297.493C38.0846 298.982 41.3835 298.098 42.873 295.518L80.7758 229.869C82.2653 227.289 81.3813 223.99 78.8014 222.5ZM66.8618 205.243C67.9429 203.37 70.3374 202.728 72.2099 203.81C74.0825 204.891 74.7241 207.285 73.6429 209.158L59.7672 233.191C58.6861 235.064 56.2917 235.705 54.4191 234.624C52.5466 233.543 51.905 231.149 52.9861 229.276L66.8618 205.243Z" fill="#F8F8FB"/>
    <mask id="mask0_2_5732" style="mask-type:alpha" maskUnits="userSpaceOnUse" x="0" y="-115" width="565" height="616">
        <path fill-rule="evenodd" clip-rule="evenodd" d="M401.086 -112.49C393.911 -116.633 384.738 -114.174 380.596 -107L300.088 32.4432L268.368 14.1298C261.194 9.98764 252.02 12.4457 247.878 19.6201L164.271 164.431L111.876 134.18C104.702 130.038 95.5281 132.496 91.3859 139.671L2.43033 293.746C-1.7118 300.921 0.746335 310.095 7.92072 314.237L60.3158 344.487L50.6748 361.186C46.5327 368.36 48.9908 377.534 56.1652 381.676L94.5588 403.843L85.7623 419.079C81.6202 426.253 84.0783 435.427 91.2527 439.569L191.017 497.168C198.191 501.31 207.365 498.852 211.507 491.677L227.291 464.339L285.805 498.122C292.98 502.264 302.154 499.806 306.296 492.632L352.488 412.624L361.026 417.553C368.2 421.695 377.374 419.237 381.516 412.063L497.072 211.914C501.214 204.74 498.756 195.566 491.582 191.424L483.044 186.495L505.333 147.89C509.475 140.716 507.017 131.542 499.842 127.4L490.765 122.159L562.451 -2.00559C566.593 -9.17999 564.135 -18.3538 556.961 -22.496L401.086 -112.49ZM531.835 174.039C533.34 171.434 536.671 170.542 539.276 172.046C541.881 173.55 542.774 176.881 541.27 179.486L502.996 245.777C501.492 248.382 498.161 249.275 495.556 247.771C492.951 246.267 492.058 242.935 493.562 240.33L531.835 174.039ZM216.69 42.0271C214.085 40.523 210.754 41.4156 209.25 44.0208L185.204 85.6698C183.7 88.275 184.592 91.6061 187.198 93.1102C189.803 94.6143 193.134 93.7217 194.638 91.1166L218.684 49.4675C220.188 46.8624 219.296 43.5312 216.69 42.0271ZM529.885 128.978C531.374 126.398 534.673 125.514 537.253 127.004C539.833 128.493 540.717 131.792 539.228 134.372L513.558 178.834C512.068 181.413 508.769 182.297 506.189 180.808C503.609 179.318 502.726 176.019 504.215 173.439L529.885 128.978ZM200.653 11.5707C198.073 10.0812 194.774 10.9651 193.285 13.5451L177.142 41.5054C175.652 44.0854 176.536 47.3843 179.116 48.8738C181.696 50.3634 184.995 49.4794 186.485 46.8995L202.627 18.9391C204.117 16.3592 203.233 13.0603 200.653 11.5707ZM218.28 6.8133C219.769 4.23336 223.068 3.3494 225.648 4.83894C228.228 6.32846 229.112 9.62741 227.623 12.2073L222.387 21.2749C220.898 23.8548 217.599 24.7388 215.019 23.2492C212.439 21.7597 211.555 18.4608 213.045 15.8808L218.28 6.8133ZM78.8014 222.5C76.2215 221.011 72.9225 221.895 71.433 224.475L33.5303 290.124C32.0407 292.704 32.9247 296.003 35.5046 297.493C38.0846 298.982 41.3835 298.098 42.873 295.518L80.7758 229.869C82.2653 227.289 81.3813 223.99 78.8014 222.5ZM66.8618 205.243C67.9429 203.37 70.3374 202.728 72.2099 203.81C74.0825 204.891 74.7241 207.285 73.6429 209.158L59.7672 233.191C58.6861 235.064 56.2917 235.705 54.4191 234.624C52.5466 233.543 51.905 231.149 52.9861 229.276L66.8618 205.243Z" fill="#EE3F3F"/>
    </mask>
    <g mask="url(#mask0_2_5732)">
        <path d="M244.876 370.722H214.876V519.412H244.876V370.722Z" fill="#9AC4EA"/>
        <path d="M310.876 319.484H281.876V532.472H310.876V319.484Z" fill="#9AC4EA"/>
        <path d="M377.705 337.712H348.289V495.963H377.705V337.712Z" fill="#9AC4EA"/>
        <path d="M444.128 249.053H414.712V495.963H444.128V249.053Z" fill="#9AC4EA"/>
        <path d="M279.62 126.778C279.469 124.24 275.099 119.072 275.766 118.424C276.245 117.959 277.946 119.557 278.865 120.49C278.972 120.599 279.132 120.636 279.275 120.583C279.419 120.531 279.518 120.4 279.53 120.247C279.73 117.754 280.35 110.776 281.044 110.71C281.746 110.644 282.097 115.058 282.195 116.539C282.198 116.584 282.232 116.621 282.276 116.627C282.321 116.632 282.363 116.606 282.378 116.563C282.918 114.995 284.739 109.934 285.521 110.584C286.264 111.202 285.111 116.049 284.633 117.914C284.621 117.96 284.645 118.008 284.689 118.026C284.733 118.043 284.783 118.026 284.807 117.984C285.747 116.313 288.227 112.077 288.897 112.618C289.579 113.169 287.658 117.761 286.946 119.391C286.927 119.433 286.943 119.483 286.982 119.509C287.021 119.534 287.072 119.526 287.104 119.491C288.177 118.272 290.989 115.167 290.973 116.08C290.954 117.208 286.014 126.59 284.397 128.161C282.78 129.734 279.62 126.778 279.62 126.778Z" fill="#FA968C"/>
        <path d="M235.279 158.183C238.627 165.634 243.444 174.099 249.269 179.908C260.603 191.178 275.148 188.234 280.225 161.878C281.109 157.906 281.725 153.952 282.244 150.005C283.299 142.121 283.707 134.261 284.069 126.425C284.123 125.239 283.21 124.232 282.03 124.177C280.96 124.127 280.038 124.875 279.833 125.897L279.824 125.941C278.289 133.549 276.744 141.142 274.764 148.528C273.745 152.208 272.69 155.858 271.46 159.375C270.394 162.707 266.11 173.058 262.779 174.071C262.669 174.053 262.56 174.197 262.496 174.135C262.435 174.078 262.404 174.072 262.366 174.106C262.304 174.023 262.261 173.987 262.207 173.998C262.023 173.85 261.809 173.825 261.415 173.502C260.689 173.024 259.695 172.081 258.752 170.903C256.818 168.601 255.018 165.559 253.434 162.401C250.687 157.045 249.094 153.193 249.094 153.193C245.712 143.875 231.682 148.337 235.069 157.667C235.131 157.836 235.206 158.02 235.279 158.183Z" fill="#FA968C"/>
        <path d="M257.763 168.212C257.751 168.193 257.737 168.176 257.724 168.157C256.013 165.641 254.426 163.013 252.963 160.316C251.513 157.686 250.035 154.762 249 152.275L248.949 152.15C248.866 151.952 248.773 151.755 248.672 151.561C246.748 147.889 242.228 146.481 238.573 148.412C234.919 150.345 233.517 154.887 235.44 158.558C237.244 162.001 238.991 164.818 240.985 167.781C242.335 169.737 243.772 171.635 245.251 173.504C246.354 172.322 255.131 169.159 257.763 168.212Z" fill="#9AC4EA"/>
        <path d="M250.441 220.382C243.936 227.88 206.387 231.01 206.387 231.01C203.617 227.779 207.668 213.092 208.645 198.184C209.701 182.065 210.31 164.274 210.588 154.661C210.703 150.694 213.936 147.546 217.886 147.546H241.714C245.387 147.546 248.444 150.362 248.747 154.039C249.372 161.651 250.46 174.879 251.532 187.849C252.621 201.008 256.064 213.899 250.441 220.382Z" fill="#FAB9AF"/>
        <path d="M228.78 345.7L228.835 360.537L227.552 367.763C227.33 369.014 228.251 370.172 229.516 370.21C235.562 370.397 251.043 370.806 251.457 370.132C253.404 366.969 244.605 365.751 238.168 363.248C231.731 360.745 236.173 336.19 236.173 336.19L228.78 345.7Z" fill="#FA968C"/>
        <path d="M238.168 363.249C238.134 363.236 238.104 363.213 238.07 363.198C236.537 363.773 234.811 364.112 232.865 364.112C231.197 364.112 229.685 363.869 228.319 363.44L227.552 367.763C227.33 369.015 228.251 370.172 229.516 370.21C235.562 370.397 251.043 370.807 251.457 370.133C253.403 366.97 244.604 365.752 238.168 363.249Z" fill="#0B4870"/>
        <path d="M250.431 225.789C250.664 236.102 246.627 301.528 238.652 301.709C230.677 301.89 221.786 236.759 221.552 226.446C221.319 216.133 227.595 207.627 235.569 207.445C243.545 207.264 250.198 215.476 250.431 225.789Z" fill="#0091C8"/>
        <path d="M227.638 288.118C226.846 293.794 226.718 330.165 227.99 348.642H235.25C239.148 330.718 243.315 295.983 244.089 290.433C244.098 290.362 244.103 290.293 244.111 290.222C248.449 270.939 250.603 233.393 250.431 225.789C250.198 215.476 243.544 207.264 235.57 207.445C227.595 207.628 221.32 216.135 221.553 226.446C221.699 232.921 228.013 285.429 227.638 288.118Z" fill="#0B4870"/>
        <path d="M211.356 345.7L211.411 360.537L210.128 367.763C209.906 369.014 210.827 370.172 212.092 370.21C218.138 370.397 233.619 370.806 234.033 370.132C235.98 366.969 227.181 365.751 220.744 363.248C214.307 360.745 218.749 336.19 218.749 336.19L211.356 345.7Z" fill="#FA968C"/>
        <path d="M220.744 363.249C220.709 363.236 220.68 363.213 220.646 363.198C219.113 363.773 217.387 364.112 215.441 364.112C213.773 364.112 212.261 363.869 210.895 363.44L210.128 367.763C209.906 369.015 210.827 370.172 212.092 370.21C218.138 370.397 233.618 370.807 234.033 370.133C235.98 366.97 227.181 365.752 220.744 363.249Z" fill="#0B4870"/>
        <path d="M233.009 225.789C233.241 236.102 229.204 301.528 221.229 301.709C213.254 301.89 206.088 236.519 205.854 226.206C205.622 215.893 210.173 207.627 218.147 207.445C226.122 207.264 232.775 215.476 233.009 225.789Z" fill="#0091C8"/>
        <path d="M210.214 288.118C209.423 293.794 209.295 330.165 210.566 348.642H217.826C221.725 330.718 225.891 295.982 226.665 290.433C226.675 290.362 226.679 290.293 226.688 290.222C231.026 270.939 234.904 233.152 234.733 225.549C234.5 215.236 226.122 207.264 218.147 207.445C210.172 207.628 205.621 215.894 205.855 226.206C206.001 232.681 210.589 285.429 210.214 288.118Z" fill="#0B4870"/>
        <path d="M241.939 147.547H238.067C236.719 150.682 233.867 153.105 229.441 153.105C225.008 153.105 222.156 150.683 220.811 147.547H217.277C213.665 147.547 210.708 150.417 210.604 154.044C210.335 163.497 209.723 181.714 208.644 198.184C207.666 213.092 203.615 226.945 206.386 231.01C206.386 231.01 243.935 227.879 250.44 220.381C256.063 213.899 252.619 201.008 251.53 187.849C250.446 174.753 249.348 161.393 248.726 153.818C248.437 150.269 245.485 147.547 241.939 147.547Z" fill="#9AC4EA"/>
        <path d="M228.415 138.835C224.766 139.65 221.152 137.339 220.34 133.673L218.415 124.978L225.021 123.503L228.415 138.835Z" fill="#0B4870"/>
        <path d="M234.316 147.548H221.858L225.45 135.068L233.942 136.124L234.316 147.548Z" fill="#FAB9AF"/>
        <path d="M233.942 136.124L225.45 135.068L223.776 140.884C225.677 143.038 228.496 146.38 231.586 146.38C232.567 146.38 233.46 146.103 234.264 145.591L233.942 136.124Z" fill="#FA968C"/>
        <path d="M235.228 142.757C229.635 144.006 224.091 140.464 222.848 134.844L220.339 123.509L237.711 119.628C237.711 119.628 239.669 128.477 239.726 134.732C239.767 139.424 238.079 142.119 235.228 142.757Z" fill="#FAB9AF"/>
        <path d="M223.649 127.319L220.384 128.049L220.713 129.536L223.978 128.806L223.649 127.319Z" fill="#41378C"/>
        <path d="M225.318 132.041C225.807 134.253 225.151 136.282 223.851 136.572C222.551 136.863 220.476 134.283 219.987 132.072C219.498 129.861 220.779 128.853 222.078 128.562C223.378 128.272 224.828 129.829 225.318 132.041Z" fill="#FAB9AF"/>
        <path d="M239.946 124.02C240.04 122.517 239.796 121.014 239.233 119.618C237.837 116.156 233.978 114.667 230.467 115.894C230.109 116.02 229.728 116.129 229.326 116.219L223.463 117.526C219.939 118.312 217.717 121.819 218.501 125.359L218.805 126.732L222.281 128.757L223.698 131.236L223.927 131.185C225.046 130.935 225.767 129.856 225.592 128.733C225.304 126.882 226.219 125.075 228.04 124.668L233.243 123.505C236.411 122.797 238.436 124.138 238.963 126.517L239.246 128.567L239.946 124.02Z" fill="#0B4870"/>
        <path d="M222.403 119.886C222.005 123.12 233.573 127.217 236.624 127.596C239.675 127.975 242.469 125.66 242.867 122.426C243.265 119.193 241.114 116.264 238.063 115.886C235.013 115.507 222.801 116.653 222.403 119.886Z" fill="#0B4870"/>
        <path d="M209.186 159.75C213.023 165.004 219.601 171.915 227.476 177.881C251.562 195.529 277.34 197.314 298.362 177.338C299.222 176.521 299.26 175.158 298.447 174.293C297.751 173.555 296.659 173.419 295.82 173.906L295.723 173.963C282.013 181.913 269.738 185.176 254.284 178.653C234.023 169.882 219.65 148.78 221.163 150.793C218.678 147.487 213.996 146.832 210.706 149.328C207.444 151.803 206.778 156.449 209.186 159.75Z" fill="#FAB9AF"/>
        <path d="M232.215 162.91C227.199 158.387 220.819 149.475 220.819 149.475C220.819 149.475 217.796 145.884 211.573 148.503C206.603 150.594 207.61 156.493 207.61 156.493C207.73 157.315 209.391 167.046 220.817 175.652C220.817 175.651 233.057 163.669 232.215 162.91Z" fill="#9AC4EA"/>
        <path d="M314.646 55.5292C288.665 55.5598 267.574 76.7219 267.574 102.828C267.574 115.374 273.927 126.207 280.363 135.918C294.583 157.377 286.503 169.003 294.711 169.003H314.618H334.629C342.844 169.003 334.741 157.376 348.967 135.918C355.4 126.209 361.738 115.713 361.738 103.172C361.741 77.0604 340.627 55.5598 314.646 55.5292Z" fill="#FFBE55"/>
        <path d="M291.697 120.589C291.194 119.954 290.268 119.849 289.64 120.351C289.008 120.86 288.906 121.785 289.408 122.419C289.667 122.744 289.961 123.058 290.28 123.366L305.892 171.223C306.098 171.842 306.667 172.236 307.285 172.236C307.434 172.236 307.587 172.212 307.74 172.162C308.509 171.907 308.925 171.082 308.671 170.305L294.251 126.091C297.751 127.805 302.131 128.59 305.702 127.449C306.475 127.201 307.176 126.874 307.811 126.472C309.558 127.621 311.693 128.305 313.96 128.305C316.641 128.305 319.174 127.443 321.095 125.903C322.166 126.478 323.41 126.954 324.794 127.304C328.889 128.347 332.51 128.095 335.525 126.615L321.265 170.307C321.017 171.081 321.435 171.911 322.196 172.162C322.35 172.214 322.506 172.235 322.659 172.235C323.275 172.235 323.849 171.843 324.051 171.225L339.687 123.291C339.815 123.135 339.966 123.005 340.093 122.841C340.59 122.202 340.48 121.276 339.844 120.777C339.206 120.275 338.288 120.387 337.793 121.027C334.964 124.657 330.829 125.811 325.513 124.458C324.914 124.306 324.042 124.04 323.142 123.631C324.026 122.24 324.463 120.658 324.39 119.055C324.262 115.86 323.181 113.516 321.427 112.62C320.402 112.098 319.265 112.163 318.316 112.796C316.777 113.828 316.024 116.176 316.259 119.233C316.401 121.089 317.206 122.738 318.587 124.091C316.191 125.594 312.592 125.755 310.019 124.369C310.996 122.983 311.565 121.236 311.677 119.198C311.836 116.343 310.959 114.032 309.334 113.019C308.296 112.371 307.051 112.339 306 112.944C304.339 113.885 303.423 116.144 303.47 119.139C303.501 121.075 304.249 122.893 305.483 124.393C305.269 124.49 305.046 124.574 304.81 124.648C300.44 126.045 294.06 123.571 291.697 120.589ZM319.947 115.238C319.974 115.22 319.988 115.208 320.012 115.208C320.035 115.208 320.062 115.218 320.103 115.238C320.531 115.457 321.363 116.561 321.468 119.175C321.514 120.165 321.237 121.145 320.688 122.031C319.876 121.252 319.276 120.256 319.18 119.002C319.008 116.734 319.541 115.508 319.947 115.238ZM307.445 115.5C307.498 115.468 307.547 115.45 307.603 115.45C307.657 115.45 307.717 115.471 307.799 115.518C308.21 115.777 308.88 116.81 308.758 119.035C308.683 120.434 308.339 121.595 307.741 122.51C306.92 121.513 306.422 120.33 306.401 119.094C306.363 116.746 307.04 115.73 307.445 115.5Z" fill="#0B4870"/>
        <path d="M331.223 169.002H298.053C296.128 169.002 294.569 172.565 294.569 174.502C294.569 176.438 296.129 180.001 298.053 180.001H309.17L296.995 182.281C295.168 182.875 294.163 184.008 294.756 185.848C295.231 187.33 296.6 187.853 298.074 187.853C298.427 187.853 298.79 187.581 299.149 187.471L332.305 176.559C333.932 176.027 334.939 174.021 334.672 172.32C334.398 170.616 332.938 169.002 331.223 169.002ZM331.182 193.75H320.098L332.259 188.226C334.087 187.633 335.091 184.878 334.497 183.036C333.902 181.2 331.939 179.797 330.105 180.393L296.975 191.001C295.341 191.537 294.34 193.891 294.608 195.592C294.872 197.295 296.337 199.249 298.053 199.249H301.065L306.336 207.499H322.774L328.127 199.249H331.182C333.11 199.249 334.665 198.433 334.665 196.499C334.665 194.564 333.11 193.75 331.182 193.75Z" fill="#0B4870"/>
        <path d="M217.597 333.178L200.837 313.06L282.494 244.1L353.501 255.99L434.061 193.475L437.311 196.407L360.496 282.319L290.829 267.114L217.597 333.178Z" fill="#9AC4EA"/>
        <path d="M438.462 234.976L391.743 189.966L452.056 173.753L438.462 234.976Z" fill="#9AC4EA"/>
        <path d="M294.293 174.871C295.94 172.941 296.374 166.173 297.3 166.173C297.966 166.173 298.085 168.51 298.099 169.822C298.1 169.975 298.191 170.114 298.33 170.176C298.47 170.238 298.633 170.213 298.747 170.112C300.615 168.458 305.888 163.874 306.431 164.311C306.983 164.753 304.181 168.172 303.227 169.307C303.198 169.341 303.198 169.391 303.225 169.427C303.253 169.462 303.301 169.473 303.341 169.453C304.815 168.703 309.626 166.336 309.738 167.349C309.844 168.312 305.662 170.993 304.028 172C303.988 172.025 303.972 172.075 303.991 172.119C304.011 172.163 304.059 172.184 304.104 172.171C305.936 171.626 310.65 170.312 310.756 171.169C310.865 172.041 306.308 174.001 304.669 174.676C304.626 174.694 304.603 174.741 304.613 174.786C304.624 174.831 304.666 174.862 304.712 174.858C306.327 174.731 310.497 174.461 309.854 175.107C309.06 175.905 299.018 179.203 296.77 179.203C294.522 179.203 294.293 174.871 294.293 174.871Z" fill="#FAB9AF"/>
        <path opacity="0.4" d="M174.904 422.302C185.642 421.618 193.795 412.32 193.115 401.532C192.435 390.745 183.179 382.554 172.442 383.237C161.704 383.92 153.551 393.219 154.231 404.006C154.911 414.794 164.167 422.985 174.904 422.302Z" fill="#FFBE55"/>
        <path d="M181.982 393.653L178.633 392.399C178.074 392.19 177.452 392.475 177.243 393.037L172.693 405.293C172.489 405.843 171.887 406.13 171.333 405.942L166.108 404.164C165.543 403.972 164.929 404.275 164.737 404.844L163.59 408.245C163.399 408.812 163.702 409.429 164.267 409.622L174.762 413.194C175.315 413.383 175.917 413.095 176.122 412.545L182.616 395.051C182.825 394.489 182.541 393.864 181.982 393.653Z" fill="white"/>
        <path opacity="0.4" d="M423.462 28.0038C428.968 40.6253 423.247 55.3402 410.685 60.8712C398.122 66.4023 383.476 60.655 377.97 48.0346C372.465 35.4131 378.186 20.6982 390.749 15.1671C403.31 9.63499 417.957 15.3823 423.462 28.0038Z" fill="#FFBE55"/>
        <path d="M402.12 27.5649L404.839 32.2964L401.071 34.4818C400.821 34.6267 400.639 34.8654 400.565 35.1453C400.49 35.4252 400.529 35.7235 400.673 35.9744L406.111 45.4374C406.255 45.6884 406.493 45.8715 406.772 45.9465C407.05 46.0215 407.347 45.9822 407.597 45.8373L411.365 43.652L414.084 48.3834L415.967 47.2908L413.248 42.5593L417.016 40.3739C417.266 40.229 417.448 39.9903 417.523 39.7104C417.597 39.4305 417.558 39.1322 417.414 38.8813L411.976 29.4183C411.832 29.1673 411.594 28.9842 411.316 28.9092C411.037 28.8342 410.74 28.8735 410.49 29.0184L406.723 31.2037L404.004 26.4723L402.12 27.5649ZM390.604 46.8621L394.371 44.6767L397.09 49.4082L398.974 48.3155L396.255 43.584L400.023 41.3986C400.272 41.2537 400.455 41.0151 400.529 40.7352C400.604 40.4552 400.565 40.157 400.421 39.906L394.983 30.4431C394.838 30.1921 394.601 30.009 394.322 29.9339C394.044 29.8589 393.747 29.8982 393.497 30.0431L389.729 32.2285L387.01 27.497L385.127 28.5897L387.846 33.3212L384.078 35.5065C383.828 35.6514 383.646 35.8901 383.571 36.17C383.497 36.45 383.536 36.7482 383.68 36.9992L389.118 46.4621C389.262 46.7131 389.5 46.8962 389.778 46.9712C390.057 47.0463 390.354 47.007 390.604 46.8621ZM386.107 36.8528L393.643 32.482L397.993 40.0524L390.458 44.4232L386.107 36.8528Z" fill="white"/>
        <path opacity="0.4" d="M132.556 356.076C146.407 353.115 155.263 339.45 152.336 325.555C149.408 311.66 135.807 302.796 121.955 305.758C108.104 308.72 99.2488 322.385 102.176 336.28C105.103 350.175 118.705 359.038 132.556 356.076Z" fill="#FFBE55"/>
        <path d="M111.824 331.729C111.832 322.774 119.11 315.46 128.023 315.452C131.017 315.449 133.726 316.235 136.148 317.666C133.227 315.161 129.521 313.588 125.386 313.592C116.474 313.599 109.196 320.913 109.188 329.869C109.183 335.887 112.387 341.114 117.232 343.903C113.884 340.897 111.82 336.601 111.824 331.729Z" fill="white"/>
        <path d="M138.157 315.812C141.648 319.248 143.783 324.046 143.778 329.347C143.769 339.806 135.349 348.267 124.939 348.276C120.875 348.28 117.097 346.993 114.033 344.775C117.453 348.139 122.085 350.141 127.147 350.137C137.557 350.128 145.978 341.667 145.987 331.208C145.992 324.832 142.86 319.246 138.157 315.812Z" fill="white"/>
        <path d="M118.889 324.99L121.738 328.856L124.594 324.985L127.375 324.983L123.234 330.646L127.721 336.731L124.869 336.733L121.735 332.581L118.594 336.739L115.813 336.741L120.239 330.72L116.108 324.993C116.108 324.993 118.889 324.99 118.889 324.99Z" fill="white"/>
        <path d="M134.586 326.993C133.445 326.994 132.732 327.352 132.731 328.14C132.729 330.576 139.36 329.281 139.357 333.436C139.355 335.657 137.358 336.877 134.648 336.879C132.724 336.881 130.799 336.166 129.374 335.021L130.374 333.158C131.656 334.303 133.296 334.946 134.65 334.945C135.933 334.944 136.789 334.513 136.79 333.654C136.792 331.218 130.161 332.656 130.164 328.501C130.166 326.495 132.021 325.132 134.801 325.13C136.441 325.128 138.152 325.557 139.22 326.344L138.292 328.136C136.938 327.349 135.512 326.992 134.586 326.993Z" fill="white"/>
        <path opacity="0.4" d="M17.978 353.125V333.718C16.0128 333.76 14.3171 334.055 12.4008 334.681C7.39868 336.313 3.32807 339.806 0.941129 344.514C-1.36972 349.07 -1.8371 354.239 -0.392544 359.122L17.978 353.125Z" fill="#9AC4EA"/>
        <path d="M27.2234 356.884L18.4844 354.032L-0.0817871 360.093C2.01167 366.107 6.31924 370.326 12.3985 372.311C14.379 372.958 16.4268 373.285 18.4876 373.285C26.8723 373.285 34.2679 368.005 37.0483 360.093L27.2234 356.884Z" fill="#9AC4EA"/>
        <path opacity="0.1" d="M30.4669 337.794L19.3062 353.227L37.3636 359.121C39.7386 351.13 37.0636 342.858 30.4669 337.794Z" fill="#9AC4EA"/>
        <path opacity="0.62" d="M18.9932 351.926L29.6463 337.195C26.379 334.917 22.9692 333.804 18.9932 333.717V351.926Z" fill="#9AC4EA"/>
        <path opacity="0.4" d="M143.371 248.072C159.641 248.072 172.831 234.821 172.831 218.475C172.831 202.129 159.641 188.878 143.371 188.878C127.101 188.878 113.912 202.129 113.912 218.475C113.912 234.821 127.101 248.072 143.371 248.072Z" fill="#FFBE55"/>
        <path d="M147.487 233.959L138.415 203.461L140.369 202.88L149.441 233.377L147.487 233.959ZM146.204 212.426C145.864 211.576 145.309 211.002 144.537 210.704C143.772 210.396 142.813 210.413 141.661 210.756C140.899 210.982 140.293 211.271 139.844 211.62C139.394 211.97 139.095 212.358 138.945 212.783C138.792 213.2 138.778 213.632 138.902 214.079C138.995 214.449 139.162 214.749 139.404 214.98C139.653 215.209 139.965 215.384 140.338 215.506C140.717 215.618 141.153 215.687 141.645 215.714C142.137 215.741 142.679 215.731 143.27 215.684L145.508 215.537C146.794 215.44 147.962 215.473 149.013 215.636C150.072 215.796 151.005 216.085 151.812 216.502C152.627 216.916 153.314 217.468 153.874 218.158C154.433 218.847 154.862 219.679 155.161 220.654C155.611 222.197 155.615 223.635 155.173 224.968C154.731 226.301 153.875 227.477 152.605 228.494C151.342 229.51 149.694 230.32 147.661 230.924C145.62 231.532 143.75 231.755 142.051 231.595C140.352 231.434 138.896 230.856 137.683 229.86C136.471 228.863 135.569 227.415 134.978 225.516L140.625 223.837C140.906 224.609 141.312 225.201 141.841 225.615C142.37 226.028 143.001 226.272 143.732 226.349C144.472 226.423 145.274 226.331 146.14 226.073C146.934 225.837 147.577 225.529 148.069 225.149C148.57 224.767 148.914 224.34 149.102 223.869C149.291 223.398 149.315 222.916 149.177 222.421C149.032 221.963 148.772 221.612 148.397 221.369C148.02 221.118 147.506 220.96 146.855 220.894C146.21 220.818 145.412 220.809 144.461 220.867L141.735 221.03C139.478 221.174 137.582 220.886 136.045 220.168C134.506 219.441 133.466 218.151 132.923 216.298C132.466 214.792 132.478 213.349 132.958 211.97C133.438 210.591 134.307 209.369 135.563 208.303C136.82 207.238 138.373 206.43 140.224 205.88C142.114 205.317 143.85 205.151 145.431 205.381C147.018 205.601 148.367 206.172 149.48 207.094C150.593 208.016 151.383 209.234 151.851 210.746L146.204 212.426Z" fill="white"/>
        <path opacity="0.4" d="M470.521 130.902C467.209 141.015 456.347 146.501 446.262 143.154C436.176 139.807 430.685 128.895 433.998 118.781C437.311 108.667 448.173 103.181 458.259 106.528C468.345 109.876 473.834 120.788 470.521 130.902Z" fill="#FFBE55"/>
        <path d="M444.213 123.827L447.294 128.414C447.381 128.543 447.495 128.653 447.628 128.736C447.761 128.819 447.91 128.873 448.066 128.894C448.22 128.916 448.377 128.904 448.526 128.861C448.675 128.818 448.812 128.743 448.927 128.642L454.481 123.76L459.346 130.25C459.451 130.393 459.59 130.509 459.75 130.587C459.91 130.666 460.087 130.705 460.264 130.701C460.441 130.695 460.613 130.647 460.765 130.561C460.917 130.474 461.045 130.353 461.137 130.206L465.854 122.805L463.969 121.596L460.098 127.675L455.494 121.507C455.407 121.383 455.296 121.278 455.166 121.198C455.036 121.118 454.891 121.066 454.74 121.044C454.588 121.027 454.435 121.04 454.29 121.085C454.145 121.13 454.012 121.204 453.899 121.303L448.377 126.195L445.232 121.487C445.143 121.347 445.022 121.228 444.88 121.14C444.738 121.052 444.578 120.997 444.412 120.979C444.244 120.966 444.076 120.99 443.92 121.051C443.765 121.113 443.627 121.209 443.517 121.333L438.098 127.38L439.741 128.799L444.213 123.827Z" fill="white"/>
    </g>
</svg>
