<svg width="569" height="432" viewBox="0 0 569 432" fill="none" xmlns="http://www.w3.org/2000/svg">
    <path fill-rule="evenodd" clip-rule="evenodd" d="M403.303 -113.657C396.128 -117.799 386.954 -115.341 382.812 -108.166L300.088 35.1164L268.368 16.8029C261.194 12.6607 252.02 15.1188 247.878 22.2932L164.271 167.104L111.876 136.853C104.702 132.711 95.528 135.169 91.3858 142.344L2.43021 296.419C-1.71192 303.594 0.746213 312.768 7.9206 316.91L60.3157 347.16L50.6747 363.859C46.5326 371.033 48.9907 380.207 56.1651 384.349L94.5587 406.516L85.7622 421.752C81.62 428.926 84.0782 438.1 91.2526 442.242L191.017 499.841C198.191 503.983 207.365 501.525 211.507 494.351L227.291 467.012L285.805 500.795C292.98 504.938 302.154 502.479 306.296 495.305L352.488 415.297L361.026 420.226C368.2 424.369 377.374 421.91 381.516 414.736L497.072 214.588C501.214 207.413 498.756 198.239 491.582 194.097L483.044 189.168L505.332 150.563C509.475 143.389 507.016 134.215 499.842 130.073L490.765 124.832L564.668 -3.17197C568.81 -10.3464 566.352 -19.5202 559.178 -23.6624L403.303 -113.657ZM531.835 176.712C533.339 174.107 536.671 173.215 539.276 174.719C541.881 176.223 542.773 179.554 541.269 182.159L502.996 248.45C501.492 251.055 498.161 251.948 495.556 250.444C492.951 248.94 492.058 245.609 493.562 243.003L531.835 176.712ZM216.69 44.7002C214.085 43.1961 210.754 44.0887 209.25 46.6938L185.204 88.3429C183.7 90.948 184.592 94.2792 187.197 95.7833C189.803 97.2874 193.134 96.3948 194.638 93.7896L218.684 52.1406C220.188 49.5354 219.295 46.2043 216.69 44.7002ZM529.885 131.651C531.374 129.071 534.673 128.187 537.253 129.677C539.833 131.166 540.717 134.465 539.227 137.045L513.558 181.507C512.068 184.087 508.769 184.97 506.189 183.481C503.609 181.991 502.725 178.692 504.215 176.113L529.885 131.651ZM200.653 14.2438C198.073 12.7543 194.774 13.6382 193.285 16.2181L177.142 44.1785C175.652 46.7584 176.536 50.0574 179.116 51.5469C181.696 53.0364 184.995 52.1525 186.484 49.5725L202.627 21.6122C204.117 19.0323 203.233 15.7333 200.653 14.2438ZM218.28 9.48639C219.769 6.90645 223.068 6.02249 225.648 7.51202C228.228 9.00155 229.112 12.3005 227.622 14.8804L222.387 23.948C220.898 26.5279 217.599 27.4118 215.019 25.9223C212.439 24.4328 211.555 21.1339 213.045 18.5539L218.28 9.48639ZM78.8013 225.173C76.2214 223.684 72.9224 224.568 71.4329 227.148L33.5301 292.797C32.0406 295.377 32.9246 298.676 35.5045 300.166C38.0844 301.655 41.3834 300.771 42.8729 298.191L80.7757 232.542C82.2652 229.962 81.3812 226.663 78.8013 225.173ZM66.8617 207.916C67.9428 206.043 70.3372 205.401 72.2098 206.483C74.0824 207.564 74.7239 209.958 73.6428 211.831L59.7671 235.864C58.686 237.737 56.2916 238.378 54.419 237.297C52.5465 236.216 51.9049 233.822 52.986 231.949L66.8617 207.916Z" fill="#F8F8FB"/>
    <mask id="mask0_2_3452" style="mask-type:alpha" maskUnits="userSpaceOnUse" x="0" y="-120" width="569" height="623">
        <path fill-rule="evenodd" clip-rule="evenodd" d="M405.593 -117.624C398.418 -121.766 389.245 -119.308 385.102 -112.133L300.088 35.1163L268.368 16.8029C261.194 12.6608 252.02 15.1189 247.878 22.2933L164.271 167.104L111.876 136.853C104.702 132.711 95.528 135.169 91.3858 142.344L2.43021 296.419C-1.71192 303.594 0.746213 312.768 7.9206 316.91L60.3156 347.16L50.6747 363.859C46.5326 371.033 48.9907 380.207 56.1651 384.349L94.5587 406.516L85.7622 421.752C81.62 428.926 84.0782 438.1 91.2526 442.242L191.017 499.841C198.191 503.983 207.365 501.525 211.507 494.351L227.291 467.012L285.805 500.795C292.98 504.938 302.154 502.479 306.296 495.305L352.488 415.297L361.026 420.226C368.2 424.368 377.374 421.91 381.516 414.736L497.072 214.588C501.214 207.413 498.756 198.239 491.582 194.097L483.044 189.168L505.332 150.563C509.475 143.389 507.016 134.215 499.842 130.073L490.765 124.832L566.958 -7.13877C571.1 -14.3132 568.642 -23.487 561.468 -27.6292L405.593 -117.624ZM531.835 176.713C533.339 174.107 536.671 173.215 539.276 174.719C541.881 176.223 542.773 179.554 541.269 182.159L502.996 248.45C501.492 251.055 498.161 251.948 495.556 250.444C492.951 248.94 492.058 245.609 493.562 243.003L531.835 176.713ZM216.69 44.7002C214.085 43.1962 210.754 44.0888 209.25 46.6939L185.204 88.343C183.7 90.9481 184.592 94.2793 187.197 95.7834C189.803 97.2874 193.134 96.3949 194.638 93.7897L218.684 52.1407C220.188 49.5355 219.295 46.2043 216.69 44.7002ZM529.885 131.651C531.374 129.071 534.673 128.187 537.253 129.677C539.833 131.167 540.717 134.465 539.227 137.045L513.558 181.507C512.068 184.087 508.769 184.971 506.189 183.481C503.609 181.992 502.725 178.693 504.215 176.113L529.885 131.651ZM200.653 14.2439C198.073 12.7543 194.774 13.6383 193.285 16.2182L177.142 44.1786C175.652 46.7585 176.536 50.0574 179.116 51.547C181.696 53.0365 184.995 52.1526 186.484 49.5726L202.627 21.6123C204.117 19.0323 203.233 15.7334 200.653 14.2439ZM218.28 9.48642C219.769 6.90648 223.068 6.02252 225.648 7.51205C228.228 9.00157 229.112 12.3005 227.622 14.8805L222.387 23.948C220.898 26.5279 217.599 27.4119 215.019 25.9223C212.439 24.4328 211.555 21.1339 213.045 18.5539L218.28 9.48642ZM78.8013 225.174C76.2214 223.684 72.9224 224.568 71.4329 227.148L33.5301 292.797C32.0406 295.377 32.9246 298.676 35.5045 300.166C38.0844 301.655 41.3834 300.771 42.8729 298.191L80.7757 232.542C82.2652 229.962 81.3812 226.663 78.8013 225.174ZM66.8617 207.916C67.9428 206.043 70.3372 205.402 72.2098 206.483C74.0824 207.564 74.7239 209.958 73.6428 211.831L59.7671 235.864C58.686 237.737 56.2916 238.378 54.419 237.297C52.5465 236.216 51.9049 233.822 52.986 231.949L66.8617 207.916Z" fill="#EE3F3F"/>
    </mask>
    <g mask="url(#mask0_2_3452)">
        <path d="M267.461 56.5403C266.778 56.5403 266.104 56.5749 265.426 56.5936C257.591 22.3662 227.841 -3.1106 192.312 -3.1106C167.717 -3.1106 145.885 9.09596 132.175 27.9618C121.05 23.3157 108.894 20.7514 96.1562 20.7514C43.0504 20.7514 0 65.2205 0 120.076C0 174.932 43.0504 219.401 96.1562 219.401C109.76 219.401 122.701 216.477 134.43 211.213C146.411 224.687 163.604 233.137 182.711 233.137C204.733 233.137 224.204 221.907 236.09 204.701C245.64 209.241 256.26 211.792 267.461 211.792C308.965 211.792 342.611 177.038 342.611 134.166C342.611 91.2951 308.965 56.5403 267.461 56.5403ZM425.652 175.54C426.192 175.54 426.725 175.513 427.261 175.498C433.452 202.547 456.963 222.682 485.042 222.682C504.479 222.682 521.733 213.035 532.568 198.125C541.36 201.797 550.967 203.824 561.033 203.824C603.002 203.824 637.024 168.68 637.024 125.328C637.024 81.9764 603.002 46.8332 561.033 46.8332C550.282 46.8332 540.055 49.1442 530.786 53.304C521.317 42.6563 507.73 35.9783 492.63 35.9783C475.226 35.9783 459.839 44.853 450.446 58.4507C442.898 54.8628 434.506 52.8474 425.653 52.8474C392.853 52.8474 366.263 80.3133 366.263 114.194C366.263 148.075 392.853 175.54 425.652 175.54Z" fill="#D5EBFF"/>
        <path d="M20.0388 467.275C20.0388 467.275 148.404 156.728 214.369 139.994C273.177 125.076 431.22 345.844 431.22 345.844C431.22 345.844 498.441 249.334 544.883 209.581C556.042 200.029 573.465 201.811 582.276 213.366C611.344 251.488 677.744 344.678 733 467.275H20.0388Z" fill="#FFBE55"/>
        <path opacity="0.2" d="M20.0388 467.275C20.0388 467.275 148.404 156.728 214.369 139.994C273.177 125.076 431.22 345.844 431.22 345.844C431.22 345.844 498.441 249.334 544.883 209.581C556.042 200.029 573.465 201.811 582.276 213.366C611.344 251.488 677.744 344.678 733 467.275H20.0388Z" fill="#282828"/>
        <path d="M158.126 356.585L112.413 504.64H167.155L158.126 356.585Z" fill="#FFBE55"/>
        <path d="M667.973 504.64C632.726 477.106 602.686 454.571 580.426 438.136C500.323 378.991 388.065 300.69 301.023 294.247C288.991 293.356 279.046 293.958 276.882 294.097C254.789 295.523 202.36 298.906 170.24 338.036C117.881 401.821 165.145 500.403 167.156 504.639H667.973V504.64Z" fill="#FFBE55"/>
        <path opacity="0.5" d="M667.973 504.64C632.726 477.106 602.686 454.571 580.426 438.136C500.323 378.991 388.065 300.69 301.023 294.247C288.991 293.356 279.046 293.958 276.882 294.097C254.789 295.523 202.36 298.906 170.24 338.036C117.881 401.821 165.145 500.403 167.156 504.639H667.973V504.64Z" fill="white"/>
        <path opacity="0.5" d="M223.56 389.449L333.59 504.64H397.434L253.549 389.449H223.56Z" fill="#0B4870"/>
        <path opacity="0.5" d="M306.652 389.449L457.376 504.64H521.219L336.642 389.449H306.652Z" fill="#0B4870"/>
        <path opacity="0.5" d="M333.59 325.335L526.965 467.568C526.965 467.568 578.441 455.232 619.782 467.568L341.706 325.335H333.59Z" fill="#0B4870"/>
        <path d="M333.59 325.335V40.0369H341.706V325.335C341.633 325.441 340.023 327.696 337.294 327.5C334.995 327.335 333.745 325.563 333.59 325.335Z" fill="#0B4870"/>
        <path d="M287.231 147.025C288.264 145.576 289.8 143.272 291.345 140.27C294.217 134.684 298.643 126.079 295.173 120.812C294.632 119.992 293.601 118.797 291.514 117.851C291.364 118.318 291.131 119.041 290.845 119.921C286.532 133.156 284.882 136.061 285.352 140.713C285.506 142.23 285.934 144.428 287.231 147.025Z" fill="#0B4870"/>
        <path d="M286.474 141.15C283.69 151.125 270.259 151.621 270.259 151.621L286.474 141.15ZM271.778 156.225C271.778 156.225 255.269 161.86 251.863 164.028C251.863 164.028 274.373 187.76 307.285 163.196C304.665 161.576 304.198 161.513 300.646 159.961C296.064 157.957 289.593 155.255 285.955 154.387L271.778 156.225Z" fill="#EFB68F"/>
        <path d="M271.064 151.559L272.111 158.404L286.474 157.838L288.742 140.046H285.3L271.064 151.559Z" fill="#EFB68F"/>
        <path d="M292.364 135.901C291.795 137.671 290.496 139.156 288.742 140.046C283.764 142.519 282.608 136.197 284.757 133.32C287.315 129.892 293.882 131.148 292.364 135.901Z" fill="#EFB68F"/>
        <path d="M269.014 157.496C269.014 157.496 277.773 168.375 290.859 155.955C293.023 156.133 295.351 157.342 298.208 158.145C301.967 159.202 305.012 160.65 307.285 161.947L305.555 240.791H256.651L251.394 164.299C253.378 163.195 255.704 161.335 258.363 160.324C262.334 158.814 265.981 157.974 269.014 157.496Z" fill="#FFBE55"/>
        <path d="M308.63 265.886C305.058 271.165 301.432 272.824 299.158 273.44C298.457 273.63 296.217 273.686 291.742 273.88C288.295 274.03 284.707 274.108 280.931 274.099C278.748 274.095 276.606 274.061 274.504 274.001C267.853 273.812 264.527 273.754 263.234 273.421C260.852 272.809 256.667 270.971 252.64 264.207C253.934 256.402 255.229 248.597 256.523 240.792H305.523C306.559 249.156 307.594 257.521 308.63 265.886Z" fill="#0B4870"/>
        <path d="M320.116 380.654L316.235 356.584L306.652 357.888L310.512 381.93L320.116 380.654Z" fill="#FFBE55"/>
        <path d="M308.988 379.921L307.285 387.468H337.274V387.248C337.274 385.509 336.275 383.927 334.705 383.179L320.787 377.625C320.286 377.387 319.643 377.397 319.261 377.799C317.463 379.698 315.487 382.79 309.997 379.435C309.598 379.193 309.077 379.463 308.988 379.921Z" fill="#0B4870"/>
        <path d="M337.274 387.468H307.285V389.449H337.274V387.468Z" fill="#FFBE55"/>
        <path d="M294.124 312.819L313.635 310.24L308.265 262.65C307.514 255.994 301.447 251.25 294.806 252.128C292.949 252.755 289.723 254.117 286.628 257.048C283.15 260.342 281.597 263.953 280.932 265.849C285.329 281.506 289.726 297.162 294.124 312.819Z" fill="#0B4870"/>
        <path d="M304.589 371.227L321.006 369.057L311.876 293.883C311.163 288.044 305.823 283.908 299.991 284.679C294.075 285.461 289.977 290.98 290.939 296.869L304.589 371.227Z" fill="#0B4870"/>
        <path d="M241.383 380.654L245.264 356.584L254.846 357.888L250.986 381.93L241.383 380.654Z" fill="#FFBE55"/>
        <path d="M266.942 312.819L247.864 310.24L252.802 262.65C253.553 255.994 259.621 251.25 266.261 252.128C266.631 252.177 267.936 252.369 269.518 253.067C269.518 253.067 272.53 254.413 274.439 257.048C276.551 259.962 276.629 263.534 276.418 266.384C275.903 273.327 272.601 290.417 266.942 312.819Z" fill="#0B4870"/>
        <path d="M256.91 371.227L240.493 369.057L249.623 293.883C250.336 288.044 255.676 283.908 261.508 284.679C267.424 285.461 271.522 290.98 270.56 296.869L256.91 371.227Z" fill="#0B4870"/>
        <path d="M302.505 236.398C303.853 235.95 304.616 236.247 304.616 236.247C305.384 235.169 306.803 235.032 307.724 235.947L308.377 236.595C309.229 237.441 309.341 238.884 308.633 239.882L308.592 239.94C308.592 239.94 307.336 243.321 304.491 246.371C300.816 250.311 297.461 250.234 296.454 248.868C295.503 247.577 299.62 242.687 301.129 240.852L298.798 241.603C298.502 241.698 298.185 241.567 298.016 241.28C297.833 240.971 297.867 240.562 298.098 240.297L299.927 238.194C300.643 237.371 301.52 236.726 302.505 236.398Z" fill="#EFB68F"/>
        <path d="M305.663 235.449L324.722 203.316C326.389 200.548 329.858 200.059 332.087 202.278C334.101 204.283 334.3 207.724 332.533 210.001L309.078 238.696L305.663 235.449Z" fill="#EFB68F"/>
        <path d="M311.337 167.205C316.091 173.618 322.55 180.345 332.002 198.013C333.003 199.884 334.842 203.429 333.9 206.947C333.463 208.58 332.56 209.71 331.864 210.409C330.894 210.268 329.368 209.904 327.712 208.867C325.6 207.545 324.337 205.793 323.721 204.803C315.154 194.471 306.587 184.14 298.02 173.808C295.656 170.733 296 166.099 298.772 163.684C301.352 161.437 309.182 164.298 311.337 167.205Z" fill="#EFB68F"/>
        <path d="M292.406 156.967C295.593 157.36 299.444 158.213 303.533 160.017C315.984 165.511 322.05 176.037 324.194 180.291C320.426 185.066 316.658 189.842 312.89 194.617C311.071 193.048 308.482 190.682 305.627 187.561C300.929 182.429 296.851 177.974 294.405 171.332C293.343 168.445 292.004 163.557 292.406 156.967Z" fill="#FFBE55"/>
        <path d="M259.174 236.398C257.834 235.95 257.076 236.247 257.076 236.247C256.313 235.169 254.902 235.032 253.986 235.947L253.337 236.595C252.489 237.441 252.378 238.884 253.083 239.882L253.123 239.94C253.123 239.94 254.372 243.321 257.2 246.371C260.854 250.311 264.19 250.234 265.191 248.868C266.137 247.577 262.043 242.687 260.543 240.852L262.86 241.603C263.154 241.698 263.47 241.567 263.639 241.28C263.82 240.971 263.786 240.562 263.557 240.297L261.738 238.194C261.026 237.371 260.154 236.726 259.174 236.398Z" fill="#EFB68F"/>
        <path d="M256.035 235.449L237.086 203.316C235.429 200.548 231.98 200.059 229.763 202.278C227.761 204.283 227.564 207.724 229.32 210.001L252.639 238.696L256.035 235.449Z" fill="#EFB68F"/>
        <path d="M250.393 167.205C245.667 173.618 239.246 180.345 229.848 198.013C228.852 199.884 227.024 203.429 227.96 206.947C228.395 208.58 229.293 209.71 229.985 210.409C230.95 210.268 232.467 209.904 234.113 208.867C236.213 207.545 237.468 205.793 238.081 204.803C246.598 194.471 255.115 184.14 263.632 173.808C265.983 170.733 265.641 166.099 262.885 163.684C260.321 161.437 252.536 164.298 250.393 167.205Z" fill="#EFB68F"/>
        <path d="M269.237 156.967C266.069 157.353 262.212 158.2 258.111 160.017C245.978 165.391 240.021 175.568 237.891 179.73C241.723 185.177 245.555 190.623 249.388 196.07C250.983 194.604 253.285 192.368 255.821 189.429C259.938 184.659 264.592 179.266 267.238 171.333C268.246 168.308 269.466 163.404 269.237 156.967Z" fill="#FFBE55"/>
        <path d="M251.846 379.921L253.549 387.468H223.56V387.248C223.56 385.509 224.559 383.927 226.129 383.179L240.047 377.625C240.548 377.387 241.191 377.397 241.572 377.799C243.371 379.698 245.347 382.79 250.837 379.435C251.236 379.193 251.757 379.463 251.846 379.921Z" fill="#0B4870"/>
        <path d="M223.559 389.448H253.549V387.468H223.559V389.448Z" fill="#FFBE55"/>
        <path d="M271.064 151.559C271.616 152.359 272.423 153.201 273.556 153.505C277.116 154.46 281.176 149.379 282.809 147.337C284.542 145.168 285.694 143.003 286.474 141.15C285.696 142.408 284.674 143.79 271.064 151.559Z" fill="#E0A882"/>
        <path d="M288.562 117.842C283.19 111.267 271.232 110.084 265.296 115.267C262.603 117.619 261.875 120.648 260.801 125.117C260.473 126.483 258.166 136.718 263.268 146.146C265.243 149.795 266.958 150.793 268.156 151.211C270.57 152.053 272.871 151.199 274.997 150.461C279.303 148.967 281.938 146.246 282.902 145.227C287.511 140.357 295.629 126.491 288.562 117.842Z" fill="#EFB68F"/>
        <path d="M281.336 121.695C281.336 121.695 289.267 124.776 285.646 134.912L288.344 135.278C288.344 135.278 288.923 131.265 292.448 131.868C292.448 131.868 295.301 117.773 288.11 114.346L281.336 121.695Z" fill="#0B4870"/>
        <path d="M281.336 121.695C281.336 121.695 272.052 115.419 264.382 119.215C263.545 119.013 261.621 118.42 260.199 116.647C258.307 114.288 258.081 110.805 259.582 107.72C259.582 107.72 261.015 108.288 262.883 108.728C265.521 109.349 267.602 109.065 268.793 108.97C271.375 108.763 276.19 108.378 279.587 109.102C281.824 109.578 284.854 110.835 288.111 114.346C290.098 116.206 290.253 119.314 288.536 121.305C286.741 123.389 283.45 123.609 281.336 121.695Z" fill="#0B4870"/>
        <path d="M264.382 119.215C264.382 119.215 261.816 122.564 260.316 129.687C260.316 129.687 260.989 118.565 263.521 118.003C266.054 117.441 264.382 119.215 264.382 119.215Z" fill="#0B4870"/>
        <path d="M475.735 107.568C466.188 105.804 451.587 104.033 434.1 105.873C408.945 108.521 399.004 116.411 377.574 117.205C366.746 117.606 350.972 116.269 331.448 107.568C331.448 80.4029 331.448 53.2375 331.448 26.0728C344.503 33.0878 361.452 39.1803 380.664 37.5479C397.16 36.146 404.547 29.9651 423.692 26.0728C436.639 23.4401 454.04 22.0425 475.736 26.0728C475.735 53.2375 475.735 80.4029 475.735 107.568Z" fill="#FFBE55"/>
        <path d="M385.239 71.2011C385.239 60.2573 394.17 51.3271 405.113 51.3271C408.791 51.3271 412.117 52.2902 415.094 54.0412C411.505 50.9769 406.952 49.0508 401.874 49.0508C390.93 49.0508 382 57.981 382 68.9248C382 76.2791 385.94 82.6703 391.893 86.0848C387.778 82.4076 385.239 77.1546 385.239 71.2011Z" fill="white"/>
        <path d="M417.545 51.7646C421.835 55.9671 424.462 61.833 424.462 68.3117C424.462 81.0941 414.131 91.4251 401.348 91.4251C396.358 91.4251 391.718 89.8492 387.953 87.1351C392.156 91.25 397.846 93.7015 404.062 93.7015C416.845 93.7015 427.176 83.3705 427.176 70.5881C427.176 62.796 423.324 55.9671 417.545 51.7646Z" fill="white"/>
        <path d="M393.907 62.9717L397.409 67.6994L400.911 62.9717H404.326L399.248 69.8882L404.764 77.33H401.262L397.409 72.2521L393.557 77.33H390.143L395.571 69.9757L390.493 62.9717C390.493 62.9717 393.907 62.9717 393.907 62.9717Z" fill="white"/>
        <path d="M413.169 65.4228C411.768 65.4228 410.892 65.8606 410.892 66.8236C410.892 69.8003 419.034 68.2244 419.034 73.3024C419.034 76.0164 416.583 77.5048 413.256 77.5048C410.892 77.5048 408.528 76.6293 406.777 75.2285L408.003 72.9522C409.579 74.353 411.593 75.1409 413.256 75.1409C414.832 75.1409 415.883 74.6156 415.883 73.565C415.883 70.5883 407.74 72.3393 407.74 67.2614C407.74 64.8099 410.017 63.1465 413.431 63.1465C415.445 63.1465 417.546 63.6718 418.859 64.6348L417.721 66.8236C416.058 65.8606 414.307 65.4228 413.169 65.4228Z" fill="white"/>
    </g>
</svg>
