<svg width="566" height="431" viewBox="0 0 566 431" fill="none" xmlns="http://www.w3.org/2000/svg">
    <path fill-rule="evenodd" clip-rule="evenodd" d="M400.711 -111.842C393.537 -115.984 384.363 -113.526 380.221 -106.352L300.088 32.4423L268.368 14.1288C261.194 9.98663 252.02 12.4447 247.878 19.6191L164.271 164.43L111.876 134.179C104.702 130.037 95.5281 132.495 91.3859 139.67L2.43033 293.745C-1.7118 300.92 0.746335 310.094 7.92072 314.236L60.3158 344.486L50.6748 361.185C46.5327 368.359 48.9908 377.533 56.1652 381.675L94.5588 403.842L85.7623 419.078C81.6202 426.252 84.0783 435.426 91.2527 439.568L191.017 497.167C198.191 501.309 207.365 498.851 211.507 491.676L227.291 464.338L285.805 498.121C292.98 502.263 302.154 499.805 306.296 492.631L352.488 412.623L361.026 417.552C368.2 421.694 377.374 419.236 381.516 412.062L497.072 211.913C501.214 204.739 498.756 195.565 491.582 191.423L483.044 186.494L505.333 147.889C509.475 140.715 507.017 131.541 499.842 127.399L490.765 122.158L562.077 -1.35728C566.219 -8.53166 563.761 -17.7055 556.586 -21.8477L400.711 -111.842ZM531.835 174.038C533.34 171.433 536.671 170.541 539.276 172.045C541.881 173.549 542.774 176.88 541.27 179.485L502.996 245.776C501.492 248.381 498.161 249.274 495.556 247.77C492.951 246.266 492.058 242.934 493.562 240.329L531.835 174.038ZM216.69 42.0261C214.085 40.522 210.754 41.4146 209.25 44.0197L185.204 85.6688C183.7 88.2739 184.592 91.6051 187.198 93.1092C189.803 94.6133 193.134 93.7207 194.638 91.1156L218.684 49.4665C220.188 46.8613 219.296 43.5302 216.69 42.0261ZM529.885 128.977C531.374 126.397 534.673 125.513 537.253 127.003C539.833 128.492 540.717 131.791 539.228 134.371L513.558 178.832C512.068 181.412 508.769 182.296 506.189 180.807C503.609 179.317 502.726 176.018 504.215 173.438L529.885 128.977ZM200.653 11.5697C198.073 10.0802 194.774 10.9641 193.285 13.5441L177.142 41.5044C175.652 44.0844 176.536 47.3833 179.116 48.8728C181.696 50.3624 184.995 49.4784 186.485 46.8985L202.627 18.9381C204.117 16.3582 203.233 13.0592 200.653 11.5697ZM218.28 6.81229C219.769 4.23235 223.068 3.3484 225.648 4.83793C228.228 6.32745 229.112 9.6264 227.623 12.2063L222.387 21.2739C220.898 23.8538 217.599 24.7377 215.019 23.2482C212.439 21.7587 211.555 18.4597 213.045 15.8798L218.28 6.81229ZM78.8014 222.499C76.2215 221.01 72.9225 221.894 71.433 224.474L33.5303 290.123C32.0407 292.703 32.9247 296.002 35.5046 297.492C38.0846 298.981 41.3835 298.097 42.873 295.517L80.7758 229.868C82.2653 227.288 81.3813 223.989 78.8014 222.499ZM66.8618 205.241C67.9429 203.369 70.3374 202.727 72.2099 203.808C74.0825 204.89 74.7241 207.284 73.6429 209.157L59.7672 233.19C58.6861 235.063 56.2917 235.704 54.4191 234.623C52.5466 233.542 51.905 231.147 52.9861 229.275L66.8618 205.241Z" fill="#F8F8FB"/>
    <mask id="mask0_2_6868" style="mask-type:alpha" maskUnits="userSpaceOnUse" x="0" y="-117" width="566" height="618">
        <path fill-rule="evenodd" clip-rule="evenodd" d="M402.016 -114.102C394.842 -118.244 385.668 -115.786 381.526 -108.612L300.088 32.4424L268.368 14.1289C261.194 9.98674 252.02 12.4448 247.878 19.6192L164.271 164.43L111.876 134.179C104.702 130.037 95.5281 132.495 91.3859 139.67L2.43033 293.745C-1.7118 300.92 0.746335 310.094 7.92072 314.236L60.3158 344.486L50.6748 361.185C46.5327 368.359 48.9908 377.533 56.1652 381.675L94.5588 403.842L85.7623 419.078C81.6202 426.252 84.0783 435.426 91.2527 439.568L191.017 497.167C198.191 501.309 207.365 498.851 211.507 491.677L227.291 464.338L285.805 498.121C292.98 502.264 302.154 499.805 306.296 492.631L352.488 412.623L361.026 417.552C368.2 421.694 377.374 419.236 381.516 412.062L497.072 211.914C501.214 204.739 498.756 195.565 491.582 191.423L483.044 186.494L505.333 147.889C509.475 140.715 507.017 131.541 499.842 127.399L490.765 122.158L563.381 -3.61729C567.524 -10.7917 565.065 -19.9655 557.891 -24.1077L402.016 -114.102ZM531.835 174.039C533.34 171.433 536.671 170.541 539.276 172.045C541.881 173.549 542.774 176.88 541.27 179.485L502.996 245.776C501.492 248.381 498.161 249.274 495.556 247.77C492.951 246.266 492.058 242.935 493.562 240.329L531.835 174.039ZM216.69 42.0262C214.085 40.5221 210.754 41.4147 209.25 44.0199L185.204 85.6689C183.7 88.2741 184.592 91.6052 187.198 93.1093C189.803 94.6134 193.134 93.7208 194.638 91.1157L218.684 49.4666C220.188 46.8615 219.296 43.5303 216.69 42.0262ZM529.885 128.977C531.374 126.397 534.673 125.513 537.253 127.003C539.833 128.492 540.717 131.791 539.228 134.371L513.558 178.833C512.068 181.413 508.769 182.297 506.189 180.807C503.609 179.317 502.726 176.018 504.215 173.439L529.885 128.977ZM200.653 11.5701C198.073 10.0805 194.774 10.9645 193.285 13.5444L177.142 41.5048C175.652 44.0847 176.536 47.3837 179.116 48.8732C181.696 50.3627 184.995 49.4788 186.485 46.8988L202.627 18.9385C204.117 16.3586 203.233 13.0596 200.653 11.5701ZM218.28 6.81241C219.769 4.23247 223.068 3.34851 225.648 4.83804C228.228 6.32757 229.112 9.62652 227.623 12.2065L222.387 21.274C220.898 23.8539 217.599 24.7379 215.019 23.2483C212.439 21.7588 211.555 18.4599 213.045 15.8799L218.28 6.81241ZM78.8014 222.5C76.2215 221.01 72.9225 221.894 71.433 224.474L33.5303 290.123C32.0407 292.703 32.9247 296.002 35.5046 297.492C38.0846 298.981 41.3835 298.097 42.873 295.517L80.7758 229.868C82.2653 227.288 81.3813 223.989 78.8014 222.5ZM66.8618 205.242C67.9429 203.369 70.3374 202.727 72.2099 203.809C74.0825 204.89 74.7241 207.284 73.6429 209.157L59.7672 233.19C58.6861 235.063 56.2917 235.704 54.4191 234.623C52.5466 233.542 51.905 231.148 52.9861 229.275L66.8618 205.242Z" fill="#F8F8FB"/>
    </mask>
    <g mask="url(#mask0_2_6868)">
        <path d="M447.826 39.5078H72.9927C65.4839 39.5078 59.3679 45.5633 59.3679 53.0721V311.217H461.451V53.0721C461.451 45.5633 455.335 39.5078 447.826 39.5078Z" fill="#9AC4EA"/>
        <path d="M447.342 45.1992H73.4772C68.8145 45.1992 65.0601 48.9536 65.0601 53.6163V307.401H455.759V53.6163C455.759 48.9536 452.005 45.1992 447.342 45.1992Z" fill="#9AC4EA"/>
        <path d="M436.71 63.9719H84.1086C81.3472 63.9719 79.1086 66.2105 79.1086 68.9719V293.379C79.1086 296.141 81.3472 298.379 84.1086 298.379H436.71C439.472 298.379 441.71 296.141 441.71 293.379V68.9719C441.71 66.2105 439.472 63.9719 436.71 63.9719Z" fill="#CCE9FF"/>
        <path d="M262.468 55.7359C262.468 56.8864 261.56 57.7947 260.409 57.7947C259.259 57.7947 258.351 56.8864 258.351 55.7359C258.351 54.5853 259.259 53.677 260.409 53.677C261.56 53.7376 262.468 54.6459 262.468 55.7359Z" fill="#F6F6F6"/>
        <g opacity="0.5">
            <line x1="106.856" y1="73.6914" x2="106.856" y2="287.663" stroke="#9AC4EA"/>
            <line x1="133.078" y1="73.6912" x2="133.078" y2="287.663" stroke="#9AC4EA"/>
            <line x1="158.251" y1="73.6912" x2="158.251" y2="287.663" stroke="#9AC4EA"/>
            <line x1="184.473" y1="73.6912" x2="184.473" y2="287.663" stroke="#9AC4EA"/>
            <line x1="209.646" y1="73.6912" x2="209.646" y2="287.663" stroke="#9AC4EA"/>
            <line x1="235.869" y1="73.6912" x2="235.869" y2="287.663" stroke="#9AC4EA"/>
            <line x1="261.042" y1="73.6912" x2="261.042" y2="287.663" stroke="#9AC4EA"/>
            <line x1="287.264" y1="73.6912" x2="287.264" y2="287.663" stroke="#9AC4EA"/>
            <line x1="313.486" y1="73.6912" x2="313.486" y2="287.663" stroke="#9AC4EA"/>
            <line x1="338.659" y1="73.6912" x2="338.659" y2="287.663" stroke="#9AC4EA"/>
            <line x1="364.881" y1="73.6912" x2="364.881" y2="287.663" stroke="#9AC4EA"/>
            <line x1="390.054" y1="73.6912" x2="390.054" y2="287.663" stroke="#9AC4EA"/>
            <line x1="416.276" y1="73.6912" x2="416.276" y2="287.663" stroke="#9AC4EA"/>
        </g>
        <g opacity="0.5">
            <line x1="433.607" y1="77.8623" x2="88.5252" y2="77.8623" stroke="#9AC4EA"/>
            <line x1="433.607" y1="104.085" x2="88.5254" y2="104.085" stroke="#9AC4EA"/>
            <line x1="433.607" y1="129.258" x2="88.5254" y2="129.258" stroke="#9AC4EA"/>
            <line x1="433.607" y1="155.48" x2="88.5254" y2="155.48" stroke="#9AC4EA"/>
            <line x1="433.607" y1="180.654" x2="88.5254" y2="180.654" stroke="#9AC4EA"/>
            <line x1="433.607" y1="206.875" x2="88.5254" y2="206.875" stroke="#9AC4EA"/>
            <line x1="433.607" y1="233.097" x2="88.5254" y2="233.097" stroke="#9AC4EA"/>
            <line x1="433.607" y1="258.27" x2="88.5254" y2="258.27" stroke="#9AC4EA"/>
            <line x1="433.607" y1="284.492" x2="88.5254" y2="284.492" stroke="#9AC4EA"/>
            <line x1="433.607" y1="309.666" x2="88.5254" y2="309.666" stroke="#9AC4EA"/>
        </g>
        <path d="M93.7695 280.322L121.333 252.745C122.041 252.036 122.945 251.557 123.929 251.369L168.774 242.777C169.898 242.562 170.914 241.967 171.653 241.093L198.615 209.172C200.129 207.379 202.686 206.881 204.763 207.973L247.143 230.266C249.281 231.39 251.916 230.826 253.406 228.925L285.283 188.251C285.841 187.54 286.58 186.993 287.423 186.668L337.475 167.409C338.674 166.947 339.649 166.043 340.198 164.882L352.411 139.088C352.893 138.069 353.706 137.243 354.716 136.744L390.918 118.869C391.972 118.349 393.176 118.217 394.317 118.495L409.404 122.177C411.782 122.757 414.23 121.531 415.189 119.28L428.362 88.3765" stroke="url(#paint0_linear_2_6868)" stroke-width="7" stroke-linecap="round"/>
        <path d="M488.156 306.614H32.6632C30.0594 306.614 27.8794 308.734 27.8794 311.398V317.575C27.8794 320.178 29.9988 322.358 32.6632 322.358H488.216C490.82 322.358 493 320.239 493 317.575V311.398C492.939 308.734 490.82 306.614 488.156 306.614Z" fill="#D3D3D3"/>
        <path d="M299.467 313.457H221.352C220.322 313.457 219.474 314.304 219.474 315.334C219.474 316.363 220.322 317.211 221.352 317.211H299.528C300.557 317.211 301.405 316.363 301.405 315.334C301.344 314.304 300.497 313.457 299.467 313.457Z" fill="#F7F7F7"/>
        <path d="M363.716 374.617L363.656 384.366C363.656 384.366 364.867 390.603 365.896 397.264C366.865 403.925 367.652 411.01 366.623 412.645C364.624 415.915 360.688 412.645 360.022 409.375C359.356 406.105 358.387 385.698 358.387 385.698L357.721 372.558L363.716 374.617ZM373.647 373.285L372.133 382.065C372.133 382.065 369.166 406.045 370.801 409.678C372.436 413.311 377.704 411.676 377.401 406.711C377.099 401.806 378.37 384.366 378.37 384.366L381.338 373.83L373.647 373.285Z" fill="#0B4870"/>
        <path d="M369.59 266.406L368.863 277.185L396.718 290.628C401.744 293.353 404.166 299.226 402.531 304.676L383.275 376.313L373.707 373.285L382.124 307.401C382.73 303.344 379.944 299.59 375.887 298.924L365.956 297.349L355.42 286.571L367.652 297.531C370.619 300.195 372.072 304.131 371.527 308.067L363.716 374.617L355.056 376.797L351.181 311.337C350.878 307.159 348.093 303.647 344.157 302.375L327.02 296.925C324.295 295.29 322.599 292.323 322.478 289.114L323.205 266.042L369.59 266.406Z" fill="#0B4870"/>
        <path d="M321.388 290.568L325.99 201.068C325.99 201.068 345.004 199.918 350.697 199.918C353.785 199.918 359.053 201.371 363.231 202.703C367.168 203.975 370.377 203.854 372.315 207.487L403.5 267.315L384.304 269.132L377.886 261.865L381.156 256.96L369.469 229.468L371.77 279.426L321.388 290.568Z" fill="#FFBE55"/>
        <path opacity="0.08" d="M369.892 218.568L390.602 255.93L384.183 263.499C384.183 263.499 381.579 264.044 379.097 263.197L377.946 261.864L381.216 256.96L369.529 229.468L369.892 218.568Z" fill="#0F0F0F"/>
        <path d="M351.484 226.985C345.186 226.985 333.681 210.574 333.681 204.277C333.681 203.005 333.923 201.794 334.286 200.643C340.16 200.341 347.487 199.977 350.697 199.977C352.089 199.977 353.906 200.28 355.904 200.704C356.268 201.854 356.51 203.005 356.51 204.277C356.449 210.574 357.781 226.985 351.484 226.985Z" fill="white"/>
        <path opacity="0.08" d="M323.689 216.569L321.388 291.112L352.15 283.724L323.689 216.569Z" fill="#0F0F0F"/>
        <path d="M352.574 190.773C352.029 191.863 348.274 206.517 348.274 206.517C348.274 206.517 346.942 208.94 343.733 208.637C340.523 208.395 339.191 203.853 339.191 203.853L344.823 185.444L352.574 190.773Z" fill="#FCD2B1"/>
        <path d="M332.833 181.751C332.833 191.863 343.551 203.066 353.664 203.066C363.776 203.066 369.408 191.863 369.408 181.751C369.408 171.638 361.233 163.463 351.121 163.463C341.008 163.402 332.833 171.638 332.833 181.751Z" fill="#FFBCC6"/>
        <path d="M354.849 203.537C366.072 201.707 373.687 191.126 371.857 179.904C370.028 168.681 359.447 161.066 348.224 162.896C337.002 164.725 329.387 175.306 331.216 186.529C333.046 197.751 343.627 205.366 354.849 203.537Z" fill="#FFE3CA"/>
        <path d="M347.669 281.969C348.456 281.727 355.238 278.396 360.022 278.396C364.806 278.396 370.68 283.483 370.68 283.483C370.68 283.483 371.467 286.147 368.257 285.602C365.048 285.057 368.681 287.6 368.681 287.6C368.681 287.6 368.5 287.721 364.745 288.266C360.991 288.811 346.458 288.024 346.458 288.024L347.669 281.969Z" fill="#FFE3CA"/>
        <path d="M325.99 201.127L323.386 259.986L347.608 281.907L346.458 288.084L312.365 269.857C309.095 268.101 307.218 264.467 307.703 260.774L313.94 215.721C314.424 210.089 317.876 205.124 322.902 202.641L325.99 201.127ZM345.186 293.11H406.831V288.568H345.186C343.914 288.568 342.945 289.598 342.945 290.809C342.885 292.08 343.914 293.11 345.186 293.11Z" fill="#FFBE55"/>
        <path d="M362.081 293.11H421.545C424.149 293.11 426.45 291.354 427.177 288.811L437.653 249.269C438.622 245.575 435.836 242.002 432.021 242.002H380.126C377.522 242.002 375.221 243.758 374.495 246.301L362.081 293.11Z" fill="#FFBE55"/>
        <path opacity="0.22" d="M362.081 293.11H421.545C424.149 293.11 426.45 291.354 427.177 288.811L437.653 249.269C438.622 245.575 435.836 242.002 432.021 242.002H380.126C377.522 242.002 375.221 243.758 374.495 246.301L362.081 293.11Z" fill="white"/>
        <path d="M351.544 162.615C362.141 162.615 370.801 170.608 372.012 180.842C368.439 183.507 363.776 184.657 359.356 183.93C354.148 183.022 349.485 179.449 347.305 174.666C347.487 176.967 347.608 179.268 347.245 181.508C346.881 183.749 345.913 185.989 344.096 187.443C343.975 185.868 343.793 184.173 343.006 182.78C342.158 181.387 340.402 180.418 338.949 181.024C337.859 181.448 337.193 182.538 337.011 183.688C336.829 184.839 337.132 185.989 337.556 187.079C338.222 188.775 339.191 190.349 340.402 191.621C337.98 191.984 335.376 192.287 332.954 192.045C331.682 189.32 330.895 186.353 330.895 183.143C330.895 171.82 340.16 162.615 351.544 162.615Z" fill="#0E538C"/>
        <path d="M333.802 186.595C333.802 190.046 336.588 192.832 340.039 192.832C343.491 192.832 346.276 190.046 346.276 186.595C346.276 183.143 343.491 180.358 340.039 180.358C336.648 180.358 333.802 183.143 333.802 186.595Z" fill="#FFE3CA"/>
        <path d="M373.647 373.284L372.557 379.885L379.097 381.943L380.913 375.464L373.647 373.284Z" fill="#FFE3CA"/>
        <path d="M363.655 381.944L358.205 382.973L357.903 376.07L363.716 374.617L363.655 381.944Z" fill="#FFE3CA"/>
        <path d="M340.039 172.122C345.122 172.122 349.243 168.001 349.243 162.918C349.243 157.835 345.122 153.714 340.039 153.714C334.955 153.714 330.834 157.835 330.834 162.918C330.834 168.001 334.955 172.122 340.039 172.122Z" fill="#0E538C"/>
    </g>
    <defs>
        <linearGradient id="paint0_linear_2_6868" x1="430.46" y1="85.2298" x2="86.9518" y2="288.188" gradientUnits="userSpaceOnUse">
            <stop stop-color="#2A94F4"/>
            <stop offset="0.53125" stop-color="#84DD9D"/>
            <stop offset="1" stop-color="#FFBE55"/>
        </linearGradient>
    </defs>
</svg>
