<svg width="566" height="431" viewBox="0 0 566 431" fill="none" xmlns="http://www.w3.org/2000/svg">
    <path fill-rule="evenodd" clip-rule="evenodd" d="M400.711 -111.842C393.537 -115.984 384.363 -113.526 380.221 -106.352L300.088 32.4426L268.368 14.129C261.194 9.98687 252.02 12.445 247.878 19.6194L164.271 164.43L111.876 134.18C104.702 130.037 95.5281 132.496 91.3859 139.67L2.43033 293.746C-1.7118 300.92 0.746335 310.094 7.92072 314.236L60.3158 344.486L50.6748 361.185C46.5327 368.359 48.9908 377.533 56.1652 381.675L94.5588 403.842L85.7623 419.078C81.6202 426.252 84.0783 435.426 91.2527 439.568L191.017 497.167C198.191 501.309 207.365 498.851 211.507 491.677L227.291 464.338L285.805 498.121C292.98 502.264 302.154 499.805 306.296 492.631L352.488 412.623L361.026 417.552C368.2 421.694 377.374 419.236 381.516 412.062L497.072 211.914C501.214 204.739 498.756 195.565 491.582 191.423L483.044 186.494L505.333 147.889C509.475 140.715 507.017 131.541 499.842 127.399L490.765 122.158L562.077 -1.35703C566.219 -8.53142 563.761 -17.7053 556.586 -21.8474L400.711 -111.842ZM531.835 174.039C533.34 171.434 536.671 170.541 539.276 172.045C541.881 173.549 542.774 176.88 541.27 179.485L502.996 245.776C501.492 248.381 498.161 249.274 495.556 247.77C492.951 246.266 492.058 242.935 493.562 240.33L531.835 174.039ZM216.69 42.0263C214.085 40.5222 210.754 41.4148 209.25 44.02L185.204 85.669C183.7 88.2742 184.592 91.6054 187.198 93.1095C189.803 94.6135 193.134 93.7209 194.638 91.1158L218.684 49.4667C220.188 46.8616 219.296 43.5304 216.69 42.0263ZM529.885 128.977C531.374 126.397 534.673 125.514 537.253 127.003C539.833 128.493 540.717 131.792 539.228 134.371L513.558 178.833C512.068 181.413 508.769 182.297 506.189 180.807C503.609 179.318 502.726 176.019 504.215 173.439L529.885 128.977ZM200.653 11.57C198.073 10.0804 194.774 10.9644 193.285 13.5443L177.142 41.5047C175.652 44.0846 176.536 47.3836 179.116 48.8731C181.696 50.3626 184.995 49.4787 186.485 46.8987L202.627 18.9384C204.117 16.3584 203.233 13.0595 200.653 11.57ZM218.28 6.81254C219.769 4.2326 223.068 3.34864 225.648 4.83817C228.228 6.3277 229.112 9.62665 227.623 12.2066L222.387 21.2741C220.898 23.854 217.599 24.738 215.019 23.2485C212.439 21.7589 211.555 18.46 213.045 15.8801L218.28 6.81254ZM78.8014 222.5C76.2215 221.01 72.9225 221.894 71.433 224.474L33.5303 290.123C32.0407 292.703 32.9247 296.002 35.5046 297.492C38.0846 298.981 41.3835 298.097 42.873 295.518L80.7758 229.868C82.2653 227.288 81.3813 223.989 78.8014 222.5ZM66.8618 205.242C67.9429 203.369 70.3374 202.728 72.2099 203.809C74.0825 204.89 74.7241 207.284 73.6429 209.157L59.7672 233.19C58.6861 235.063 56.2917 235.704 54.4191 234.623C52.5466 233.542 51.905 231.148 52.9861 229.275L66.8618 205.242Z" fill="#F8F8FB"/>
    <mask id="mask0_2_6977" style="mask-type:alpha" maskUnits="userSpaceOnUse" x="0" y="-117" width="566" height="618">
        <path fill-rule="evenodd" clip-rule="evenodd" d="M402.016 -114.102C394.842 -118.244 385.668 -115.786 381.526 -108.612L300.088 32.4424L268.368 14.1289C261.194 9.98674 252.02 12.4448 247.878 19.6192L164.271 164.43L111.876 134.179C104.702 130.037 95.5281 132.495 91.3859 139.67L2.43033 293.745C-1.7118 300.92 0.746335 310.094 7.92072 314.236L60.3158 344.486L50.6748 361.185C46.5327 368.359 48.9908 377.533 56.1652 381.675L94.5588 403.842L85.7623 419.078C81.6202 426.252 84.0783 435.426 91.2527 439.568L191.017 497.167C198.191 501.309 207.365 498.851 211.507 491.677L227.291 464.338L285.805 498.121C292.98 502.264 302.154 499.805 306.296 492.631L352.488 412.623L361.026 417.552C368.2 421.694 377.374 419.236 381.516 412.062L497.072 211.914C501.214 204.739 498.756 195.565 491.582 191.423L483.044 186.494L505.333 147.889C509.475 140.715 507.017 131.541 499.842 127.399L490.765 122.158L563.381 -3.61729C567.524 -10.7917 565.065 -19.9655 557.891 -24.1077L402.016 -114.102ZM531.835 174.039C533.34 171.433 536.671 170.541 539.276 172.045C541.881 173.549 542.774 176.88 541.27 179.485L502.996 245.776C501.492 248.381 498.161 249.274 495.556 247.77C492.951 246.266 492.058 242.935 493.562 240.329L531.835 174.039ZM216.69 42.0262C214.085 40.5221 210.754 41.4147 209.25 44.0199L185.204 85.6689C183.7 88.2741 184.592 91.6052 187.198 93.1093C189.803 94.6134 193.134 93.7208 194.638 91.1157L218.684 49.4666C220.188 46.8615 219.296 43.5303 216.69 42.0262ZM529.885 128.977C531.374 126.397 534.673 125.513 537.253 127.003C539.833 128.492 540.717 131.791 539.228 134.371L513.558 178.833C512.068 181.413 508.769 182.297 506.189 180.807C503.609 179.317 502.726 176.018 504.215 173.439L529.885 128.977ZM200.653 11.5701C198.073 10.0805 194.774 10.9645 193.285 13.5444L177.142 41.5048C175.652 44.0847 176.536 47.3837 179.116 48.8732C181.696 50.3627 184.995 49.4788 186.485 46.8988L202.627 18.9385C204.117 16.3586 203.233 13.0596 200.653 11.5701ZM218.28 6.81241C219.769 4.23247 223.068 3.34851 225.648 4.83804C228.228 6.32757 229.112 9.62652 227.623 12.2065L222.387 21.274C220.898 23.8539 217.599 24.7379 215.019 23.2483C212.439 21.7588 211.555 18.4599 213.045 15.8799L218.28 6.81241ZM78.8014 222.5C76.2215 221.01 72.9225 221.894 71.433 224.474L33.5303 290.123C32.0407 292.703 32.9247 296.002 35.5046 297.492C38.0846 298.981 41.3835 298.097 42.873 295.517L80.7758 229.868C82.2653 227.288 81.3813 223.989 78.8014 222.5ZM66.8618 205.242C67.9429 203.369 70.3374 202.727 72.2099 203.809C74.0825 204.89 74.7241 207.284 73.6429 209.157L59.7672 233.19C58.6861 235.063 56.2917 235.704 54.4191 234.623C52.5466 233.542 51.905 231.148 52.9861 229.275L66.8618 205.242Z" fill="#F8F8FB"/>
    </mask>
    <g mask="url(#mask0_2_6977)">
        <path d="M476.5 431C492.46 415.04 628.443 250.257 463.415 297.586C298.386 344.916 271.439 359.099 299.821 246.751C273 90.5003 46 -145.5 106.411 50.5787C-28.6415 226.831 10.8009 175.834 -12.0001 274C-34.8011 372.166 88.7436 320.792 20.5 363.5C-47.7437 406.208 59.5 426.5 59.5 426.5L476.5 431Z" fill="#D4EBFF"/>
        <path d="M262.79 101.365C262.086 99.4436 259.951 98.4565 258.023 99.1622L90.4917 160.541C88.5644 161.247 87.5711 163.38 88.2748 165.302L92.0914 175.724L266.584 111.796L262.767 101.374L262.79 101.365ZM104.761 167.136L97.8001 169.685L95.2585 162.744L102.219 160.195L104.761 167.136ZM118.706 162.03L111.745 164.579L109.203 157.638L116.164 155.089L118.706 162.03ZM132.65 156.923L125.689 159.472L123.148 152.532L130.109 149.983L132.65 156.923Z" fill="#9AC4EA"/>
        <path d="M188.588 266.56C204.608 261.161 302.252 226.406 308.034 224.289L266.612 111.704L92.0894 175.717L131.556 283.494C132.26 285.417 134.396 286.405 136.324 285.699L188.588 266.56ZM182.105 162.484L189.066 159.935L191.609 166.881L184.648 169.43L182.105 162.484ZM168.16 167.591L175.121 165.042L177.665 171.987L170.704 174.536L168.16 167.591ZM154.216 172.697L161.177 170.148L163.72 177.093L156.759 179.642L154.216 172.697ZM170.847 261.229L142.957 271.442L140.414 264.497L168.303 254.284L170.847 261.229ZM165.752 247.316L137.862 257.529L135.319 250.583L163.208 240.371L165.752 247.316ZM160.665 233.425L132.776 243.638L130.233 236.693L158.122 226.48L160.665 233.425ZM155.57 219.512L127.681 229.725L125.138 222.78L153.027 212.567L155.57 219.512ZM150.475 205.599L122.586 215.812L120.043 208.866L147.932 198.654L150.475 205.599ZM142.837 184.74L140.294 177.795L147.255 175.246L149.798 182.191L142.837 184.74Z" fill="#FFBE55"/>
        <path d="M160.412 298.775H384.131V137.276C384.131 134.977 382.274 133.075 379.93 133.075H164.613C162.313 133.075 160.412 134.933 160.412 137.276V298.775Z" fill="#F7F7F7"/>
        <path d="M168.313 268.667H375.803V141.174L168.313 141.174L168.313 268.667Z" fill="#9AC4EA" stroke="white" stroke-width="0.5" stroke-miterlimit="10"/>
        <path d="M384.13 274.851H272.293H160.499L136 366.347H273.044H408.585L384.13 274.851Z" fill="#F2F2F2"/>
        <path d="M168.945 290.904H182.698C183.273 290.904 183.715 291.346 183.583 291.832L182.256 297.802C182.168 298.156 181.814 298.422 181.372 298.422H167.397C166.823 298.422 166.38 297.979 166.513 297.449L168.061 291.479C168.149 291.169 168.503 290.904 168.945 290.904Z" fill="#9AC4EA" stroke="white" stroke-width="0.5" stroke-miterlimit="10"/>
        <path d="M188.978 290.904H199.371L198 298.466H187.386L188.978 290.904Z" fill="#9AC4EA" stroke="white" stroke-width="0.5" stroke-miterlimit="10"/>
        <path d="M204.544 290.904H214.937L213.875 298.466H203.262L204.544 290.904Z" fill="#9AC4EA" stroke="white" stroke-width="0.5" stroke-miterlimit="10"/>
        <path d="M220.155 290.904H230.547L229.751 298.466H219.137L220.155 290.904Z" fill="#9AC4EA" stroke="white" stroke-width="0.5" stroke-miterlimit="10"/>
        <path d="M235.722 290.904H246.114L245.627 298.466H235.014L235.722 290.904Z" fill="#9AC4EA" stroke="white" stroke-width="0.5" stroke-miterlimit="10"/>
        <path d="M251.288 290.904H261.68L261.503 298.466H250.89L251.288 290.904Z" fill="#9AC4EA" stroke="white" stroke-width="0.5" stroke-miterlimit="10"/>
        <path d="M375.993 290.904H360.383L362.063 298.466H377.939L375.993 290.904Z" fill="#9AC4EA" stroke="white" stroke-width="0.5" stroke-miterlimit="10"/>
        <path d="M355.21 290.904H344.818L346.189 298.466H356.802L355.21 290.904Z" fill="#9AC4EA" stroke="white" stroke-width="0.5" stroke-miterlimit="10"/>
        <path d="M339.643 290.904H329.25L330.312 298.466H340.925L339.643 290.904Z" fill="#9AC4EA" stroke="white" stroke-width="0.5" stroke-miterlimit="10"/>
        <path d="M324.033 290.904H313.641L314.437 298.466H325.05L324.033 290.904Z" fill="#9AC4EA" stroke="white" stroke-width="0.5" stroke-miterlimit="10"/>
        <path d="M308.466 290.904H298.074L298.56 298.466H309.174L308.466 290.904Z" fill="#9AC4EA" stroke="white" stroke-width="0.5" stroke-miterlimit="10"/>
        <path d="M292.9 290.904H282.508L282.684 298.466H293.298L292.9 290.904Z" fill="#9AC4EA" stroke="white" stroke-width="0.5" stroke-miterlimit="10"/>
        <path d="M266.897 290.904H277.289L277.422 298.466H266.897V290.904Z" fill="#9AC4EA" stroke="white" stroke-width="0.5" stroke-miterlimit="10"/>
        <path d="M164.391 304.082H186.06L184.822 311.865H162.711L164.391 304.082Z" fill="#9AC4EA" stroke="white" stroke-width="0.5" stroke-miterlimit="10"/>
        <path d="M379.354 304.082H352.556L354.059 311.865H381.433L379.354 304.082Z" fill="#9AC4EA" stroke="white" stroke-width="0.5" stroke-miterlimit="10"/>
        <path d="M347.161 304.082H336.459L337.653 311.865H348.62L347.161 304.082Z" fill="#9AC4EA" stroke="white" stroke-width="0.5" stroke-miterlimit="10"/>
        <path d="M331.064 304.082H320.362L321.247 311.865H332.214L331.064 304.082Z" fill="#9AC4EA" stroke="white" stroke-width="0.5" stroke-miterlimit="10"/>
        <path d="M314.966 304.082H304.265L304.884 311.865H315.807L314.966 304.082Z" fill="#9AC4EA" stroke="white" stroke-width="0.5" stroke-miterlimit="10"/>
        <path d="M298.869 304.082H288.168L288.477 311.865H299.4L298.869 304.082Z" fill="#9AC4EA" stroke="white" stroke-width="0.5" stroke-miterlimit="10"/>
        <path d="M161.119 317.923H183.318L181.682 325.662H159.084L161.119 317.923Z" fill="#9AC4EA" stroke="white" stroke-width="0.5" stroke-miterlimit="10"/>
        <path d="M188.845 317.923H199.945L198.662 325.662H187.341L188.845 317.923Z" fill="#9AC4EA" stroke="white" stroke-width="0.5" stroke-miterlimit="10"/>
        <path d="M205.517 317.923H216.617H288.699L289.008 325.662H204.279L205.517 317.923Z" fill="#9AC4EA" stroke="white" stroke-width="0.5" stroke-miterlimit="10"/>
        <path d="M294.271 317.923H305.371L305.99 325.662H294.669L294.271 317.923Z" fill="#9AC4EA" stroke="white" stroke-width="0.5" stroke-miterlimit="10"/>
        <path d="M310.899 317.923H321.998L322.927 325.662H311.606L310.899 317.923Z" fill="#9AC4EA" stroke="white" stroke-width="0.5" stroke-miterlimit="10"/>
        <path d="M327.57 317.923H338.67L339.864 325.662H328.587L327.57 317.923Z" fill="#9AC4EA" stroke="white" stroke-width="0.5" stroke-miterlimit="10"/>
        <path d="M344.198 317.923H355.298L356.802 325.662H345.525L344.198 317.923Z" fill="#9AC4EA" stroke="white" stroke-width="0.5" stroke-miterlimit="10"/>
        <path d="M360.825 317.923H383.025L385.059 325.662H362.462L360.825 317.923Z" fill="#9AC4EA" stroke="white" stroke-width="0.5" stroke-miterlimit="10"/>
        <path d="M282.818 304.082H272.16V311.865H282.995L282.818 304.082Z" fill="#9AC4EA" stroke="white" stroke-width="0.5" stroke-miterlimit="10"/>
        <path d="M266.722 304.082H255.976L255.666 311.865H266.633L266.722 304.082Z" fill="#9AC4EA" stroke="white" stroke-width="0.5" stroke-miterlimit="10"/>
        <path d="M250.624 304.082H239.878L239.259 311.865H250.226L250.624 304.082Z" fill="#9AC4EA" stroke="white" stroke-width="0.5" stroke-miterlimit="10"/>
        <path d="M234.527 304.082H223.781L222.853 311.865H233.82L234.527 304.082Z" fill="#9AC4EA" stroke="white" stroke-width="0.5" stroke-miterlimit="10"/>
        <path d="M218.43 304.082H207.684L206.446 311.865H217.413L218.43 304.082Z" fill="#9AC4EA" stroke="white" stroke-width="0.5" stroke-miterlimit="10"/>
        <path d="M202.332 304.082H191.586L190.083 311.865H201.006L202.332 304.082Z" fill="#9AC4EA" stroke="white" stroke-width="0.5" stroke-miterlimit="10"/>
        <path d="M169.432 286.172L171.201 279.45H176.242L174.606 286.172H169.432Z" fill="#9AC4EA" stroke="white" stroke-width="0.5" stroke-miterlimit="10"/>
        <path d="M181.283 279.45H191.366L189.995 286.172H179.691L181.283 279.45Z" fill="#9AC4EA" stroke="white" stroke-width="0.5" stroke-miterlimit="10"/>
        <path d="M196.451 279.45H206.534L205.384 286.172H195.125L196.451 279.45Z" fill="#9AC4EA" stroke="white" stroke-width="0.5" stroke-miterlimit="10"/>
        <path d="M211.576 279.45H221.659L220.774 286.172H210.515L211.576 279.45Z" fill="#9AC4EA" stroke="white" stroke-width="0.5" stroke-miterlimit="10"/>
        <path d="M226.7 279.45H236.782L236.163 286.172H225.904L226.7 279.45Z" fill="#9AC4EA" stroke="white" stroke-width="0.5" stroke-miterlimit="10"/>
        <path d="M241.823 279.45H251.906L251.552 286.172H241.293L241.823 279.45Z" fill="#9AC4EA" stroke="white" stroke-width="0.5" stroke-miterlimit="10"/>
        <path d="M256.947 279.45H267.03L266.941 286.172H256.682L256.947 279.45Z" fill="#9AC4EA" stroke="white" stroke-width="0.5" stroke-miterlimit="10"/>
        <path d="M272.071 279.45H282.154L282.331 286.172H272.071V279.45Z" fill="#9AC4EA" stroke="white" stroke-width="0.5" stroke-miterlimit="10"/>
        <path d="M287.196 279.45H297.278L297.721 286.172H287.461L287.196 279.45Z" fill="#9AC4EA" stroke="white" stroke-width="0.5" stroke-miterlimit="10"/>
        <path d="M302.32 279.45H312.447L313.11 286.172H302.85L302.32 279.45Z" fill="#9AC4EA" stroke="white" stroke-width="0.5" stroke-miterlimit="10"/>
        <path d="M317.488 279.45H327.57L328.543 286.172H318.284L317.488 279.45Z" fill="#9AC4EA" stroke="white" stroke-width="0.5" stroke-miterlimit="10"/>
        <path d="M332.611 279.45H342.693L343.931 286.172H333.672L332.611 279.45Z" fill="#9AC4EA" stroke="white" stroke-width="0.5" stroke-miterlimit="10"/>
        <path d="M347.736 279.45H357.819L359.323 286.172H349.063L347.736 279.45Z" fill="#9AC4EA" stroke="white" stroke-width="0.5" stroke-miterlimit="10"/>
        <path d="M362.86 279.45H372.943L374.712 286.172H364.452L362.86 279.45Z" fill="#9AC4EA" stroke="white" stroke-width="0.5" stroke-miterlimit="10"/>
        <path d="M401.465 373.466H143.12C139.184 373.466 136 370.282 136 366.347H408.585C408.585 370.282 405.401 373.466 401.465 373.466ZM304 336.762C303.735 335.17 302.32 333.976 300.728 333.976H272.337H243.902C242.266 333.976 240.895 335.17 240.63 336.762L237.092 358.21C236.738 360.244 238.33 362.101 240.364 362.101H272.293H304.221C306.299 362.101 307.847 360.244 307.493 358.21L304 336.762Z" fill="#D3D3D3"/>
        <path d="M205.429 152.002H182.301V154.39H205.429V152.002Z" fill="#F7F7F7"/>
        <path d="M228.602 169.824H211.93V172.212H228.602V169.824Z" fill="#F7F7F7"/>
        <path d="M242.266 169.824H231.21V172.212H242.266V169.824Z" fill="#F7F7F7"/>
        <path d="M193.621 214.665H182.566V217.053H193.621V214.665Z" fill="#F7F7F7"/>
        <path d="M271.231 169.824H244.477V172.212H271.231V169.824Z" fill="#F7F7F7"/>
        <path d="M199.768 205.688H182.566V208.076H199.768V205.688Z" fill="#F7F7F7"/>
        <path d="M217.015 223.553H206.534V225.941H217.015V223.553Z" fill="#F7F7F7"/>
        <path d="M203.35 223.553H182.566V225.941H203.35V223.553Z" fill="#F7F7F7"/>
        <path d="M194.019 232.486H182.566V234.874H194.019V232.486Z" fill="#F7F7F7"/>
        <path d="M226.346 152.002H209.94V154.39H226.346V152.002Z" fill="#F7F7F7"/>
        <path d="M226.346 178.756H209.94V181.144H226.346V178.756Z" fill="#F7F7F7"/>
        <path d="M208.746 187.645H201.715V190.033H208.746V187.645Z" fill="#F7F7F7"/>
        <path d="M210.47 196.711H194.727V199.099H210.47V196.711Z" fill="#F7F7F7"/>
        <path d="M234.615 196.711H212.858V199.099H234.615V196.711Z" fill="#F7F7F7"/>
        <path d="M198.972 187.733H182.566V190.121H198.972V187.733Z" fill="#F7F7F7"/>
        <path d="M192.295 196.711H182.566V199.099H192.295V196.711Z" fill="#F7F7F7"/>
        <path d="M221.26 187.733H212.062V190.121H221.26V187.733Z" fill="#F7F7F7"/>
        <path d="M192.073 241.375H182.875V243.763H192.073V241.375Z" fill="#F7F7F7"/>
        <path d="M198.928 169.824H182.522V172.212H198.928V169.824Z" fill="#F7F7F7"/>
        <path d="M213.433 214.665H197.026V217.053H213.433V214.665Z" fill="#F7F7F7"/>
        <path d="M213.655 232.486H197.249V234.874H213.655V232.486Z" fill="#F7F7F7"/>
        <path d="M242.797 232.486H226.39V234.874H242.797V232.486Z" fill="#F7F7F7"/>
        <path d="M205.915 178.756H182.522V181.144H205.915V178.756Z" fill="#F7F7F7"/>
        <path d="M308.555 152.002H292.148V154.39H308.555V152.002Z" fill="#F7F7F7"/>
        <path d="M250.093 241.375H233.687V243.763H250.093V241.375Z" fill="#F7F7F7"/>
        <path d="M324.608 152.002H313.641V154.39H324.608V152.002Z" fill="#F7F7F7"/>
        <path d="M361.798 160.935H350.831V163.323H361.798V160.935Z" fill="#F7F7F7"/>
        <path d="M251.684 152.002H230.767V154.39H251.684V152.002Z" fill="#F7F7F7"/>
        <path d="M333.142 160.935H312.225V163.323H333.142V160.935Z" fill="#F7F7F7"/>
        <path d="M307.493 169.824H286.576V172.212H307.493V169.824Z" fill="#F7F7F7"/>
        <path d="M280.297 178.756H259.38V181.144H280.297V178.756Z" fill="#F7F7F7"/>
        <path d="M324.961 169.824H310.103V172.212H324.961V169.824Z" fill="#F7F7F7"/>
        <path d="M288.035 152.002H267.118V154.39H288.035V152.002Z" fill="#F7F7F7"/>
        <path d="M255.532 178.756H243.283V181.144H255.532V178.756Z" fill="#F7F7F7"/>
        <path d="M245.936 214.797H233.687V217.185H245.936V214.797Z" fill="#F7F7F7"/>
        <path d="M263.183 152.002H255.533V154.39H263.183V152.002Z" fill="#F7F7F7"/>
        <path d="M238.418 178.756H230.767V181.144H238.418V178.756Z" fill="#F7F7F7"/>
        <path d="M345.834 160.935H338.184V163.323H345.834V160.935Z" fill="#F7F7F7"/>
        <path d="M194.285 160.935H182.301V163.323H194.285V160.935Z" fill="#F7F7F7"/>
        <path d="M223.737 205.732H214.274V208.12H223.737V205.732Z" fill="#F7F7F7"/>
        <path d="M201.096 160.935H197.249V163.323H201.096V160.935Z" fill="#F7F7F7"/>
        <path d="M308.555 160.935H276.582V163.323H308.555V160.935Z" fill="#F7F7F7"/>
        <path d="M277.909 232.486H245.936V234.874H277.909V232.486Z" fill="#F7F7F7"/>
        <path d="M207.861 160.935H203.926V163.323H207.861V160.935Z" fill="#F7F7F7"/>
        <path d="M273.619 160.935H263.183V163.323H273.619V160.935Z" fill="#F7F7F7"/>
        <path d="M284.1 169.824H273.664V172.212H284.1V169.824Z" fill="#F7F7F7"/>
        <path d="M230.326 241.375H219.889V243.763H230.326V241.375Z" fill="#F7F7F7"/>
        <path d="M260.441 160.935H238.197V163.323H260.441V160.935Z" fill="#F7F7F7"/>
        <path d="M230.459 214.797H217.458V217.185H230.459V214.797Z" fill="#F7F7F7"/>
        <path d="M223.162 232.486H216.661V234.874H223.162V232.486Z" fill="#F7F7F7"/>
        <path d="M235.013 160.935H227.363V163.323H235.013V160.935Z" fill="#F7F7F7"/>
        <path d="M209.277 169.824H201.626V172.212H209.277V169.824Z" fill="#F7F7F7"/>
        <path d="M210.779 205.732H203.129V208.12H210.779V205.732Z" fill="#F7F7F7"/>
        <path d="M224.489 160.935H211.134V163.323H224.489V160.935Z" fill="#F7F7F7"/>
        <g clip-path="url(#clip0_2_6977)">
            <path d="M449.525 203.349C449.525 203.349 449.525 203.005 449.495 203.137C449.174 204.557 448.13 212.477 447.437 213.84C446.682 215.329 448.753 212.328 448.753 212.328L449.525 203.349ZM438.696 183.783C438.696 183.783 439.69 205.164 441.33 210.255C443.405 216.729 446.405 204.718 446.304 201.161C446.199 197.518 443.867 189.032 438.696 183.783Z" fill="#E9EDFB"/>
            <path d="M442.933 212.06C442.933 212.06 442.938 211.695 442.906 211.835C442.559 213.349 441.366 221.765 440.654 223.221C439.869 224.813 442 221.594 442 221.594L442.933 212.06ZM432.338 192.35C432.338 192.35 433.333 213.731 434.969 218.821C437.046 225.298 440.044 213.284 439.943 209.729C439.841 206.085 437.509 197.602 432.338 192.35Z" fill="#E9EDFB"/>
            <path d="M436.572 220.64C436.572 220.64 436.575 220.274 436.543 220.414C436.197 221.926 434.933 230.605 434.216 232.068C433.43 233.661 435.81 230.156 435.81 230.156L436.572 220.64ZM423.65 198.971C423.65 198.971 426.488 221.619 428.12 226.706C430.194 233.182 433.036 219.407 432.936 215.85C432.833 212.208 428.822 204.22 423.65 198.971Z" fill="#E9EDFB"/>
            <path d="M429.348 228.321C429.348 228.321 429.332 228.118 429.293 228.286C428.859 230.102 427.531 240.486 426.721 242.254C425.838 244.19 428.652 240.015 428.652 240.015L429.348 228.321ZM412.537 207.197C412.537 207.197 413.937 215.47 416.598 222.822C418.384 227.773 421.402 232.079 422.454 234.005C425.776 240.103 425.244 226.352 424.435 222.839C423.601 219.247 418.632 211.584 412.537 207.197Z" fill="#E9EDFB"/>
            <path d="M424.045 235.348C424.045 235.348 424.029 235.145 423.989 235.313C423.556 237.132 422.095 248.344 421.199 250.078C420.988 250.488 423.412 247.149 423.412 247.149L424.045 235.348ZM405.909 216.315C405.909 216.315 407.474 225.624 410.409 233.908C412.382 239.469 415.695 244.334 416.841 246.498C420.492 253.363 419.849 237.897 418.95 233.943C418.035 229.894 412.58 221.259 405.909 216.315ZM393.138 230.885C393.138 230.885 400.47 238.329 405.325 244.79C411.023 252.372 412.129 253.356 414.088 254.627C420.295 258.647 413.779 242.188 411.236 239.366C408.632 236.473 401.077 232.09 393.138 230.885Z" fill="#E9EDFB"/>
            <path d="M424.793 251.51C424.793 251.51 425.228 251.233 425.154 251.291C424.377 251.922 420.28 254.383 419.697 255.23C419.56 255.428 420.683 253.736 420.683 253.736L424.793 251.51ZM420.215 256.694C420.215 256.694 420.463 256.584 420.427 256.614C420.02 256.91 417.638 257.801 417.454 258.302C417.421 258.425 417.775 257.415 417.775 257.415L420.215 256.694Z" fill="#E9EDFB"/>
            <path d="M341.911 230.421C341.911 230.421 342.029 230.254 341.979 230.419C341.446 232.208 337.356 241.849 337.181 243.79C336.99 245.911 336.586 240.874 336.586 240.874L341.911 230.421ZM367.795 220.737C367.795 220.737 362.323 227.168 356.183 232.162C352.059 235.53 347.134 237.707 345.222 238.839C339.127 242.413 346.606 230.809 349.124 228.188C351.702 225.51 360.075 221.422 367.795 220.737Z" fill="#E9EDFB"/>
            <path d="M343.108 239.189C343.108 239.189 343.223 239.021 343.173 239.187C342.64 240.978 338.247 251.405 338.169 253.358C338.151 253.82 337.667 249.701 337.667 249.701L343.108 239.189ZM369.119 231.977C369.119 231.977 362.976 239.221 356.112 244.879C351.509 248.677 346.05 251.193 343.91 252.475C337.127 256.545 345.58 243.516 348.403 240.56C351.29 237.543 360.595 232.863 369.119 231.977ZM373.193 251.069C373.193 251.069 362.808 253.765 355.145 256.872C346.159 260.52 344.664 260.807 342.253 260.907C334.607 261.215 348.868 250.324 352.59 249.179C356.406 248.007 365.433 248.067 373.193 251.069Z" fill="#E9EDFB"/>
            <path d="M334.206 252.766C334.145 252.639 334.077 252.515 334.003 252.396C334.384 253.336 336.825 257.549 336.912 258.573C336.933 258.816 336.783 256.783 336.783 256.783L334.206 252.766ZM335.686 259.57C335.686 259.57 335.518 259.351 335.538 259.393C335.752 259.858 337.44 261.84 337.367 262.371C337.348 262.497 337.53 261.442 337.53 261.442L335.686 259.57Z" fill="#E9EDFB"/>
            <path d="M430.692 259.347C430.692 259.347 430.692 259.188 430.649 259.316C430.186 260.71 428.438 268.759 427.684 270.092C426.862 271.549 429.349 268.467 429.349 268.467L430.692 259.347ZM418.948 241.647C418.948 241.647 419.483 248.22 421.066 254.179C422.131 258.174 424.206 261.763 424.897 263.343C427.089 268.348 427.606 257.533 427.204 254.736C426.802 251.844 423.428 245.5 418.948 241.647Z" fill="#FFBE55"/>
            <path d="M426.053 264.497C426.053 264.497 426.056 264.339 426.013 264.467C425.55 265.861 423.642 274.552 422.823 275.851C422.628 276.159 424.757 273.705 424.757 273.705L426.053 264.497ZM413.129 248.348C413.129 248.348 413.723 255.751 415.461 262.445C416.624 266.95 418.897 270.975 419.653 272.751C422.05 278.381 422.598 266.213 422.16 263.052C421.714 259.812 418.022 252.679 413.129 248.348ZM402.125 258.905C402.125 258.905 407.366 265.235 410.736 270.63C414.688 276.959 415.486 277.807 416.938 278.934C421.53 282.507 417.539 269.163 415.738 266.776C413.894 264.334 408.27 260.386 402.125 258.905Z" fill="#FFBE55"/>
            <path d="M425.542 277.217C425.639 277.163 425.739 277.114 425.841 277.071C425.186 277.518 421.81 279.163 421.295 279.788C421.174 279.935 422.17 278.684 422.17 278.684L425.542 277.217ZM421.594 280.981C421.594 280.981 421.797 280.915 421.766 280.935C421.431 281.142 419.5 281.678 419.309 282.055C419.266 282.144 419.621 281.381 419.621 281.381L421.594 280.981Z" fill="#FFBE55"/>
            <path d="M447.039 147.732L380.729 129.964C373.015 127.897 365.089 132.462 363.026 140.16L327.06 274.389C324.997 282.087 329.579 290.003 337.293 292.07L403.603 309.838C411.317 311.905 419.243 307.34 421.306 299.642L457.273 165.413C459.335 157.715 454.754 149.799 447.039 147.732Z" fill="#D3D3D3"/>
            <path d="M445.68 154.152L378.445 136.137C373.334 134.767 368.082 137.792 366.715 142.892L331.178 275.517C329.811 280.618 332.847 285.863 337.959 287.233L405.194 305.249C410.306 306.618 415.558 303.594 416.924 298.493L452.461 165.868C453.828 160.767 450.792 155.522 445.68 154.152Z" fill="white"/>
            <path d="M431.927 146.755L392.5 136.191C390.385 135.624 388.212 136.875 387.647 138.986L387.646 138.988C387.081 141.098 388.337 143.269 390.452 143.835L429.878 154.4C431.993 154.966 434.166 153.715 434.731 151.605L434.732 151.602C435.298 149.492 434.042 147.322 431.927 146.755Z" fill="#FFBE55"/>
            <path d="M421.287 144.611L403.35 139.805C402.548 139.59 401.723 140.065 401.509 140.866L401.508 140.868C401.293 141.669 401.77 142.493 402.573 142.708L420.509 147.514C421.311 147.729 422.136 147.254 422.351 146.453L422.351 146.45C422.566 145.65 422.089 144.826 421.287 144.611Z" fill="white"/>
            <path d="M439.945 173.381L375.34 156.07C373.23 155.505 371.064 156.752 370.5 158.857L366.759 172.816C366.195 174.921 367.448 177.085 369.557 177.65L434.163 194.961C436.272 195.526 438.439 194.278 439.003 192.174L442.743 178.215C443.307 176.11 442.054 173.946 439.945 173.381Z" fill="#FFBE55" fill-opacity="0.15"/>
            <path d="M377.598 176.405C381.897 177.557 386.313 175.013 387.463 170.723C388.612 166.434 386.059 162.022 381.76 160.87C377.461 159.718 373.044 162.262 371.895 166.552C370.745 170.842 373.299 175.253 377.598 176.405Z" fill="#FFBE55"/>
            <path d="M435.362 175.963L395.049 165.161C394.137 164.916 393.2 165.456 392.956 166.367C392.712 167.277 393.254 168.213 394.166 168.458L434.479 179.259C435.391 179.504 436.329 178.964 436.573 178.054C436.816 177.143 436.275 176.207 435.362 175.963Z" fill="#FFBE55"/>
            <path d="M424.642 178.961L393.582 170.638C392.669 170.394 391.732 170.934 391.488 171.844C391.244 172.755 391.786 173.691 392.698 173.935L423.758 182.258C424.671 182.502 425.608 181.962 425.852 181.052C426.096 180.142 425.554 179.205 424.642 178.961Z" fill="#FFBE55"/>
            <path d="M399.261 178.674L391.953 176.716C391.041 176.471 390.104 177.011 389.86 177.921C389.616 178.832 390.157 179.768 391.07 180.012L398.378 181.971C399.29 182.215 400.228 181.675 400.472 180.765C400.716 179.854 400.174 178.918 399.261 178.674Z" fill="#FFBE55"/>
            <path d="M425.027 229.055L360.422 211.744C358.313 211.179 356.146 212.427 355.582 214.532L351.841 228.491C351.277 230.595 352.53 232.76 354.639 233.325L419.245 250.636C421.354 251.201 423.521 249.953 424.085 247.848L427.825 233.889C428.389 231.785 427.136 229.621 425.027 229.055Z" fill="#FFBE55" fill-opacity="0.15"/>
            <path d="M362.679 232.08C366.978 233.232 371.395 230.688 372.545 226.399C373.694 222.109 371.141 217.698 366.842 216.546C362.543 215.394 358.126 217.937 356.977 222.227C355.827 226.517 358.38 230.928 362.679 232.08Z" fill="#FFBE55"/>
            <path d="M420.443 231.64L380.13 220.839C379.218 220.594 378.281 221.134 378.037 222.044C377.793 222.955 378.335 223.891 379.247 224.135L419.56 234.937C420.472 235.182 421.41 234.642 421.654 233.731C421.898 232.821 421.356 231.885 420.443 231.64Z" fill="#FFBE55"/>
            <path d="M409.723 234.638L378.663 226.316C377.751 226.071 376.813 226.611 376.569 227.521C376.325 228.432 376.867 229.368 377.78 229.612L408.84 237.935C409.752 238.179 410.689 237.64 410.933 236.729C411.177 235.819 410.635 234.883 409.723 234.638Z" fill="#FFBE55"/>
            <path d="M384.343 234.351L377.035 232.393C376.122 232.148 375.185 232.688 374.941 233.599C374.697 234.509 375.239 235.445 376.151 235.69L383.459 237.648C384.372 237.892 385.309 237.352 385.553 236.442C385.797 235.532 385.255 234.596 384.343 234.351Z" fill="#FFBE55"/>
            <path d="M417.952 255.461L353.346 238.15C351.237 237.585 349.07 238.833 348.506 240.938L344.766 254.897C344.202 257.001 345.455 259.165 347.564 259.731L412.169 277.042C414.278 277.607 416.445 276.359 417.009 274.254L420.75 260.295C421.313 258.191 420.061 256.026 417.952 255.461Z" fill="#FFBE55" fill-opacity="0.15"/>
            <path d="M355.605 258.483C359.904 259.635 364.321 257.091 365.47 252.801C366.619 248.512 364.066 244.1 359.767 242.948C355.468 241.797 351.052 244.34 349.902 248.63C348.753 252.92 351.306 257.331 355.605 258.483Z" fill="#FFBE55"/>
            <path d="M413.369 258.043L373.056 247.241C372.144 246.997 371.206 247.537 370.962 248.447C370.718 249.358 371.26 250.294 372.173 250.538L412.486 261.34C413.398 261.585 414.335 261.045 414.579 260.134C414.823 259.224 414.281 258.288 413.369 258.043Z" fill="#FFBE55"/>
            <path d="M402.648 261.041L371.588 252.719C370.676 252.475 369.739 253.014 369.495 253.925C369.251 254.835 369.793 255.771 370.705 256.016L401.765 264.338C402.677 264.583 403.615 264.043 403.858 263.133C404.102 262.222 403.561 261.286 402.648 261.041Z" fill="#FFBE55"/>
            <path d="M377.268 260.754L369.96 258.796C369.047 258.551 368.11 259.091 367.866 260.001C367.622 260.912 368.164 261.848 369.076 262.092L376.385 264.051C377.297 264.295 378.234 263.755 378.478 262.845C378.722 261.935 378.18 260.998 377.268 260.754Z" fill="#FFBE55"/>
            <path d="M412.859 194.245L348.253 176.934C346.144 176.369 343.977 177.617 343.414 179.722L339.673 193.681C339.109 195.785 340.362 197.95 342.471 198.515L407.077 215.826C409.186 216.391 411.353 215.143 411.916 213.038L415.657 199.079C416.221 196.975 414.968 194.811 412.859 194.245Z" fill="#FFBE55"/>
            <path d="M350.511 197.27C354.81 198.422 359.227 195.878 360.376 191.588C361.525 187.298 358.972 182.887 354.673 181.735C350.374 180.583 345.958 183.127 344.808 187.417C343.659 191.706 346.212 196.118 350.511 197.27Z" fill="white"/>
            <path d="M408.276 196.827L367.963 186.026C367.05 185.781 366.113 186.321 365.869 187.231C365.625 188.142 366.167 189.078 367.079 189.322L407.392 200.124C408.305 200.369 409.242 199.829 409.486 198.918C409.73 198.008 409.188 197.072 408.276 196.827Z" fill="white"/>
            <path d="M397.555 199.825L366.495 191.503C365.583 191.258 364.646 191.798 364.402 192.708C364.158 193.619 364.699 194.555 365.612 194.799L396.672 203.122C397.584 203.366 398.521 202.827 398.765 201.916C399.009 201.006 398.468 200.07 397.555 199.825Z" fill="white"/>
            <path d="M372.175 199.538L364.867 197.58C363.954 197.335 363.017 197.875 362.773 198.786C362.529 199.696 363.071 200.632 363.983 200.877L371.292 202.835C372.204 203.079 373.141 202.539 373.385 201.629C373.629 200.719 373.087 199.783 372.175 199.538Z" fill="white"/>
        </g>
    </g>
    <defs>
        <clipPath id="clip0_2_6977">
            <rect width="106.076" height="167.954" fill="white" transform="translate(358.47 124) rotate(15)"/>
        </clipPath>
    </defs>
</svg>
