<svg width="564" height="431" viewBox="0 0 564 431" fill="none" xmlns="http://www.w3.org/2000/svg">
    <path fill-rule="evenodd" clip-rule="evenodd" d="M399.483 -109.714C392.308 -113.856 383.135 -111.398 378.992 -104.224L300.088 32.4424L268.368 14.1288C261.194 9.98669 252.02 12.4448 247.878 19.6192L164.271 164.43L111.876 134.179C104.702 130.037 95.5281 132.495 91.3859 139.67L2.43033 293.745C-1.7118 300.92 0.746335 310.094 7.92072 314.236L60.3157 344.486L50.6748 361.185C46.5327 368.359 48.9908 377.533 56.1652 381.675L94.5588 403.842L85.7623 419.078C81.6202 426.252 84.0783 435.426 91.2527 439.568L191.017 497.167C198.191 501.309 207.365 498.851 211.507 491.677L227.291 464.338L285.805 498.121C292.98 502.264 302.154 499.805 306.296 492.631L352.488 412.623L361.026 417.552C368.2 421.694 377.374 419.236 381.516 412.062L497.072 211.914C501.214 204.739 498.756 195.565 491.582 191.423L483.044 186.494L505.333 147.889C509.475 140.715 507.017 131.541 499.842 127.399L490.765 122.158L560.848 0.770653C564.99 -6.40373 562.532 -15.5776 555.358 -19.7197L399.483 -109.714ZM531.835 174.039C533.34 171.433 536.671 170.541 539.276 172.045C541.881 173.549 542.774 176.88 541.27 179.485L502.996 245.776C501.492 248.381 498.161 249.274 495.556 247.77C492.951 246.266 492.058 242.935 493.562 240.329L531.835 174.039ZM216.69 42.0262C214.085 40.5221 210.754 41.4147 209.25 44.0199L185.204 85.6689C183.7 88.2741 184.592 91.6053 187.198 93.1093C189.803 94.6134 193.134 93.7208 194.638 91.1157L218.684 49.4666C220.188 46.8615 219.296 43.5303 216.69 42.0262ZM529.885 128.977C531.374 126.397 534.673 125.513 537.253 127.003C539.833 128.493 540.717 131.791 539.228 134.371L513.558 178.833C512.068 181.413 508.769 182.297 506.189 180.807C503.609 179.317 502.726 176.019 504.215 173.439L529.885 128.977ZM200.653 11.5698C198.073 10.0803 194.774 10.9642 193.285 13.5441L177.142 41.5045C175.652 44.0844 176.536 47.3834 179.116 48.8729C181.696 50.3624 184.995 49.4785 186.485 46.8985L202.627 18.9382C204.117 16.3583 203.233 13.0593 200.653 11.5698ZM218.28 6.81238C219.769 4.23244 223.068 3.34848 225.648 4.83801C228.228 6.32754 229.112 9.62649 227.623 12.2064L222.387 21.2739C220.898 23.8539 217.599 24.7378 215.019 23.2483C212.439 21.7588 211.555 18.4598 213.045 15.8799L218.28 6.81238ZM78.8014 222.5C76.2215 221.01 72.9225 221.894 71.433 224.474L33.5303 290.123C32.0407 292.703 32.9247 296.002 35.5046 297.492C38.0846 298.981 41.3835 298.097 42.873 295.517L80.7758 229.868C82.2653 227.288 81.3813 223.989 78.8014 222.5ZM66.8618 205.242C67.9429 203.369 70.3374 202.728 72.2099 203.809C74.0825 204.89 74.7241 207.284 73.6429 209.157L59.7672 233.19C58.6861 235.063 56.2917 235.704 54.4191 234.623C52.5466 233.542 51.905 231.148 52.9861 229.275L66.8618 205.242Z" fill="#F8F8FB"/>
    <mask id="mask0_2_6391" style="mask-type:alpha" maskUnits="userSpaceOnUse" x="0" y="-113" width="564" height="614">
        <path fill-rule="evenodd" clip-rule="evenodd" d="M399.857 -110.363C392.683 -114.505 383.509 -112.047 379.367 -104.873L300.088 32.4423L268.368 14.1288C261.194 9.98671 252.02 12.4448 247.878 19.6192L164.271 164.43L111.876 134.179C104.702 130.037 95.5281 132.495 91.3859 139.67L2.43033 293.745C-1.7118 300.92 0.746335 310.094 7.92072 314.236L60.3158 344.486L50.6748 361.185C46.5327 368.359 48.9908 377.533 56.1652 381.675L94.5588 403.842L85.7623 419.078C81.6202 426.252 84.0783 435.426 91.2527 439.568L191.017 497.167C198.191 501.309 207.365 498.851 211.507 491.676L227.291 464.338L285.805 498.121C292.98 502.263 302.154 499.805 306.296 492.631L340.579 433.251L349.117 438.18C356.291 442.322 365.465 439.864 369.607 432.689L497.072 211.914C501.214 204.739 498.756 195.565 491.582 191.423L483.044 186.494L505.333 147.889C509.475 140.715 507.017 131.541 499.842 127.399L490.765 122.158L561.222 0.121979C565.365 -7.05241 562.906 -16.2263 555.732 -20.3684L399.857 -110.363ZM531.835 174.038C533.34 171.433 536.671 170.541 539.276 172.045C541.881 173.549 542.774 176.88 541.27 179.485L502.996 245.776C501.492 248.381 498.161 249.274 495.556 247.77C492.951 246.266 492.058 242.934 493.562 240.329L531.835 174.038ZM216.69 42.0261C214.085 40.522 210.754 41.4146 209.25 44.0198L185.204 85.6688C183.7 88.274 184.592 91.6052 187.198 93.1093C189.803 94.6133 193.134 93.7207 194.638 91.1156L218.684 49.4665C220.188 46.8614 219.296 43.5302 216.69 42.0261ZM529.885 128.977C531.374 126.397 534.673 125.513 537.253 127.003C539.833 128.492 540.717 131.791 539.228 134.371L513.558 178.833C512.068 181.412 508.769 182.296 506.189 180.807C503.609 179.317 502.726 176.018 504.215 173.439L529.885 128.977ZM200.653 11.5698C198.073 10.0803 194.774 10.9642 193.285 13.5442L177.142 41.5045C175.652 44.0844 176.536 47.3834 179.116 48.8729C181.696 50.3624 184.995 49.4785 186.485 46.8986L202.627 18.9382C204.117 16.3583 203.233 13.0593 200.653 11.5698ZM218.28 6.81237C219.769 4.23243 223.068 3.34847 225.648 4.83801C228.228 6.32753 229.112 9.62648 227.623 12.2064L222.387 21.2739C220.898 23.8539 217.599 24.7378 215.019 23.2483C212.439 21.7588 211.555 18.4598 213.045 15.8799L218.28 6.81237ZM78.8014 222.499C76.2215 221.01 72.9225 221.894 71.433 224.474L33.5303 290.123C32.0407 292.703 32.9247 296.002 35.5046 297.492C38.0846 298.981 41.3835 298.097 42.873 295.517L80.7758 229.868C82.2653 227.288 81.3813 223.989 78.8014 222.499ZM66.8618 205.242C67.9429 203.369 70.3374 202.727 72.2099 203.809C74.0825 204.89 74.7241 207.284 73.6429 209.157L59.7672 233.19C58.6861 235.063 56.2917 235.704 54.4191 234.623C52.5466 233.542 51.905 231.148 52.9861 229.275L66.8618 205.242Z" fill="white"/>
    </mask>
    <g mask="url(#mask0_2_6391)">
        <path d="M494.572 415.859C492.218 436.096 429.341 441.57 353.672 432.724C277.94 423.877 213.217 445.834 215.572 425.532C217.927 405.231 282.458 385.311 358.191 394.157C433.923 403.003 496.927 395.621 494.572 415.859Z" fill="#CCE9FF"/>
        <path d="M237.019 174.829H216.972V254.762H237.019V174.829Z" fill="#F7F7F7"/>
        <path d="M233.71 169.101H220.218V202.703H233.71V169.101Z" fill="#F7F7F7"/>
        <path d="M230.719 165.474H223.209V184.12H230.719V165.474Z" fill="#F7F7F7"/>
        <path d="M229.51 175.084H224.418V162.355H226.264H228.11H229.51V175.084Z" fill="#F7F7F7"/>
        <path d="M226.646 169.547H226.073V156.819H226.264H226.518H226.646V169.547Z" fill="#F7F7F7"/>
        <path d="M227.855 165.155H227.346V152.427H227.537H227.728H227.855V165.155Z" fill="#F7F7F7"/>
        <path d="M237.528 174.638H216.4V175.466H237.528V174.638Z" fill="#F7F7F7"/>
        <path d="M234.219 168.72H219.709V169.547H234.219V168.72Z" fill="#F7F7F7"/>
        <path d="M231.037 165.156H222.7V165.792H231.037V165.156Z" fill="#F7F7F7"/>
        <path opacity="0.29" d="M222.127 170.502H221.491V174.002H222.127V170.502Z" fill="#F7F7F7"/>
        <path opacity="0.29" d="M223.846 170.502H223.209V174.002H223.846V170.502Z" fill="#F7F7F7"/>
        <path opacity="0.29" d="M225.564 170.502H224.927V174.002H225.564V170.502Z" fill="#F7F7F7"/>
        <path opacity="0.29" d="M227.346 170.502H226.709V174.002H227.346V170.502Z" fill="#F7F7F7"/>
        <path opacity="0.29" d="M229.064 170.502H228.427V174.002H229.064V170.502Z" fill="#F7F7F7"/>
        <path opacity="0.29" d="M230.782 170.502H230.146V174.002H230.782V170.502Z" fill="#F7F7F7"/>
        <path opacity="0.29" d="M232.564 170.502H231.928V174.002H232.564V170.502Z" fill="#F7F7F7"/>
        <path d="M220.218 178.075H218.691V182.275H220.218V178.075Z" fill="#F7F7F7"/>
        <path opacity="0.29" d="M223.209 178.075H221.682V182.275H223.209V178.075Z" fill="#F7F7F7"/>
        <path d="M226.264 178.075H224.737V182.275H226.264V178.075Z" fill="#F7F7F7"/>
        <path d="M229.255 178.075H227.728V182.275H229.255V178.075Z" fill="#F7F7F7"/>
        <path d="M232.246 178.075H230.719V182.275H232.246V178.075Z" fill="#F7F7F7"/>
        <path d="M235.237 178.075H233.71V182.275H235.237V178.075Z" fill="#F7F7F7"/>
        <path d="M220.218 184.566H218.691V188.766H220.218V184.566Z" fill="#F7F7F7"/>
        <path d="M223.209 184.566H221.682V188.766H223.209V184.566Z" fill="#F7F7F7"/>
        <path d="M226.264 184.566H224.737V188.766H226.264V184.566Z" fill="#F7F7F7"/>
        <path opacity="0.29" d="M229.255 184.566H227.728V188.766H229.255V184.566Z" fill="#F7F7F7"/>
        <path d="M232.246 184.566H230.719V188.766H232.246V184.566Z" fill="#F7F7F7"/>
        <path d="M235.237 184.566H233.71V188.766H235.237V184.566Z" fill="#F7F7F7"/>
        <path d="M220.218 191.057H218.691V195.257H220.218V191.057Z" fill="#F7F7F7"/>
        <path d="M223.209 191.057H221.682V195.257H223.209V191.057Z" fill="#F7F7F7"/>
        <path d="M226.264 191.057H224.737V195.257H226.264V191.057Z" fill="#F7F7F7"/>
        <path d="M229.255 191.057H227.728V195.257H229.255V191.057Z" fill="#F7F7F7"/>
        <path opacity="0.29" d="M232.246 191.057H230.719V195.257H232.246V191.057Z" fill="#F7F7F7"/>
        <path opacity="0.29" d="M235.237 191.057H233.71V195.257H235.237V191.057Z" fill="#F7F7F7"/>
        <path opacity="0.29" d="M220.218 197.549H218.691V201.749H220.218V197.549Z" fill="#F7F7F7"/>
        <path d="M223.209 197.549H221.682V201.749H223.209V197.549Z" fill="#F7F7F7"/>
        <path d="M226.264 197.549H224.737V201.749H226.264V197.549Z" fill="#F7F7F7"/>
        <path d="M229.255 197.549H227.728V201.749H229.255V197.549Z" fill="#F7F7F7"/>
        <path d="M232.246 197.549H230.719V201.749H232.246V197.549Z" fill="#F7F7F7"/>
        <path d="M235.237 197.549H233.71V201.749H235.237V197.549Z" fill="#F7F7F7"/>
        <path d="M220.218 204.04H218.691V208.24H220.218V204.04Z" fill="#F7F7F7"/>
        <path opacity="0.29" d="M223.209 204.04H221.682V208.24H223.209V204.04Z" fill="#F7F7F7"/>
        <path d="M226.264 204.04H224.737V208.24H226.264V204.04Z" fill="#F7F7F7"/>
        <path opacity="0.29" d="M229.255 204.04H227.728V208.24H229.255V204.04Z" fill="#F7F7F7"/>
        <path d="M232.246 204.04H230.719V208.24H232.246V204.04Z" fill="#F7F7F7"/>
        <path d="M235.237 204.04H233.71V208.24H235.237V204.04Z" fill="#F7F7F7"/>
        <path d="M220.218 210.595H218.691V214.795H220.218V210.595Z" fill="#F7F7F7"/>
        <path d="M223.209 210.595H221.682V214.795H223.209V210.595Z" fill="#F7F7F7"/>
        <path d="M226.264 210.595H224.737V214.795H226.264V210.595Z" fill="#F7F7F7"/>
        <path d="M229.255 210.595H227.728V214.795H229.255V210.595Z" fill="#F7F7F7"/>
        <path d="M232.246 210.595H230.719V214.795H232.246V210.595Z" fill="#F7F7F7"/>
        <path opacity="0.29" d="M235.237 210.595H233.71V214.795H235.237V210.595Z" fill="#F7F7F7"/>
        <path d="M220.218 217.086H218.691V221.287H220.218V217.086Z" fill="#F7F7F7"/>
        <path opacity="0.29" d="M223.209 217.086H221.682V221.287H223.209V217.086Z" fill="#F7F7F7"/>
        <path opacity="0.29" d="M226.264 217.086H224.737V221.287H226.264V217.086Z" fill="#F7F7F7"/>
        <path d="M229.255 217.086H227.728V221.287H229.255V217.086Z" fill="#F7F7F7"/>
        <path d="M232.246 217.086H230.719V221.287H232.246V217.086Z" fill="#F7F7F7"/>
        <path d="M235.237 217.086H233.71V221.287H235.237V217.086Z" fill="#F7F7F7"/>
        <path d="M220.218 223.578H218.691V227.778H220.218V223.578Z" fill="#F7F7F7"/>
        <path d="M223.209 223.578H221.682V227.778H223.209V223.578Z" fill="#F7F7F7"/>
        <path d="M226.264 223.578H224.737V227.778H226.264V223.578Z" fill="#F7F7F7"/>
        <path d="M229.255 223.578H227.728V227.778H229.255V223.578Z" fill="#F7F7F7"/>
        <path opacity="0.29" d="M232.246 223.578H230.719V227.778H232.246V223.578Z" fill="#F7F7F7"/>
        <path d="M235.237 223.578H233.71V227.778H235.237V223.578Z" fill="#F7F7F7"/>
        <path d="M220.218 230.069H218.691V234.269H220.218V230.069Z" fill="#F7F7F7"/>
        <path opacity="0.29" d="M223.209 230.069H221.682V234.269H223.209V230.069Z" fill="#F7F7F7"/>
        <path d="M226.264 230.069H224.737V234.269H226.264V230.069Z" fill="#F7F7F7"/>
        <path d="M229.255 230.069H227.728V234.269H229.255V230.069Z" fill="#F7F7F7"/>
        <path d="M232.246 230.069H230.719V234.269H232.246V230.069Z" fill="#F7F7F7"/>
        <path d="M235.237 230.069H233.71V234.269H235.237V230.069Z" fill="#F7F7F7"/>
        <path d="M220.218 236.624H218.691V240.824H220.218V236.624Z" fill="#F7F7F7"/>
        <path d="M223.209 236.624H221.682V240.824H223.209V236.624Z" fill="#F7F7F7"/>
        <path d="M226.264 236.624H224.737V240.824H226.264V236.624Z" fill="#F7F7F7"/>
        <path opacity="0.29" d="M229.255 236.624H227.728V240.824H229.255V236.624Z" fill="#F7F7F7"/>
        <path d="M232.246 236.624H230.719V240.824H232.246V236.624Z" fill="#F7F7F7"/>
        <path opacity="0.29" d="M235.237 236.624H233.71V240.824H235.237V236.624Z" fill="#F7F7F7"/>
        <path opacity="0.29" d="M220.218 243.115H218.691V247.316H220.218V243.115Z" fill="#F7F7F7"/>
        <path d="M223.209 243.115H221.682V247.316H223.209V243.115Z" fill="#F7F7F7"/>
        <path opacity="0.29" d="M226.264 243.115H224.737V247.316H226.264V243.115Z" fill="#F7F7F7"/>
        <path d="M229.255 243.115H227.728V247.316H229.255V243.115Z" fill="#F7F7F7"/>
        <path d="M232.246 243.115H230.719V247.316H232.246V243.115Z" fill="#F7F7F7"/>
        <path d="M235.237 243.115H233.71V247.316H235.237V243.115Z" fill="#F7F7F7"/>
        <path d="M190.943 177.884H158.677V245.216H190.943V177.884Z" fill="#F7F7F7"/>
        <path d="M191.834 176.738H157.723V178.647H191.834V176.738Z" fill="#F7F7F7"/>
        <path d="M189.862 174.32H159.76V183.357H189.862V174.32Z" fill="#F7F7F7"/>
        <path d="M173.951 170.628H162.051V180.493H173.951V170.628Z" fill="#F7F7F7"/>
        <path d="M168.924 173.365H162.051V168.21H166.951L168.924 173.365Z" fill="#F7F7F7"/>
        <path d="M165.487 163.883H164.787V175.465H165.487V163.883Z" fill="#F7F7F7"/>
        <path d="M165.169 163.819C165.485 163.819 165.742 163.562 165.742 163.246C165.742 162.93 165.485 162.673 165.169 162.673C164.853 162.673 164.596 162.93 164.596 163.246C164.596 163.562 164.853 163.819 165.169 163.819Z" fill="#F7F7F7"/>
        <path d="M458.106 250.307H422.786L418.395 151.346L458.106 159.619V250.307Z" fill="#F7F7F7"/>
        <path d="M304.033 193.794V160.701H298.496V151.855H296.523V138.872H285.577V129.326H284.622V138.872H282.522V126.908H281.504V138.872H274.631V160.701H271.067V193.794H268.012V254.062H306.197V193.794H304.033Z" fill="#F7F7F7"/>
        <path d="M361.946 256.671H343.299L350.554 219.25H361.946V256.671Z" fill="#8CAAA7"/>
        <path d="M541.539 258.134H98.4099V287.154H541.539V258.134Z" fill="#CCE9FF"/>
        <path d="M346.672 187.43V170.82H340.626V164.519H337.444V159.237H336.298V150.137H336.044V159.237H334.898V164.519H331.716V170.82H325.734V187.43H324.525V217.532H315.233V251.834H324.525H333.753H347.817V187.43H346.672Z" fill="#CCE9FF"/>
        <path d="M381.165 206.458H352.082V207.031H353.418V256.098H379.829V207.031H381.165V206.458Z" fill="#CCE9FF"/>
        <path d="M248.729 218.741H222.954V259.662H248.729V218.741Z" fill="#CCE9FF"/>
        <path d="M219.073 239.679H174.779V259.598H219.073V239.679Z" fill="#CCE9FF"/>
        <path d="M208.254 195.13H198.517V244.134H208.254V195.13Z" fill="#CCE9FF"/>
        <path d="M201.189 182.02H200.68V208.685H201.189V182.02Z" fill="#CCE9FF"/>
        <path d="M202.844 184.057H202.335V210.722H202.844V184.057Z" fill="#CCE9FF"/>
        <path d="M205.199 192.076H199.28V198.631H205.199V192.076Z" fill="#CCE9FF"/>
        <path d="M234.283 226.06H217.354V259.662H234.283V226.06Z" fill="#CCE9FF"/>
        <path d="M284.622 190.484H252.865V259.598H284.622V190.484Z" fill="#CCE9FF"/>
        <path d="M281.504 188.13H255.984V199.649H281.504V188.13Z" fill="#CCE9FF"/>
        <path d="M287.041 191.948H250.384V192.776H287.041V191.948Z" fill="#CCE9FF"/>
        <path d="M262.093 224.723H247.138V259.662H262.093V224.723Z" fill="#CCE9FF"/>
        <path d="M157.087 223.387H139.904V259.598H157.087V223.387Z" fill="#CCE9FF"/>
        <path d="M179.743 213.522H145.504V259.598H179.743V213.522Z" fill="#CCE9FF"/>
        <path d="M180.57 211.741H143.468V213.523H180.57V211.741Z" fill="#CCE9FF"/>
        <path d="M162.051 206.968H147.031V216.323H162.051V206.968Z" fill="#CCE9FF"/>
        <path d="M169.497 206.968H166.951V212.632H169.497V206.968Z" fill="#CCE9FF"/>
        <path d="M174.779 206.968H171.979V212.632H174.779V206.968Z" fill="#CCE9FF"/>
        <path d="M148.559 245.598H130.612V259.599H148.559V245.598Z" fill="#CCE9FF"/>
        <path d="M132.267 239.679H123.802V259.598H132.267V239.679Z" fill="#CCE9FF"/>
        <path d="M128.066 252.598H113.556V259.598H128.066V252.598Z" fill="#CCE9FF"/>
        <path d="M460.334 244.07H281.504V259.598H460.334V244.07Z" fill="#CCE9FF"/>
        <path d="M446.015 201.112C444.869 201.112 443.979 202.003 443.851 203.085L441.306 203.022C441.306 202.767 441.306 202.513 441.306 202.258C441.306 199.14 440.797 196.085 439.715 193.221L441.815 192.457C442.133 193.221 442.897 193.73 443.788 193.73C444.997 193.73 445.951 192.776 445.951 191.566C445.951 190.357 444.997 189.403 443.788 189.403C442.578 189.403 441.624 190.357 441.624 191.566C441.624 191.757 441.687 192.012 441.687 192.203L439.587 192.966C438.378 189.784 436.533 186.793 434.178 184.184L435.833 182.657C436.214 183.039 436.723 183.229 437.296 183.229C438.505 183.229 439.46 182.275 439.46 181.066C439.46 179.856 438.505 178.902 437.296 178.902C436.087 178.902 435.132 179.856 435.132 181.066C435.132 181.575 435.323 182.084 435.642 182.466L433.987 183.993C433.796 183.802 433.669 183.611 433.478 183.484C430.996 181.002 428.068 179.029 424.95 177.756L425.841 175.529C426.032 175.593 426.286 175.656 426.477 175.656C427.687 175.656 428.641 174.702 428.641 173.492C428.641 172.283 427.687 171.329 426.477 171.329C425.268 171.329 424.314 172.283 424.314 173.492C424.314 174.383 424.823 175.147 425.586 175.465L424.695 177.693C421.895 176.547 418.841 175.911 415.722 175.784L415.849 172.792H415.913C417.122 172.792 418.077 171.838 418.077 170.629C418.077 169.419 417.122 168.465 415.913 168.465C414.704 168.465 413.749 169.419 413.749 170.629C413.749 171.711 414.577 172.601 415.595 172.729L415.468 175.784C415.213 175.784 414.958 175.784 414.704 175.784C411.713 175.784 408.785 176.293 405.985 177.247L405.094 174.765C405.858 174.447 406.431 173.683 406.431 172.792C406.431 171.583 405.476 170.629 404.267 170.629C403.058 170.629 402.103 171.583 402.103 172.792C402.103 174.002 403.058 174.956 404.267 174.956C404.458 174.956 404.649 174.956 404.84 174.893L405.731 177.375C402.358 178.584 399.303 180.429 396.63 182.911L395.039 181.257C395.421 180.875 395.612 180.366 395.612 179.793C395.612 178.584 394.657 177.629 393.448 177.629C392.239 177.629 391.284 178.584 391.284 179.793C391.284 181.002 392.239 181.957 393.448 181.957C393.957 181.957 394.466 181.766 394.848 181.448L396.439 183.102C396.248 183.293 396.057 183.42 395.93 183.611C393.702 185.839 391.921 188.384 390.648 191.121L388.675 190.23C388.739 190.039 388.802 189.784 388.802 189.53C388.802 188.321 387.848 187.366 386.638 187.366C385.429 187.366 384.475 188.321 384.475 189.53C384.475 190.739 385.429 191.694 386.638 191.694C387.529 191.694 388.229 191.185 388.611 190.421L390.584 191.312C389.184 194.43 388.357 197.803 388.229 201.303L385.684 201.24C385.684 200.094 384.729 199.14 383.52 199.14C382.311 199.14 381.356 200.094 381.356 201.303C381.356 202.513 382.311 203.467 383.52 203.467C384.666 203.467 385.556 202.576 385.684 201.494L388.229 201.558C388.229 201.813 388.229 202.067 388.229 202.322C388.229 205.44 388.739 208.495 389.82 211.359L387.911 212.059C387.593 211.295 386.829 210.786 385.938 210.786C384.729 210.786 383.775 211.74 383.775 212.95C383.775 214.159 384.729 215.113 385.938 215.113C387.147 215.113 388.102 214.159 388.102 212.95C388.102 212.759 388.038 212.504 388.038 212.313L390.139 211.55C391.348 214.732 393.193 217.723 395.548 220.332L393.893 221.859C393.512 221.477 393.002 221.287 392.43 221.287C391.22 221.287 390.266 222.241 390.266 223.45C390.266 224.659 391.22 225.614 392.43 225.614C393.639 225.614 394.593 224.659 394.593 223.45C394.593 222.941 394.403 222.432 394.084 222.05L395.739 220.523C395.93 220.714 396.057 220.905 396.248 221.032C397.903 222.687 399.812 224.15 401.785 225.296L388.802 249.161H386.447V249.861H385.302V251.198H444.488V249.861H443.342V249.161H440.987L428.005 225.296C429.723 224.278 431.378 223.132 432.841 221.732L434.942 223.959C434.496 224.341 434.178 224.914 434.178 225.55C434.178 226.76 435.132 227.714 436.342 227.714C437.551 227.714 438.505 226.76 438.505 225.55C438.505 224.341 437.551 223.387 436.342 223.387C435.896 223.387 435.451 223.514 435.132 223.769L433.032 221.541C433.223 221.35 433.414 221.223 433.541 221.032C435.769 218.805 437.551 216.259 438.824 213.522L441.178 214.604C441.115 214.795 441.115 214.922 441.115 215.113C441.115 216.323 442.069 217.277 443.278 217.277C444.488 217.277 445.442 216.323 445.442 215.113C445.442 213.904 444.488 212.95 443.278 212.95C442.388 212.95 441.56 213.522 441.242 214.35L438.951 213.268C440.351 210.149 441.178 206.776 441.306 203.276L443.851 203.34C443.851 204.485 444.806 205.44 446.015 205.44C447.224 205.44 448.179 204.485 448.179 203.276C448.179 202.067 447.224 201.112 446.015 201.112ZM440.669 202.258C440.669 202.513 440.669 202.767 440.669 202.958L433.287 202.703C433.287 202.576 433.287 202.385 433.287 202.258C433.287 200.094 432.905 197.994 432.205 196.021L439.205 193.476C440.16 196.212 440.669 199.203 440.669 202.258ZM432.905 202.703L416.359 202.194C416.359 202.067 416.358 202.003 416.295 201.876L431.823 196.148C432.523 198.058 432.905 200.094 432.905 202.258C432.905 202.385 432.905 202.576 432.905 202.703ZM396.948 201.813L413.495 202.322C413.495 202.449 413.495 202.513 413.558 202.64L398.03 208.367C397.33 206.458 396.948 204.422 396.948 202.258C396.948 202.067 396.948 201.94 396.948 201.813ZM416.04 201.367L428.132 190.039C429.723 191.757 430.932 193.73 431.76 195.894L416.231 201.622C416.168 201.558 416.104 201.431 416.04 201.367ZM415.913 201.176C415.849 201.112 415.722 201.049 415.595 200.985L421.895 185.711C424.186 186.666 426.286 188.13 428.005 189.912L415.913 201.176ZM415.34 200.858C415.277 200.858 415.149 200.794 415.086 200.794L415.595 184.248C417.695 184.311 419.731 184.757 421.641 185.521L415.34 200.858ZM414.831 200.794C414.704 200.794 414.64 200.794 414.513 200.858L409.04 185.266C410.885 184.63 412.858 184.311 414.895 184.311C415.022 184.311 415.213 184.311 415.34 184.311L414.831 200.794ZM414.322 200.922C414.195 200.985 414.131 201.049 414.004 201.112L402.676 189.021C404.458 187.43 406.494 186.093 408.785 185.266L414.322 200.922ZM413.813 201.303C413.749 201.367 413.686 201.494 413.622 201.558L398.603 194.621C399.557 192.585 400.894 190.739 402.485 189.212L413.813 201.303ZM413.558 201.749C413.495 201.876 413.495 201.94 413.495 202.067L396.948 201.558C397.012 199.14 397.585 196.912 398.539 194.812L413.558 201.749ZM413.622 202.831C413.686 202.894 413.686 203.022 413.749 203.085L413.622 203.276L401.721 214.477C400.13 212.759 398.921 210.786 398.094 208.622L413.622 202.831ZM413.304 203.913L405.794 217.723C404.33 216.895 403.058 215.813 401.848 214.604L413.304 203.913ZM414.131 203.467C414.195 203.531 414.258 203.531 414.258 203.531L407.958 218.805C407.322 218.55 406.749 218.232 406.176 217.977L414.131 203.467ZM414.449 203.594C414.513 203.594 414.64 203.658 414.704 203.658L414.195 220.205C412.095 220.141 410.058 219.695 408.149 218.932L414.449 203.594ZM414.895 220.205C414.768 220.205 414.577 220.205 414.449 220.205L414.958 203.658C415.086 203.658 415.149 203.658 415.277 203.594L420.75 219.186C418.968 219.886 416.995 220.205 414.895 220.205ZM415.531 203.594C415.595 203.531 415.658 203.531 415.786 203.467L423.677 217.977C422.85 218.423 421.959 218.868 421.068 219.186L415.531 203.594ZM416.804 204.485L427.114 215.432C426.159 216.323 425.141 217.086 424.059 217.723L416.804 204.485ZM416.359 203.658L416.04 203.085C416.04 203.022 416.104 203.022 416.104 202.958L431.123 209.895C430.169 211.931 428.832 213.777 427.241 215.304L416.359 203.658ZM416.295 202.767C416.358 202.64 416.359 202.576 416.359 202.449L432.905 202.958C432.841 205.376 432.269 207.604 431.314 209.704L416.295 202.767ZM407.831 219.186L405.03 226.06C404.14 225.678 403.312 225.296 402.485 224.85L406.049 218.295C406.622 218.614 407.194 218.932 407.831 219.186ZM408.085 219.25C409.994 220.014 412.095 220.459 414.258 220.586L414.004 228.032C410.949 227.905 408.022 227.269 405.285 226.187L408.085 219.25ZM414.449 220.586C414.577 220.586 414.768 220.586 414.895 220.586C416.995 220.586 419.031 220.205 420.877 219.568L423.359 226.569C420.686 227.523 417.822 227.969 414.895 227.969C414.64 227.969 414.386 227.969 414.195 227.969L414.449 220.586ZM421.132 219.505C422.086 219.186 422.977 218.741 423.804 218.295L427.368 224.85C426.159 225.487 424.886 226.06 423.614 226.569L421.132 219.505ZM439.078 193.221L432.078 195.767C431.25 193.539 429.978 191.503 428.387 189.784L433.796 184.693C436.151 187.239 437.869 190.103 439.078 193.221ZM433.16 184.057C433.351 184.248 433.478 184.375 433.669 184.566L428.259 189.657C426.541 187.812 424.377 186.348 422.023 185.33L424.823 178.456C427.877 179.729 430.678 181.638 433.16 184.057ZM424.568 178.329L421.768 185.202C419.859 184.439 417.759 183.993 415.595 183.866L415.849 176.42C418.904 176.611 421.832 177.247 424.568 178.329ZM414.895 176.484C415.149 176.484 415.404 176.484 415.595 176.484L415.34 183.866C415.213 183.866 415.022 183.866 414.895 183.866C412.795 183.866 410.758 184.248 408.913 184.884L406.431 177.884C409.167 176.993 411.967 176.484 414.895 176.484ZM406.24 177.947L408.722 184.948C406.367 185.775 404.267 187.112 402.485 188.766L397.394 183.357C400.003 180.938 402.994 179.156 406.24 177.947ZM396.694 184.057C396.884 183.866 397.012 183.739 397.203 183.548L402.294 188.957C400.639 190.548 399.303 192.394 398.285 194.43L391.539 191.312C392.812 188.639 394.53 186.157 396.694 184.057ZM391.475 191.566L398.221 194.685C397.266 196.785 396.694 199.14 396.566 201.558L389.12 201.303C389.311 197.867 390.075 194.557 391.475 191.566ZM389.184 202.258C389.184 202.003 389.184 201.749 389.184 201.558L396.566 201.813C396.566 201.94 396.566 202.131 396.566 202.258C396.566 204.422 396.948 206.522 397.648 208.495L390.648 211.04C389.693 208.24 389.184 205.313 389.184 202.258ZM390.775 211.295L397.775 208.749C398.603 210.977 399.876 213.013 401.467 214.732L396.057 219.823C393.702 217.277 391.921 214.413 390.775 211.295ZM396.694 220.459C396.503 220.268 396.375 220.141 396.184 219.95L401.594 214.859C402.739 216.068 404.14 217.15 405.603 218.041L402.039 224.596C400.13 223.45 398.348 222.114 396.694 220.459ZM440.478 249.097H389.311L402.167 225.423C402.994 225.869 403.885 226.314 404.776 226.696L403.885 228.923C403.694 228.86 403.439 228.796 403.249 228.796C402.039 228.796 401.085 229.751 401.085 230.96C401.085 232.169 402.039 233.124 403.249 233.124C404.458 233.124 405.412 232.169 405.412 230.96C405.412 230.069 404.903 229.305 404.14 228.987L405.03 226.76C407.831 227.905 410.885 228.542 414.004 228.669L413.94 230.896C412.795 230.896 411.84 231.851 411.84 233.06C411.84 234.269 412.795 235.224 414.004 235.224C415.213 235.224 416.168 234.269 416.168 233.06C416.168 231.914 415.277 231.024 414.195 230.896L414.258 228.669C414.513 228.669 414.767 228.669 415.022 228.669C418.013 228.669 420.941 228.16 423.741 227.205L424.505 229.369C423.804 229.687 423.295 230.451 423.295 231.342C423.295 232.551 424.25 233.506 425.459 233.506C426.668 233.506 427.623 232.551 427.623 231.342C427.623 230.133 426.668 229.178 425.459 229.178C425.205 229.178 425.014 229.242 424.759 229.305L423.995 227.141C425.332 226.696 426.605 226.06 427.814 225.423L440.478 249.097ZM427.75 224.596L424.186 218.041C425.332 217.341 426.35 216.577 427.368 215.686L432.46 221.096C430.996 222.496 429.405 223.641 427.75 224.596ZM433.16 220.459C432.969 220.65 432.841 220.777 432.65 220.968L427.559 215.559C429.214 213.968 430.55 212.122 431.569 210.086L438.315 213.204C437.042 215.813 435.26 218.295 433.16 220.459ZM438.378 212.95L431.632 209.831C432.587 207.731 433.16 205.376 433.287 202.958L440.733 203.213C440.542 206.586 439.778 209.895 438.378 212.95Z" fill="#CCE9FF"/>
        <path d="M478.853 219.187H451.233V259.662H478.853V219.187Z" fill="#CCE9FF"/>
        <path d="M502.4 234.906H474.78V259.407H502.4V234.906Z" fill="#CCE9FF"/>
        <path d="M383.201 231.278H367.737V251.834H383.201V231.278Z" fill="#CCE9FF"/>
        <path d="M484.581 180.684H465.043V259.598H484.581V180.684Z" fill="#CCE9FF"/>
        <path d="M516.719 259.598H490.945V213.522H510.482L516.719 259.598Z" fill="#CCE9FF"/>
        <path d="M527.984 249.098H505.455V259.598H527.984V249.098Z" fill="#CCE9FF"/>
        <path d="M480.19 164.201H479.49V185.648H480.19V164.201Z" fill="#CCE9FF"/>
        <path d="M482.481 168.783H481.781V190.23H482.481V168.783Z" fill="#CCE9FF"/>
        <path d="M478.153 171.774H477.453V193.221H478.153V171.774Z" fill="#CCE9FF"/>
        <path d="M501.191 209.831H491.963V217.086H501.191V209.831Z" fill="#CCE9FF"/>
        <path d="M500.173 207.222H492.981V211.295H500.173V207.222Z" fill="#CCE9FF"/>
        <path d="M506.601 211.931H504.819V214.859H506.601V211.931Z" fill="#CCE9FF"/>
        <path d="M509.783 209.258H507.237V214.859H509.783V209.258Z" fill="#CCE9FF"/>
        <path d="M477.581 192.012C477.581 191.694 477.326 191.439 477.071 191.439C476.817 191.439 476.562 191.694 476.562 192.012C476.562 192.33 476.817 192.585 477.071 192.585C477.39 192.649 477.581 192.394 477.581 192.012Z" fill="#9AC4EA"/>
        <path d="M532.502 265.008L529.384 244.07H523.02V226.76H523.784V225.169H520.665V218.423H520.283V225.169H518.183V219.632H517.801V225.169H504.819V226.76H505.71V261.953H490.945V246.17H482.545V207.413H483.308V205.504H481.654V203.085H479.681V202.131V199.394V196.976H477.39V192.648H477.071H476.817V196.976H475.544L474.78 199.394H469.689V203.085H456.388V205.504H454.67V207.413H455.434V232.615H444.297V257.435L431.95 251.961V227.905H433.923V226.123H430.423V221.287H415.404V226.123H410.44V221.287H407.958V226.123H405.412V221.287H402.612V226.123H396.821V227.905H397.712V261.253H392.048V260.871H391.029V251.389H392.048V250.625H391.029V241.079H392.048V240.315H391.029V230.833H392.048V230.069H391.029V220.587H392.048V219.823H391.029V210.341H392.048V209.577H391.029V199.713H392.811V198.949H393.702V196.849H377.092V194.558H377.601V193.858H368.564V194.558H369.137V196.849H365V198.949H365.891V199.713H367.61V209.577H366.591V210.341H367.61V219.823H366.591V220.587H367.61V230.069H366.591V230.833H367.61V240.315H366.591V241.079H367.61V250.625H366.591V251.389H367.61V260.871H366.591V261.635H367.61V269.399H361.946V239.424H339.162V261.253H335.471V193.221H332.735V194.94L327.643 196.212V195.067H324.907V196.849L319.879 198.122V196.785H317.143V198.758L312.051 200.031V198.949H309.315V200.667L304.287 201.94V200.985H301.551V267.808H297.669V232.169H283.413V254.062H268.776V235.415H266.93V229.305H268.012V228.669H263.303V226.76H262.794V228.669H261.266V218.741H260.884V228.669H258.912V229.305H260.057V235.415H250.384V249.67H241.029L236.065 267.808H226.264V208.559H213.218V206.458H213.918V205.695H204.053V206.458H204.817V208.559V211.995V252.534H198.644V237.197H200.871V235.797H185.343V226.569H182.416V224.66H175.797V226.569H170.451V259.598H152.886V235.097H138.058V254.443H125.203V266.853H115.911V251.261H103.692V264.562H92.6824V287.155H103.692H107.447H113.556H115.911H125.203H138.058H142.386H144.677H152.886H170.451H175.797H182.416H185.343H196.926H198.644H204.817H215.127H220.218H226.264H250.384H255.984H265.403H268.776H283.668H287.613H301.551H302.887H304.287H309.315H312.051H317.143H319.434H319.879H324.907H327.643H332.035H332.735H334.071H335.471H339.162H358H360.736H361.946H367.61H377.601H386.765H391.029H397.712H414.258H431.759H431.95H444.297H451.233H455.434H458.107H478.853H482.545H486.999H490.945H505.71H516.72H518.947H523.02H547.585V265.008H532.502Z" fill="#9AC4EA"/>
        <g opacity="0.52">
            <path opacity="0.52" d="M173.124 228.987H171.978V230.133H173.124V228.987Z" fill="white"/>
            <path opacity="0.52" d="M175.415 228.987H174.269V230.133H175.415V228.987Z" fill="white"/>
            <path opacity="0.52" d="M173.124 231.597H171.978V232.742H173.124V231.597Z" fill="white"/>
            <path opacity="0.52" d="M175.415 231.597H174.269V232.742H175.415V231.597Z" fill="white"/>
            <path opacity="0.52" d="M173.124 234.206H171.978V235.352H173.124V234.206Z" fill="white"/>
            <path opacity="0.52" d="M177.96 228.987H176.815V230.133H177.96V228.987Z" fill="white"/>
        </g>
        <path opacity="0.5" d="M255.347 195.066H254.584V199.33H255.347V195.066Z" fill="white"/>
        <path opacity="0.5" d="M258.02 195.066H257.257V199.33H258.02V195.066Z" fill="white"/>
        <path opacity="0.5" d="M260.693 195.066H259.929V199.33H260.693V195.066Z" fill="white"/>
        <path opacity="0.5" d="M263.303 195.066H262.539V199.33H263.303V195.066Z" fill="white"/>
        <path opacity="0.5" d="M265.975 195.066H265.212V199.33H265.975V195.066Z" fill="white"/>
        <path opacity="0.5" d="M268.648 195.066H267.885V199.33H268.648V195.066Z" fill="white"/>
        <path opacity="0.5" d="M271.258 195.066H270.494V199.33H271.258V195.066Z" fill="white"/>
        <path opacity="0.5" d="M273.93 195.066H273.167V199.33H273.93V195.066Z" fill="white"/>
        <path opacity="0.5" d="M276.603 195.066H275.84V199.33H276.603V195.066Z" fill="white"/>
        <path opacity="0.5" d="M279.213 195.066H278.449V199.33H279.213V195.066Z" fill="white"/>
        <path opacity="0.5" d="M281.886 195.066H281.122V199.33H281.886V195.066Z" fill="white"/>
        <path opacity="0.5" d="M255.347 200.985H254.584V205.249H255.347V200.985Z" fill="white"/>
        <path opacity="0.5" d="M258.02 200.985H257.257V205.249H258.02V200.985Z" fill="white"/>
        <path opacity="0.5" d="M260.693 200.985H259.929V205.249H260.693V200.985Z" fill="white"/>
        <path opacity="0.5" d="M263.303 200.985H262.539V205.249H263.303V200.985Z" fill="white"/>
        <path opacity="0.5" d="M265.975 200.985H265.212V205.249H265.975V200.985Z" fill="white"/>
        <path opacity="0.5" d="M268.648 200.985H267.885V205.249H268.648V200.985Z" fill="white"/>
        <path opacity="0.5" d="M271.258 200.985H270.494V205.249H271.258V200.985Z" fill="white"/>
        <path opacity="0.5" d="M273.93 200.985H273.167V205.249H273.93V200.985Z" fill="white"/>
        <path opacity="0.5" d="M276.603 200.985H275.84V205.249H276.603V200.985Z" fill="white"/>
        <path opacity="0.5" d="M279.213 200.985H278.449V205.249H279.213V200.985Z" fill="white"/>
        <path opacity="0.5" d="M281.886 200.985H281.122V205.249H281.886V200.985Z" fill="white"/>
        <path opacity="0.5" d="M255.347 206.904H254.584V211.168H255.347V206.904Z" fill="white"/>
        <path opacity="0.5" d="M258.02 206.904H257.257V211.168H258.02V206.904Z" fill="white"/>
        <path opacity="0.5" d="M260.693 206.904H259.929V211.168H260.693V206.904Z" fill="white"/>
        <path opacity="0.5" d="M263.303 206.904H262.539V211.168H263.303V206.904Z" fill="white"/>
        <path opacity="0.5" d="M265.975 206.904H265.212V211.168H265.975V206.904Z" fill="white"/>
        <path opacity="0.5" d="M268.648 206.904H267.885V211.168H268.648V206.904Z" fill="white"/>
        <path opacity="0.5" d="M271.258 206.904H270.494V211.168H271.258V206.904Z" fill="white"/>
        <path opacity="0.5" d="M273.93 206.904H273.167V211.168H273.93V206.904Z" fill="white"/>
        <path opacity="0.5" d="M276.603 206.904H275.84V211.168H276.603V206.904Z" fill="white"/>
        <path opacity="0.5" d="M279.213 206.904H278.449V211.168H279.213V206.904Z" fill="white"/>
        <path opacity="0.5" d="M281.886 206.904H281.122V211.168H281.886V206.904Z" fill="white"/>
        <path opacity="0.5" d="M263.303 212.886H262.539V217.15H263.303V212.886Z" fill="white"/>
        <path opacity="0.5" d="M265.975 212.886H265.212V217.15H265.975V212.886Z" fill="white"/>
        <path opacity="0.5" d="M268.648 212.886H267.885V217.15H268.648V212.886Z" fill="white"/>
        <path opacity="0.5" d="M271.258 212.886H270.494V217.15H271.258V212.886Z" fill="white"/>
        <path opacity="0.5" d="M273.93 212.886H273.167V217.15H273.93V212.886Z" fill="white"/>
        <path opacity="0.5" d="M276.603 212.886H275.84V217.15H276.603V212.886Z" fill="white"/>
        <path opacity="0.5" d="M279.213 212.886H278.449V217.15H279.213V212.886Z" fill="white"/>
        <path opacity="0.5" d="M281.886 212.886H281.122V217.15H281.886V212.886Z" fill="white"/>
        <path opacity="0.5" d="M265.975 219.123H265.212V223.387H265.975V219.123Z" fill="white"/>
        <path opacity="0.5" d="M268.648 219.123H267.885V223.387H268.648V219.123Z" fill="white"/>
        <path opacity="0.5" d="M271.258 219.123H270.494V223.387H271.258V219.123Z" fill="white"/>
        <path opacity="0.5" d="M273.93 219.123H273.167V223.387H273.93V219.123Z" fill="white"/>
        <path opacity="0.5" d="M276.603 219.123H275.84V223.387H276.603V219.123Z" fill="white"/>
        <path opacity="0.5" d="M279.213 219.123H278.449V223.387H279.213V219.123Z" fill="white"/>
        <path opacity="0.5" d="M281.886 219.123H281.122V223.387H281.886V219.123Z" fill="white"/>
        <path opacity="0.33" d="M307.724 205.631H305.878V210.213H307.724V205.631Z" fill="white"/>
        <path opacity="0.33" d="M307.724 214.477H305.878V219.059H307.724V214.477Z" fill="white"/>
        <path opacity="0.33" d="M307.724 223.26H305.878V227.842H307.724V223.26Z" fill="white"/>
        <path opacity="0.33" d="M307.724 232.105H305.878V236.688H307.724V232.105Z" fill="white"/>
        <path opacity="0.33" d="M307.724 240.443H305.878V245.025H307.724V240.443Z" fill="white"/>
        <path opacity="0.33" d="M307.724 249.225H305.878V253.807H307.724V249.225Z" fill="white"/>
        <path opacity="0.33" d="M315.551 205.631H313.706V210.213H315.551V205.631Z" fill="white"/>
        <path opacity="0.33" d="M315.551 214.477H313.706V219.059H315.551V214.477Z" fill="white"/>
        <path opacity="0.33" d="M315.551 223.26H313.706V227.842H315.551V223.26Z" fill="white"/>
        <path opacity="0.33" d="M315.551 232.105H313.706V236.688H315.551V232.105Z" fill="white"/>
        <path opacity="0.33" d="M315.551 240.443H313.706V245.025H315.551V240.443Z" fill="white"/>
        <path opacity="0.33" d="M315.551 249.225H313.706V253.807H315.551V249.225Z" fill="white"/>
        <path opacity="0.33" d="M323.316 205.631H321.47V210.213H323.316V205.631Z" fill="white"/>
        <path opacity="0.33" d="M323.316 214.477H321.47V219.059H323.316V214.477Z" fill="white"/>
        <path opacity="0.33" d="M323.316 223.26H321.47V227.842H323.316V223.26Z" fill="white"/>
        <path opacity="0.33" d="M323.316 232.105H321.47V236.688H323.316V232.105Z" fill="white"/>
        <path opacity="0.33" d="M323.316 240.443H321.47V245.025H323.316V240.443Z" fill="white"/>
        <path opacity="0.33" d="M323.316 249.225H321.47V253.807H323.316V249.225Z" fill="white"/>
        <path opacity="0.33" d="M331.143 205.631H329.298V210.213H331.143V205.631Z" fill="white"/>
        <path opacity="0.33" d="M331.143 214.477H329.298V219.059H331.143V214.477Z" fill="white"/>
        <path opacity="0.33" d="M331.143 223.26H329.298V227.842H331.143V223.26Z" fill="white"/>
        <path opacity="0.33" d="M331.143 232.105H329.298V236.688H331.143V232.105Z" fill="white"/>
        <path opacity="0.33" d="M331.143 240.443H329.298V245.025H331.143V240.443Z" fill="white"/>
        <path opacity="0.33" d="M331.143 249.225H329.298V253.807H331.143V249.225Z" fill="white"/>
        <path opacity="0.5" d="M278.131 141.354H276.603V145.363H278.131V141.354Z" fill="white"/>
        <path opacity="0.5" d="M281.822 141.354H280.294V145.363H281.822V141.354Z" fill="white"/>
        <path opacity="0.5" d="M285.577 141.354H284.049V145.363H285.577V141.354Z" fill="white"/>
        <path opacity="0.5" d="M289.332 141.354H287.804V145.363H289.332V141.354Z" fill="white"/>
        <path opacity="0.5" d="M278.131 148.037H276.603V152.046H278.131V148.037Z" fill="white"/>
        <path opacity="0.5" d="M281.822 148.037H280.294V152.046H281.822V148.037Z" fill="white"/>
        <path opacity="0.5" d="M285.577 148.037H284.049V152.046H285.577V148.037Z" fill="white"/>
        <path opacity="0.5" d="M289.332 148.037H287.804V152.046H289.332V148.037Z" fill="white"/>
        <path opacity="0.5" d="M278.131 154.782H276.603V158.792H278.131V154.782Z" fill="white"/>
        <path opacity="0.5" d="M281.822 154.782H280.294V158.792H281.822V154.782Z" fill="white"/>
        <path opacity="0.5" d="M293.532 141.354H292.004V145.363H293.532V141.354Z" fill="white"/>
        <path opacity="0.4" d="M176.751 182.211H175.797V185.903H176.751V182.211Z" fill="white"/>
        <path opacity="0.4" d="M180.188 182.211H179.233V185.903H180.188V182.211Z" fill="white"/>
        <path opacity="0.4" d="M184.134 182.211H183.179V185.903H184.134V182.211Z" fill="white"/>
        <path opacity="0.4" d="M187.57 182.211H186.616V185.903H187.57V182.211Z" fill="white"/>
        <path opacity="0.4" d="M169.242 182.211H168.287V185.903H169.242V182.211Z" fill="white"/>
        <path opacity="0.4" d="M172.615 182.211H171.66V185.903H172.615V182.211Z" fill="white"/>
        <path opacity="0.4" d="M176.751 188.639H175.797V192.33H176.751V188.639Z" fill="white"/>
        <path opacity="0.4" d="M180.188 188.639H179.233V192.33H180.188V188.639Z" fill="white"/>
        <path opacity="0.4" d="M184.134 188.639H183.179V192.33H184.134V188.639Z" fill="white"/>
        <path opacity="0.4" d="M187.57 188.639H186.616V192.33H187.57V188.639Z" fill="white"/>
        <path opacity="0.4" d="M169.242 188.639H168.287V192.33H169.242V188.639Z" fill="white"/>
        <path opacity="0.4" d="M172.615 188.639H171.66V192.33H172.615V188.639Z" fill="white"/>
        <path opacity="0.4" d="M176.751 195.066H175.797V198.758H176.751V195.066Z" fill="white"/>
        <path opacity="0.4" d="M180.188 195.066H179.233V198.758H180.188V195.066Z" fill="white"/>
        <path opacity="0.4" d="M184.134 195.066H183.179V198.758H184.134V195.066Z" fill="white"/>
        <path opacity="0.4" d="M187.57 195.066H186.616V198.758H187.57V195.066Z" fill="white"/>
        <path opacity="0.4" d="M169.242 195.066H168.287V198.758H169.242V195.066Z" fill="white"/>
        <path opacity="0.4" d="M172.615 195.066H171.66V198.758H172.615V195.066Z" fill="white"/>
        <path opacity="0.5" d="M356.854 210.595H355.39V216.322H356.854V210.595Z" fill="white"/>
        <path opacity="0.5" d="M361.436 210.595H359.973V216.322H361.436V210.595Z" fill="white"/>
        <path opacity="0.5" d="M365.7 210.595H364.237V216.322H365.7V210.595Z" fill="white"/>
        <path opacity="0.33" d="M459.252 211.741H458.106V214.986H459.252V211.741Z" fill="white"/>
        <path opacity="0.33" d="M462.816 211.741H461.67V214.986H462.816V211.741Z" fill="white"/>
        <path opacity="0.33" d="M459.252 211.741H458.106V214.986H459.252V211.741Z" fill="white"/>
        <path opacity="0.33" d="M462.816 211.741H461.67V214.986H462.816V211.741Z" fill="white"/>
        <path opacity="0.33" d="M466.189 211.741H465.043V214.986H466.189V211.741Z" fill="white"/>
        <path opacity="0.33" d="M469.752 211.741H468.607V214.986H469.752V211.741Z" fill="white"/>
        <path opacity="0.33" d="M459.252 217.532H458.106V220.777H459.252V217.532Z" fill="white"/>
        <path opacity="0.33" d="M462.816 217.532H461.67V220.777H462.816V217.532Z" fill="white"/>
        <path opacity="0.33" d="M459.252 217.532H458.106V220.777H459.252V217.532Z" fill="white"/>
        <path opacity="0.33" d="M462.816 217.532H461.67V220.777H462.816V217.532Z" fill="white"/>
        <path opacity="0.33" d="M466.189 217.532H465.043V220.777H466.189V217.532Z" fill="white"/>
        <path opacity="0.33" d="M469.752 217.532H468.607V220.777H469.752V217.532Z" fill="white"/>
        <path opacity="0.33" d="M459.252 223.705H458.106V226.951H459.252V223.705Z" fill="white"/>
        <path opacity="0.33" d="M462.816 223.705H461.67V226.951H462.816V223.705Z" fill="white"/>
        <path opacity="0.33" d="M459.252 223.705H458.106V226.951H459.252V223.705Z" fill="white"/>
        <path opacity="0.33" d="M462.816 223.705H461.67V226.951H462.816V223.705Z" fill="white"/>
        <path opacity="0.33" d="M466.189 223.705H465.043V226.951H466.189V223.705Z" fill="white"/>
        <path opacity="0.33" d="M469.752 223.705H468.607V226.951H469.752V223.705Z" fill="white"/>
        <path opacity="0.33" d="M473.571 211.741H472.425V214.986H473.571V211.741Z" fill="white"/>
        <path opacity="0.33" d="M473.571 217.532H472.425V220.777H473.571V217.532Z" fill="white"/>
        <path opacity="0.33" d="M477.135 211.741H475.989V214.986H477.135V211.741Z" fill="white"/>
        <path opacity="0.33" d="M370.982 202.195H369.773V207.222H370.982V202.195Z" fill="white"/>
        <path opacity="0.33" d="M377.028 202.195H375.819V207.222H377.028V202.195Z" fill="white"/>
        <path opacity="0.33" d="M383.074 202.195H381.865V207.222H383.074V202.195Z" fill="white"/>
        <path opacity="0.33" d="M389.12 202.195H387.911V207.222H389.12V202.195Z" fill="white"/>
        <path opacity="0.33" d="M370.982 212.568H369.773V217.595H370.982V212.568Z" fill="white"/>
        <path opacity="0.33" d="M377.028 212.568H375.819V217.595H377.028V212.568Z" fill="white"/>
        <path opacity="0.33" d="M383.074 212.568H381.865V217.595H383.074V212.568Z" fill="white"/>
        <path opacity="0.33" d="M389.12 212.568H387.911V217.595H389.12V212.568Z" fill="white"/>
        <path opacity="0.33" d="M370.982 223.132H369.773V228.16H370.982V223.132Z" fill="white"/>
        <path opacity="0.33" d="M377.028 223.132H375.819V228.16H377.028V223.132Z" fill="white"/>
        <path opacity="0.33" d="M383.074 223.132H381.865V228.16H383.074V223.132Z" fill="white"/>
        <path opacity="0.33" d="M389.12 223.132H387.911V228.16H389.12V223.132Z" fill="white"/>
        <path opacity="0.33" d="M370.982 233.76H369.773V238.788H370.982V233.76Z" fill="white"/>
        <path opacity="0.33" d="M377.028 233.76H375.819V238.788H377.028V233.76Z" fill="white"/>
        <path opacity="0.33" d="M383.074 233.76H381.865V238.788H383.074V233.76Z" fill="white"/>
        <path opacity="0.33" d="M389.12 233.76H387.911V238.788H389.12V233.76Z" fill="white"/>
        <path opacity="0.33" d="M370.982 243.434H369.773V248.461H370.982V243.434Z" fill="white"/>
        <path opacity="0.33" d="M377.028 243.434H375.819V248.461H377.028V243.434Z" fill="white"/>
        <path opacity="0.33" d="M383.074 243.434H381.865V248.461H383.074V243.434Z" fill="white"/>
        <path opacity="0.33" d="M370.982 254.189H369.773V259.217H370.982V254.189Z" fill="white"/>
        <path opacity="0.33" d="M377.028 254.189H375.819V259.217H377.028V254.189Z" fill="white"/>
        <path opacity="0.33" d="M383.074 254.189H381.865V259.217H383.074V254.189Z" fill="white"/>
        <path opacity="0.33" d="M389.12 243.434H387.911V248.461H389.12V243.434Z" fill="white"/>
        <path opacity="0.33" d="M508.51 228.796H507.237V231.66H508.51V228.796Z" fill="white"/>
        <path opacity="0.33" d="M508.51 233.442H507.237V236.306H508.51V233.442Z" fill="white"/>
        <path opacity="0.33" d="M511.692 228.796H510.419V231.66H511.692V228.796Z" fill="white"/>
        <path d="M474.589 258.453L478.853 293.392C479.235 296.447 477.071 299.183 474.08 299.565L426.477 305.484C423.486 305.865 420.749 303.702 420.367 300.647L416.104 265.708L474.589 258.453Z" fill="#0E538C"/>
        <path d="M415.913 263.862L416.995 272.899C417.822 279.581 423.868 284.354 430.487 283.527L431.505 283.4L432.078 287.855C432.268 289.318 433.541 290.337 434.941 290.146C436.341 289.955 437.36 288.682 437.169 287.218L436.596 282.763L459.698 279.9L460.27 284.354C460.461 285.818 461.734 286.836 463.134 286.645C464.534 286.455 465.552 285.182 465.362 283.718L464.789 279.263H464.916C471.535 278.436 476.244 272.326 475.417 265.644L474.335 256.607L459.125 258.516L458.425 252.534C458.107 249.925 455.752 248.079 453.143 248.397L434.432 250.752C431.823 251.07 429.977 253.489 430.296 256.098L430.996 262.08L415.913 263.862ZM461.161 283.782C461.034 282.891 461.67 282.063 462.561 281.936C463.452 281.809 464.28 282.445 464.407 283.4C464.534 284.291 463.898 285.118 463.007 285.245C462.052 285.373 461.225 284.736 461.161 283.782ZM435.451 258.134C435.26 256.671 436.341 255.271 437.805 255.08L451.042 253.425C452.506 253.234 453.843 254.316 454.034 255.78L454.415 258.962L435.832 261.253L435.451 258.134ZM432.905 287.346C432.778 286.455 433.414 285.627 434.305 285.5C435.196 285.373 436.023 286.009 436.151 286.964C436.278 287.855 435.641 288.682 434.75 288.809C433.796 288.873 433.032 288.236 432.905 287.346Z" fill="#FFBE55"/>
        <path d="M329.616 321.584C328.852 300.137 328.598 236.115 341.199 205.758C341.199 205.758 379.51 186.603 370.855 226.251L346.417 318.975C350.108 353.596 337.444 382.17 332.098 398.208L331.462 406.99L326.307 405.144L326.37 402.662L324.27 404.444L307.596 398.589L309.76 396.68C320.261 400.944 326.434 396.235 326.434 396.235L329.68 322.73C329.68 322.348 329.616 322.03 329.616 321.584Z" fill="#0B4870"/>
        <path d="M222.064 80.5135C222.064 80.5135 222.509 80.3862 223.846 80.6407C223.846 80.5771 223.846 80.4498 223.846 80.3862C223.782 79.2407 224.8 78.7952 225.182 78.7952C225.564 78.7952 228.619 80.1953 228.873 80.3862C229.064 80.5135 231.355 83.5682 232.246 84.6501L234.792 85.7956L232.31 90.8232L230.401 89.805L224.1 89.0413C223.718 88.9777 222.764 88.5958 222.7 88.214C222.636 87.8958 222.764 87.323 222.891 87.0684C222.318 86.9412 221.873 86.6866 221.809 86.1775C221.745 85.4774 222.191 85.0319 222.382 84.9047C221.873 84.7137 221.491 84.3955 221.427 83.95C221.427 83.3773 221.745 83.0591 221.936 82.8682C221.491 82.6136 221.236 82.2954 221.236 81.8499C221.236 80.8317 222.064 80.5135 222.064 80.5135Z" fill="#DBA17B"/>
        <path d="M234.155 84.8413L230.909 90.6962L233.455 92.0327L236.637 86.1778L234.155 84.8413Z" fill="#F7F7F7"/>
        <path d="M297.032 107.561L337.317 118.761C346.099 120.989 353.354 124.107 353.29 133.081C353.227 140.654 346.608 148.482 337.953 145.172C320.579 138.426 308.424 132.062 288.695 121.434C288.632 121.434 288.632 121.371 288.568 121.371L232.055 91.7778L235.428 85.3501L297.032 107.561ZM384.283 326.23C377.156 306.056 357.936 245.024 360.991 212.186C360.991 212.186 391.857 182.275 395.357 222.686L402.485 318.784C412.667 330.43 409.74 381.597 409.421 398.525L411.458 407.117L405.985 406.926L405.285 404.508L403.821 406.862L386.193 406.29L387.656 403.808C398.921 404.699 403.439 398.334 403.439 398.334L384.729 327.248C384.602 326.93 384.411 326.612 384.283 326.23Z" fill="#0E538C"/>
        <path d="M361.564 105.397C361.564 105.397 364.109 115.834 366.782 124.999L342.726 135.372C343.935 130.726 344.19 116.153 339.926 116.98L350.49 98.9061L357.364 98.5879L361.564 105.397Z" fill="#CE9474"/>
        <path d="M380.21 206.904C380.656 207.349 381.165 207.668 381.674 208.049C385.174 210.34 389.311 210.086 394.275 209.831C395.866 209.768 397.521 209.768 399.303 209.768C405.73 209.959 413.431 211.231 422.977 217.596C420.749 211.868 413.685 206.013 406.048 201.049C402.357 198.567 398.539 196.403 395.039 194.494C389.056 191.185 384.029 188.957 382.31 188.194C381.929 188.003 381.738 187.939 381.738 187.939L380.21 206.904ZM343.49 128.053C330.443 140.209 328.661 166.428 357.936 209.831L343.49 128.053Z" fill="#0B4870"/>
        <path d="M336.617 220.65C342.917 224.087 388.738 226.314 395.039 220.141C391.793 186.221 395.166 162.61 397.203 146.954C399.048 131.872 399.621 124.107 391.793 121.689L363.537 112.143L345.272 131.49L343.426 127.48C330.825 153.637 342.726 190.994 336.617 220.65Z" fill="#F7F7F7"/>
        <path d="M373.91 159.428C370.219 174.256 378.174 190.357 367.8 202.703C360.545 211.677 348.772 211.486 338.017 211.358C337.698 214.54 337.317 217.595 336.68 220.586C342.981 224.023 388.802 226.25 395.102 220.077C391.857 186.157 395.23 162.546 397.266 146.891C397.775 142.945 398.157 139.508 398.348 136.517C386.765 139.381 376.328 148.8 373.91 159.428Z" fill="#F2F2F2"/>
        <path d="M363.537 112.08L345.272 131.49C345.272 131.49 353.29 142.245 354.818 143.773L363.537 112.08Z" fill="#F2F2F2"/>
        <path d="M341.262 138.108L345.272 131.49L343.426 127.48L341.262 138.108Z" fill="#F2F2F2"/>
        <path d="M369.328 178.775C383.329 198.376 414.894 203.085 423.931 220.077C425.268 189.721 394.975 178.838 394.975 178.838C396.948 154.846 399.239 143.327 399.939 134.481C400.321 129.262 399.748 124.107 394.911 122.326L363.6 112.143C363.6 112.143 363.855 112.525 363.855 112.652C356.918 137.599 357.172 161.783 369.328 178.775Z" fill="#0E538C"/>
        <path d="M369.455 178.075C364.618 162.292 365.573 154.655 368.119 149.5L363.218 146.955L367.61 144.6C362.327 130.79 363.791 114.307 363.918 112.271C356.918 137.281 356.982 162.547 369.455 178.075Z" fill="#0B4870"/>
        <path d="M344.19 138.872L342.981 136.199L345.399 132.572L347.754 135.945L345.463 138.999C344.763 160.192 356.091 185.648 392.493 190.421L400.321 201.495L389.12 206.395C356.982 197.231 347.181 175.275 344.508 158.728L344.444 158.537C342.79 148.227 343.999 140.145 344.19 138.872Z" fill="#FFBE55"/>
        <path d="M338.081 79.6865L333.689 86.4324L331.462 93.242L332.098 94.8966L326.625 105.334L330.762 107.243L333.18 119.653C333.18 120.289 333.689 120.798 334.326 120.862C338.717 121.244 351.891 120.735 355.136 108.579C357.873 98.3332 358.573 92.9874 358.573 92.9874C358.573 92.9874 357.555 83.4413 338.081 79.6865Z" fill="#DBA17B"/>
        <path d="M349.218 100.56C346.545 99.4148 345.908 93.9417 345.59 89.296C345.463 87.5777 344.063 86.1776 342.344 86.2412L336.999 87.514C327.071 89.3596 329.234 71.3493 338.908 68.4219C338.908 68.4219 338.017 70.3947 345.781 74.0222C349.727 75.8678 355.9 77.3316 360.482 78.5407C364.873 79.6863 367.61 84.0775 366.782 88.5959L362.9 109.47C362.9 109.47 353.1 106.415 356.6 98.9694C359.973 91.587 349.727 88.3414 349.218 100.56Z" fill="#0E538C"/>
        <path d="M445.188 257.625C445.188 257.625 444.742 257.371 443.978 256.289C443.915 256.352 443.851 256.416 443.787 256.48C443.024 257.371 442.005 256.925 441.751 256.671C441.496 256.416 440.224 253.234 440.16 252.916C440.096 252.661 440.478 248.906 440.669 247.506L439.587 244.897L444.806 242.988L445.506 245.088L449.515 250.052C449.77 250.37 450.152 251.261 449.897 251.643C449.706 251.897 449.197 252.216 449.006 252.407C449.324 252.916 449.451 253.425 449.197 253.807C448.815 254.379 448.115 254.379 447.924 254.316C448.179 254.825 448.242 255.334 447.924 255.652C447.606 256.034 447.097 256.098 446.779 256.098C446.906 256.607 446.906 256.989 446.588 257.307C446.015 257.943 445.188 257.625 445.188 257.625Z" fill="#DBA17B"/>
        <path d="M439.396 246.043L445.697 244.07L444.806 241.397L438.505 243.306L439.396 246.043Z" fill="#F7F7F7"/>
        <path d="M386.129 127.862C391.284 122.389 401.466 121.435 405.412 129.835C413.431 146.891 417.822 160.001 424.823 181.384C424.823 181.448 424.823 181.448 424.823 181.511L445.506 242.415L438.696 244.643L409.358 185.584V185.521L387.911 149.437C383.074 141.672 379.956 134.354 386.129 127.862Z" fill="#0E538C"/>
    </g>
</svg>
