<svg width="40" height="40" viewBox="0 0 40 40" fill="none" xmlns="http://www.w3.org/2000/svg">
    <path fill-rule="evenodd" clip-rule="evenodd" d="M4.44444 0H35.5556C38.0111 0 40 1.98889 40 4.44444V35.5556C40 38.0111 38.0111 40 35.5556 40H4.44444C1.98889 40 0 38.0111 0 35.5556V4.44444C0 1.98889 1.98889 0 4.44444 0ZM29.0811 14.5122C29.9173 14.5122 30.5946 15.1671 30.5946 15.9756V19.7037C28.6611 20.0512 27.1892 21.6902 27.1892 23.6585V31.3415H12.8108V23.6585C12.8108 21.6902 11.3389 20.0512 9.40541 19.7037V15.9756C9.40541 15.1671 10.0827 14.5122 10.9189 14.5122H12.0541V15.2439C12.0541 15.6463 12.3946 15.9756 12.8108 15.9756H27.1892C27.6054 15.9756 27.9459 15.6463 27.9459 15.2439V14.5122H29.0811ZM17.3514 20.7317C17.3514 22.1439 18.5395 23.2927 20 23.2927C21.4605 23.2927 22.6486 22.1439 22.6486 20.7317C22.6486 19.3195 21.4605 18.1707 20 18.1707C18.5395 18.1707 17.3514 19.3195 17.3514 20.7317ZM20 21.8293C20.6243 21.8293 21.1351 21.3354 21.1351 20.7317C21.1351 20.128 20.6243 19.6341 20 19.6341C19.3757 19.6341 18.8649 20.128 18.8649 20.7317C18.8649 21.3354 19.3757 21.8293 20 21.8293ZM11.2973 32.439V23.6585C11.2973 22.2463 10.1092 21.0976 8.64865 21.0976C7.18811 21.0976 6 22.2463 6 23.6585V32.439C6 33.8512 7.18811 35 8.64865 35C10.1092 35 11.2973 33.8512 11.2973 32.439ZM34 32.439V23.6585C34 22.2463 32.8119 21.0976 31.3514 21.0976C29.8908 21.0976 28.7027 22.2463 28.7027 23.6585V32.439C28.7027 33.8512 29.8908 35 31.3514 35C32.8119 35 34 33.8512 34 32.439ZM20 5C23.5454 5 26.4324 7.79146 26.4324 11.2195V14.5122H13.5676V11.2195C13.5676 7.79146 16.4546 5 20 5ZM16.5 13C17.3284 13 18 12.3284 18 11.5C18 10.6716 17.3284 10 16.5 10C15.6716 10 15 10.6716 15 11.5C15 12.3284 15.6716 13 16.5 13ZM25 11.5C25 12.3284 24.3284 13 23.5 13C22.6716 13 22 12.3284 22 11.5C22 10.6716 22.6716 10 23.5 10C24.3284 10 25 10.6716 25 11.5Z" fill="white"/>
</svg>
