<svg width="40" height="40" viewBox="0 0 40 40" fill="none" xmlns="http://www.w3.org/2000/svg">
    <path d="M35.5556 0H4.44444C1.98889 0 0 1.98889 0 4.44444V35.5556C0 38.0111 1.98889 40 4.44444 40H35.5556C38.0111 40 40 38.0111 40 35.5556V4.44444C40 1.98889 38.0111 0 35.5556 0ZM14 28.4444C14 29.8558 12.8558 31 11.4444 31V31C10.033 31 8.88889 29.8558 8.88889 28.4444V18C8.88889 16.5886 10.033 15.4444 11.4444 15.4444V15.4444C12.8558 15.4444 14 16.5886 14 18V28.4444ZM23 28.3889C23 29.831 21.831 31 20.3889 31V31C18.9468 31 17.7778 29.831 17.7778 28.3889V11.3889C17.7778 9.94681 18.9468 8.77778 20.3889 8.77778V8.77778C21.831 8.77778 23 9.94681 23 11.3889V28.3889ZM31.5 28.5833C31.5 29.918 30.418 31 29.0833 31V31C27.7486 31 26.6667 29.918 26.6667 28.5833V24.5278C26.6667 23.1931 27.7486 22.1111 29.0833 22.1111V22.1111C30.418 22.1111 31.5 23.1931 31.5 24.5278V28.5833Z" fill="white"/>
</svg>
