<svg width="190" height="146" viewBox="0 0 190 146" fill="none" xmlns="http://www.w3.org/2000/svg">
    <g clip-path="url(#clip0_2_3560)">
        <path d="M65.9935 26.7473C66.547 26.1922 67.1119 25.6598 67.688 25.1387H40.667C40.0678 25.1387 39.4931 25.3774 39.0694 25.8023C38.6457 26.2271 38.4077 26.8034 38.4077 27.4043C38.4077 28.0052 38.6457 28.5815 39.0694 29.0063C39.4931 29.4312 40.0678 29.6699 40.667 29.6699H63.3276C64.1635 28.6617 65.0559 27.6875 65.9935 26.7473ZM97.149 27.4043C93.1831 27.4003 89.2544 28.1698 85.5815 29.6699H108.716C105.044 28.1698 101.115 27.4003 97.149 27.4043ZM40.667 52.3262H53.4658C53.6562 50.8023 53.9277 49.2897 54.2791 47.7949H40.667C40.0678 47.7949 39.4931 48.0336 39.0694 48.4585C38.6457 48.8834 38.4077 49.4597 38.4077 50.0605C38.4077 50.6614 38.6457 51.2377 39.0694 51.6626C39.4931 52.0875 40.0678 52.3262 40.667 52.3262ZM110.705 47.7949H68.3996C67.8774 49.2716 67.4695 50.7865 67.1796 52.3262H110.705C111.304 52.3262 111.879 52.0875 112.302 51.6626C112.726 51.2377 112.964 50.6614 112.964 50.0605C112.964 49.4597 112.726 48.8834 112.302 48.4585C111.879 48.0336 111.304 47.7949 110.705 47.7949Z" fill="#0BCEB2"/>
        <path d="M40.667 63.6543H53.4658C53.2851 62.159 53.1721 60.641 53.1269 59.123H40.667C40.0678 59.123 39.4931 59.3617 39.0694 59.7866C38.6457 60.2115 38.4077 60.7878 38.4077 61.3887C38.4077 61.9896 38.6457 62.5658 39.0694 62.9907C39.4931 63.4156 40.0678 63.6543 40.667 63.6543ZM110.705 59.123H66.6826C66.7414 60.6433 66.9075 62.1575 67.1796 63.6543H110.705C111.304 63.6543 111.879 63.4156 112.302 62.9907C112.726 62.5658 112.964 61.9896 112.964 61.3887C112.964 60.7878 112.726 60.2115 112.302 59.7866C111.879 59.3617 111.304 59.123 110.705 59.123Z" fill="#ADBDCB"/>
        <path d="M40.667 74.9824H56.4707C55.8591 73.5017 55.3274 71.9891 54.8779 70.4512H40.667C40.0678 70.4512 39.4931 70.6899 39.0694 71.1148C38.6457 71.5396 38.4077 72.1159 38.4077 72.7168C38.4077 73.3177 38.6457 73.894 39.0694 74.3188C39.4931 74.7437 40.0678 74.9824 40.667 74.9824ZM110.705 70.4512H69.3034C69.9979 72.0316 70.8295 73.5478 71.7886 74.9824H110.705C111.304 74.9824 111.879 74.7437 112.302 74.3188C112.726 73.894 112.964 73.3177 112.964 72.7168C112.964 72.1159 112.726 71.5396 112.302 71.1148C111.879 70.6899 111.304 70.4512 110.705 70.4512Z" fill="#0BCEB2"/>
        <path d="M40.667 81.7793C40.0678 81.7793 39.4931 82.018 39.0694 82.4429C38.6457 82.8678 38.4077 83.444 38.4077 84.0449C38.4077 84.6458 38.6457 85.2221 39.0694 85.647C39.4931 86.0718 40.0678 86.3105 40.667 86.3105H63.3276C62.126 84.8748 61.0203 83.3611 60.0177 81.7793H40.667ZM110.705 81.7793H77.9903C80.2849 83.6555 82.8428 85.1823 85.5815 86.3105H110.705C111.284 86.3108 111.84 86.0872 112.259 85.6864C112.678 85.2855 112.926 84.7381 112.953 84.1582C112.962 84.1212 112.966 84.083 112.964 84.0449C112.962 83.4446 112.724 82.8693 112.3 82.4448C111.877 82.0203 111.303 81.7811 110.705 81.7793Z" fill="#ADBDCB"/>
        <path d="M40.667 93.1074C40.0678 93.1074 39.4931 93.3461 39.0694 93.771C38.6457 94.1959 38.4077 94.7722 38.4077 95.373C38.4077 95.9739 38.6457 96.5502 39.0694 96.9751C39.4931 97.4 40.0678 97.6387 40.667 97.6387H77.6627C75.0996 96.37 72.6668 94.8523 70.3991 93.1074H40.667Z" fill="#0BCEB2"/>
        <path d="M110.705 104.436H40.667C40.0678 104.436 39.4931 104.674 39.0694 105.099C38.6457 105.524 38.4077 106.1 38.4077 106.701C38.4077 107.302 38.6457 107.878 39.0694 108.303C39.4931 108.728 40.0678 108.967 40.667 108.967H110.705C111.304 108.967 111.879 108.728 112.302 108.303C112.726 107.878 112.964 107.302 112.964 106.701C112.964 106.1 112.726 105.524 112.302 105.099C111.879 104.674 111.304 104.436 110.705 104.436Z" fill="#ADBDCB"/>
        <path d="M110.705 115.764H40.667C40.0678 115.764 39.4931 116.002 39.0694 116.427C38.6457 116.852 38.4077 117.428 38.4077 118.029C38.4077 118.63 38.6457 119.206 39.0694 119.631C39.4931 120.056 40.0678 120.295 40.667 120.295H110.705C111.304 120.295 111.879 120.056 112.302 119.631C112.726 119.206 112.964 118.63 112.964 118.029C112.964 117.428 112.726 116.852 112.302 116.427C111.879 116.002 111.304 115.764 110.705 115.764Z" fill="#0BCEB2"/>
        <path d="M110.705 36.4668H75.4825C74.11 37.8555 72.8733 39.3728 71.7895 40.998H110.705C111.304 40.998 111.879 40.7593 112.302 40.3345C112.726 39.9096 112.964 39.3333 112.964 38.7324C112.964 38.1315 112.726 37.5553 112.302 37.1304C111.879 36.7055 111.304 36.4668 110.705 36.4668ZM40.667 36.4668C40.0678 36.4668 39.4931 36.7055 39.0694 37.1304C38.6457 37.5553 38.4077 38.1315 38.4077 38.7324C38.4077 39.3333 38.6457 39.9096 39.0694 40.3345C39.4931 40.7593 40.0678 40.998 40.667 40.998H56.4707C57.1118 39.4458 57.8436 37.9328 58.6622 36.4668H40.667Z" fill="#ADBDCB"/>
        <path d="M124.26 131.623H27.1113V13.8105H124.26V23.1449C125.679 24.263 127.03 25.466 128.304 26.7473C128.463 26.9059 128.621 27.0645 128.779 27.2344V7.01367C128.777 5.21147 128.063 3.48348 126.792 2.20913C125.521 0.93478 123.798 0.218225 122.001 0.216797H29.3706C27.5735 0.218225 25.8503 0.93478 24.5795 2.20913C23.3087 3.48348 22.5942 5.21147 22.5928 7.01367V138.42C22.5942 140.222 23.3087 141.95 24.5795 143.224C25.8503 144.499 27.5735 145.215 29.3706 145.217H122.001C123.798 145.215 125.521 144.499 126.792 143.224C128.063 141.95 128.777 140.222 128.779 138.42V107.111L124.26 102.716V131.623ZM27.1113 7.01367C27.1131 6.41333 27.3517 5.83808 27.775 5.41357C28.1983 4.98906 28.7719 4.7498 29.3706 4.74805H122.001C122.6 4.7498 123.173 4.98906 123.597 5.41357C124.02 5.83808 124.259 6.41333 124.26 7.01367V9.2793H27.1113V7.01367ZM124.26 138.42C124.259 139.02 124.02 139.596 123.597 140.02C123.173 140.445 122.6 140.684 122.001 140.686H29.3706C28.772 140.684 28.1983 140.445 27.775 140.02C27.3517 139.596 27.1131 139.02 27.1113 138.42V136.154H124.26V138.42Z" fill="#ADBDCB"/>
        <path d="M131.027 78.4486C136.034 70.1107 137.803 60.2153 135.995 50.6525C134.188 41.0898 128.931 32.5297 121.229 26.6072C113.527 20.6848 103.919 17.815 94.2407 18.546C84.5624 19.2769 75.4917 23.5575 68.761 30.57C62.0304 37.5825 58.1115 46.8356 57.7528 56.562C57.3942 66.2883 60.6209 75.8064 66.8167 83.2983C73.0125 90.7901 81.7431 95.7308 91.3412 97.1766C100.939 98.6224 110.732 96.472 118.849 91.1361L152.05 123.433C153.735 125.047 155.977 125.948 158.308 125.948C160.639 125.948 162.88 125.047 164.566 123.433C165.395 122.632 166.054 121.673 166.504 120.611C166.955 119.549 167.187 118.407 167.187 117.253C167.187 116.099 166.955 114.957 166.504 113.896C166.054 112.834 165.395 111.874 164.566 111.074L131.027 78.4486ZM119.256 85.2229C118.093 86.1858 116.862 87.0641 115.573 87.851C108.281 92.3799 99.584 94.0678 91.1327 92.5947C82.6814 91.1215 75.0629 86.5898 69.7217 79.8587C64.3806 73.1275 61.6881 64.665 62.1548 56.0756C62.6215 47.4862 66.2149 39.3671 72.2537 33.2578C78.2926 27.1485 86.357 23.4736 94.9179 22.93C103.479 22.3864 111.941 25.0119 118.7 30.3086C125.459 35.6053 130.045 43.205 131.588 51.6668C133.132 60.1285 131.525 68.864 127.073 76.217C126.587 77.044 126.045 77.8483 125.469 78.6412C124.396 80.1277 123.206 81.5256 121.911 82.8213C121.067 83.6666 120.181 84.4682 119.256 85.2229ZM161.414 120.181C160.575 120.983 159.461 121.43 158.302 121.43C157.143 121.43 156.029 120.983 155.19 120.181L122.521 88.4061C123.413 87.6584 124.272 86.8654 125.108 86.0272C126.296 84.8398 127.405 83.5759 128.429 82.2436L161.414 114.325C161.81 114.702 162.126 115.156 162.341 115.66C162.557 116.163 162.668 116.705 162.668 117.253C162.668 117.801 162.557 118.343 162.341 118.847C162.126 119.35 161.81 119.804 161.414 120.181Z" fill="#ADBDCB"/>
        <path d="M2.25928 145.217C3.50704 145.217 4.51856 144.202 4.51856 142.951C4.51856 141.7 3.50704 140.686 2.25928 140.686C1.01151 140.686 0 141.7 0 142.951C0 144.202 1.01151 145.217 2.25928 145.217Z" fill="#ADBDCB"/>
        <path d="M12.426 140.686H9.03711C8.43791 140.686 7.86326 140.924 7.43956 141.349C7.01586 141.774 6.77783 142.35 6.77783 142.951C6.77783 143.552 7.01586 144.128 7.43956 144.553C7.86326 144.978 8.43791 145.217 9.03711 145.217H12.426C13.0252 145.217 13.5999 144.978 14.0236 144.553C14.4473 144.128 14.6853 143.552 14.6853 142.951C14.6853 142.35 14.4473 141.774 14.0236 141.349C13.5999 140.924 13.0252 140.686 12.426 140.686ZM180.742 140.686H177.353C176.754 140.686 176.18 140.924 175.756 141.349C175.332 141.774 175.094 142.35 175.094 142.951C175.094 143.552 175.332 144.128 175.756 144.553C176.18 144.978 176.754 145.217 177.353 145.217H180.742C181.342 145.217 181.916 144.978 182.34 144.553C182.764 144.128 183.002 143.552 183.002 142.951C183.002 142.35 182.764 141.774 182.34 141.349C181.916 140.924 181.342 140.686 180.742 140.686Z" fill="#ADBDCB"/>
        <path d="M187.52 145.217C188.768 145.217 189.779 144.202 189.779 142.951C189.779 141.7 188.768 140.686 187.52 140.686C186.272 140.686 185.261 141.7 185.261 142.951C185.261 144.202 186.272 145.217 187.52 145.217Z" fill="#ADBDCB"/>
        <path d="M170.261 145.217H19.5189C19.1975 145.259 18.8708 145.232 18.5607 145.137C18.2506 145.043 17.9641 144.883 17.7205 144.668C17.4769 144.454 17.2818 144.19 17.1481 143.894C17.0144 143.598 16.9452 143.276 16.9452 142.951C16.9452 142.626 17.0144 142.305 17.1481 142.009C17.2818 141.713 17.4769 141.448 17.7205 141.234C17.9641 141.02 18.2506 140.86 18.5607 140.765C18.8708 140.671 19.1975 140.643 19.5189 140.686H170.261C170.582 140.643 170.909 140.671 171.219 140.765C171.529 140.86 171.816 141.02 172.059 141.234C172.303 141.448 172.498 141.713 172.632 142.009C172.765 142.305 172.835 142.626 172.835 142.951C172.835 143.276 172.765 143.598 172.632 143.894C172.498 144.19 172.303 144.454 172.059 144.668C171.816 144.883 171.529 145.043 171.219 145.137C170.909 145.232 170.582 145.259 170.261 145.217ZM180.742 140.686H177.354C176.754 140.686 176.18 140.924 175.756 141.349C175.332 141.774 175.094 142.35 175.094 142.951C175.094 143.552 175.332 144.128 175.756 144.553C176.18 144.978 176.754 145.217 177.354 145.217H180.742C181.342 145.217 181.916 144.978 182.34 144.553C182.764 144.128 183.002 143.552 183.002 142.951C183.002 142.35 182.764 141.774 182.34 141.349C181.916 140.924 181.342 140.686 180.742 140.686Z" fill="#ADBDCB"/>
        <path d="M187.52 145.217C188.768 145.217 189.779 144.202 189.779 142.951C189.779 141.7 188.768 140.686 187.52 140.686C186.272 140.686 185.261 141.7 185.261 142.951C185.261 144.202 186.272 145.217 187.52 145.217Z" fill="#ADBDCB"/>
    </g>
    <defs>
        <clipPath id="clip0_2_3560">
            <rect width="189.779" height="145" fill="white" transform="translate(0 0.5)"/>
        </clipPath>
    </defs>
</svg>
