<svg width="214" height="145" viewBox="0 0 214 145" fill="none" xmlns="http://www.w3.org/2000/svg">
    <g clip-path="url(#clip0_2_8144)">
        <path d="M2.54741 145.354C3.95431 145.354 5.09482 144.213 5.09482 142.806C5.09482 141.399 3.95431 140.259 2.54741 140.259C1.14051 140.259 0 141.399 0 142.806C0 144.213 1.14051 145.354 2.54741 145.354Z" fill="#ADBDCB"/>
        <path d="M14.0107 140.258H10.1896C9.51401 140.258 8.86606 140.527 8.38833 141.004C7.9106 141.482 7.64221 142.13 7.64221 142.806C7.64221 143.481 7.9106 144.129 8.38833 144.607C8.86606 145.085 9.51401 145.353 10.1896 145.353H14.0107C14.6864 145.353 15.3343 145.085 15.812 144.607C16.2898 144.129 16.5581 143.481 16.5581 142.806C16.5581 142.13 16.2898 141.482 15.812 141.004C15.3343 140.527 14.6864 140.258 14.0107 140.258ZM203.793 140.258H199.972C199.296 140.258 198.648 140.527 198.17 141.004C197.693 141.482 197.424 142.13 197.424 142.806C197.424 143.481 197.693 144.129 198.17 144.607C198.648 145.085 199.296 145.353 199.972 145.353H203.793C204.468 145.353 205.116 145.085 205.594 144.607C206.072 144.129 206.34 143.481 206.34 142.806C206.34 142.13 206.072 141.482 205.594 141.004C205.116 140.527 204.468 140.258 203.793 140.258Z" fill="#ADBDCB"/>
        <path d="M211.435 145.354C212.842 145.354 213.983 144.213 213.983 142.806C213.983 141.399 212.842 140.259 211.435 140.259C210.028 140.259 208.888 141.399 208.888 142.806C208.888 144.213 210.028 145.354 211.435 145.354Z" fill="#ADBDCB"/>
        <path d="M64.9589 91.858C67.9819 91.858 70.937 90.9616 73.4505 89.2821C75.964 87.6026 77.9231 85.2155 79.0799 82.4226C80.2368 79.6298 80.5395 76.5566 79.9497 73.5917C79.36 70.6268 77.9042 67.9034 75.7667 65.7658C73.6291 63.6282 70.9057 62.1725 67.9408 61.5828C64.9759 60.993 61.9027 61.2957 59.1098 62.4525C56.3169 63.6094 53.9298 65.5684 52.2504 68.0819C50.5709 70.5955 49.6745 73.5506 49.6745 76.5735C49.679 80.6258 51.2908 84.5109 54.1562 87.3763C57.0216 90.2417 60.9066 91.8535 64.9589 91.858ZM64.9589 66.3839C66.9742 66.3839 68.9443 66.9815 70.62 68.1012C72.2957 69.2208 73.6017 70.8122 74.3729 72.6741C75.1442 74.536 75.3459 76.5848 74.9528 78.5614C74.5596 80.538 73.5891 82.3536 72.1641 83.7787C70.739 85.2037 68.9234 86.1742 66.9468 86.5674C64.9702 86.9606 62.9214 86.7588 61.0595 85.9875C59.1976 85.2163 57.6062 83.9103 56.4865 82.2346C55.3669 80.5589 54.7693 78.5889 54.7693 76.5735C54.7724 73.872 55.8469 71.282 57.7572 69.3718C59.6674 67.4615 62.2574 66.387 64.9589 66.3839ZM53.4956 124.974V132.617H48.4008V124.974C48.4008 124.299 48.6691 123.651 49.1469 123.173C49.6246 122.695 50.2726 122.427 50.9482 122.427C51.6238 122.427 52.2717 122.695 52.7495 123.173C53.2272 123.651 53.4956 124.299 53.4956 124.974Z" fill="#0BCEB2"/>
        <path d="M87.9749 97.9201C85.9684 98.5026 84.0554 99.369 82.2942 100.493C80.8915 99.9201 79.4008 99.5926 77.8872 99.525L66.6531 109.587C66.1879 110.005 65.5845 110.237 64.959 110.237C64.3335 110.237 63.7302 110.005 63.265 109.587L52.0309 99.525C43.7264 99.9835 40.7586 106.416 40.7586 111.969V132.616H72.6013V137.711H38.2112C37.5362 137.709 36.8894 137.44 36.4121 136.962C35.9348 136.485 35.6658 135.838 35.6638 135.163V111.969C35.6638 101.461 42.6182 94.4047 52.9735 94.4047C53.5993 94.4028 54.2034 94.6344 54.6675 95.0543L64.959 104.263L75.2506 95.0543C75.7147 94.6344 76.3187 94.4028 76.9446 94.4047C80.9114 94.3076 84.7958 95.5456 87.9749 97.9201Z" fill="#ADBDCB"/>
        <path d="M149.023 91.858C152.046 91.858 155.001 90.9616 157.515 89.2821C160.029 87.6026 161.988 85.2155 163.144 82.4226C164.301 79.6298 164.604 76.5566 164.014 73.5917C163.424 70.6268 161.969 67.9034 159.831 65.7658C157.694 63.6282 154.97 62.1725 152.005 61.5828C149.04 60.993 145.967 61.2957 143.174 62.4525C140.381 63.6094 137.994 65.5684 136.315 68.0819C134.635 70.5955 133.739 73.5506 133.739 76.5735C133.743 80.6258 135.355 84.5109 138.221 87.3763C141.086 90.2417 144.971 91.8535 149.023 91.858ZM149.023 66.3839C151.039 66.3839 153.009 66.9815 154.684 68.1012C156.36 69.2208 157.666 70.8122 158.437 72.6741C159.209 74.536 159.41 76.5848 159.017 78.5614C158.624 80.538 157.654 82.3536 156.229 83.7787C154.804 85.2037 152.988 86.1742 151.011 86.5674C149.035 86.9606 146.986 86.7588 145.124 85.9875C143.262 85.2163 141.671 83.9103 140.551 82.2346C139.431 80.5589 138.834 78.5889 138.834 76.5735C138.837 73.872 139.911 71.282 141.822 69.3718C143.732 67.4615 146.322 66.387 149.023 66.3839ZM106.991 68.9313C103.968 68.9313 101.013 69.8277 98.4995 71.5072C95.986 73.1867 94.027 75.5738 92.8701 78.3667C91.7133 81.1595 91.4106 84.2327 92.0004 87.1976C92.5901 90.1625 94.0458 92.8859 96.1834 95.0235C98.321 97.1611 101.044 98.6168 104.009 99.2065C106.974 99.7963 110.047 99.4936 112.84 98.3368C115.633 97.1799 118.02 95.2209 119.7 92.7074C121.379 90.1938 122.276 87.2387 122.276 84.2158C122.271 80.1635 120.659 76.2784 117.794 73.413C114.928 70.5476 111.043 68.9358 106.991 68.9313ZM106.991 94.4054C104.976 94.4054 103.006 93.8078 101.33 92.6881C99.6544 91.5685 98.3484 89.9771 97.5771 88.1152C96.8059 86.2533 96.6041 84.2045 96.9973 82.2279C97.3905 80.2513 98.3609 78.4356 99.786 77.0106C101.211 75.5856 103.027 74.6151 105.003 74.2219C106.98 73.8287 109.029 74.0305 110.891 74.8018C112.752 75.573 114.344 76.879 115.464 78.5547C116.583 80.2304 117.181 82.2004 117.181 84.2158C117.178 86.9173 116.103 89.5073 114.193 91.4175C112.283 93.3278 109.693 94.4023 106.991 94.4054ZM165.582 124.974V132.617H160.487V124.974C160.487 124.299 160.755 123.651 161.233 123.173C161.711 122.695 162.359 122.427 163.034 122.427C163.71 122.427 164.358 122.695 164.835 123.173C165.313 123.651 165.582 124.299 165.582 124.974Z" fill="#0BCEB2"/>
        <path d="M178.319 111.969V135.163C178.317 135.838 178.048 136.485 177.57 136.962C177.093 137.44 176.446 137.709 175.771 137.711H141.381V132.616H173.224V111.969C173.224 106.416 170.256 99.9836 161.952 99.525L150.718 109.587C150.252 110.005 149.649 110.237 149.024 110.237C148.398 110.237 147.795 110.005 147.33 109.587L136.095 99.525C134.582 99.5926 133.091 99.9201 131.688 100.493C129.927 99.369 128.014 98.5026 126.008 97.9202C129.187 95.5456 133.071 94.3076 137.038 94.4047C137.664 94.4028 138.268 94.6344 138.732 95.0543L149.024 104.263L159.315 95.0543C159.779 94.6344 160.383 94.4028 161.009 94.4047C171.364 94.4048 178.319 101.461 178.319 111.969Z" fill="#ADBDCB"/>
        <path d="M191.973 140.259H136.286V119.612C136.286 109.104 129.332 102.048 118.977 102.048C118.351 102.046 117.747 102.278 117.283 102.697L106.991 111.906L96.6997 102.697C96.2356 102.278 95.6315 102.046 95.0056 102.048C84.6504 102.048 77.696 109.104 77.696 119.612V140.259H22.0096C21.647 140.211 21.2785 140.242 20.9286 140.348C20.5786 140.454 20.2554 140.634 19.9805 140.875C19.7056 141.116 19.4853 141.413 19.3344 141.746C19.1835 142.079 19.1055 142.441 19.1055 142.806C19.1055 143.172 19.1835 143.534 19.3344 143.867C19.4853 144.2 19.7056 144.497 19.9805 144.738C20.2554 144.979 20.5786 145.159 20.9286 145.265C21.2785 145.371 21.647 145.401 22.0096 145.354H191.973C192.335 145.401 192.704 145.371 193.054 145.265C193.404 145.159 193.727 144.979 194.002 144.738C194.277 144.497 194.497 144.2 194.648 143.867C194.799 143.534 194.877 143.172 194.877 142.806C194.877 142.441 194.799 142.079 194.648 141.746C194.497 141.413 194.277 141.116 194.002 140.875C193.727 140.634 193.404 140.454 193.054 140.348C192.704 140.242 192.335 140.211 191.973 140.259ZM131.192 140.259H82.7908V119.612C82.7908 114.059 85.7585 107.627 94.0631 107.168L105.297 117.23C105.762 117.649 106.366 117.88 106.991 117.88C107.617 117.88 108.22 117.649 108.685 117.23L119.919 107.168C128.224 107.627 131.192 114.059 131.192 119.612V140.259Z" fill="#ADBDCB"/>
        <path d="M95.5279 132.617V140.259H90.4331V132.617C90.4331 131.941 90.7015 131.293 91.1792 130.815C91.657 130.338 92.3049 130.069 92.9805 130.069C93.6561 130.069 94.3041 130.338 94.7818 130.815C95.2595 131.293 95.5279 131.941 95.5279 132.617ZM123.549 132.617V140.259H118.455V132.617C118.455 131.941 118.723 131.293 119.201 130.815C119.678 130.338 120.326 130.069 121.002 130.069C121.678 130.069 122.326 130.338 122.803 130.815C123.281 131.293 123.549 131.941 123.549 132.617Z" fill="#0BCEB2"/>
        <path fill-rule="evenodd" clip-rule="evenodd" d="M142.256 5.36696H71.7265C69.6532 5.36696 67.9724 7.04772 67.9724 9.12104V33.3156C67.9724 35.389 69.6532 37.0697 71.7265 37.0697H98.7053L99.0713 37.7037H99.0714L106.522 50.6083L111.087 42.7008L113.972 37.7037L114.339 37.0697H142.256C144.329 37.0697 146.01 35.389 146.01 33.3156V9.12104C146.01 7.04772 144.329 5.36696 142.256 5.36696ZM117.048 42.7008H142.256C147.439 42.7008 151.641 38.4989 151.641 33.3156V9.12104C151.641 3.93774 147.439 -0.26416 142.256 -0.26416H71.7265C66.5432 -0.26416 62.3413 3.93774 62.3413 9.12104V33.3156C62.3413 38.4989 66.5432 42.7008 71.7265 42.7008H95.9962L106.522 60.932L117.048 42.7008Z" fill="#ADBDCB"/>
        <line x1="111.214" y1="10.7213" x2="74.6122" y2="10.7213" stroke="#ADBDCB" stroke-width="4.6926" stroke-linecap="round"/>
        <line x1="94.3212" y1="20.1066" x2="74.6123" y2="20.1066" stroke="#ADBDCB" stroke-width="4.6926" stroke-linecap="round"/>
        <line x1="100.891" y1="29.4918" x2="74.6123" y2="29.4918" stroke="#ADBDCB" stroke-width="4.6926" stroke-linecap="round"/>
        <path d="M129.925 15.9342H132.92C133.186 15.925 133.45 15.9932 133.678 16.1305C133.729 16.7003 134 17.2287 134.436 17.6056C134.871 17.9824 135.437 18.1786 136.015 18.1533C136.593 18.128 137.139 17.8832 137.539 17.4697C137.939 17.0563 138.162 16.5063 138.162 15.9342C138.093 14.7842 137.596 13.7002 136.766 12.8914C135.936 12.0826 134.833 11.6063 133.669 11.5543V10.3817C133.669 9.7926 133.432 9.22768 133.011 8.81116C132.59 8.39464 132.018 8.16064 131.422 8.16064C130.827 8.16064 130.255 8.39464 129.834 8.81116C129.412 9.22768 129.176 9.7926 129.176 10.3817V11.5543C128.012 11.6063 126.908 12.0826 126.079 12.8914C125.249 13.7002 124.752 14.7842 124.683 15.9342V18.1552C124.683 20.6462 126.985 22.5972 129.925 22.5972H132.92C133.183 22.5887 133.442 22.6545 133.669 22.787V24.6284C133.442 24.7608 133.183 24.8267 132.92 24.8182H129.925C129.658 24.8274 129.395 24.7592 129.167 24.6219C129.116 24.052 128.844 23.5236 128.409 23.1468C127.974 22.7699 127.408 22.5737 126.83 22.599C126.252 22.6243 125.706 22.8692 125.306 23.2826C124.906 23.696 124.683 24.2461 124.683 24.8182C124.752 25.9682 125.249 27.0521 126.079 27.8609C126.908 28.6697 128.012 29.1461 129.176 29.198V30.3707C129.176 30.9598 129.412 31.5247 129.834 31.9412C130.255 32.3577 130.827 32.5917 131.422 32.5917C132.018 32.5917 132.59 32.3577 133.011 31.9412C133.432 31.5247 133.669 30.9598 133.669 30.3707V29.198C134.833 29.1461 135.936 28.6697 136.766 27.8609C137.596 27.0521 138.093 25.9682 138.162 24.8182V22.5972C138.162 20.1061 135.859 18.1552 132.92 18.1552H129.925C129.662 18.1637 129.402 18.0978 129.176 17.9654V16.124C129.402 15.9915 129.662 15.9257 129.925 15.9342Z" fill="#0BCEB2"/>
    </g>
    <defs>
        <clipPath id="clip0_2_8144">
            <rect width="214" height="145" fill="white"/>
        </clipPath>
    </defs>
</svg>
