<svg width="190" height="146" viewBox="0 0 190 146" fill="none" xmlns="http://www.w3.org/2000/svg">
    <g clip-path="url(#clip0_2_3593)">
        <path d="M32.6875 33.5C31.9747 33.5 31.2912 33.8117 30.7872 34.3665C30.2831 34.9213 30 35.6737 30 36.4583C30 37.2429 30.2831 37.9954 30.7872 38.5502C31.2912 39.105 31.9747 39.4167 32.6875 39.4167H38.0625C38.7753 39.4167 39.4588 39.105 39.9628 38.5502C40.4669 37.9954 40.75 37.2429 40.75 36.4583C40.75 35.6737 40.4669 34.9213 39.9628 34.3665C39.4588 33.8117 38.7753 33.5 38.0625 33.5H32.6875ZM156.312 39.4167C157.025 39.4167 157.709 39.105 158.213 38.5502C158.717 37.9954 159 37.2429 159 36.4583C159 35.6737 158.717 34.9213 158.213 34.3665C157.709 33.8117 157.025 33.5 156.312 33.5H150.938C150.225 33.5 149.541 33.8117 149.037 34.3665C148.533 34.9213 148.25 35.6737 148.25 36.4583C148.25 37.2429 148.533 37.9954 149.037 38.5502C149.541 39.105 150.225 39.4167 150.938 39.4167H156.312ZM32.6875 98.5833C31.9747 98.5833 31.2912 98.895 30.7872 99.4498C30.2831 100.005 30 100.757 30 101.542C30 102.326 30.2831 103.079 30.7872 103.634C31.2912 104.188 31.9747 104.5 32.6875 104.5H38.0625C38.7753 104.5 39.4588 104.188 39.9628 103.634C40.4669 103.079 40.75 102.326 40.75 101.542C40.75 100.757 40.4669 100.005 39.9628 99.4498C39.4588 98.895 38.7753 98.5833 38.0625 98.5833H32.6875ZM156.312 104.5C157.025 104.5 157.709 104.188 158.213 103.634C158.717 103.079 159 102.326 159 101.542C159 100.757 158.717 100.005 158.213 99.4498C157.709 98.895 157.025 98.5833 156.312 98.5833H150.938C150.225 98.5833 149.541 98.895 149.037 99.4498C148.533 100.005 148.25 100.757 148.25 101.542C148.25 102.326 148.533 103.079 149.037 103.634C149.541 104.188 150.225 104.5 150.938 104.5H156.312Z" fill="#0BCEB2"/>
        <path d="M161.882 19.6516H128.252V9.3392C128.25 6.99568 127.361 4.74889 125.781 3.09177C124.201 1.43465 122.059 0.502558 119.824 0.5H69.2556C67.0211 0.502558 64.8788 1.43465 63.2987 3.09177C61.7187 4.74889 60.8299 6.99568 60.8275 9.3392V19.6516L26.9351 19.6525C24.7028 19.6529 22.5617 20.5819 20.9817 22.2357C19.4017 23.8896 18.5117 26.1332 18.507 28.4744V44.4624C18.5082 45.7018 18.7591 46.927 19.2432 48.0576C19.7273 49.1882 20.4338 50.1988 21.3163 51.0231V138.982C21.3188 141.325 22.2075 143.572 23.7876 145.229C25.3676 146.886 27.5099 147.818 29.7445 147.821L69.6232 147.82C66.7932 146.205 64.1667 144.225 61.8046 141.927L29.7445 141.928C28.9996 141.927 28.2855 141.617 27.7589 141.064C27.2322 140.512 26.9359 139.763 26.9351 138.982V53.5716L68.4529 68.5169C69.6735 66.7986 70.9263 65.0983 72.1609 63.4329L26.2307 47.298C25.6296 47.1372 25.0966 46.7713 24.7155 46.258C24.3344 45.7446 24.127 45.113 24.1257 44.4624V28.4744C24.1286 27.6955 24.426 26.9496 24.9527 26.4005C25.4795 25.8513 26.1924 25.5438 26.9351 25.5453L161.882 25.5444C162.625 25.5429 163.337 25.8504 163.864 26.3996C164.391 26.9487 164.688 27.6946 164.691 28.4735V44.4615C164.69 45.1121 164.482 45.7437 164.101 46.2571C163.72 46.7704 163.187 47.1363 162.586 47.2971L116.681 63.4972C117.973 65.1124 119.285 66.7744 120.582 68.528L161.882 53.5706V138.981C161.881 139.762 161.585 140.511 161.058 141.063C160.531 141.616 159.817 141.926 159.072 141.927H127.285C124.928 144.224 122.307 146.204 119.483 147.82H159.072C161.307 147.817 163.449 146.885 165.029 145.228C166.609 143.571 167.498 141.324 167.501 138.981V51.022C168.383 50.1978 169.09 49.1872 169.574 48.0566C170.058 46.926 170.309 45.7009 170.31 44.4615V28.4735C170.305 26.1323 169.415 23.8887 167.835 22.2348C166.255 20.581 164.114 19.652 161.882 19.6516ZM66.4462 19.6516V9.3392C66.4471 8.55804 66.7433 7.80913 67.27 7.25677C67.7967 6.7044 68.5108 6.39369 69.2556 6.3928H119.824C120.569 6.39369 121.283 6.7044 121.81 7.25677C122.337 7.80913 122.633 8.55804 122.634 9.3392V19.6516H66.4462Z" fill="#ADBDCB"/>
        <path d="M128.919 111.165C129.782 96.8875 123.605 85.3629 116.13 74.5421C112.139 68.7672 107.406 64.3909 103.709 58.3778C103.709 58.3778 105.326 48.9618 107.228 44.782C107.912 43.2796 109.341 41.9215 109.31 40.1359C109.281 39.5158 109.042 38.9241 108.632 38.4589C108.222 37.9936 107.665 37.6826 107.055 37.5776C106.85 37.5366 106.642 37.5162 106.434 37.5168C105.436 37.5722 104.47 37.8891 103.633 38.4359C101.963 39.4329 100.694 40.6863 98.8286 40.6863C98.4805 40.6848 98.1337 40.6439 97.7947 40.5643C97.6491 40.5309 97.5045 40.492 97.3612 40.4494C95.7875 39.9818 95.324 37.5892 93.9798 36.7696C93.7169 36.5991 93.4115 36.5058 93.0984 36.5C91.6595 36.4997 90.563 38.6579 89.5697 39.7245C89.2165 40.1719 88.7746 40.5411 88.2718 40.8087C87.7691 41.0763 87.2163 41.2366 86.6486 41.2795C86.1632 41.2736 85.6854 41.1578 85.251 40.9408C83.8746 40.2823 82.8691 38.9101 81.4113 38.3592C81.1632 38.265 80.9001 38.2166 80.6348 38.2164C80.12 38.2198 79.6218 38.3994 79.2229 38.7254C78.824 39.0515 78.5484 39.5043 78.4419 40.0089C78.0899 41.6327 79.3743 43.0679 80.2074 44.2963C80.2074 44.2963 83.0341 47.1835 84.8726 58.3185C81.2612 63.8682 76.5776 69.1749 72.8704 74.5421C65.3961 85.3629 59.2161 96.8875 60.081 111.165C61.1104 128.261 75.9211 136.629 89.4157 137.434C90.8599 137.52 98.0584 137.524 99.584 137.434C113.08 136.629 127.889 128.261 128.919 111.165ZM92.9349 43.598C93.7688 44.4176 94.7893 45.0216 95.9083 45.3578C96.1548 45.431 96.4036 45.4974 96.6541 45.5549C97.3673 45.7199 98.0967 45.8042 98.8286 45.8059C99.7459 45.8059 100.658 45.668 101.535 45.3968C100.491 48.7783 99.6459 52.2181 99.0037 55.6985H89.6006C89.0431 52.5238 88.1957 49.4071 87.0691 46.3876C89.3031 46.2223 91.395 45.2275 92.9349 43.598ZM99.2819 132.323C97.7192 132.416 89.7196 132.323 89.7196 132.323C78.108 131.631 66.0177 124.724 65.1828 110.854C64.3905 97.7775 70.4295 87.0739 77.0736 77.455C78.6536 75.1674 80.421 72.8904 82.292 70.4796C84.6287 67.4689 87.0449 64.3558 89.1545 61.1141L89.3471 60.8182H99.2067L99.357 61.0626C101.537 64.4595 103.968 67.6876 106.63 70.7197C108.515 72.9692 110.295 75.0938 111.927 77.4552C118.57 87.0717 124.608 97.7737 123.818 110.856C122.982 124.724 110.891 131.631 99.2819 132.323V132.323Z" fill="#ADBDCB"/>
        <path d="M95.9171 86.92V79.12H99.2451V86.92H95.9171ZM88.9491 86.92V79.12H92.2771V86.92H88.9491ZM95.9171 126.596V118.796H99.2451V126.596H95.9171ZM88.9491 126.596V118.796H92.2771V126.596H88.9491ZM84.1651 121.5V84.372H92.6931C95.6051 84.372 98.0318 84.6667 99.9731 85.256C101.949 85.8453 103.422 86.816 104.393 88.168C105.398 89.52 105.901 91.3227 105.901 93.576C105.901 95.032 105.658 96.332 105.173 97.476C104.722 98.5853 104.029 99.5213 103.093 100.284C102.192 101.012 101.065 101.515 99.7131 101.792V102.052C101.1 102.295 102.33 102.745 103.405 103.404C104.514 104.063 105.381 104.999 106.005 106.212C106.664 107.425 106.993 109.003 106.993 110.944C106.993 113.197 106.508 115.121 105.537 116.716C104.601 118.276 103.249 119.472 101.481 120.304C99.7131 121.101 97.5984 121.5 95.1371 121.5H84.1651ZM93.6291 100.18C96.4718 100.18 98.4131 99.6773 99.4531 98.672C100.528 97.632 101.065 96.1067 101.065 94.096C101.065 92.0507 100.406 90.5947 99.0891 89.728C97.8064 88.8267 95.7438 88.376 92.9011 88.376H88.8451V100.18H93.6291ZM88.8451 104.08V117.548H94.2531C97.1304 117.548 99.1411 116.907 100.285 115.624C101.429 114.341 102.001 112.66 102.001 110.58C102.001 109.263 101.741 108.119 101.221 107.148C100.736 106.177 99.9038 105.432 98.7251 104.912C97.5464 104.357 95.9344 104.08 93.8891 104.08H88.8451Z" fill="#0BCEB2"/>
    </g>
    <defs>
        <clipPath id="clip0_2_3593">
            <rect width="189.08" height="145" fill="white" transform="translate(0 0.5)"/>
        </clipPath>
    </defs>
</svg>
