<svg width="214" height="146" viewBox="0 0 214 146" fill="none" xmlns="http://www.w3.org/2000/svg">
    <path d="M169.104 32.908C172.004 31.1795 174.466 28.8048 176.301 25.9686C176.645 25.3788 176.742 24.6764 176.57 24.0152C176.398 23.354 175.972 22.7878 175.385 22.4404C174.797 22.093 174.096 21.9927 173.435 22.1615C172.774 22.3303 172.207 22.7544 171.857 23.341C170.407 25.5027 168.482 27.3037 166.23 28.6065C165.491 28.0976 164.657 27.7436 163.778 27.566C162.899 27.3883 161.993 27.3906 161.115 27.5727C160.237 27.7549 159.404 28.1131 158.668 28.6257C157.932 29.1384 157.307 29.795 156.83 30.5559C152.639 30.1601 148.087 28.3043 143.22 24.9481C127.308 13.9684 115.587 17.893 109.571 21.6903V17.7516C111.65 17.1311 113.436 15.782 114.603 13.9511C115.771 12.1201 116.24 9.92978 115.927 7.78046C115.614 5.63115 114.539 3.66652 112.898 2.24582C111.257 0.825124 109.16 0.0432932 106.991 0.0432932C104.822 0.0432932 102.725 0.825124 101.085 2.24582C99.4437 3.66652 98.3684 5.63115 98.0552 7.78046C97.7421 9.92978 98.212 12.1201 99.379 13.9511C100.546 15.782 102.332 17.1311 104.411 17.7516V21.6908C98.3959 17.8944 86.6742 13.9707 70.763 24.9481C65.8963 28.3058 61.3441 30.1616 57.1526 30.5569C56.6764 29.7958 56.0514 29.139 55.315 28.6262C54.5787 28.1134 53.7463 27.7551 52.868 27.5729C51.9897 27.3907 51.0837 27.3883 50.2045 27.566C49.3253 27.7436 48.4911 28.0976 47.7521 28.6066C45.5039 27.306 43.5817 25.509 42.1317 23.3524C41.7852 22.7615 41.2185 22.3327 40.5562 22.1602C39.894 21.9877 39.1905 22.0857 38.6004 22.4326C38.0103 22.7796 37.582 23.347 37.4098 24.0101C37.2375 24.6733 37.3354 25.3778 37.6818 25.9686C39.5163 28.8048 41.979 31.1794 44.8786 32.908L24.9464 93.9376C24.436 95.5039 24.3023 97.1687 24.5561 98.7966C24.8099 100.424 25.4442 101.969 26.4071 103.305C27.3402 104.614 28.5727 105.679 30.0015 106.413C31.4304 107.146 33.0139 107.526 34.6195 107.521H68.4154C70.0211 107.526 71.6046 107.146 73.0334 106.413C74.4623 105.679 75.6948 104.614 76.6279 103.305C77.5908 101.969 78.225 100.424 78.4789 98.7965C78.7327 97.1687 78.599 95.5038 78.0886 93.9375L59.0154 35.5381C64.3219 34.5613 69.3389 32.3951 73.6909 29.2017C91.0722 17.2151 101.812 25.6074 104.411 28.1103L103.927 119.213H97.4767C96.7991 119.213 96.1281 119.347 95.502 119.606C94.8759 119.866 94.3071 120.247 93.8279 120.727C93.3487 121.206 92.9686 121.776 92.7093 122.403C92.4499 123.03 92.3164 123.702 92.3164 124.38V129.547H91.0263C90.3487 129.547 89.6777 129.681 89.0516 129.94C88.4256 130.2 87.8567 130.58 87.3775 131.06C86.8983 131.54 86.5182 132.11 86.2589 132.736C85.9995 133.363 85.866 134.035 85.866 134.714V139.881C85.874 140.097 85.8957 140.313 85.9311 140.527L85.0875 141.582C84.4032 141.582 81.9453 140.799 81.4615 141.283C80.9776 141.768 80.7058 142.425 80.7058 143.11C80.7058 143.795 80.9776 144.452 81.4615 144.937C81.9453 145.421 82.6015 145.693 83.2858 145.693H129.729C130.413 145.693 131.069 145.421 131.553 144.937C132.037 144.452 132.309 143.795 132.309 143.11C132.309 142.425 132.037 141.768 131.553 141.283C131.069 140.799 127.833 141.283 127.149 141.283L127.084 140.527C127.119 140.313 127.141 140.097 127.149 139.881V134.714C127.149 134.035 127.015 133.363 126.756 132.736C126.497 132.11 126.116 131.54 125.637 131.06C125.158 130.58 124.589 130.2 123.963 129.94C123.337 129.681 122.666 129.547 121.988 129.547H120.698V124.38C120.698 123.702 120.565 123.03 120.305 122.403C120.046 121.776 119.666 121.206 119.187 120.727C118.708 120.247 118.139 119.866 117.513 119.606C116.887 119.347 116.216 119.213 115.538 119.213H109.088L109.571 28.1117C112.186 25.5943 122.922 17.2208 140.292 29.2017C144.641 32.3996 149.655 34.5728 154.96 35.5593L135.894 93.9376C135.383 95.5039 135.25 97.1687 135.504 98.7966C135.757 100.424 136.392 101.969 137.355 103.305C138.288 104.614 139.52 105.679 140.949 106.413C142.378 107.146 143.961 107.526 145.567 107.521H179.363C180.969 107.526 182.552 107.146 183.981 106.413C185.41 105.679 186.642 104.614 187.575 103.305C188.538 101.969 189.172 100.424 189.426 98.7965C189.68 97.1686 189.546 95.5038 189.036 93.9375L169.104 32.908ZM68.4154 102.354H34.6195C33.2692 102.335 31.9814 101.781 31.0392 100.812C30.097 99.8429 29.5774 98.5392 29.5946 97.1871H73.4405C73.4576 98.5393 72.938 99.843 71.9958 100.812C71.0536 101.781 69.7658 102.335 68.4154 102.354ZM46.3572 92.0202H49.8712H56.1112H56.6778H46.3572ZM72.0331 92.0202H61.8382H60.3267C59.8618 92.0202 59.0025 92.0202 58.6526 92.0202C58.3026 92.0202 58.2124 92.0202 58.0312 92.0202C57.5512 92.0202 58.3974 92.0202 57.5512 92.0202C56.5912 92.0202 54.3888 92.0202 53.7112 92.0202H50.8312C50.1535 92.0202 48.1999 92.0202 47.4712 92.0202C46.5112 92.0202 44.8496 92.0202 44.1112 92.0202C43.6312 92.0202 43.9475 92.0202 43.1512 92.0202C42.5301 92.0202 42.8264 92.0202 42.1912 92.0202H41.1968H31.0019L49.6276 34.9905C50.0571 35.1168 50.4908 35.2391 50.9443 35.3399C51.8368 35.531 52.7409 35.6632 53.6507 35.7358L72.0331 92.0202ZM121.988 134.714V139.881H91.0263V134.714H121.988ZM115.538 124.38V129.547H97.4767V124.38H115.538ZM106.991 12.9656C106.226 12.9655 105.478 12.7382 104.841 12.3124C104.205 11.8865 103.709 11.2813 103.416 10.5732C103.123 9.86512 103.046 9.08597 103.196 8.33428C103.345 7.58259 103.714 6.89213 104.255 6.3502C104.796 5.80828 105.486 5.43923 106.237 5.28972C106.987 5.14022 107.765 5.21697 108.472 5.51028C109.18 5.80359 109.784 6.30028 110.209 6.93754C110.634 7.5748 110.861 8.32401 110.861 9.09043C110.86 10.1179 110.452 11.1029 109.727 11.8294C109.001 12.5559 108.017 12.9645 106.991 12.9656ZM160.326 35.7529C161.238 35.675 162.144 35.537 163.038 35.3399C163.492 35.2391 163.925 35.1168 164.355 34.9905L182.981 92.0202H172.786H169.391C168.195 92.0202 168.431 92.0202 167.247 92.0202C166.031 92.0202 166.511 92.0202 165.302 92.0202C164.391 92.0202 164.591 92.0202 163.631 92.0202C162.922 92.0202 162.668 92.0202 161.99 92.0202H160.271C159.594 92.0202 159.626 92.0202 158.587 92.0202C157.627 92.0202 156.649 92.0202 155.951 92.0202C155.097 92.0202 154.511 92.0202 154.511 92.0202C154.511 92.0202 153.851 92.0202 153.071 92.0202H152.144H141.949L160.326 35.7529ZM179.363 102.354H145.567C144.217 102.335 142.929 101.781 141.987 100.812C141.044 99.843 140.525 98.5393 140.542 97.1871H184.388C184.405 98.5392 183.885 99.8429 182.943 100.812C182.001 101.781 180.713 102.335 179.363 102.354Z" fill="#ADBDCB"/>
    <path d="M50.9683 89.3504C53.3997 89.3514 55.7565 88.521 57.6383 87.0003C59.5201 85.4795 60.8109 83.3622 61.2913 81.008C61.7718 78.6538 61.4122 76.208 60.2738 74.0859C59.1354 71.9639 57.2883 70.2965 55.0463 69.3672V66.9728C55.0463 66.7354 54.9509 66.5077 54.7809 66.3398C54.611 66.172 54.3805 66.0777 54.1401 66.0777H51.8745V64.735C51.8745 64.1415 52.1132 63.5723 52.5381 63.1527C52.963 62.733 53.5392 62.4972 54.1401 62.4972C54.741 62.4972 55.3172 62.733 55.7421 63.1527C56.167 63.5723 56.4057 64.1415 56.4057 64.735V65.9792C56.4069 66.9545 56.7997 67.8896 57.498 68.5792C58.1962 69.2689 59.1429 69.6569 60.1304 69.6581H60.9369V67.8679H60.1304C59.6232 67.8679 59.1369 67.6689 58.7782 67.3147C58.4196 66.9605 58.2182 66.4801 58.2182 65.9792V64.735C58.2182 63.6667 57.7885 62.6422 57.0237 61.8868C56.259 61.1314 55.2217 60.707 54.1401 60.707C53.0585 60.707 52.0212 61.1314 51.2565 61.8868C50.4917 62.6422 50.062 63.6667 50.062 64.735V66.0777H47.7964C47.5561 66.0777 47.3256 66.172 47.1556 66.3398C46.9856 66.5077 46.8902 66.7354 46.8902 66.9728V69.3672C44.6482 70.2965 42.8011 71.9639 41.6627 74.0859C40.5243 76.208 40.1647 78.6538 40.6452 81.008C41.1256 83.3622 42.4164 85.4795 44.2982 87.0003C46.18 88.521 48.5368 89.3514 50.9683 89.3504ZM48.7027 67.8679H53.2339V68.8032C51.7417 68.475 50.1948 68.475 48.7027 68.8032V67.8679Z" fill="#58ADFC"/>
    <path d="M161.049 67.5232H164.979C165.329 67.5111 165.675 67.6005 165.974 67.7804C166.041 68.5271 166.398 69.2195 166.969 69.7133C167.541 70.2071 168.283 70.4642 169.042 70.431C169.801 70.3979 170.517 70.077 171.042 69.5353C171.567 68.9936 171.86 68.2728 171.86 67.5232C171.769 66.0163 171.117 64.5959 170.028 63.5361C168.939 62.4763 167.491 61.8521 165.963 61.7841V60.2474C165.963 59.4756 165.652 58.7353 165.099 58.1896C164.546 57.6438 163.796 57.3372 163.014 57.3372C162.232 57.3372 161.482 57.6438 160.929 58.1896C160.376 58.7353 160.066 59.4756 160.066 60.2474V61.7841C158.538 61.8521 157.09 62.4763 156.001 63.5361C154.912 64.5959 154.259 66.0163 154.168 67.5232V70.4334C154.168 73.6976 157.19 76.254 161.049 76.254H164.979C165.324 76.2429 165.666 76.3292 165.963 76.5027V78.9156C165.666 79.0891 165.324 79.1754 164.979 79.1643H161.049C160.699 79.1763 160.353 79.0869 160.054 78.9071C159.987 78.1604 159.631 77.468 159.059 76.9742C158.488 76.4804 157.745 76.2233 156.987 76.2564C156.228 76.2896 155.511 76.6105 154.986 77.1522C154.461 77.6939 154.168 78.4146 154.168 79.1643C154.259 80.6711 154.912 82.0915 156.001 83.1513C157.09 84.2112 158.538 84.8353 160.066 84.9034V86.44C160.066 87.2119 160.376 87.9521 160.929 88.4979C161.482 89.0437 162.232 89.3503 163.014 89.3503C163.796 89.3503 164.546 89.0437 165.099 88.4979C165.652 87.9521 165.963 87.2119 165.963 86.44V84.9034C167.491 84.8353 168.939 84.2112 170.028 83.1513C171.117 82.0915 171.769 80.6711 171.86 79.1643V76.254C171.86 72.9899 168.838 70.4334 164.979 70.4334H161.049C160.704 70.4446 160.363 70.3583 160.066 70.1848V67.7718C160.363 67.5983 160.704 67.512 161.049 67.5232Z" fill="#58ADFC"/>
    <path d="M2.54741 145.846C3.95431 145.846 5.09482 144.708 5.09482 143.304C5.09482 141.9 3.95431 140.762 2.54741 140.762C1.14051 140.762 0 141.9 0 143.304C0 144.708 1.14051 145.846 2.54741 145.846Z" fill="#ADBDCB"/>
    <path d="M14.0107 140.762H10.1896C9.51401 140.762 8.86606 141.03 8.38833 141.507C7.9106 141.983 7.64221 142.63 7.64221 143.304C7.64221 143.978 7.9106 144.625 8.38833 145.102C8.86606 145.578 9.51401 145.846 10.1896 145.846H14.0107C14.6864 145.846 15.3343 145.578 15.812 145.102C16.2898 144.625 16.5581 143.978 16.5581 143.304C16.5581 142.63 16.2898 141.983 15.812 141.507C15.3343 141.03 14.6864 140.762 14.0107 140.762ZM203.793 140.762H199.972C199.296 140.762 198.648 141.03 198.17 141.507C197.693 141.983 197.424 142.63 197.424 143.304C197.424 143.978 197.693 144.625 198.17 145.102C198.648 145.578 199.296 145.846 199.972 145.846H203.793C204.468 145.846 205.116 145.578 205.594 145.102C206.072 144.625 206.34 143.978 206.34 143.304C206.34 142.63 206.072 141.983 205.594 141.507C205.116 141.03 204.468 140.762 203.793 140.762Z" fill="#ADBDCB"/>
    <path d="M211.435 145.846C212.842 145.846 213.982 144.708 213.982 143.304C213.982 141.9 212.842 140.762 211.435 140.762C210.028 140.762 208.888 141.9 208.888 143.304C208.888 144.708 210.028 145.846 211.435 145.846Z" fill="#ADBDCB"/>
    <path d="M191.975 145.846H22.008C21.6456 145.893 21.2773 145.862 20.9276 145.756C20.5779 145.65 20.255 145.471 19.9803 145.23C19.7056 144.99 19.4856 144.693 19.3348 144.361C19.1841 144.029 19.1061 143.668 19.1061 143.303C19.1061 142.939 19.1841 142.578 19.3348 142.246C19.4856 141.914 19.7056 141.617 19.9803 141.377C20.255 141.136 20.5779 140.957 20.9276 140.851C21.2773 140.745 21.6456 140.714 22.008 140.761H191.975C192.337 140.714 192.705 140.745 193.055 140.851C193.405 140.957 193.728 141.136 194.002 141.377C194.277 141.617 194.497 141.914 194.648 142.246C194.799 142.578 194.876 142.939 194.876 143.303C194.876 143.668 194.799 144.029 194.648 144.361C194.497 144.693 194.277 144.99 194.002 145.23C193.728 145.471 193.405 145.65 193.055 145.756C192.705 145.862 192.337 145.893 191.975 145.846Z" fill="#ADBDCB"/>
</svg>
