<svg width="191" height="146" viewBox="0 0 191 146" fill="none" xmlns="http://www.w3.org/2000/svg">
    <g clip-path="url(#clip0_2_3549)">
        <path d="M95.1563 53.4253C91.3474 53.4253 87.6241 54.5547 84.4572 56.6708C81.2903 58.7869 78.8219 61.7945 77.3644 65.3135C75.9068 68.8324 75.5254 72.7045 76.2685 76.4401C77.0115 80.1758 78.8457 83.6072 81.5389 86.3004C84.2322 88.9937 87.6636 90.8278 91.3992 91.5709C95.1349 92.3139 99.007 91.9326 102.526 90.475C106.045 89.0174 109.052 86.5491 111.169 83.3822C113.285 80.2152 114.414 76.4919 114.414 72.6831C114.408 67.5774 112.378 62.6824 108.767 59.0721C105.157 55.4618 100.262 53.431 95.1563 53.4253ZM95.1563 87.4097C92.2436 87.4097 89.3964 86.546 86.9746 84.9278C84.5528 83.3096 82.6653 81.0096 81.5507 78.3187C80.4361 75.6278 80.1444 72.6668 80.7127 69.8101C81.2809 66.9534 82.6835 64.3294 84.743 62.2699C86.8025 60.2103 89.4266 58.8077 92.2833 58.2395C95.1399 57.6713 98.1009 57.9629 100.792 59.0775C103.483 60.1922 105.783 62.0797 107.401 64.5015C109.019 66.9232 109.883 69.7705 109.883 72.6831C109.878 76.5874 108.325 80.3306 105.565 83.0914C102.804 85.8522 99.0606 87.4052 95.1563 87.4097Z" fill="#58ADFC"/>
        <path d="M41.9141 38.6987C45.7229 38.6987 49.4462 37.5693 52.6131 35.4532C55.7801 33.3371 58.2484 30.3295 59.706 26.8106C61.1635 23.2917 61.5449 19.4196 60.8018 15.6839C60.0588 11.9483 58.2246 8.51685 55.5314 5.8236C52.8381 3.13034 49.4067 1.29621 45.6711 0.553148C41.9354 -0.189919 38.0633 0.19145 34.5444 1.64903C31.0255 3.10661 28.0179 5.57493 25.9018 8.74186C23.7857 11.9088 22.6563 15.6321 22.6562 19.4409C22.6619 24.5467 24.6927 29.4417 28.303 33.052C31.9133 36.6623 36.8083 38.693 41.9141 38.6987ZM41.9141 4.71436C44.8267 4.71436 47.6739 5.57806 50.0957 7.19624C52.5175 8.81441 54.405 11.1144 55.5196 13.8053C56.6343 16.4962 56.9259 19.4573 56.3577 22.3139C55.7894 25.1706 54.3869 27.7946 52.3273 29.8542C50.2678 31.9137 47.6437 33.3163 44.7871 33.8845C41.9304 34.4527 38.9694 34.1611 36.2785 33.0465C33.5875 31.9319 31.2875 30.0443 29.6694 27.6226C28.0512 25.2008 27.1875 22.3536 27.1875 19.4409C27.1919 15.5366 28.7449 11.7934 31.5057 9.03256C34.2665 6.27175 38.0097 4.71878 41.9141 4.71436ZM167.656 19.4409C167.656 15.6321 166.527 11.9088 164.411 8.74186C162.295 5.57493 159.287 3.10661 155.768 1.64903C152.249 0.19145 148.377 -0.189919 144.641 0.553148C140.906 1.29621 137.474 3.13034 134.781 5.8236C132.088 8.51685 130.254 11.9483 129.511 15.6839C128.768 19.4196 129.149 23.2917 130.607 26.8106C132.064 30.3295 134.532 33.3371 137.699 35.4532C140.866 37.5693 144.59 38.6987 148.398 38.6987C153.504 38.693 158.399 36.6623 162.009 33.052C165.62 29.4417 167.651 24.5467 167.656 19.4409ZM133.672 19.4409C133.672 16.5283 134.536 13.6811 136.154 11.2593C137.772 8.83751 140.072 6.94998 142.763 5.83536C145.454 4.72074 148.415 4.4291 151.271 4.99733C154.128 5.56556 156.752 6.96813 158.812 9.02768C160.871 11.0872 162.274 13.7112 162.842 16.5679C163.41 19.4246 163.119 22.3856 162.004 25.0765C160.889 27.7675 159.002 30.0674 156.58 31.6856C154.158 33.3038 151.311 34.1675 148.398 34.1675C144.494 34.1631 140.751 32.6101 137.99 29.8493C135.229 27.0885 133.676 23.3453 133.672 19.4409Z" fill="#ADBDCB"/>
        <path d="M41.9141 21.7065C43.1653 21.7065 44.1797 20.6922 44.1797 19.4409C44.1797 18.1896 43.1653 17.1753 41.9141 17.1753C40.6628 17.1753 39.6484 18.1896 39.6484 19.4409C39.6484 20.6922 40.6628 21.7065 41.9141 21.7065Z" fill="#58ADFC"/>
        <path d="M148.398 21.7065C149.65 21.7065 150.664 20.6922 150.664 19.4409C150.664 18.1896 149.65 17.1753 148.398 17.1753C147.147 17.1753 146.133 18.1896 146.133 19.4409C146.133 20.6922 147.147 21.7065 148.398 21.7065Z" fill="#58ADFC"/>
        <path d="M2.26562 145.183C3.5169 145.183 4.53125 144.169 4.53125 142.917C4.53125 141.666 3.5169 140.652 2.26562 140.652C1.01435 140.652 0 141.666 0 142.917C0 144.169 1.01435 145.183 2.26562 145.183Z" fill="#ADBDCB"/>
        <path d="M188.047 145.183C189.298 145.183 190.312 144.169 190.312 142.917C190.312 141.666 189.298 140.652 188.047 140.652C186.796 140.652 185.781 141.666 185.781 142.917C185.781 144.169 186.796 145.183 188.047 145.183Z" fill="#ADBDCB"/>
        <path d="M56.6406 80.6128H59.7868C60.7037 84.6805 62.3124 88.5605 64.5426 92.0837L62.3146 94.3106C61.4661 95.1611 60.9896 96.3134 60.9896 97.5148C60.9896 98.7163 61.4661 99.8686 62.3146 100.719L67.1202 105.525C67.9705 106.374 69.123 106.851 70.3245 106.851C71.5261 106.851 72.6786 106.374 73.5288 105.525L75.7557 103.297C79.2789 105.527 83.1589 107.136 87.2266 108.052V111.199C87.2278 112.4 87.7055 113.552 88.5551 114.401C89.4046 115.251 90.5564 115.729 91.7578 115.73H98.5547C99.7561 115.729 100.908 115.251 101.757 114.401C102.607 113.552 103.085 112.4 103.086 111.199V108.053C107.154 107.136 111.034 105.527 114.557 103.297L116.784 105.525C117.634 106.373 118.787 106.85 119.988 106.85C121.189 106.85 122.342 106.373 123.192 105.525L127.998 100.719C128.846 99.8686 129.323 98.7162 129.323 97.5148C129.323 96.3134 128.846 95.1611 127.998 94.3105L125.77 92.0836C128 88.5605 129.609 84.6804 130.526 80.6128H133.672C134.873 80.6116 136.025 80.1338 136.875 79.2843C137.724 78.4348 138.202 77.2829 138.203 76.0815V69.2846C138.202 68.0833 137.724 66.9315 136.875 66.082C136.025 65.2325 134.873 64.7547 133.672 64.7534H130.526C129.609 60.6859 128 56.8061 125.77 53.2831C125.77 53.2831 127.985 51.068 127.998 51.0557C128.824 50.1934 129.285 49.0456 129.285 47.8517C129.285 46.6577 128.824 45.5099 127.998 44.6476L123.192 39.8415C122.342 38.9925 121.19 38.5156 119.988 38.5156C118.786 38.5156 117.634 38.9925 116.784 39.8415L114.557 42.0684C111.034 39.8385 107.154 38.2302 103.086 37.3137V34.1675C103.085 32.9661 102.607 31.8143 101.757 30.9648C100.908 30.1153 99.7561 29.6375 98.5547 29.6362H91.7578C90.5564 29.6375 89.4046 30.1153 88.5551 30.9648C87.7057 31.8143 87.2278 32.9661 87.2266 34.1675V37.3137C83.1589 38.2302 79.2789 39.8385 75.7557 42.0684L73.5288 39.8415C72.6786 38.9925 71.5261 38.5156 70.3245 38.5156C69.123 38.5156 67.9705 38.9925 67.1202 39.8415L62.3147 44.6469C61.4875 45.5085 61.0256 46.6566 61.0256 47.851C61.0256 49.0454 61.4875 50.1935 62.3146 51.0551L64.5426 53.2831C62.3124 56.8061 60.7037 60.6859 59.7868 64.7534H56.6406C55.4393 64.7547 54.2875 65.2325 53.438 66.082C52.5885 66.9315 52.1107 68.0833 52.1094 69.2847V76.0815C52.1106 77.2829 52.5884 78.4348 53.4379 79.2843C54.2874 80.1338 55.4392 80.6116 56.6406 80.6128ZM56.6406 69.2847H63.568L63.8855 67.3941C64.6703 62.677 66.525 58.2022 69.3073 54.3131L70.4191 52.7521L65.5184 47.8514L70.3251 43.0452L75.2247 47.9454L76.7857 46.8341C80.6747 44.0512 85.1497 42.1964 89.8672 41.4123L91.7578 41.0949V34.1675H98.5547V41.0949L100.445 41.4124C105.163 42.1965 109.638 44.0512 113.527 46.8342L115.088 47.9455L119.989 43.0453L124.794 47.8514L119.893 52.7522L121.005 54.3131C123.787 58.2023 125.642 62.6769 126.427 67.394L126.744 69.2846H133.672V76.0815H126.744L126.427 77.9721C125.642 82.6893 123.787 87.1642 121.005 91.0536L119.893 92.6157L124.794 97.5153L119.987 102.321L115.089 97.4202L113.527 98.532C109.637 101.314 105.163 103.169 100.445 103.954L98.5547 104.271V111.199H91.7578V104.271L89.8672 103.954C85.15 103.169 80.6751 101.314 76.7857 98.532L75.2236 97.4202L70.324 102.321L65.5184 97.5143L70.4191 92.6157L69.3073 91.0537C66.5252 87.1642 64.6705 82.6894 63.8855 77.9721L63.568 76.0815H56.6406V69.2847Z" fill="#ADBDCB"/>
        <path d="M148.398 128.191C149.65 128.191 150.664 127.177 150.664 125.925C150.664 124.674 149.65 123.66 148.398 123.66C147.147 123.66 146.133 124.674 146.133 125.925C146.133 127.177 147.147 128.191 148.398 128.191Z" fill="#58ADFC"/>
        <path d="M41.9141 128.191C43.1653 128.191 44.1797 127.177 44.1797 125.925C44.1797 124.674 43.1653 123.66 41.9141 123.66C40.6628 123.66 39.6484 124.674 39.6484 125.925C39.6484 127.177 40.6628 128.191 41.9141 128.191Z" fill="#58ADFC"/>
        <path d="M12.4609 140.652H9.0625C8.46162 140.652 7.88535 140.89 7.46046 141.315C7.03557 141.74 6.79688 142.316 6.79688 142.917C6.79688 143.518 7.03557 144.094 7.46046 144.519C7.88535 144.944 8.46162 145.183 9.0625 145.183H12.4609C13.0618 145.183 13.6381 144.944 14.063 144.519C14.4879 144.094 14.7266 143.518 14.7266 142.917C14.7266 142.316 14.4879 141.74 14.063 141.315C13.6381 140.89 13.0618 140.652 12.4609 140.652ZM181.25 140.652H177.852C177.251 140.652 176.674 140.89 176.25 141.315C175.825 141.74 175.586 142.316 175.586 142.917C175.586 143.518 175.825 144.094 176.25 144.519C176.674 144.944 177.251 145.183 177.852 145.183H181.25C181.851 145.183 182.427 144.944 182.852 144.519C183.277 144.094 183.516 143.518 183.516 142.917C183.516 142.316 183.277 141.74 182.852 141.315C182.427 140.89 181.851 140.652 181.25 140.652ZM170.739 140.652H160.782C163.808 138.11 165.98 134.7 167.001 130.883C168.023 127.066 167.846 123.027 166.494 119.314C165.142 115.601 162.68 112.394 159.443 110.128C156.206 107.861 152.35 106.646 148.398 106.646C144.447 106.646 140.591 107.861 137.354 110.128C134.117 112.394 131.655 115.601 130.303 119.314C128.951 123.027 128.774 127.066 129.795 130.883C130.817 134.7 132.988 138.11 136.015 140.652H54.298C57.3241 138.11 59.4953 134.7 60.517 130.883C61.5387 127.066 61.3615 123.027 60.0093 119.314C58.6572 115.601 56.1956 112.394 52.9585 110.128C49.7214 107.861 45.8656 106.646 41.9141 106.646C37.9626 106.646 34.1067 107.861 30.8696 110.128C27.6326 112.394 25.171 115.601 23.8188 119.314C22.4667 123.027 22.2894 127.066 23.3111 130.883C24.3328 134.7 26.504 138.11 29.5302 140.652H19.5735C19.2512 140.609 18.9236 140.637 18.6126 140.731C18.3016 140.826 18.0144 140.986 17.7701 141.2C17.5258 141.414 17.3301 141.679 17.196 141.975C17.062 142.271 16.9926 142.592 16.9926 142.917C16.9926 143.242 17.062 143.564 17.196 143.86C17.3301 144.156 17.5258 144.42 17.7701 144.634C18.0144 144.849 18.3016 145.009 18.6126 145.103C18.9236 145.198 19.2512 145.225 19.5735 145.183H170.739C171.061 145.225 171.389 145.198 171.7 145.103C172.011 145.009 172.298 144.849 172.542 144.634C172.787 144.42 172.982 144.156 173.116 143.86C173.251 143.564 173.32 143.242 173.32 142.917C173.32 142.592 173.251 142.271 173.116 141.975C172.982 141.679 172.787 141.414 172.542 141.2C172.298 140.986 172.011 140.826 171.7 140.731C171.389 140.637 171.061 140.609 170.739 140.652ZM27.1875 125.925C27.1875 123.012 28.0512 120.165 29.6694 117.743C31.2875 115.322 33.5875 113.434 36.2785 112.319C38.9694 111.205 41.9304 110.913 44.7871 111.481C47.6437 112.05 50.2678 113.452 52.3273 115.512C54.3869 117.571 55.7894 120.195 56.3577 123.052C56.9259 125.909 56.6343 128.87 55.5196 131.561C54.405 134.252 52.5175 136.551 50.0957 138.17C47.6739 139.788 44.8267 140.652 41.9141 140.652C38.0097 140.647 34.2666 139.094 31.5058 136.333C28.745 133.572 27.192 129.829 27.1875 125.925ZM133.672 125.925C133.672 123.012 134.536 120.165 136.154 117.743C137.772 115.322 140.072 113.434 142.763 112.319C145.454 111.205 148.415 110.913 151.271 111.481C154.128 112.05 156.752 113.452 158.812 115.512C160.871 117.571 162.274 120.195 162.842 123.052C163.41 125.909 163.119 128.87 162.004 131.561C160.889 134.252 159.002 136.551 156.58 138.17C154.158 139.788 151.311 140.652 148.398 140.652C144.494 140.647 140.751 139.094 137.99 136.333C135.229 133.572 133.676 129.829 133.672 125.925Z" fill="#ADBDCB"/>
    </g>
    <defs>
        <clipPath id="clip0_2_3549">
            <rect width="190.312" height="145" fill="white" transform="translate(0 0.5)"/>
        </clipPath>
    </defs>
</svg>
