<svg width="214" height="149" viewBox="0 0 214 149" fill="none" xmlns="http://www.w3.org/2000/svg">
    <g clip-path="url(#clip0_2_8165)">
        <path d="M185.961 115.839C186.637 115.839 187.285 116.107 187.762 116.584C188.24 117.061 188.509 117.707 188.509 118.382C188.509 119.056 188.24 119.703 187.762 120.179C187.285 120.656 186.637 120.924 185.961 120.924H179.592V128.551H185.961C186.637 128.551 187.285 128.819 187.762 129.295C188.24 129.772 188.509 130.419 188.509 131.093C188.509 131.767 188.24 132.414 187.762 132.891C187.285 133.368 186.637 133.635 185.961 133.635H67.3466L69.2604 128.551H72.6012V120.924H72.1311L76.1537 110.237L77.696 111.042V115.839H85.3383V115.031L93.7828 119.439C94.7022 119.921 95.7104 120.209 96.7457 120.288C97.7809 120.366 98.8214 120.233 99.8031 119.896C100.785 119.559 101.687 119.025 102.455 118.328C103.223 117.63 103.839 116.783 104.267 115.839H110.812V108.212H106.333L107.617 103.128H110.812V95.5008H109.542L113.698 79.0397L119.321 82.7892H115.907V90.4161H123.549V85.6085L128.644 89.0056V90.4161H130.76L132.108 91.3155C133.567 92.2899 135.318 92.7325 137.065 92.5686C138.813 92.4048 140.451 91.6446 141.702 90.4161H149.024V82.7892H145.312L147.197 77.7046H149.024V72.7788L154.118 59.0373V64.993H161.761V57.3661H154.738L156.623 52.2814H161.761V44.6545H159.451L161.336 39.5698H161.761V38.4251L166.855 24.6836V26.8582H174.498V19.2313H168.877L169.839 16.6353C171.049 16.7709 172.273 16.6157 173.41 16.1828C174.547 15.7498 175.564 15.0517 176.375 14.1467H185.961C186.637 14.1467 187.285 14.4145 187.762 14.8913C188.24 15.3681 188.509 16.0147 188.509 16.689C188.509 17.3633 188.24 18.0099 187.762 18.4867C187.285 18.9635 186.637 19.2313 185.961 19.2313H179.592V26.8582H185.961C186.637 26.8582 187.285 27.1261 187.762 27.6029C188.24 28.0797 188.509 28.7263 188.509 29.4006C188.509 30.0748 188.24 30.7215 187.762 31.1983C187.285 31.675 186.637 31.9429 185.961 31.9429H179.592V39.5698H185.961C186.637 39.5698 187.285 39.8377 187.762 40.3145C188.24 40.7912 188.509 41.4379 188.509 42.1121C188.509 42.7864 188.24 43.433 187.762 43.9098C187.285 44.3866 186.637 44.6544 185.961 44.6544H179.592V52.2814H185.961C186.637 52.2814 187.285 52.5492 187.762 53.026C188.24 53.5028 188.509 54.1495 188.509 54.8237C188.509 55.498 188.24 56.1446 187.762 56.6214C187.285 57.0982 186.637 57.366 185.961 57.366H179.592V64.993H185.961C186.637 64.993 187.285 65.2608 187.762 65.7376C188.24 66.2144 188.509 66.861 188.509 67.5353C188.509 68.2096 188.24 68.8562 187.762 69.333C187.285 69.8098 186.637 70.0776 185.961 70.0776H179.592V77.7046H185.961C186.637 77.7046 187.285 77.9724 187.762 78.4492C188.24 78.926 188.509 79.5726 188.509 80.2469C188.509 80.9211 188.24 81.5678 187.762 82.0446C187.285 82.5213 186.637 82.7892 185.961 82.7892H179.592V90.4161H185.961C186.637 90.4161 187.285 90.684 187.762 91.1608C188.24 91.6375 188.509 92.2842 188.509 92.9585C188.509 93.6327 188.24 94.2794 187.762 94.7561C187.285 95.2329 186.637 95.5008 185.961 95.5008H179.592V103.128H185.961C186.637 103.128 187.285 103.396 187.762 103.872C188.24 104.349 188.509 104.996 188.509 105.67C188.509 106.344 188.24 106.991 187.762 107.468C187.285 107.944 186.637 108.212 185.961 108.212H179.592V115.839H185.961ZM85.3383 120.924H77.696V128.551H85.3383V120.924ZM98.0753 120.924H90.4331V128.551H98.0753V120.924ZM110.812 120.924H103.17V128.551H110.812V120.924ZM123.549 95.5008H115.907V103.128H123.549V95.5008ZM123.549 108.212H115.907V115.839H123.549V108.212ZM123.549 120.924H115.907V128.551H123.549V120.924ZM136.286 95.5008H128.644V103.128H136.286V95.5008ZM136.286 108.212H128.644V115.839H136.286V108.212ZM136.286 120.924H128.644V128.551H136.286V120.924ZM149.024 95.5008H141.381V103.128H149.024V95.5008ZM149.024 108.212H141.381V115.839H149.024V108.212ZM149.024 120.924H141.381V128.551H149.024V120.924ZM161.761 70.0776H154.118V77.7046H161.761V70.0776ZM161.761 82.7892H154.118V90.4161H161.761V82.7892ZM161.761 95.5007H154.118V103.128H161.761V95.5007ZM161.761 108.212H154.118V115.839H161.761V108.212ZM161.761 120.924H154.118V128.551H161.761V120.924ZM174.498 31.9428H166.855V39.5698H174.498V31.9428ZM174.498 44.6544H166.855V52.2813H174.498V44.6544ZM174.498 57.366H166.855V64.993H174.498V57.366ZM174.498 70.0776H166.855V77.7046H174.498V70.0776ZM174.498 82.7891H166.855V90.4161H174.498V82.7891ZM174.498 95.5007H166.855V103.128H174.498V95.5007ZM174.498 108.212H166.855V115.839H174.498V108.212ZM174.498 120.924H166.855V128.551H174.498V120.924Z" fill="#ADBDCB"/>
        <path d="M147.864 31.9395H141.381V39.5658H145.037L143.152 44.6501H141.381V49.442L136.286 63.1822V57.3607H128.644V64.9998H135.611L133.726 70.0841H128.644V70.656L120.149 64.9998H123.549V57.3607H115.907V62.1653L113.181 60.3477C112.454 59.8744 111.653 59.5224 110.812 59.3055V57.3607H103.17V61.6951C102.383 62.5932 101.82 63.6647 101.527 64.8219L96.9927 82.7947H90.4331V90.4211H95.0694L93.7829 95.5053H90.4331V100.475L85.3383 97.8187V95.5053H80.9058L75.5817 92.7217C73.8662 91.8221 71.8715 91.6092 70.0042 92.1264C68.1369 92.6436 66.5375 93.852 65.5322 95.5053H64.959V96.6239C64.9335 96.6874 64.908 96.7382 64.8826 96.8018L59.8642 110.186V108.216H52.2219V115.842H57.7371L55.8393 120.927H52.2219V128.553H52.9734L51.0629 133.637H28.0215C27.3459 133.637 26.698 133.369 26.2202 132.893C25.7425 132.416 25.4741 131.769 25.4741 131.095C25.4741 130.421 25.7425 129.774 26.2202 129.298C26.698 128.821 27.3459 128.553 28.0215 128.553H34.3901V120.927H28.0215C27.3459 120.927 26.698 120.659 26.2202 120.182C25.7425 119.705 25.4741 119.059 25.4741 118.384C25.4741 117.71 25.7425 117.064 26.2202 116.587C26.698 116.11 27.3459 115.842 28.0215 115.842H34.3901V108.216H28.0215C27.3459 108.216 26.698 107.948 26.2202 107.471C25.7425 106.995 25.4741 106.348 25.4741 105.674C25.4741 105 25.7425 104.353 26.2202 103.876C26.698 103.4 27.3459 103.132 28.0215 103.132H34.3901V95.5053H28.0215C27.3459 95.5053 26.698 95.2375 26.2202 94.7608C25.7425 94.284 25.4741 93.6374 25.4741 92.9632C25.4741 92.289 25.7425 91.6424 26.2202 91.1656C26.698 90.6889 27.3459 90.4211 28.0215 90.4211H34.3901V82.7947H28.0215C27.3459 82.7947 26.698 82.5269 26.2202 82.0501C25.7425 81.5734 25.4741 80.9268 25.4741 80.2526C25.4741 79.5784 25.7425 78.9318 26.2202 78.455C26.698 77.9783 27.3459 77.7104 28.0215 77.7104H34.3901V70.0841H28.0215C27.3459 70.0841 26.698 69.8162 26.2202 69.3395C25.7425 68.8628 25.4741 68.2162 25.4741 67.5419C25.4741 66.8677 25.7425 66.2211 26.2202 65.7444C26.698 65.2676 27.3459 64.9998 28.0215 64.9998H34.3901V57.3607H28.0215C27.3459 57.3607 26.698 57.0929 26.2202 56.6161C25.7425 56.1394 25.4741 55.4928 25.4741 54.8186C25.4741 54.1444 25.7425 53.4978 26.2202 53.021C26.698 52.5443 27.3459 52.2765 28.0215 52.2765H34.3901V44.6501H28.0215C27.3459 44.6501 26.698 44.3823 26.2202 43.9055C25.7425 43.4288 25.4741 42.7822 25.4741 42.108C25.4741 41.4338 25.7425 40.7872 26.2202 40.3104C26.698 39.8337 27.3459 39.5658 28.0215 39.5658H34.3901V31.9395H28.0215C27.3459 31.9395 26.698 31.6716 26.2202 31.1949C25.7425 30.7182 25.4741 30.0716 25.4741 29.3973C25.4741 28.7231 25.7425 28.0765 26.2202 27.5998C26.698 27.123 27.3459 26.8552 28.0215 26.8552H34.3901V19.2288H28.0215C27.3459 19.2288 26.698 18.961 26.2202 18.4843C25.7425 18.0075 25.4741 17.3609 25.4741 16.6867C25.4741 16.0125 25.7425 15.3659 26.2202 14.8892C26.698 14.4124 27.3459 14.1446 28.0215 14.1446H154.462L147.864 31.9395ZM47.1271 19.2288H39.4849V26.8552H47.1271V19.2288ZM47.1271 31.9395H39.4849V39.5658H47.1271V31.9395ZM47.1271 44.6501H39.4849V52.2765H47.1271V44.6501ZM47.1271 57.3607H39.4849V64.9998H47.1271V57.3607ZM47.1271 70.0841H39.4849V77.7104H47.1271V70.0841ZM47.1271 82.7947H39.4849V90.4211H47.1271V82.7947ZM47.1271 95.5053H39.4849V103.132H47.1271V95.5053ZM47.1271 108.216H39.4849V115.842H47.1271V108.216ZM47.1271 120.927H39.4849V128.553H47.1271V120.927ZM59.8642 19.2288H52.2219V26.8552H59.8642V19.2288ZM59.8642 31.9395H52.2219V39.5658H59.8642V31.9395ZM59.8642 44.6501H52.2219V52.2765H59.8642V44.6501ZM59.8642 57.3607H52.2219V64.9998H59.8642V57.3607ZM59.8642 70.0841H52.2219V77.7104H59.8642V70.0841ZM59.8642 82.7947H52.2219V90.4211H59.8642V82.7947ZM59.8642 95.5053H52.2219V103.132H59.8642V95.5053ZM72.6012 19.2288H64.959V26.8552H72.6012V19.2288ZM72.6012 31.9395H64.959V39.5658H72.6012V31.9395ZM72.6012 44.6501H64.959V52.2765H72.6012V44.6501ZM72.6012 57.3607H64.959V64.9998H72.6012V57.3607ZM72.6012 70.0841H64.959V77.7104H72.6012V70.0841ZM72.6012 82.7947H64.959V90.4211H72.6012V82.7947ZM85.3383 19.2288H77.696V26.8552H85.3383V19.2288ZM85.3383 31.9395H77.696V39.5658H85.3383V31.9395ZM85.3383 44.6501H77.696V52.2765H85.3383V44.6501ZM85.3383 57.3607H77.696V64.9998H85.3383V57.3607ZM85.3383 70.0841H77.696V77.7104H85.3383V70.0841ZM85.3383 82.7947H77.696V90.4211H85.3383V82.7947ZM98.0753 19.2288H90.4331V26.8552H98.0753V19.2288ZM98.0753 31.9395H90.4331V39.5658H98.0753V31.9395ZM98.0753 44.6501H90.4331V52.2765H98.0753V44.6501ZM98.0753 57.3607H90.4331V64.9998H98.0753V57.3607ZM98.0753 70.0841H90.4331V77.7104H98.0753V70.0841ZM110.812 19.2288H103.17V26.8552H110.812V19.2288ZM110.812 31.9395H103.17V39.5658H110.812V31.9395ZM110.812 44.6501H103.17V52.2765H110.812V44.6501ZM123.549 19.2288H115.907V26.8552H123.549V19.2288ZM123.549 31.9395H115.907V39.5658H123.549V31.9395ZM123.549 44.6501H115.907V52.2765H123.549V44.6501ZM136.286 19.2288H128.644V26.8552H136.286V19.2288ZM136.286 31.9395H128.644V39.5658H136.286V31.9395ZM136.286 44.6501H128.644V52.2765H136.286V44.6501ZM141.381 19.2288V26.8552H149.024V19.2288H141.381Z" fill="#ADBDCB"/>
        <path d="M172.855 7.75113L169.034 1.39581C168.712 0.884735 168.222 0.501236 167.648 0.311081C167.074 0.120926 166.452 0.135925 165.887 0.353546L158.589 3.34055C158.28 3.46741 157.998 3.65384 157.761 3.88921C157.524 4.12457 157.335 4.40428 157.206 4.71234C157.078 5.0204 157.011 5.35077 157.01 5.68462C157.009 6.01846 157.074 6.34923 157.201 6.65802C157.328 6.96681 157.515 7.2476 157.751 7.48434C157.986 7.72108 158.267 7.90916 158.575 8.03781C158.884 8.16646 159.215 8.23317 159.55 8.23415C159.884 8.23512 160.216 8.17033 160.525 8.04347L162.448 7.25542L135.089 81.066L110.354 64.5803C110.016 64.3519 109.627 64.2083 109.221 64.1619C108.815 64.1154 108.404 64.1674 108.023 64.3133C107.642 64.4593 107.301 64.695 107.031 65.0004C106.76 65.3058 106.568 65.6718 106.469 66.0674L95.6426 108.94L73.2127 97.2339C72.8941 97.0649 72.543 96.966 72.1829 96.944C71.8229 96.922 71.4622 96.9773 71.1254 97.1062C70.7886 97.2351 70.4834 97.4346 70.2304 97.6912C69.9775 97.9479 69.7826 98.2557 69.659 98.5939L56 134.051L51.5 132.051L51 133.637H41.4719L54.5 140.051C54.7903 140.381 56.1292 140.775 56.5442 140.919C56.9592 141.064 57.4046 141.1 57.8374 141.022C58.2715 140.941 58.6774 140.75 59.0164 140.467C59.3553 140.184 59.616 139.82 59.7734 139.408L73.4037 103.068L96.1394 114.94C96.4825 115.116 96.8609 115.213 97.2466 115.224C97.6324 115.235 98.0157 115.16 98.3683 115.003C98.7204 114.847 99.0319 114.612 99.2792 114.316C99.5264 114.021 99.7028 113.674 99.7949 113.3L110.519 70.8085L134.936 87.0908C135.257 87.3045 135.621 87.443 136.003 87.4958C136.385 87.5487 136.774 87.5145 137.14 87.3958C137.507 87.2771 137.842 87.0771 138.119 86.8107C138.397 86.5443 138.611 86.2186 138.745 85.8579L167.403 8.55197L168.499 10.3696C168.67 10.6571 168.896 10.9079 169.165 11.1077C169.434 11.3076 169.74 11.4524 170.065 11.5339C170.39 11.6154 170.728 11.632 171.059 11.5827C171.391 11.5333 171.709 11.4191 171.996 11.2465C172.283 11.074 172.533 10.8465 172.732 10.5771C172.931 10.3078 173.074 10.0019 173.154 9.67703C173.234 9.35219 173.248 9.0148 173.197 8.6843C173.146 8.35379 173.029 8.03662 172.855 7.75113Z" fill="#58ADFC"/>
        <path d="M2.54741 147.624C3.95431 147.624 5.09482 146.486 5.09482 145.082C5.09482 143.678 3.95431 142.54 2.54741 142.54C1.14051 142.54 0 143.678 0 145.082C0 146.486 1.14051 147.624 2.54741 147.624Z" fill="#ADBDCB"/>
        <path d="M14.0107 142.54H10.1896C9.51401 142.54 8.86606 142.808 8.38833 143.284C7.9106 143.761 7.64221 144.408 7.64221 145.082C7.64221 145.756 7.9106 146.403 8.38833 146.879C8.86606 147.356 9.51401 147.624 10.1896 147.624H14.0107C14.6864 147.624 15.3343 147.356 15.812 146.879C16.2898 146.403 16.5581 145.756 16.5581 145.082C16.5581 144.408 16.2898 143.761 15.812 143.284C15.3343 142.808 14.6864 142.54 14.0107 142.54ZM203.793 142.54H199.972C199.296 142.54 198.648 142.808 198.17 143.284C197.693 143.761 197.424 144.408 197.424 145.082C197.424 145.756 197.693 146.403 198.17 146.879C198.648 147.356 199.296 147.624 199.972 147.624H203.793C204.468 147.624 205.116 147.356 205.594 146.879C206.072 146.403 206.34 145.756 206.34 145.082C206.34 144.408 206.072 143.761 205.594 143.284C205.116 142.808 204.468 142.54 203.793 142.54Z" fill="#ADBDCB"/>
        <path d="M211.435 147.624C212.842 147.624 213.983 146.486 213.983 145.082C213.983 143.678 212.842 142.54 211.435 142.54C210.028 142.54 208.888 143.678 208.888 145.082C208.888 146.486 210.028 147.624 211.435 147.624Z" fill="#ADBDCB"/>
        <path d="M191.975 147.624H22.008C21.6456 147.671 21.2773 147.64 20.9276 147.534C20.5779 147.428 20.255 147.249 19.9803 147.008C19.7056 146.768 19.4856 146.471 19.3348 146.139C19.1841 145.807 19.1061 145.446 19.1061 145.082C19.1061 144.717 19.1841 144.356 19.3348 144.024C19.4856 143.692 19.7056 143.395 19.9803 143.155C20.255 142.914 20.5779 142.735 20.9276 142.629C21.2773 142.523 21.6456 142.492 22.008 142.539H191.975C192.337 142.492 192.705 142.523 193.055 142.629C193.405 142.735 193.728 142.914 194.002 143.155C194.277 143.395 194.497 143.692 194.648 144.024C194.799 144.356 194.876 144.717 194.876 145.082C194.876 145.446 194.799 145.807 194.648 146.139C194.497 146.471 194.277 146.768 194.002 147.008C193.728 147.249 193.405 147.428 193.055 147.534C192.705 147.64 192.337 147.671 191.975 147.624Z" fill="#ADBDCB"/>
    </g>
    <defs>
        <clipPath id="clip0_2_8165">
            <rect width="213.982" height="148.271" fill="white" transform="translate(0 0.0507812)"/>
        </clipPath>
    </defs>
</svg>
