<svg width="207" height="146" viewBox="0 0 207 146" fill="none" xmlns="http://www.w3.org/2000/svg">
    <g clip-path="url(#clip0_2_3576)">
        <path d="M92.203 63.9254H119.388C133.271 63.9254 147.326 56.1997 147.326 41.4336C147.326 26.4868 133.664 19.7961 120.124 19.7961H92.203C90.9015 19.797 89.6534 20.3141 88.7326 21.234C87.8118 22.1539 87.2935 23.4015 87.2914 24.7031V59.0181C87.2934 60.3197 87.8117 61.5674 88.7325 62.4874C89.6533 63.4074 90.9014 63.9246 92.203 63.9254ZM120.124 24.7114C131.217 24.7114 142.41 29.8822 142.41 41.4336C142.41 52.9729 130.829 59.0102 119.388 59.0102L92.2066 59.0181L92.203 24.7114H120.124ZM124.043 75.0166H92.2043C90.9025 75.0175 89.6542 75.5346 88.7332 76.4546C87.8122 77.3746 87.2937 78.6223 87.2914 79.9241V117.537C87.2939 118.839 87.8126 120.086 88.7339 121.006C89.6551 121.926 90.9036 122.443 92.2054 122.443H124.261C139.289 122.443 149.956 118.563 155.108 111.222C160.604 103.391 159.555 91.5533 152.72 84.2718C146.876 78.0443 137.495 75.0166 124.043 75.0166ZM151.085 108.399C145.79 115.944 133.575 117.528 124.261 117.528L92.2066 117.537L92.2043 79.932H124.043C136.063 79.932 144.272 82.452 149.136 87.6354C154.348 93.1884 155.223 102.503 151.085 108.399L151.085 108.399Z" fill="#ADBDCB"/>
        <path d="M101.628 45.1466C102.28 45.1466 102.905 44.8876 103.366 44.4267C103.827 43.9658 104.086 43.3408 104.086 42.689V34.2019H123.323C124.061 34.2019 130.531 34.3428 130.531 39.2365C130.531 39.8883 130.79 40.5134 131.251 40.9743C131.712 41.4352 132.337 41.6941 132.989 41.6941C133.641 41.6941 134.266 41.4352 134.727 40.9743C135.188 40.5134 135.447 39.8883 135.447 39.2365C135.447 33.3781 130.461 29.2866 123.323 29.2866H102.587C101.681 29.2874 100.813 29.6473 100.172 30.2875C99.5319 30.9276 99.1715 31.7957 99.1703 32.7013V42.689C99.1703 43.3408 99.4293 43.9658 99.8901 44.4267C100.351 44.8876 100.976 45.1466 101.628 45.1466ZM140.362 100.605C139.71 100.605 139.085 100.864 138.624 101.325C138.163 101.786 137.904 102.411 137.904 103.063C137.904 107.956 131.434 108.097 130.696 108.097H104.086V99.6104C104.086 98.9586 103.827 98.3335 103.366 97.8726C102.905 97.4117 102.28 97.1528 101.628 97.1528C100.976 97.1528 100.351 97.4117 99.8901 97.8726C99.4292 98.3335 99.1703 98.9586 99.1703 99.6104V109.598C99.1715 110.504 99.5319 111.372 100.172 112.012C100.813 112.652 101.681 113.012 102.587 113.013H130.696C137.834 113.013 142.82 108.921 142.82 103.063C142.819 102.411 142.561 101.786 142.1 101.325C141.639 100.864 141.014 100.605 140.362 100.605Z" fill="#ADBDCB"/>
        <path d="M2.45763 145.5C3.81494 145.5 4.91525 144.4 4.91525 143.042C4.91525 141.685 3.81494 140.585 2.45763 140.585C1.10032 140.585 0 141.685 0 143.042C0 144.4 1.10032 145.5 2.45763 145.5Z" fill="#ADBDCB"/>
        <path d="M13.5169 140.585H9.83049C9.17869 140.585 8.55358 140.844 8.09269 141.305C7.63179 141.765 7.37286 142.391 7.37286 143.042C7.37286 143.694 7.63179 144.319 8.09269 144.78C8.55358 145.241 9.17869 145.5 9.83049 145.5H13.5169C14.1687 145.5 14.7938 145.241 15.2547 144.78C15.7156 144.319 15.9746 143.694 15.9746 143.042C15.9746 142.391 15.7156 141.765 15.2547 141.305C14.7938 140.844 14.1687 140.585 13.5169 140.585ZM196.61 140.585H192.924C192.272 140.585 191.647 140.844 191.186 141.305C190.725 141.765 190.466 142.391 190.466 143.042C190.466 143.694 190.725 144.319 191.186 144.78C191.647 145.241 192.272 145.5 192.924 145.5H196.61C197.262 145.5 197.887 145.241 198.348 144.78C198.809 144.319 199.068 143.694 199.068 143.042C199.068 142.391 198.809 141.765 198.348 141.305C197.887 140.844 197.262 140.585 196.61 140.585Z" fill="#ADBDCB"/>
        <path d="M203.983 145.5C205.34 145.5 206.441 144.4 206.441 143.042C206.441 141.685 205.34 140.585 203.983 140.585C202.626 140.585 201.525 141.685 201.525 143.042C201.525 144.4 202.626 145.5 203.983 145.5Z" fill="#ADBDCB"/>
        <path d="M185.208 140.585H152.45C170.555 133.193 181.864 117.999 181.864 98.727C181.861 75.8788 167.261 65.4039 159.72 61.5231C164.187 57.6908 171.575 49.5913 171.575 37.9746C171.575 20.2498 154.77 0.5 130.655 0.5H69.5103C67.5582 0.500514 65.686 1.27534 64.3045 2.6545C62.9229 4.03366 62.1449 5.90451 62.141 7.85661V43.4958H31.9451C29.993 43.4964 28.1208 44.2712 26.7393 45.6504C25.3577 47.0296 24.5797 48.9004 24.5758 50.8526V59.3781C24.5797 61.3302 25.3578 63.201 26.7393 64.5801C28.1208 65.9593 29.993 66.7341 31.9451 66.7347H62.141V86.1316H31.9451C29.993 86.1322 28.1208 86.907 26.7393 88.2862C25.3577 89.6654 24.5797 91.5362 24.5758 93.4883V102.014C24.5797 103.966 25.3577 105.837 26.7392 107.216C28.1208 108.595 29.993 109.37 31.9451 109.371H62.141V138.143C62.1427 138.975 62.2868 139.801 62.567 140.585H21.2318C20.8822 140.539 20.5268 140.569 20.1895 140.671C19.8522 140.774 19.5406 140.947 19.2756 141.18C19.0106 141.412 18.7983 141.699 18.6529 142.02C18.5074 142.341 18.4322 142.69 18.4322 143.042C18.4322 143.395 18.5074 143.744 18.6529 144.065C18.7983 144.386 19.0106 144.672 19.2756 144.905C19.5406 145.138 19.8522 145.311 20.1895 145.414C20.5268 145.516 20.8822 145.546 21.2318 145.5H185.208C185.558 145.546 185.913 145.516 186.25 145.414C186.588 145.311 186.899 145.138 187.164 144.905C187.429 144.672 187.641 144.386 187.787 144.065C187.932 143.744 188.008 143.395 188.008 143.042C188.008 142.69 187.932 142.341 187.787 142.02C187.641 141.699 187.429 141.412 187.164 141.18C186.899 140.947 186.588 140.774 186.25 140.671C185.913 140.569 185.558 140.539 185.208 140.585ZM69.5103 140.585C68.8613 140.586 68.2384 140.329 67.7783 139.872C67.3182 139.414 67.0585 138.792 67.0563 138.143V104.455H31.9451C31.2961 104.456 30.6732 104.2 30.2131 103.742C29.753 103.284 29.4934 102.663 29.4911 102.014V93.4883C29.4934 92.8394 29.753 92.2178 30.2131 91.7601C30.6732 91.3023 31.2961 91.0459 31.9451 91.0469H67.0563V61.8195H31.9451C31.2961 61.8205 30.6732 61.5641 30.2131 61.1064C29.753 60.6486 29.4934 60.0271 29.4911 59.3781V50.8526C29.4934 50.2036 29.753 49.582 30.2131 49.1243C30.6732 48.6666 31.2961 48.4101 31.9451 48.4111H67.0563V7.85661C67.0586 7.20763 67.3183 6.58608 67.7783 6.12837C68.2384 5.67066 68.8613 5.41419 69.5103 5.41525H130.655C152.962 5.41525 166.66 24.379 166.66 37.9746C166.66 49.7335 157.345 57.344 154.489 59.396C154.01 59.6993 153.627 60.1314 153.382 60.6427C153.138 61.1539 153.042 61.7238 153.107 62.2868C153.171 62.8499 153.393 63.3833 153.747 63.8261C154.101 64.2688 154.572 64.6029 155.107 64.79C160.23 66.925 176.946 75.6826 176.949 98.727C176.949 127.642 151.238 140.585 125.757 140.585H69.5103Z" fill="#ADBDCB"/>
        <path d="M101.569 54.0307C102.926 54.0307 104.027 52.9304 104.027 51.5731C104.027 50.2158 102.926 49.1155 101.569 49.1155C100.212 49.1155 99.1115 50.2158 99.1115 51.5731C99.1115 52.9304 100.212 54.0307 101.569 54.0307Z" fill="#58ADFC"/>
        <path d="M101.569 93.1843C102.926 93.1843 104.027 92.084 104.027 90.7267C104.027 89.3694 102.926 88.269 101.569 88.269C100.212 88.269 99.1115 89.3694 99.1115 90.7267C99.1115 92.084 100.212 93.1843 101.569 93.1843Z" fill="#58ADFC"/>
    </g>
    <defs>
        <clipPath id="clip0_2_3576">
            <rect width="206.441" height="145" fill="white" transform="translate(0 0.5)"/>
        </clipPath>
    </defs>
</svg>
