<svg width="213" height="146" viewBox="0 0 213 146" fill="none" xmlns="http://www.w3.org/2000/svg">
    <g clip-path="url(#clip0_2_8181)">
        <path d="M106.149 12.8189C106.819 12.8189 107.462 12.5526 107.936 12.0786C108.41 11.6046 108.676 10.9618 108.676 10.2915V2.70948C108.676 2.03919 108.41 1.39634 107.936 0.922371C107.462 0.448401 106.819 0.182129 106.149 0.182129C105.479 0.182129 104.836 0.448401 104.362 0.922371C103.888 1.39634 103.622 2.03919 103.622 2.70948V10.2915C103.622 10.9618 103.888 11.6046 104.362 12.0786C104.836 12.5526 105.479 12.8189 106.149 12.8189Z" fill="#ADBDCB"/>
        <path d="M94.2527 13.3421C94.727 13.8145 95.3693 14.0795 96.0386 14.0789C96.708 14.0782 97.3498 13.812 97.8232 13.3387C98.2965 12.8654 98.5627 12.2236 98.5633 11.5542C98.564 10.8848 98.299 10.2425 97.8266 9.76827L92.7719 4.71357C92.2976 4.24114 91.6553 3.97617 90.9859 3.97681C90.3165 3.97745 89.6747 4.24365 89.2014 4.71698C88.7281 5.19031 88.4619 5.8321 88.4613 6.50149C88.4606 7.17088 88.7256 7.81318 89.198 8.28741L94.2527 13.3421ZM116.258 14.0511C116.924 14.0599 117.567 13.805 118.045 13.3421L123.1 8.28741C123.572 7.81305 123.836 7.17095 123.835 6.50189C123.835 5.83284 123.568 5.19145 123.095 4.71836C122.622 4.24527 121.981 3.97909 121.312 3.9782C120.643 3.9773 120.001 4.24176 119.526 4.71358L114.472 9.76828C114.114 10.1175 113.869 10.5661 113.769 11.0561C113.669 11.546 113.718 12.0547 113.911 12.5162C114.103 12.9778 114.43 13.3708 114.849 13.6445C115.267 13.9182 115.758 14.0598 116.258 14.0511V14.0511ZM92.6885 47.0961L90.3821 60.4066C90.3016 60.8708 90.3525 61.3481 90.5289 61.7849C90.7053 62.2217 91.0002 62.6004 91.3804 62.8785C91.7606 63.1566 92.211 63.3229 92.6807 63.3586C93.1503 63.3944 93.6207 63.2981 94.0386 63.0808L106.149 56.781L118.26 63.0808C118.678 63.2981 119.148 63.3943 119.618 63.3586C120.088 63.3228 120.538 63.1565 120.918 62.8785C121.298 62.6004 121.593 62.2216 121.77 61.7849C121.946 61.3481 121.997 60.8708 121.917 60.4066L119.609 47.0961L129.386 37.6654C129.727 37.337 129.968 36.9195 130.083 36.4607C130.198 36.0018 130.182 35.5198 130.037 35.0697C129.891 34.6195 129.622 34.2192 129.261 33.9143C128.899 33.6094 128.459 33.4121 127.991 33.345L114.458 31.4001L108.411 19.273C108.201 18.8526 107.879 18.4989 107.479 18.2517C107.08 18.0045 106.619 17.8735 106.149 17.8735C105.68 17.8735 105.219 18.0045 104.82 18.2517C104.42 18.4989 104.097 18.8526 103.888 19.273L97.8395 31.4001L84.3068 33.345C83.8386 33.4123 83.3987 33.6096 83.0371 33.9146C82.6755 34.2195 82.4068 34.6198 82.2614 35.07C82.1161 35.5201 82.1 36.002 82.2149 36.4608C82.3299 36.9196 82.5713 37.337 82.9117 37.6654L92.6885 47.0961ZM99.8702 36.2141C100.275 36.1561 100.659 36.0008 100.99 35.7616C101.321 35.5223 101.59 35.2063 101.772 34.8406L106.149 26.064L110.525 34.8406C110.707 35.2064 110.976 35.5225 111.307 35.7617C111.639 36.001 112.023 36.1562 112.428 36.2141L122.16 37.6136L115.135 44.3886C114.838 44.6751 114.616 45.0301 114.488 45.4225C114.359 45.8149 114.329 46.2327 114.4 46.6395L116.065 56.2405L107.315 51.6893C106.955 51.502 106.555 51.4042 106.149 51.4042C105.743 51.4042 105.343 51.502 104.983 51.6893L96.234 56.2405L97.8982 46.6395C97.9686 46.2328 97.9384 45.815 97.8102 45.4226C97.682 45.0302 97.4597 44.6752 97.1627 44.3886L90.1384 37.6136L99.8702 36.2141Z" fill="#0BCEB2"/>
        <path d="M82.4866 49.0335L74.1795 47.8796L70.4847 40.7233C70.2718 40.3113 69.9496 39.9658 69.5535 39.7247C69.1573 39.4835 68.7025 39.356 68.2387 39.356C67.775 39.356 67.3201 39.4835 66.924 39.7247C66.5279 39.9658 66.2057 40.3113 65.9928 40.7233L62.298 47.8796L53.9909 49.0335C53.5177 49.0992 53.0727 49.2977 52.7077 49.606C52.3426 49.9143 52.0725 50.3197 51.9285 50.7753C51.7845 51.2309 51.7727 51.718 51.8943 52.1801C52.0159 52.6422 52.266 53.0603 52.6156 53.386L58.5575 58.922L57.1599 66.7102C57.077 67.1721 57.1243 67.648 57.2966 68.0846C57.4689 68.5212 57.7593 68.9011 58.1354 69.182C58.5115 69.4628 58.9583 69.6333 59.4258 69.6745C59.8933 69.7157 60.3631 69.6259 60.7825 69.4152L68.2387 65.6686L75.6948 69.4152C76.1142 69.6259 76.584 69.7157 77.0515 69.6745C77.519 69.6333 77.9659 69.4628 78.3419 69.182C78.718 68.9011 79.0084 68.5212 79.1807 68.0846C79.353 67.648 79.4004 67.1721 79.3174 66.7102L77.9198 58.922L83.8618 53.386C84.2114 53.0603 84.4615 52.6422 84.5831 52.1801C84.7047 51.718 84.6929 51.2309 84.5489 50.7753C84.4049 50.3197 84.1348 49.9143 83.7697 49.606C83.4047 49.2977 82.9597 49.0992 82.4864 49.0335L82.4866 49.0335ZM73.4662 56.1639C73.1569 56.452 72.9248 56.813 72.7911 57.214C72.6575 57.615 72.6265 58.0432 72.7011 58.4592L73.4496 62.6303L69.3735 60.5818C69.0214 60.4049 68.6328 60.3128 68.2388 60.3128C67.8447 60.3128 67.4561 60.4049 67.104 60.5818L63.0279 62.6304L63.7764 58.4593C63.851 58.0432 63.82 57.6151 63.6864 57.2141C63.5527 56.8131 63.3206 56.452 63.0113 56.1639L59.9483 53.3095L64.2903 52.7073C64.6912 52.6515 65.0729 52.5003 65.4032 52.2665C65.7336 52.0326 66.0031 51.723 66.189 51.3634L68.2388 47.3922L70.2885 51.3634C70.4744 51.723 70.7439 52.0326 71.0742 52.2665C71.4046 52.5003 71.7862 52.6515 72.1871 52.7073L76.5291 53.3096L73.4662 56.1639Z" fill="#ADBDCB"/>
        <path d="M48.3784 63.0501L42.7023 62.2369L40.1707 57.1797C39.9605 56.7602 39.6378 56.4075 39.2387 56.161C38.8395 55.9145 38.3796 55.7839 37.9105 55.7839C37.4413 55.7839 36.9814 55.9145 36.5823 56.161C36.1831 56.4075 35.8604 56.7602 35.6503 57.1797L33.1186 62.2369L27.4426 63.0501C26.9738 63.1172 26.5332 63.3147 26.1712 63.62C25.8092 63.9254 25.5403 64.3263 25.3951 64.7771C25.2499 65.2278 25.2343 65.7103 25.3501 66.1696C25.4659 66.6288 25.7084 67.0462 26.0499 67.3743L30.1353 71.2998L29.1727 76.8334C29.0919 77.2972 29.1424 77.7745 29.3183 78.2112C29.4943 78.6479 29.7888 79.0268 30.1686 79.3051C30.5484 79.5835 30.9984 79.7501 31.4678 79.7863C31.9373 79.8225 32.4076 79.7268 32.8255 79.51L37.9105 76.8753L42.9954 79.51C43.4134 79.7268 43.8837 79.8225 44.3531 79.7863C44.8226 79.7501 45.2726 79.5835 45.6524 79.3051C46.0322 79.0268 46.3267 78.6479 46.5026 78.2112C46.6786 77.7745 46.729 77.2972 46.6482 76.8334L45.6857 71.2998L49.771 67.3743C50.1126 67.0462 50.3551 66.6288 50.4708 66.1695C50.5866 65.7103 50.571 65.2278 50.4258 64.7771C50.2807 64.3263 50.0117 63.9254 49.6497 63.62C49.2877 63.3147 48.8472 63.1172 48.3784 63.0501ZM41.2141 68.5861C40.9156 68.8729 40.6922 69.2286 40.5634 69.6219C40.4346 70.0153 40.4044 70.4342 40.4755 70.842L40.7945 72.6758L39.0736 71.7848C38.7142 71.5983 38.3153 71.501 37.9105 71.501C37.5056 71.501 37.1067 71.5983 36.7474 71.7848L35.0265 72.6758L35.3455 70.842C35.4165 70.4342 35.3863 70.0153 35.2576 69.6219C35.1288 69.2286 34.9053 68.8729 34.6069 68.5861L33.2878 67.3187L35.145 67.0522C35.549 66.9943 35.933 66.8395 36.2642 66.6009C36.5953 66.3624 36.8638 66.0472 37.0467 65.6824L37.9105 63.9559L38.7744 65.6824C38.9573 66.0472 39.2257 66.3624 39.5569 66.6009C39.8881 66.8395 40.272 66.9943 40.6761 67.0522L42.5333 67.3187L41.2141 68.5861Z" fill="#0BCEB2"/>
        <path d="M158.308 49.0335L150 47.8796L146.305 40.7233C146.092 40.3113 145.77 39.9658 145.374 39.7247C144.978 39.4835 144.523 39.356 144.059 39.356C143.595 39.356 143.141 39.4835 142.745 39.7247C142.348 39.9658 142.026 40.3113 141.813 40.7233L138.119 47.8796L129.811 49.0335C129.338 49.0993 128.893 49.2978 128.528 49.6062C128.163 49.9145 127.893 50.32 127.749 50.7756C127.605 51.2312 127.593 51.7182 127.715 52.1802C127.836 52.6423 128.087 53.0604 128.436 53.386L134.378 58.922L132.98 66.7102C132.897 67.172 132.944 67.6478 133.117 68.0843C133.289 68.5208 133.579 68.9007 133.955 69.1814C134.331 69.4622 134.778 69.6328 135.245 69.6741C135.713 69.7154 136.182 69.6257 136.602 69.4152L144.059 65.6686L151.517 69.4152C151.936 69.6257 152.406 69.7154 152.873 69.6741C153.341 69.6328 153.787 69.4622 154.163 69.1814C154.539 68.9007 154.83 68.5208 155.002 68.0843C155.174 67.6478 155.221 67.172 155.139 66.7102L153.74 58.922L159.682 53.386C160.032 53.0604 160.282 52.6423 160.404 52.1802C160.525 51.7182 160.514 51.2312 160.37 50.7756C160.226 50.32 159.956 49.9145 159.591 49.6062C159.226 49.2978 158.781 49.0993 158.308 49.0335L158.308 49.0335ZM149.287 56.1639C148.977 56.452 148.745 56.813 148.612 57.214C148.478 57.615 148.447 58.0432 148.522 58.4592L149.271 62.6303L145.193 60.5818C144.841 60.4049 144.453 60.3128 144.059 60.3128C143.665 60.3128 143.277 60.4049 142.925 60.5818L138.848 62.6304L139.597 58.4593C139.671 58.0432 139.641 57.6151 139.507 57.2141C139.373 56.8131 139.141 56.452 138.832 56.1639L135.769 53.3095L140.112 52.7073C140.512 52.6513 140.894 52.5 141.224 52.2662C141.554 52.0324 141.824 51.7228 142.01 51.3634L144.059 47.3922L146.109 51.3634C146.295 51.7228 146.564 52.0324 146.895 52.2662C147.225 52.5 147.606 52.6513 148.007 52.7073L152.35 53.3095L149.287 56.1639Z" fill="#ADBDCB"/>
        <path d="M186.902 64.7766C186.757 64.3259 186.488 63.9251 186.126 63.6199C185.764 63.3146 185.324 63.1172 184.855 63.0501L179.179 62.2369L176.647 57.1796C176.437 56.7602 176.115 56.4075 175.715 56.161C175.316 55.9145 174.857 55.7839 174.388 55.7839C173.918 55.7839 173.459 55.9145 173.06 56.161C172.661 56.4075 172.338 56.7602 172.128 57.1796L169.596 62.2369L163.92 63.0501C163.452 63.1172 163.011 63.3147 162.649 63.62C162.287 63.9253 162.018 64.3262 161.873 64.777C161.728 65.2277 161.712 65.7102 161.828 66.1694C161.943 66.6286 162.186 67.0461 162.527 67.3743L166.613 71.2998L165.649 76.8333C165.568 77.2972 165.619 77.7744 165.795 78.2112C165.971 78.6479 166.265 79.0268 166.645 79.3051C167.025 79.5834 167.475 79.7501 167.944 79.7863C168.414 79.8225 168.884 79.7268 169.302 79.51L174.388 76.8752L179.473 79.51C179.891 79.7268 180.361 79.8225 180.831 79.7863C181.3 79.7501 181.75 79.5834 182.13 79.3051C182.51 79.0268 182.804 78.6479 182.98 78.2112C183.156 77.7744 183.207 77.2972 183.126 76.8333L182.162 71.2998L186.248 67.3743C186.59 67.0461 186.832 66.6285 186.948 66.1692C187.063 65.7099 187.047 65.2273 186.902 64.7766ZM177.691 68.5861C177.393 68.873 177.169 69.2287 177.041 69.622C176.912 70.0153 176.881 70.4342 176.952 70.842L177.271 72.6758L175.55 71.7848C175.191 71.5983 174.792 71.501 174.388 71.501C173.983 71.501 173.584 71.5983 173.225 71.7848L171.504 72.6758L171.823 70.842C171.894 70.4342 171.863 70.0153 171.734 69.622C171.606 69.2287 171.382 68.873 171.084 68.5861L169.765 67.3187L171.622 67.0522C172.026 66.9945 172.41 66.8398 172.741 66.6012C173.073 66.3627 173.341 66.0474 173.524 65.6824L174.388 63.9571L175.251 65.6824C175.434 66.0474 175.703 66.3627 176.034 66.6012C176.365 66.8398 176.749 66.9945 177.153 67.0522L179.01 67.3187L177.691 68.5861Z" fill="#0BCEB2"/>
        <path d="M2.52735 145.452C3.92317 145.452 5.0547 144.321 5.0547 142.925C5.0547 141.529 3.92317 140.397 2.52735 140.397C1.13153 140.397 0 141.529 0 142.925C0 144.321 1.13153 145.452 2.52735 145.452Z" fill="#ADBDCB"/>
        <path d="M13.9004 140.397H10.1094C9.43909 140.397 8.79625 140.664 8.32228 141.138C7.8483 141.612 7.58203 142.255 7.58203 142.925C7.58203 143.595 7.8483 144.238 8.32228 144.712C8.79625 145.186 9.43909 145.452 10.1094 145.452H13.9004C14.5707 145.452 15.2135 145.186 15.6875 144.712C16.1615 144.238 16.4278 143.595 16.4278 142.925C16.4278 142.255 16.1615 141.612 15.6875 141.138C15.2135 140.664 14.5707 140.397 13.9004 140.397ZM202.188 140.397H198.397C197.727 140.397 197.084 140.664 196.61 141.138C196.136 141.612 195.87 142.255 195.87 142.925C195.87 143.595 196.136 144.238 196.61 144.712C197.084 145.186 197.727 145.452 198.397 145.452H202.188C202.858 145.452 203.501 145.186 203.975 144.712C204.449 144.238 204.716 143.595 204.716 142.925C204.716 142.255 204.449 141.612 203.975 141.138C203.501 140.664 202.858 140.397 202.188 140.397Z" fill="#ADBDCB"/>
        <path d="M209.77 145.452C211.166 145.452 212.298 144.321 212.298 142.925C212.298 141.529 211.166 140.397 209.77 140.397C208.374 140.397 207.243 141.529 207.243 142.925C207.243 144.321 208.374 145.452 209.77 145.452Z" fill="#ADBDCB"/>
        <path d="M190.463 140.397H140.268V135.343C140.265 134.295 139.936 133.274 139.326 132.422C138.716 131.57 137.856 130.929 136.865 130.588C138.322 124.248 139.038 117.761 138.997 111.256C138.994 111.036 138.79 100.186 138.79 100.186C138.718 97.9022 137.756 95.7369 136.109 94.1523C134.463 92.5677 132.263 91.6893 129.978 91.7046L129.863 91.7053C129.648 91.7084 129.435 91.719 129.223 91.737C128.394 90.6411 127.322 89.7523 126.091 89.1406C124.86 88.5289 123.504 88.2108 122.13 88.2114C121.981 88.2294 121.831 88.2329 121.682 88.2218C120.897 87.1754 119.89 86.3154 118.733 85.7035C117.576 85.0916 116.299 84.7429 114.992 84.6822V77.2136L114.991 77.1484C114.927 72.1427 111.373 68.3679 106.725 68.3679L106.627 68.3685C105.58 68.3728 104.544 68.5852 103.58 68.9934C102.615 69.4015 101.742 69.9973 101.01 70.746C100.195 71.6157 99.5595 72.6374 99.14 73.7529C98.7205 74.8683 98.5251 76.0555 98.565 77.2466V96.7757C97.3488 96.2619 96.0427 95.9948 94.7224 95.9901C92.9544 95.9435 91.2139 96.4354 89.7317 97.4004C88.2495 98.3655 87.0956 99.7582 86.4229 101.394C85.1344 104.975 86.3511 109.281 90.1427 114.555L100.094 130.848C99.2582 131.265 98.5546 131.906 98.0618 132.7C97.569 133.494 97.3064 134.409 97.3034 135.343V140.397H21.8347C21.4752 140.35 21.1098 140.381 20.7629 140.486C20.4159 140.592 20.0955 140.77 19.823 141.009C19.5505 141.249 19.3322 141.543 19.1826 141.873C19.0331 142.204 18.9557 142.562 18.9557 142.925C18.9557 143.287 19.0331 143.646 19.1826 143.976C19.3322 144.306 19.5505 144.601 19.823 144.84C20.0955 145.08 20.4159 145.258 20.7629 145.363C21.1098 145.469 21.4752 145.499 21.8347 145.452H190.463C190.823 145.499 191.188 145.469 191.535 145.363C191.882 145.258 192.202 145.08 192.475 144.84C192.747 144.601 192.966 144.306 193.115 143.976C193.265 143.646 193.342 143.287 193.342 142.925C193.342 142.562 193.265 142.204 193.115 141.873C192.966 141.543 192.747 141.249 192.475 141.009C192.202 140.77 191.882 140.592 191.535 140.486C191.188 140.381 190.823 140.35 190.463 140.397ZM94.3545 111.754C92.7719 109.163 88.2483 103.605 92.7565 101.507C95.1042 100.415 97.5366 101.631 99.3451 103.275C100.073 103.946 100.745 104.674 101.355 105.453C101.52 105.655 101.742 105.801 101.992 105.873C102.242 105.945 102.509 105.938 102.755 105.854C103.002 105.771 103.217 105.613 103.371 105.404C103.526 105.194 103.612 104.942 103.62 104.682V77.2136C103.589 75.2513 104.608 73.4501 106.684 73.4228L106.725 73.4226C108.775 73.4226 109.912 75.2669 109.937 77.2136V92.7244C109.937 92.7244 109.954 93.044 109.991 93.044C109.999 93.044 110.008 93.0279 110.019 92.9883C110.04 92.907 110.065 92.8262 110.094 92.7459C110.489 91.8885 111.11 91.1546 111.89 90.6229C112.671 90.0913 113.581 89.7818 114.523 89.7275L114.573 89.7272C115.534 89.7019 116.466 90.0551 117.168 90.7106C117.871 91.3661 118.288 92.2714 118.329 93.2314L118.358 95.9393C118.358 95.9393 118.378 96.0545 118.415 96.0545C118.436 96.0545 118.461 96.0198 118.491 95.9118C118.723 95.1436 119.197 94.471 119.843 93.9943C120.489 93.5176 121.271 93.2623 122.073 93.2665L122.13 93.2661C123.09 93.2425 124.022 93.5964 124.724 94.2517C125.427 94.907 125.844 95.8116 125.887 96.7713L126.162 99.7049C126.162 99.7049 126.196 99.8065 126.23 99.8065C126.246 99.8065 126.262 99.7838 126.274 99.7169C126.446 98.8775 126.905 98.1241 127.571 97.5848C128.237 97.0456 129.069 96.754 129.926 96.7596L129.978 96.7593C130.938 96.7351 131.869 97.0884 132.572 97.7432C133.274 98.3981 133.692 99.3023 133.735 100.262L133.927 113.063L133.943 111.333C133.976 117.717 133.237 124.082 131.741 130.288H105.675L94.3545 111.754ZM102.358 135.343H135.214V140.397H102.358V135.343Z" fill="#ADBDCB"/>
    </g>
    <defs>
        <clipPath id="clip0_2_8181">
            <rect width="212.298" height="145.744" fill="white" transform="translate(0 0.181641)"/>
        </clipPath>
    </defs>
</svg>
